<svg width="512" height="512" viewBox="0 0 512 512" fill="none" xmlns="http://www.w3.org/2000/svg">
<path d="M320.969 7.5H41.5781C34.3555 7.5 28.5 13.3555 28.5 20.5781V456.68C28.5 463.902 34.3555 469.762 41.5781 469.762H320.969C328.191 469.762 334.047 463.902 334.047 456.68V20.5781C334.047 13.3555 328.191 7.5 320.969 7.5Z" fill="#E9E9EA"/>
<path d="M320.969 7.5H295.969C303.191 7.5 309.047 13.3555 309.047 20.5781V456.68C309.047 463.902 303.191 469.762 295.969 469.762H320.969C328.191 469.762 334.047 463.902 334.047 456.68V20.5781C334.047 13.3555 328.191 7.5 320.969 7.5V7.5Z" fill="#E9E9EA"/>
<path d="M54.0117 469.762V502.5C54.0117 503.605 54.9062 504.5 56.0117 504.5H80.8633C81.9688 504.5 82.8633 503.605 82.8633 502.5V497.195C82.8633 496.094 83.7578 495.195 84.8633 495.195H277.684C278.789 495.195 279.684 496.094 279.684 497.195V502.5C279.684 503.605 280.578 504.5 281.684 504.5H306.535C307.641 504.5 308.535 503.605 308.535 502.5V469.762H54.0117Z" fill="#575B7A"/>
<path d="M28.5 149.297V192H88.2422C89.3047 192 90.3203 191.578 91.0703 190.828L109.062 172.84C109.812 172.09 110.828 171.664 111.891 171.664H334.047V149.297H28.5Z" fill="#575B7A"/>
<path d="M309.047 149.297H334.047V171.664H309.047V149.297Z" fill="#252D4C"/>
<path d="M465.652 296.051H163.883C154.137 296.051 146.234 303.953 146.234 313.699V486.852C146.234 496.598 154.137 504.5 163.883 504.5H465.652C475.402 504.5 483.301 496.598 483.301 486.852V313.699C483.301 303.953 475.398 296.051 465.652 296.051Z" fill="#575B7A"/>
<path d="M465.652 296.051H439.352C449.098 296.051 457 303.953 457 313.699V486.852C457 496.598 449.098 504.5 439.352 504.5H465.652C475.398 504.5 483.301 496.598 483.301 486.852V313.699C483.301 303.953 475.398 296.051 465.652 296.051Z" fill="#575B7A"/>
<path d="M383.945 298H163.648C153.902 298 146 305.902 146 315.648V488.801C146 498.547 153.902 506.449 163.648 506.449H383.945V298Z" fill="#5692D8"/>
<path d="M168.145 478.59V321.961C168.145 319.754 169.938 317.961 172.145 317.961H358.266C360.477 317.961 362.266 319.754 362.266 321.961V478.59C362.266 480.797 360.477 482.59 358.266 482.59H172.145C169.938 482.59 168.145 480.801 168.145 478.59V478.59Z" fill="#C8E7F7"/>
<path d="M451 363.211C451 372.746 443.273 380.473 433.738 380.473C424.207 380.473 416.48 372.746 416.48 363.211C416.48 353.68 424.207 345.953 433.738 345.953C443.273 345.953 451 353.68 451 363.211Z" fill="#AED559"/>
<path d="M79.5898 117.793V75.2539C79.5898 71.1094 76.2305 67.7539 72.0898 67.7539C67.9453 67.7539 64.5898 71.1094 64.5898 75.2539V117.793C64.5898 121.937 67.9453 125.293 72.0898 125.293C76.2305 125.293 79.5898 121.937 79.5898 117.793Z" fill="black"/>
<path d="M72.0898 211.281C67.9453 211.281 64.5898 214.637 64.5898 218.781V261.32C64.5898 265.465 67.9453 268.82 72.0898 268.82C76.2305 268.82 79.5898 265.465 79.5898 261.32V218.781C79.5898 214.641 76.2305 211.281 72.0898 211.281Z" fill="black"/>
<path d="M483.301 355.715C487.445 355.715 490.801 352.355 490.801 348.215V313.699C490.801 299.836 479.52 288.555 465.652 288.555H384.258C384.231 288.555 384.203 288.551 384.18 288.551H341.551V20.5781C341.551 9.23047 332.316 0 320.973 0H41.582C30.2344 0 21 9.23047 21 20.5781V82.75C21 86.8945 21 179.297 28.5 140C36 164.297 36 64.3945 36 60.25V20.5781C36 17.5039 38.5039 15 41.582 15H320.973C324.047 15 326.551 17.5039 326.551 20.5781V141.797H36V90.25C36 86.1055 31.1445 88.5 27 88.5C22.8594 88.5 21 86.1055 21 90.25V149.219V149.297V192V192.078V456.68C21 468.027 30.2344 477.262 41.582 477.262H46.5117V502.5C46.5117 507.738 50.7734 512 56.0117 512H80.8633C86.0352 512 90.2578 507.844 90.3594 502.695L163.883 502.5C168.027 502.5 144.5 498.145 144.5 494C144.5 489.859 154.145 487.695 150 487.695H84.8633C79.6914 487.695 75.4687 491.852 75.3633 497H61.5117V477.262H138.734V486.852C138.734 500.719 150.016 512 163.883 512H465.652C479.52 512 490.801 500.719 490.801 486.852V334C490.801 329.859 487.445 348.215 483.301 348.215C479.16 348.215 475.801 336.359 475.801 340.5V486.852C475.801 492.449 471.25 497 465.652 497H391.68V303.555H465.652C471.25 303.555 475.801 308.105 475.801 313.699V340.5C475.801 344.641 479.16 355.715 483.301 355.715ZM326.547 156.797V164.164H111.891C108.82 164.164 105.934 165.359 103.758 167.535L86.793 184.5H36V156.797H326.547ZM41.582 462.262C38.5039 462.262 36 459.758 36 456.68V199.5H88.2422C91.3164 199.5 94.2031 198.305 96.375 196.133L113.34 179.164H326.551V288.551H163.883C150.992 288.551 140.336 298.305 138.898 310.816C138.789 311.766 138.734 312.727 138.734 313.703V462.262H41.582ZM376.68 497H163.883C158.285 497 153.734 492.445 153.734 486.852V313.703C153.734 308.105 158.289 303.555 163.883 303.555H376.68V497Z" fill="black"/>
<path d="M160.645 478.59C160.645 484.93 165.805 490.09 172.145 490.09H358.266C364.609 490.09 369.766 484.93 369.766 478.59V321.961C369.766 315.621 364.609 310.461 358.266 310.461H221.32C217.18 310.461 218 319.359 218 323.5C218 327.645 217.18 325.461 221.32 325.461H354.766V475.09H175.645V325.461H221.32C225.461 325.461 224.5 322.105 224.5 317.961C247 310.461 245.5 310.461 191.32 310.461H172.145C165.805 310.461 160.645 315.621 160.645 321.961V478.59Z" fill="black"/>
<path d="M458.5 363.211C458.5 349.559 447.395 338.449 433.738 338.449C420.086 338.449 408.98 349.559 408.98 363.211C408.98 376.863 420.086 387.973 433.738 387.973C447.395 387.973 458.5 376.863 458.5 363.211V363.211ZM423.98 363.211C423.98 357.828 428.359 353.449 433.738 353.449C439.121 353.449 443.5 357.828 443.5 363.211C443.5 368.594 439.121 372.973 433.738 372.973C428.359 372.973 423.98 368.594 423.98 363.211V363.211Z" fill="black"/>
<path d="M421.535 408.48H414.137C409.996 408.48 406.637 411.836 406.637 415.98C406.637 420.121 409.996 423.48 414.137 423.48H421.535C425.676 423.48 429.035 420.121 429.035 415.98C429.035 411.836 425.676 408.48 421.535 408.48Z" fill="black"/>
<path d="M453.344 408.48H445.945C441.805 408.48 438.445 411.836 438.445 415.98C438.445 420.121 441.805 423.48 445.945 423.48H453.344C457.484 423.48 460.844 420.121 460.844 415.98C460.844 411.836 457.484 408.48 453.344 408.48Z" fill="black"/>
<path d="M421.535 437.082H414.137C409.996 437.082 406.637 440.438 406.637 444.582C406.637 448.727 409.996 452.082 414.137 452.082H421.535C425.676 452.082 429.035 448.727 429.035 444.582C429.035 440.438 425.676 437.082 421.535 437.082Z" fill="black"/>
<path d="M453.344 437.082H445.945C441.805 437.082 438.445 440.438 438.445 444.582C438.445 448.727 441.805 452.082 445.945 452.082H453.344C457.484 452.082 460.844 448.727 460.844 444.582C460.844 440.438 457.484 437.082 453.344 437.082Z" fill="black"/>
</svg>
