<svg width="512" height="512" viewBox="0 0 512 512" fill="none" xmlns="http://www.w3.org/2000/svg">
<g clip-path="url(#clip0)">
<path d="M418.2 81.2C421.624 81.2 424.4 78.4242 424.4 75C424.4 71.5758 421.624 68.8 418.2 68.8C414.776 68.8 412 71.5758 412 75C412 78.4242 414.776 81.2 418.2 81.2Z" fill="#AED559"/>
<path d="M392.2 417.2C395.624 417.2 398.4 414.424 398.4 411C398.4 407.576 395.624 404.8 392.2 404.8C388.776 404.8 386 407.576 386 411C386 414.424 388.776 417.2 392.2 417.2Z" fill="#70D6F9"/>
<path d="M206.2 443.2C209.624 443.2 212.4 440.424 212.4 437C212.4 433.576 209.624 430.8 206.2 430.8C202.776 430.8 200 433.576 200 437C200 440.424 202.776 443.2 206.2 443.2Z" fill="#F5C84C"/>
<path d="M487.6 99.6C479.6 98.2 473.2 92 471.6 84C471.6 83.8 471.4 83.6 471.2 83.8C471 83.8 471 84 471 84C469.4 92 463 98.2 455 99.6C454.8 99.6 454.6 99.8 454.6 100C454.6 100.2 454.8 100.2 455 100.4C463 101.8 469.4 108 471 116C471 116.2 471.2 116.4 471.4 116.2C471.6 116.2 471.6 116 471.6 116C473.2 108 479.6 101.8 487.6 100.4C487.8 100.4 488 100.2 488 100C488 99.6 487.8 99.6 487.6 99.6Z" fill="#F5C84C"/>
<path d="M62.8 177.8H17.2C10.4 177.8 5 183.2 5 190V349.4C5 356.2 10.4 361.6 17.2 361.8H75V190.2C75 183.4 69.6 178 62.8 177.8Z" fill="#575B7A"/>
<path d="M494.8 178.8H449.4C442.6 178.8 437.2 184.2 437.2 191V362H495C501.8 362 507.2 357.4 507.2 350.6V191.2C507 184.4 501.6 179 494.8 178.8V178.8Z" fill="#575B7A"/>
<path d="M75 305.2V362H437V305.2C437 298.4 431.6 293 424.8 293H87.2C80.4 293 75 298.4 75 305.2Z" fill="#575B7A"/>
<path d="M423.8 252.8H268.4C261.6 252.8 256.2 258.2 256.2 265V292.8H425C431.8 292.8 437.2 298.2 437.2 305V265C437 258.4 430.4 252.8 423.8 252.8Z" fill="#575B7A"/>
<path d="M87.2 292.8H256V265C256 258.2 250.6 252.8 243.8 252.8H88.2C81.4 252.8 75 258.4 75 265V305C75 298.4 80.4 293 87.2 292.8Z" fill="#575B7A"/>
<path d="M406.4 112.8H286.4C269.6 112.8 256 126.4 255.8 143.4V265.2C255.8 258.4 261.2 253 268 253H423.4C430.2 253 436.6 258.6 436.6 265.2V143.4C437 126.6 423.4 113 406.4 112.8Z" fill="#575B7A"/>
<path d="M225.4 112.8H106.6C89.2 112.8 75.2 127 75 144.4V265.2C75 258.4 81.6 253 88.2 253H243.6C250.4 253 255.8 258.4 255.8 265.2V143.4C256 126.6 242.4 113 225.4 112.8Z" fill="#575B7A"/>
<path d="M437 362H22.4V367.6C22.4 376.4 29.4 383.4 38.2 383.4H474C482.8 383.4 489.8 376.4 489.8 367.6V362H437Z" fill="#5692D8"/>
<path d="M458.4 383.4H433.6L453.6 418C456.6 423.2 463.2 425 468.4 422C473.6 419 475.4 412.4 472.4 407.2L458.4 383.4Z" fill="#5692D8"/>
<path d="M53.6 383.4L39.8 407.2C36.8 412.4 38.6 419 43.8 422C49 425 55.6 423.2 58.6 418L78.6 383.4H53.6Z" fill="#5692D8"/>
<path d="M310.4 168C315.371 168 319.4 163.971 319.4 159C319.4 154.029 315.371 150 310.4 150C305.429 150 301.4 154.029 301.4 159C301.4 163.971 305.429 168 310.4 168Z" fill="#5290DB"/>
<path d="M310.4 228C315.371 228 319.4 223.971 319.4 219C319.4 214.029 315.371 210 310.4 210C305.429 210 301.4 214.029 301.4 219C301.4 223.971 305.429 228 310.4 228Z" fill="#5290DB"/>
<path d="M382.4 168C387.371 168 391.4 163.971 391.4 159C391.4 154.029 387.371 150 382.4 150C377.429 150 373.4 154.029 373.4 159C373.4 163.971 377.429 168 382.4 168Z" fill="#5290DB"/>
<path d="M346.4 198C351.371 198 355.4 193.971 355.4 189C355.4 184.029 351.371 180 346.4 180C341.429 180 337.4 184.029 337.4 189C337.4 193.971 341.429 198 346.4 198Z" fill="#5290DB"/>
<path d="M382.4 228C387.371 228 391.4 223.971 391.4 219C391.4 214.029 387.371 210 382.4 210C377.429 210 373.4 214.029 373.4 219C373.4 223.971 377.429 228 382.4 228Z" fill="#5290DB"/>
<path d="M129.6 168C134.571 168 138.6 163.971 138.6 159C138.6 154.029 134.571 150 129.6 150C124.629 150 120.6 154.029 120.6 159C120.6 163.971 124.629 168 129.6 168Z" fill="#5290DB"/>
<path d="M129.6 228C134.571 228 138.6 223.971 138.6 219C138.6 214.029 134.571 210 129.6 210C124.629 210 120.6 214.029 120.6 219C120.6 223.971 124.629 228 129.6 228Z" fill="#5290DB"/>
<path d="M201.6 168C206.571 168 210.6 163.971 210.6 159C210.6 154.029 206.571 150 201.6 150C196.629 150 192.6 154.029 192.6 159C192.6 163.971 196.629 168 201.6 168Z" fill="#5290DB"/>
<path d="M165.6 198C170.571 198 174.6 193.971 174.6 189C174.6 184.029 170.571 180 165.6 180C160.629 180 156.6 184.029 156.6 189C156.6 193.971 160.629 198 165.6 198Z" fill="#5290DB"/>
<path d="M201.6 228C206.571 228 210.6 223.971 210.6 219C210.6 214.029 206.571 210 201.6 210C196.629 210 192.6 214.029 192.6 219C192.6 223.971 196.629 228 201.6 228Z" fill="#5290DB"/>
<path d="M494.8 173.8H449.4C446.8 173.8 444.4 174.4 442.2 175.4V143.4C442.2 123.8 426.2 107.8 406.6 107.8H286.6C274 107.8 262.4 114.4 256 125.2C249.6 114.4 238 107.8 225.4 107.8H106.6C86.4 108 70 124.2 70 144.4V174.6C67.8 173.6 65.2 173 62.8 173H17.2C7.6 173 0 180.8 0 190.2V349.6C0 359.2 7.8 367 17.2 367V367.6C17.2 379.2 26.6 388.4 38 388.4H44.8L35.4 404.8C31 412.4 33.6 422 41.2 426.4C48.8 430.8 58.4 428.2 62.8 420.6L81.4 388.4H430.8L449.4 420.6C453.8 428.2 463.4 430.8 471 426.4C478.6 422 481.2 412.4 476.8 404.8L467.4 388.4H474.2C485.8 388.4 495 379 495 367.6V367C504.8 367 512.2 360 512.2 350.6V191.2C512 181.6 504.2 174 494.8 173.8ZM80 357V305.2C80 301.2 83.2 298 87.2 298H424.6C428.6 298 431.8 301.2 431.8 305.2V357H80ZM432 289.4C429.8 288.4 427.2 287.8 424.8 287.8H261V265C261 261 264.2 257.8 268.2 257.8H423.6C427.8 257.8 431.8 261.4 431.8 265L432 289.4ZM251 287.8H87.2C84.6 287.8 82.2 288.4 80 289.4V265C80 261.2 84 257.8 88.2 257.8H243.6C247.6 257.8 250.8 261 250.8 265L251 287.8ZM286.6 117.8H406.6C420.6 117.8 432.2 129.2 432.2 143.4V249.8C429.6 248.6 426.8 247.8 424 247.8H268.6C266 247.8 263.6 248.4 261.4 249.4V143.4C261 129.4 272.4 118 286.6 117.8ZM80 144.4C80 129.8 91.8 117.8 106.6 117.8H225.6C239.6 117.8 251.2 129.2 251.2 143.4V249.4C249 248.4 246.4 247.8 244 247.8H88.2C85.4 247.8 82.6 248.6 80 249.8V144.4ZM10 349.6V190.2C10 186.2 13.2 183 17.2 183H62.6C66.6 183 69.8 186.2 69.8 190.2V357H17.2C13.2 357 10 353.6 10 349.6ZM54 415.6C52.4 418.4 48.8 419.2 46.2 417.6C43.4 416 42.6 412.6 44 409.8L56.4 388.4H69.8L54 415.6ZM468 409.8C469.6 412.6 468.6 416 465.8 417.6C463 419.2 459.6 418.2 458 415.4L442.4 388.2H455.8L468 409.8ZM484.6 367.6C484.6 373.6 479.8 378.4 473.8 378.4H38.2C32.2 378.4 27.4 373.6 27.4 367.6V367H484.8V367.6H484.6ZM502 350.6C502 355 498.2 357 494.8 357H442V191.2C442 187.2 445.2 184 449.2 184H494.6C498.6 184 501.8 187.2 501.8 191.2V350.6H502Z" fill="black"/>
<path d="M310.4 173C318.2 173 324.4 166.8 324.4 159C324.4 151.2 318.2 145 310.4 145C302.6 145 296.4 151.2 296.4 159C296.6 166.8 302.8 173 310.4 173ZM310.4 155C312.6 155 314.4 156.8 314.4 159C314.4 161.2 312.6 163 310.4 163C308.2 163 306.4 161.2 306.4 159C306.6 156.8 308.2 155 310.4 155Z" fill="black"/>
<path d="M310.4 233C318.2 233 324.4 226.8 324.4 219C324.4 211.2 318.2 205 310.4 205C302.6 205 296.4 211.2 296.4 219C296.6 226.8 302.8 233 310.4 233ZM310.4 215C312.6 215 314.4 216.8 314.4 219C314.4 221.2 312.6 223 310.4 223C308.2 223 306.4 221.2 306.4 219C306.6 216.8 308.2 215 310.4 215Z" fill="black"/>
<path d="M382.4 173C390.2 173 396.4 166.8 396.4 159C396.4 151.2 390.2 145 382.4 145C374.6 145 368.4 151.2 368.4 159C368.6 166.8 374.8 173 382.4 173ZM382.4 155C384.6 155 386.4 156.8 386.4 159C386.4 161.2 384.6 163 382.4 163C380.2 163 378.4 161.2 378.4 159C378.6 156.8 380.2 155 382.4 155Z" fill="black"/>
<path d="M346.4 203C354.2 203 360.4 196.8 360.4 189C360.4 181.2 354.2 175 346.4 175C338.6 175 332.4 181.2 332.4 189C332.6 196.8 338.8 203 346.4 203ZM346.4 185C348.6 185 350.4 186.8 350.4 189C350.4 191.2 348.6 193 346.4 193C344.2 193 342.4 191.2 342.4 189C342.6 186.8 344.2 185 346.4 185Z" fill="black"/>
<path d="M382.4 233C390.2 233 396.4 226.8 396.4 219C396.4 211.2 390.2 205 382.4 205C374.6 205 368.4 211.2 368.4 219C368.6 226.8 374.8 233 382.4 233ZM382.4 215C384.6 215 386.4 216.8 386.4 219C386.4 221.2 384.6 223 382.4 223C380.2 223 378.4 221.2 378.4 219C378.6 216.8 380.2 215 382.4 215Z" fill="black"/>
<path d="M129.6 173C137.4 173 143.6 166.8 143.6 159C143.6 151.2 137.4 145 129.6 145C121.8 145 115.6 151.2 115.6 159C115.6 166.8 121.8 173 129.6 173ZM129.6 155C131.8 155 133.6 156.8 133.6 159C133.6 161.2 131.8 163 129.6 163C127.4 163 125.6 161.2 125.6 159C125.6 156.8 127.2 155 129.6 155Z" fill="black"/>
<path d="M129.6 233C137.4 233 143.6 226.8 143.6 219C143.6 211.2 137.4 205 129.6 205C121.8 205 115.6 211.2 115.6 219C115.6 226.8 121.8 233 129.6 233ZM129.6 215C131.8 215 133.6 216.8 133.6 219C133.6 221.2 131.8 223 129.6 223C127.4 223 125.6 221.2 125.6 219C125.6 216.8 127.2 215 129.6 215Z" fill="black"/>
<path d="M201.6 173C209.4 173 215.6 166.8 215.6 159C215.6 151.2 209.4 145 201.6 145C193.8 145 187.6 151.2 187.6 159C187.6 166.8 193.8 173 201.6 173ZM201.6 155C203.8 155 205.6 156.8 205.6 159C205.6 161.2 203.8 163 201.6 163C199.4 163 197.6 161.2 197.6 159C197.6 156.8 199.2 155 201.6 155Z" fill="black"/>
<path d="M165.6 203C173.4 203 179.6 196.8 179.6 189C179.6 181.2 173.4 175 165.6 175C157.8 175 151.6 181.2 151.6 189C151.6 196.8 157.8 203 165.6 203ZM165.6 185C167.8 185 169.6 186.8 169.6 189C169.6 191.2 167.8 193 165.6 193C163.4 193 161.6 191.2 161.6 189C161.6 186.8 163.2 185 165.6 185Z" fill="black"/>
<path d="M201.6 233C209.4 233 215.6 226.8 215.6 219C215.6 211.2 209.4 205 201.6 205C193.8 205 187.6 211.2 187.6 219C187.6 226.8 193.8 233 201.6 233ZM201.6 215C203.8 215 205.6 216.8 205.6 219C205.6 221.2 203.8 223 201.6 223C199.4 223 197.6 221.2 197.6 219C197.6 216.8 199.2 215 201.6 215Z" fill="black"/>
</g>
<defs>
<clipPath id="clip0">
<rect width="512" height="512" fill="white"/>
</clipPath>
</defs>
</svg>
