<svg width="512" height="512" viewBox="0 0 512 512" fill="none" xmlns="http://www.w3.org/2000/svg">
<path d="M128 408C154.48 408 176 429.52 176 456C176 482.48 154.48 504 128 504C101.52 504 80 482.48 80 456C80 429.52 101.52 408 128 408ZM144 456C144 447.2 136.8 440 128 440C119.2 440 112 447.2 112 456C112 464.8 119.2 472 128 472C136.8 472 144 464.8 144 456Z" fill="#656D78"/>
<path d="M128 440C136.8 440 144 447.2 144 456C144 464.8 136.8 472 128 472C119.2 472 112 464.8 112 456C112 447.2 119.2 440 128 440Z" fill="#E9E9EA"/>
<path d="M392 440C400.8 440 408 447.2 408 456C408 464.8 400.8 472 392 472C383.2 472 376 464.8 376 456C376 447.2 383.2 440 392 440Z" fill="#E9E9EA"/>
<path d="M344 456C344 429.52 365.52 408 392 408C418.48 408 440 429.52 440 456C440 482.48 418.48 504 392 504C365.52 504 344 482.48 344 456ZM408 456C408 447.2 400.8 440 392 440C383.2 440 376 447.2 376 456C376 464.8 383.2 472 392 472C400.8 472 408 464.8 408 456Z" fill="#656D78"/>
<path d="M504 418.031V450.836H440C440 423.69 418.48 401.629 392 401.629C365.52 401.629 344 423.69 344 450.836H176C176 423.69 154.48 401.629 128 401.629C101.52 401.629 80 423.69 80 450.836L24 451V418.031H8V311.415H40H160H208H328V213H368V286.811C368 304.936 382.32 319.616 400 319.616H496V377.025V418.031H504Z" fill="#575B7A"/>
<path d="M448 197L496 328H400C382.32 328 368 309.962 368 287.692V197H448Z" fill="#5692D8"/>
<path d="M496 424V384V328H464V384V456H504V424H496Z" fill="#575B7A"/>
<path d="M496 328L448 197H416L464 328H496Z" fill="#5692D8"/>
<path d="M280 237H58V320H280V237Z" fill="#AED559"/>
<path d="M508.787 432H499.213C497.436 432 496 428.424 496 424C496 419.576 497.436 416 499.213 416H508.787C510.564 416 512 419.576 512 424C512 428.424 510.564 432 508.787 432Z" fill="black"/>
<path d="M504 464C499.576 464 496 460.424 496 456V424C496 419.576 499.576 416 504 416C508.424 416 512 419.576 512 424V456C512 460.424 508.424 464 504 464Z" fill="black"/>
<path d="M24 464.168C19.592 464.168 16.016 460.608 16 456.192C15.984 451.768 19.552 448.184 23.976 448.168L79.976 448C79.984 448 79.992 448 80 448C84.408 448 87.984 451.56 88 455.976C88.016 460.4 84.448 463.984 80.024 464L24.024 464.168C24.016 464.168 24.008 464.168 24 464.168Z" fill="black"/>
<path d="M498.667 392H493.333C490.384 392 488 388.424 488 384C488 379.576 490.384 376 493.333 376H498.667C501.616 376 504 379.576 504 384C504 388.424 501.616 392 498.667 392Z" fill="black"/>
<path d="M496 432C491.576 432 488 428.424 488 424V328C488 323.576 491.576 320 496 320C500.424 320 504 323.576 504 328V424C504 428.424 500.424 432 496 432Z" fill="black"/>
<path d="M494.508 332C490.917 332 487.479 329.836 485.873 326.151L428.875 195.286C426.681 190.243 428.752 184.253 433.521 181.928C438.299 179.602 443.932 181.797 446.127 186.85L503.124 317.716C505.319 322.759 503.248 328.749 498.479 331.074C497.187 331.708 495.838 332 494.508 332Z" fill="black"/>
<path d="M24 464.504C19.576 464.504 16 460.928 16 456.504V424C16 419.576 19.576 416 24 416C28.424 416 32 419.576 32 424V456.504C32 460.92 28.424 464.504 24 464.504Z" fill="black"/>
<path d="M8 432C3.576 432 0 428.424 0 424V320C0 315.576 3.576 312 8 312C12.424 312 16 315.576 16 320V424C16 428.424 12.424 432 8 432Z" fill="black"/>
<path d="M31 433L4.57143 432C2.04343 432 0 428.424 0 424C0 419.576 2.04343 416 4.57143 416H23.5C25.0714 422.5 30 416 32 424C31.5 428.5 31.5 431 31 433Z" fill="black"/>
<path d="M128 512C97.128 512 72 486.872 72 456C72 425.128 97.128 400 128 400C158.872 400 184 425.128 184 456C184 486.872 158.872 512 128 512ZM128 416C105.944 416 88 433.944 88 456C88 478.056 105.944 496 128 496C150.056 496 168 478.056 168 456C168 433.944 150.056 416 128 416Z" fill="black"/>
<path d="M128 480C114.768 480 104 469.232 104 456C104 442.768 114.768 432 128 432C141.232 432 152 442.768 152 456C152 469.232 141.232 480 128 480ZM128 448C123.584 448 120 451.584 120 456C120 460.416 123.584 464 128 464C132.416 464 136 460.416 136 456C136 451.584 132.416 448 128 448Z" fill="black"/>
<path d="M392 480C378.768 480 368 469.232 368 456C368 442.768 378.768 432 392 432C405.232 432 416 442.768 416 456C416 469.232 405.232 480 392 480ZM392 448C387.584 448 384 451.584 384 456C384 460.416 387.584 464 392 464C396.416 464 400 460.416 400 456C400 451.584 396.416 448 392 448Z" fill="black"/>
<path d="M392 512C361.128 512 336 486.872 336 456C336 425.128 361.128 400 392 400C422.872 400 448 425.128 448 456C448 486.872 422.872 512 392 512ZM392 416C369.944 416 352 433.944 352 456C352 478.056 369.944 496 392 496C414.056 496 432 478.056 432 456C432 433.944 414.056 416 392 416Z" fill="black"/>
<path d="M344.2 464H176C171.576 464 168 460.424 168 456C168 451.576 171.576 448 176 448H344.2C348.624 448 352.2 451.576 352.2 456C352.2 460.424 348.624 464 344.2 464Z" fill="black"/>
<path d="M504 464H440C435.576 464 432 460.424 432 456C432 451.576 435.576 448 440 448H504C508.424 448 512 451.576 512 456C512 460.424 508.424 464 504 464Z" fill="black"/>
<path d="M496 336H400C395.576 336 392 332.424 392 328C392 323.576 395.576 320 400 320H496C500.424 320 504 323.576 504 328C504 332.424 500.424 336 496 336Z" fill="black"/>
<path d="M400 336C377.944 336 360 318.056 360 296C360 291.576 363.576 288 368 288C372.424 288 376 291.576 376 296C376 309.232 386.768 320 400 320C404.424 320 408 323.576 408 328C408 332.424 404.424 336 400 336Z" fill="black"/>
<path d="M288 328C283.576 328 280 324.935 280 321.143V238.857C280 235.065 283.576 232 288 232C292.424 232 296 235.065 296 238.857V321.143C296 324.935 292.424 328 288 328Z" fill="black"/>
<path d="M50 328C45.576 328 42 324.935 42 321.143V238.857C42 235.065 45.576 232 50 232C54.424 232 58 235.065 58 238.857V321.143C58 324.935 54.424 328 50 328Z" fill="black"/>
<path d="M328 328H8C3.576 328 0 324.424 0 320C0 315.576 3.576 312 8 312H328C332.424 312 336 315.576 336 320C336 324.424 332.424 328 328 328Z" fill="black"/>
<path d="M278.269 248H59.9062C42.4883 248 43.7914 244.424 43.7914 240C47.2693 245 35.3513 232 52.7693 232H289.269C299.769 240 289.269 240 295.769 240C295.769 244.424 295.687 248 278.269 248Z" fill="black"/>
<path d="M93 232H108V312H93V232Z" fill="#E9E9EA"/>
<path d="M233 232H248V312H233V232Z" fill="#E9E9EA"/>
<rect x="331" y="192" width="35" height="31" fill="#575B7A"/>
<path d="M436.706 197H327.294C323.26 197 320 193.424 320 189C320 184.576 323.26 181 327.294 181H436.706C440.74 181 444 184.576 444 189C444 193.424 440.74 197 436.706 197Z" fill="black"/>
<path d="M328 328C323.576 328 320 324.542 320 320.263V188.737C320 184.458 323.576 181 328 181C332.424 181 336 184.458 336 188.737V320.263C336 324.542 332.424 328 328 328Z" fill="black"/>
<path d="M368 304C363.576 304 360 299.286 360 293.455V198.545C360 192.714 363.576 188 368 188C372.424 188 376 192.714 376 198.545V293.455C376 299.286 372.424 304 368 304Z" fill="black"/>
</svg>
