<svg height="512pt" viewBox="-63 0 511 512" width="512pt" xmlns="http://www.w3.org/2000/svg"><path d="m288.570312 86.878906v1.121094l-32 16-16-15.921875 15.921876-16.078125zm0 0" fill="#e6e9ed"/><path d="m184.570312 104.160156h-72c-8.878906 0-16.078124-7.191406-16.078124-16.082031 0-8.871094 7.191406-16.078125 16.078124-16.078125h72zm0 0" fill="#656d78"/><path d="m96.570312 287.921875h32.160157v24h-32.160157zm0 0" fill="#e6e9ed"/><path d="m96.570312 247.921875v40h-16c-8.878906 0-16-7.128906-16-16v-48c0-8.808594 7.121094-16 16-16 8.800782 0 16 7.191406 16 16zm0 0" fill="#545c66"/><path d="m288.492188 247.921875h-191.921876v-48c.082032-17.769531 14.320313-32.082031 32.082032-32.082031l127.839844.082031c17.761718 0 32 14.316406 32 32zm0 0" fill="#434a54"/><path d="m320.492188 223.921875v48c0 8.871094-7.128907 16-16 16h-16v-64c0-8.808594 7.191406-16 16-16 8.871093 0 16 7.199219 16 16zm0 0" fill="#545c66"/><path d="m256.652344 287.921875h31.839844v24h-31.839844zm0 0" fill="#e6e9ed"/><path d="m288.492188 247.921875v40h-191.921876v-40zm0 0" fill="#656d78"/><path d="m344.492188 472h32.078124v32h-32.078124zm0 0" fill="#8cc152"/><path d="m344.492188 472v32h-320c-8.808594 0-16-7.199219-16-16s7.191406-16 16-16zm0 0" fill="#e6e9ed"/><path d="m184.570312 88.078125v-16.078125h-72c-8.878906 0-16.078124 7.199219-16.078124 16.078125 0 8.882813 7.191406 16.082031 16.078124 16.082031h72zm72 15.921875 32-16v-1.121094l-32.078124-14.878906-15.921876 16.078125zm-232.078124 368c-8.808594 0-16 7.199219-16 16v-464c0-8.800781 7.191406-16 16-16h352.078124v464zm72.078124-160.078125h32.160157v-24h127.921875v24h31.839844v-24h16c8.871093 0 16-7.128906 16-16v-48c0-8.808594-7.128907-16-16-16-8.808594 0-16 7.191406-16 16v-24c0-17.683594-14.238282-32-32-32l-127.839844-.082031c-17.761719 0-32 14.3125-32.082032 32.082031v24c0-8.808594-7.199218-16-16-16-8.878906 0-16 7.191406-16 16v48c0 8.871094 7.121094 16 16 16h16zm0 0" fill="#a0d468"/><path d="m24.5 512c-13.230469 0-24-10.769531-24-24s10.769531-24 24-24c4.425781 0 8 3.574219 8 8s-3.574219 8-8 8c-4.414062 0-8 3.585938-8 8s3.585938 8 8 8c4.425781 0 8 3.574219 8 8s-3.574219 8-8 8zm0 0"/><path d="m8.5 32c-4.425781 0-8-3.574219-8-8 0-13.230469 10.769531-24 24-24 4.425781 0 8 3.574219 8 8s-3.574219 8-8 8c-4.414062 0-8 3.585938-8 8 0 4.425781-3.574219 8-8 8zm0 0"/><path d="m8.5 496c-4.425781 0-8-3.574219-8-8v-464c0-4.425781 3.574219-8 8-8s8 3.574219 8 8v464c0 4.425781-3.574219 8-8 8zm0 0"/><path d="m376.5625 480h-352.0625c-4.425781 0-8-3.574219-8-8s3.574219-8 8-8h352.0625c4.425781 0 8 3.574219 8 8s-3.574219 8-8 8zm0 0"/><path d="m376.5625 512h-352.0625c-4.425781 0-8-3.574219-8-8s3.574219-8 8-8h352.0625c4.425781 0 8 3.574219 8 8s-3.574219 8-8 8zm0 0"/><path d="m376.5625 16h-352.0625c-4.425781 0-8-3.574219-8-8s3.574219-8 8-8h352.0625c4.425781 0 8 3.574219 8 8s-3.574219 8-8 8zm0 0"/><path d="m376.5625 512c-4.421875 0-8-3.574219-8-8v-496c0-4.425781 3.578125-8 8-8 4.425781 0 8 3.574219 8 8v496c0 4.425781-3.574219 8-8 8zm0 0"/><path d="m344.5 512c-4.425781 0-8-3.574219-8-8v-32c0-4.425781 3.574219-8 8-8s8 3.574219 8 8v32c0 4.425781-3.574219 8-8 8zm0 0"/><path d="m96.546875 231.929688c-4.421875 0-8-3.578126-8-8 0-4.417969-3.582031-8-8-8-4.414063 0-8 3.582031-8 8 0 4.421874-3.574219 8-8 8-4.421875 0-8-3.578126-8-8 0-13.234376 10.769531-24 24-24 13.234375 0 24 10.765624 24 24 0 4.421874-3.574219 8-8 8zm0 0"/><path d="m320.515625 231.929688c-4.421875 0-8-3.578126-8-8 0-4.417969-3.582031-8-8-8-4.414063 0-8 3.582031-8 8 0 4.421874-3.574219 8-8 8-4.421875 0-8-3.578126-8-8 0-13.234376 10.769531-24 24-24s24 10.765624 24 24c0 4.421874-3.574219 8-8 8zm0 0"/><path d="m80.546875 295.929688c-13.230469 0-24-10.769532-24-24 0-4.425782 3.578125-8 8-8 4.425781 0 8 3.574218 8 8 0 4.414062 3.585937 8 8 8 4.425781 0 8 3.574218 8 8 0 4.421874-3.574219 8-8 8zm0 0"/><path d="m304.515625 295.929688c-4.421875 0-8-3.578126-8-8 0-4.425782 3.578125-8 8-8 4.417969 0 8-3.585938 8-8 0-4.425782 3.578125-8 8-8 4.425781 0 8 3.574218 8 8 0 13.238281-10.769531 24-24 24zm0 0"/><path d="m64.546875 279.929688c-4.421875 0-8-3.578126-8-8v-48c0-4.425782 3.578125-8 8-8 4.425781 0 8 3.574218 8 8v48c0 4.421874-3.574219 8-8 8zm0 0"/><path d="m304.515625 295.929688h-223.96875c-4.421875 0-8-3.578126-8-8 0-4.425782 3.578125-8 8-8h223.96875c4.425781 0 8 3.574218 8 8 0 4.421874-3.574219 8-8 8zm0 0"/><path d="m320.515625 279.929688c-4.421875 0-8-3.578126-8-8v-48c0-4.425782 3.578125-8 8-8 4.425781 0 8 3.574218 8 8v48c0 4.421874-3.574219 8-8 8zm0 0"/><path d="m288.515625 319.953125c-4.421875 0-8-3.578125-8-8v-112.050781c0-4.421875 3.578125-8 8-8 4.425781 0 8 3.578125 8 8v112.050781c0 4.421875-3.574219 8-8 8zm0 0"/><path d="m96.546875 319.953125c-4.421875 0-8-3.578125-8-8v-112.050781c0-4.421875 3.578125-8 8-8 4.425781 0 8 3.578125 8 8v112.050781c0 4.421875-3.574219 8-8 8zm0 0"/><path d="m96.546875 207.960938c-4.421875 0-8-3.578126-8-8 0-22.128907 18-40.128907 40.128906-40.128907 4.425781 0 8 3.574219 8 8s-3.574219 8-8 8c-13.304687 0-24.128906 10.824219-24.128906 24.128907 0 4.421874-3.574219 8-8 8zm0 0"/><path d="m288.515625 207.953125c-4.421875 0-8-3.578125-8-8 0-13.234375-10.769531-24-24-24-4.421875 0-8-3.578125-8-8 0-4.425781 3.578125-8 8-8 22.054687 0 40 17.941406 40 40 0 4.421875-3.574219 8-8 8zm0 0"/><path d="m256.515625 175.953125-127.847656-.121094c-4.414063-.007812-8-3.585937-7.992188-8.007812.007813-4.417969 3.585938-7.992188 8-7.992188h.007813l127.839844.121094c4.417968.007813 8 3.582031 7.992187 8.007813-.007813 4.414062-3.582031 7.992187-8 7.992187zm0 0"/><path d="m288.515625 255.929688h-191.296875c-4.421875 0-8-3.578126-8-8 0-4.425782 3.578125-8 8-8h191.296875c4.425781 0 8 3.574218 8 8 0 4.421874-3.574219 8-8 8zm0 0"/><path d="m128.691406 319.929688c-4.421875 0-8-3.578126-8-8v-23.992188c0-4.425781 3.578125-8 8-8 4.425782 0 8 3.574219 8 8v23.992188c0 4.421874-3.582031 8-8 8zm0 0"/><path d="m128.691406 319.929688h-32.144531c-4.421875 0-8-3.578126-8-8 0-4.425782 3.578125-8 8-8h32.144531c4.425782 0 8 3.574218 8 8 0 4.421874-3.582031 8-8 8zm0 0"/><path d="m256.628906 319.953125c-4.425781 0-8-3.578125-8-8v-24.023437c0-4.425782 3.574219-8 8-8 4.421875 0 8 3.574218 8 8v24.023437c0 4.421875-3.585937 8-8 8zm0 0"/><path d="m288.515625 319.953125h-31.886719c-4.425781 0-8-3.578125-8-8 0-4.425781 3.574219-8 8-8h31.886719c4.425781 0 8 3.574219 8 8 0 4.421875-3.574219 8-8 8zm0 0"/><path d="m288.46875 368h-191.792969c-4.421875 0-8-3.574219-8-8s3.578125-8 8-8h191.800781c4.421876 0 8 3.574219 8 8s-3.585937 8-8.007812 8zm0 0"/><path d="m288.46875 392.023438h-191.792969c-4.421875 0-8-3.574219-8-8 0-4.421876 3.578125-8 8-8h191.800781c4.421876 0 8 3.578124 8 8 0 4.425781-3.585937 8-8.007812 8zm0 0"/><path d="m232.484375 416.046875h-79.96875c-4.421875 0-8-3.574219-8-8 0-4.421875 3.578125-8 8-8h79.96875c4.421875 0 8 3.578125 8 8 0 4.425781-3.578125 8-8 8zm0 0"/><path d="m112.53125 112.136719c-13.261719 0-24.0625-10.792969-24.0625-24.058594 0-13.261719 10.800781-24.054687 24.0625-24.054687 4.425781 0 8 3.578124 8 8 0 4.425781-3.574219 8-8 8-4.445312 0-8.0625 3.617187-8.0625 8.054687 0 4.441406 3.617188 8.058594 8.0625 8.058594 4.425781 0 8 3.574219 8 8 0 4.421875-3.574219 8-8 8zm0 0"/><path d="m184.5625 112.136719h-72.03125c-4.421875 0-8-3.578125-8-8 0-4.425781 3.578125-8 8-8h72.03125c4.425781 0 8 3.574219 8 8 0 4.421875-3.574219 8-8 8zm0 0"/><path d="m184.5625 112.136719c-4.421875 0-8-3.578125-8-8v-32.113281c0-4.421876 3.578125-8 8-8 4.425781 0 8 3.578124 8 8v32.113281c0 4.414062-3.574219 8-8 8zm0 0"/><path d="m184.5625 80.023438h-72.03125c-4.421875 0-8-3.574219-8-8 0-4.421876 3.578125-8 8-8h72.03125c4.425781 0 8 3.578124 8 8 0 4.425781-3.574219 8-8 8zm0 0"/><path d="m240.578125 96.078125h-56.015625c-4.421875 0-8-3.574219-8-8 0-4.421875 3.578125-8 8-8h56.015625c4.425781 0 8 3.578125 8 8 0 4.425781-3.574219 8-8 8zm0 0"/><path d="m240.578125 96.078125c-2.03125 0-4.0625-.765625-5.621094-2.308594-3.144531-3.105469-3.167969-8.167969-.066406-11.3125l15.875-16.066406c3.101563-3.132813 8.160156-3.175781 11.308594-.0625 3.144531 3.105469 3.167969 8.167969.066406 11.3125l-15.871094 16.0625c-1.570312 1.578125-3.625 2.375-5.691406 2.375zm0 0"/><path d="m256.578125 112.03125c-2.046875 0-4.085937-.785156-5.644531-2.335938l-16-15.953124c-3.136719-3.117188-3.136719-8.183594-.019532-11.308594 3.128907-3.136719 8.1875-3.128906 11.3125-.019532l16 15.953126c3.136719 3.121093 3.136719 8.183593.015626 11.3125-1.558594 1.566406-3.605469 2.351562-5.664063 2.351562zm0 0"/><path d="m256.589844 112.03125c-2.9375 0-5.761719-1.617188-7.167969-4.421875-1.976563-3.953125-.378906-8.761719 3.574219-10.738281l32.015625-16.007813c3.953125-1.96875 8.753906-.375 10.734375 3.578125 1.976562 3.949219.378906 8.757813-3.574219 10.734375l-32.015625 16.007813c-1.144531.578125-2.367188.847656-3.566406.847656zm0 0"/><path d="m288.589844 94.886719c-1.128906 0-2.265625-.230469-3.355469-.742188l-32.140625-14.871093c-4.007812-1.847657-5.761719-6.609376-3.898438-10.617188 1.863282-4.007812 6.609376-5.785156 10.617188-3.894531l32.144531 14.871093c4.007813 1.847657 5.757813 6.605469 3.894531 10.613282-1.351562 2.921875-4.238281 4.640625-7.261718 4.640625zm0 0"/></svg>