<svg id="Layer_1" height="512" viewBox="0 0 128 128" width="512" xmlns="http://www.w3.org/2000/svg" data-name="Layer 1"><path d="m113.27 48h7.678a1.75 1.75 0 0 0 1.75-1.75v-14.726a1.75 1.75 0 0 0 -1.75-1.75h-14.727v-3.029a8.369 8.369 0 1 0 -16.738 0v3.029h-50.965v-3.029a8.369 8.369 0 1 0 -16.738 0v3.029h-14.728a1.75 1.75 0 0 0 -1.75 1.75v14.726a1.75 1.75 0 0 0 1.75 1.75h7.678a73.172 73.172 0 0 1 0 32h-7.678a1.75 1.75 0 0 0 -1.752 1.75v14.726a1.75 1.75 0 0 0 1.75 1.75h14.729v3.029a8.369 8.369 0 0 0 16.738 0v-3.029h50.965v3.029a8.369 8.369 0 0 0 16.738 0v-3.029h14.728a1.75 1.75 0 0 0 1.75-1.75v-14.726a1.75 1.75 0 0 0 -1.75-1.75h-7.678a73.172 73.172 0 0 1 0-32zm5.93-14.726v11.226h-12.979v-1.083h1.553a4.53 4.53 0 0 0 0-9.061h-1.553v-1.082zm-12.979 54.809h1.553a1.03 1.03 0 0 1 0 2.061h-1.553zm0-50.227h1.553a1.03 1.03 0 0 1 0 2.061h-1.553zm-16.739 52.288h-3.615a1.03 1.03 0 0 1 0-2.061h3.615zm-50.964-2.061h3.615a1.03 1.03 0 0 1 0 2.061h-3.615zm0-50.227h3.615a1.03 1.03 0 0 1 0 2.061h-3.615zm0 10.144h50.964v32h-50.964zm50.965-8.083h-3.616a1.03 1.03 0 0 1 0-2.061h3.615zm0-6.643v1.082h-3.616a4.53 4.53 0 0 0 0 9.061h3.615v1.083h-50.964v-1.083h3.615a4.53 4.53 0 0 0 0-9.061h-3.615v-1.082zm-67.7 56.869h-1.556a1.03 1.03 0 1 1 0-2.061h1.553zm0-50.227h-1.556a1.03 1.03 0 1 1 0-2.061h1.553zm-12.983-6.642h12.979v1.082h-1.552a4.53 4.53 0 1 0 0 9.061h1.553v1.083h-12.98zm9.521 14.726h3.458v32h-3.458a76.7 76.7 0 0 0 0-32zm-9.521 46.726v-11.226h12.979v1.083h-1.552a4.53 4.53 0 0 0 0 9.061h1.553v1.082zm26.216 6.529a4.869 4.869 0 0 1 -9.738 0v-74.51a4.869 4.869 0 1 1 9.738 0zm3.5-6.529v-1.082h3.615a4.53 4.53 0 0 0 0-9.061h-3.613v-1.083h50.964v1.083h-3.615a4.53 4.53 0 0 0 0 9.061h3.615v1.082zm64.2 6.529a4.869 4.869 0 0 1 -9.738 0v-74.51a4.869 4.869 0 1 1 9.738 0zm16.484-6.529h-12.979v-1.082h1.553a4.53 4.53 0 0 0 0-9.061h-1.553v-1.083h12.979zm-12.979-14.726v-32h3.458a76.7 76.7 0 0 0 0 32z"/><path d="m30.148 29.774a1.75 1.75 0 0 0 -1.75 1.75v7.053a1.75 1.75 0 0 0 3.5 0v-7.053a1.75 1.75 0 0 0 -1.75-1.75z"/><path d="m30.148 49.073a1.75 1.75 0 0 0 -1.75 1.75v7.054a1.75 1.75 0 1 0 3.5 0v-7.054a1.75 1.75 0 0 0 -1.75-1.75z"/><path d="m30.148 68.373a1.75 1.75 0 0 0 -1.75 1.75v7.054a1.75 1.75 0 0 0 3.5 0v-7.054a1.75 1.75 0 0 0 -1.75-1.75z"/><path d="m30.148 87.673a1.75 1.75 0 0 0 -1.75 1.75v7.053a1.75 1.75 0 0 0 3.5 0v-7.053a1.75 1.75 0 0 0 -1.75-1.75z"/><path d="m97.852 87.673a1.75 1.75 0 0 0 -1.75 1.75v7.053a1.75 1.75 0 0 0 3.5 0v-7.053a1.75 1.75 0 0 0 -1.75-1.75z"/><path d="m97.852 68.373a1.75 1.75 0 0 0 -1.75 1.75v7.054a1.75 1.75 0 0 0 3.5 0v-7.054a1.75 1.75 0 0 0 -1.75-1.75z"/><path d="m97.852 49.073a1.75 1.75 0 0 0 -1.75 1.75v7.054a1.75 1.75 0 1 0 3.5 0v-7.054a1.75 1.75 0 0 0 -1.75-1.75z"/><path d="m97.852 29.774a1.75 1.75 0 0 0 -1.75 1.75v7.053a1.75 1.75 0 0 0 3.5 0v-7.053a1.75 1.75 0 0 0 -1.75-1.75z"/><path d="m64 50.934a13.066 13.066 0 1 0 13.066 13.066 13.081 13.081 0 0 0 -13.066-13.066zm0 22.633a9.566 9.566 0 1 1 9.566-9.567 9.577 9.577 0 0 1 -9.566 9.566z"/></svg>