<?xml version="1.0"?>
<svg xmlns="http://www.w3.org/2000/svg" viewBox="0 0 64 64" width="512" height="512"><g id="Household-Service"><path d="M52,29.526V5a3,3,0,0,0-3-3H5A3,3,0,0,0,2,5V51a3,3,0,0,0,3,3H30.6A16.986,16.986,0,1,0,52,29.526ZM8.142,13a3.981,3.981,0,0,0,7.716,0h5.284a3.981,3.981,0,0,0,7.716,0H34v1a2,2,0,0,0,2,2h8a2,2,0,0,0,2-2V13h4v7H4V13ZM10,12a2,2,0,1,1,2,2A2,2,0,0,1,10,12Zm13,0a2,2,0,1,1,2,2A2,2,0,0,1,23,12Zm13,2V10h8l0,4ZM5,4H49a1,1,0,0,1,1,1v6H46V10a2,2,0,0,0-2-2H36a2,2,0,0,0-2,2v1H28.858a3.981,3.981,0,0,0-7.716,0H15.858a3.981,3.981,0,0,0-7.716,0H4V5A1,1,0,0,1,5,4ZM5,52a1,1,0,0,1-1-1V22H50v6.753a16.913,16.913,0,0,0-4.784-.742A2.981,2.981,0,0,0,43,27H11a3,3,0,0,0-3,3V44a3,3,0,0,0,3,3H28.128a16.831,16.831,0,0,0,1.4,5Zm23-7H11a1,1,0,0,1-1-1V30a1,1,0,0,1,1-1H39.311A17.015,17.015,0,0,0,28,45ZM45,60A15,15,0,1,1,60,45,15.017,15.017,0,0,1,45,60Z"/><path d="M54.9,47.836a4.978,4.978,0,0,0-4.23-1.41l-3.341-3.341,2.621-2.621.707.708a1,1,0,0,0,1.414,0l1.414-1.415a.981.981,0,0,0,.188-.26l1.414-2.828a1,1,0,0,0-.188-1.154L53.485,34.1a1,1,0,0,0-1.154-.188L49.5,35.327a.981.981,0,0,0-.26.188l-1.415,1.414a1,1,0,0,0,0,1.414l.708.707-2.621,2.621L43.574,39.33a4.982,4.982,0,0,0-6.24-5.514,1,1,0,0,0-.439,1.673l1.3,1.3-.349,1.064-1.064.349-1.3-1.3a1,1,0,0,0-1.673.439,4.983,4.983,0,0,0,5.514,6.24l.22.22L34.394,48.95a2,2,0,0,0,0,2.828l2.828,2.828a2,2,0,0,0,2.828,0l5.156-5.156,1.22,1.22a4.985,4.985,0,0,0,4.927,5.691,4.92,4.92,0,0,0,1.313-.177,1,1,0,0,0,.439-1.673l-1.3-1.3.349-1.064,1.064-.349,1.3,1.3a1,1,0,0,0,1.673-.439A4.957,4.957,0,0,0,54.9,47.836ZM50.542,37.044l2.039-1.02.395.395-1.02,2.039-.592.593-1.415-1.415ZM36.514,40.75a2.92,2.92,0,0,1-.4-.492,1,1,0,0,0,.708.032l2.13-.7a1,1,0,0,0,.638-.638l.7-2.13a1,1,0,0,0-.031-.707,2.945,2.945,0,0,1,.5.405,2.993,2.993,0,0,1,.767,2.886,1,1,0,0,0,.26.961L44.5,43.085,43.586,44l-.707-.707a1.986,1.986,0,0,0-1.414-.586h0c-.053,0-.1.011-.157.015l-.939-.939a.993.993,0,0,0-.961-.26A3,3,0,0,1,36.514,40.75Zm2.123,12.443-.708-.708,3.536-3.536-1.414-1.414-3.536,3.536-.707-.707,5.657-5.657,2.828,2.828ZM53.178,49.71l-2.13.7a1,1,0,0,0-.638.638l-.7,2.13a1,1,0,0,0,.031.707,2.945,2.945,0,0,1-.5-.405,2.993,2.993,0,0,1-.767-2.886,1,1,0,0,0-.26-.961l-1.939-1.939c0-.053.015-.1.015-.157a1.989,1.989,0,0,0-.586-1.416L45,45.414l.915-.915,3.718,3.718a1,1,0,0,0,.961.26,3,3,0,0,1,2.892.773,2.92,2.92,0,0,1,.4.492A1,1,0,0,0,53.178,49.71Z"/></g></svg>
