<?xml version="1.0" encoding="iso-8859-1"?>
<!-- Generator: Adobe Illustrator 19.0.0, SVG Export Plug-In . SVG Version: 6.00 Build 0)  -->
<svg version="1.1" id="Capa_1" xmlns="http://www.w3.org/2000/svg" xmlns:xlink="http://www.w3.org/1999/xlink" x="0px" y="0px"
	 viewBox="0 0 512.025 512.025" style="enable-background:new 0 0 512.025 512.025;" xml:space="preserve">
<polygon style="fill:#F2F2F2;" points="48.013,168.025 48.013,440.025 280.013,440.025 280.013,176.025 160.012,56.025 "/>
<polygon style="fill:#AD3C2B;" points="312.013,160.025 160.012,8.025 8.012,160.025 8.012,184.025 32.612,184.025 160.012,56.025 
	287.413,184.025 312.013,184.025 "/>
<rect x="336.013" y="440.025" style="fill:#D8BF94;" width="96" height="32"/>
<rect x="432.013" y="440.025" style="fill:#BE944D;" width="72" height="32"/>
<rect x="336.013" y="472.025" style="fill:#D8BF94;" width="96" height="32"/>
<g>
	<rect x="16.013" y="440.025" style="fill:#BE944D;" width="192" height="32"/>
	<rect x="208.012" y="440.025" style="fill:#BE944D;" width="128" height="32"/>
	<rect x="32.013" y="472.025" style="fill:#BE944D;" width="32" height="32"/>
	<rect x="256.013" y="472.025" style="fill:#BE944D;" width="32" height="32"/>
	<rect x="472.013" y="472.025" style="fill:#BE944D;" width="32" height="32"/>
</g>
<g>
	<rect x="96.012" y="232.025" style="fill:#FEF0D9;" width="64" height="208"/>
	<rect x="160.012" y="232.025" style="fill:#FEF0D9;" width="64" height="208"/>
	<path style="fill:#FEF0D9;" d="M160.012,200.025c22.1,0,40-17.9,40-40h-80C120.012,182.125,137.912,200.025,160.012,200.025z"/>
</g>
<path style="fill:#FCB641;" d="M160.012,120.025c-22.1,0-40,17.9-40,40h80C200.012,137.925,182.113,120.025,160.012,120.025z"/>
<rect x="280.013" y="184.025" style="fill:#F2F2F2;" width="208" height="256"/>
<polygon style="fill:#E65039;" points="184.012,32.025 464.013,32.025 504.013,184.025 312.013,184.025 312.013,160.025 "/>
<rect x="312.013" y="216.025" style="fill:#FEF0D9;" width="48" height="192"/>
<rect x="360.013" y="216.025" style="fill:#FEE2B3;" width="48" height="192"/>
<rect x="408.013" y="216.025" style="fill:#FEF0D9;" width="48" height="192"/>
<rect x="280.013" y="408.025" style="fill:#D8BF94;" width="208" height="32"/>
<path style="fill:#FEF0D9;" d="M392.013,64.025h-16c-8.8,0-16,7.2-16,16v72h48v-72C408.013,71.225,400.813,64.025,392.013,64.025z"
	/>
<rect x="360.013" y="120.025" style="fill:#BE944D;" width="48" height="32"/>
<path d="M504.013,432.025h-8v-24v-216h8c2.5,0,4.8-1.2,6.3-3.1s2-4.5,1.4-6.9l-40-152c-0.9-3.5-4.1-6-7.7-6h-276.7l-21.6-21.7
	c-3.1-3.1-8.2-3.1-11.3,0l-152,152c-1.6,1.5-2.4,3.6-2.4,5.7v24c0,4.4,3.6,8,8,8h24.6c2.1,0,4.2-0.8,5.7-2.4l1.7-1.6v244h-24
	c-4.4,0-8,3.6-8,8v32c0,4.4,3.6,8,8,8h8v24c0,4.4,3.6,8,8,8h32c4.4,0,8-3.6,8-8v-24h136h40v24c0,4.4,3.6,8,8,8h32c4.4,0,8-3.6,8-8
	v-24h32v24c0,4.4,3.6,8,8,8h96c4.4,0,8-3.6,8-8v-24h24v24c0,4.4,3.6,8,8,8h32c4.4,0,8-3.6,8-8v-32v-32
	C512.013,435.625,508.413,432.025,504.013,432.025z M424.013,464.025h-80v-16h80V464.025z M432.013,432.025h-96h-48v-16h24h48h48h48
	h24v16H432.013z M368.013,224.025h32v176h-32V224.025z M416.013,224.025h32v176h-32V224.025z M352.013,400.025h-32v-176h32V400.025z
	 M480.013,400.025h-16v-184c0-4.4-3.6-8-8-8h-48h-48h-48c-4.4,0-8,3.6-8,8v184h-16v-208h24h168V400.025z M457.813,40.025l35.8,136
	h-5.6h-168v-16c0-2.1-0.8-4.2-2.3-5.7l-114.4-114.3H457.813z M29.313,176.025h-13.3v-12.7l144-144l18.3,18.3l125.7,125.7v12.7h-13.3
	l-125-125.6c-3-3-8.3-3-11.3,0L29.313,176.025z M56.013,171.925l104-104.6l112.8,113.3c-0.5,1-0.8,2.1-0.8,3.3v224v24h-40v-199.9
	c0-4.4-3.6-8-8-8h-64h-64c-4.4,0-8,3.6-8,8v200h-32V171.925z M208.012,432.025h-40v-96h8c4.4,0,8-3.6,8-8s-3.6-8-8-8h-8v-80h48v192
	H208.012z M104.012,432.025v-192h48v80h-8c-4.4,0-8,3.6-8,8s3.6,8,8,8h8v96H104.012z M24.013,448.025h24h48h64h40v16h-136h-32h-8
	V448.025z M56.013,496.025h-16v-16h16V496.025z M216.012,448.025h8h56h48v16h-40h-32h-40V448.025z M280.013,496.025h-16v-16h16
	V496.025z M424.013,496.025h-80v-16h80V496.025z M440.013,448.025h48h8v16h-24h-32V448.025z M496.013,496.025h-16v-16h16V496.025z"
	/>
<path d="M160.012,208.025c26.5,0,48-21.5,48-48s-21.5-48-48-48s-48,21.5-48,48S133.512,208.025,160.012,208.025z M160.012,192.025
	c-14.9,0-27.4-10.2-31-24h62C187.412,181.825,174.912,192.025,160.012,192.025z M160.012,128.025c14.9,0,27.4,10.2,31,24h-62
	C132.613,138.225,145.113,128.025,160.012,128.025z"/>
<path d="M352.013,160.025h8h48h8c4.4,0,8-3.6,8-8s-3.6-8-8-8v-24v-40c0-13.2-10.8-24-24-24h-16c-13.2,0-24,10.8-24,24v40v24
	c-4.4,0-8,3.6-8,8S347.613,160.025,352.013,160.025z M376.013,72.025h16c4.4,0,8,3.6,8,8v32h-32v-32
	C368.013,75.625,371.613,72.025,376.013,72.025z M368.013,128.025h32v16h-32V128.025z"/>
<g>
</g>
<g>
</g>
<g>
</g>
<g>
</g>
<g>
</g>
<g>
</g>
<g>
</g>
<g>
</g>
<g>
</g>
<g>
</g>
<g>
</g>
<g>
</g>
<g>
</g>
<g>
</g>
<g>
</g>
</svg>
