<svg width="512" height="512" viewBox="0 0 512 512" fill="none" xmlns="http://www.w3.org/2000/svg">
<path d="M416 236.208V40C416 33.6348 413.471 27.5303 408.971 23.0294C404.47 18.5286 398.365 16 392 16H40C33.6348 16 27.5303 18.5286 23.0294 23.0294C18.5286 27.5303 16 33.6348 16 40V408C16 414.365 18.5286 420.47 23.0294 424.971C27.5303 429.471 33.6348 432 40 432H244.8C256.033 450 271.325 465.119 289.451 476.148C307.578 487.176 328.035 493.806 349.184 495.508C370.333 497.209 391.587 493.935 411.243 485.946C430.899 477.958 448.412 465.478 462.378 449.505C476.344 433.533 486.377 414.512 491.671 393.965C496.965 373.419 497.375 351.918 492.867 331.185C488.359 310.452 479.058 291.063 465.71 274.57C452.362 258.077 435.338 244.939 416 236.208ZM65.136 104C66.8822 110.861 70.8645 116.944 76.4537 121.289C82.043 125.634 88.9206 127.993 96 127.993C103.079 127.993 109.957 125.634 115.546 121.289C121.136 116.944 125.118 110.861 126.864 104H169.136C170.882 110.861 174.864 116.944 180.454 121.289C186.043 125.634 192.921 127.993 200 127.993C207.079 127.993 213.957 125.634 219.546 121.289C225.136 116.944 229.118 110.861 230.864 104H272V112C272 116.243 273.686 120.313 276.686 123.314C279.687 126.314 283.757 128 288 128H352C356.243 128 360.313 126.314 363.314 123.314C366.314 120.313 368 116.243 368 112V104H400V160H32V104H65.136ZM80 96C80 92.8355 80.9384 89.7421 82.6965 87.1109C84.4546 84.4797 86.9535 82.4289 89.8771 81.2179C92.8007 80.0069 96.0177 79.6901 99.1214 80.3074C102.225 80.9248 105.076 82.4487 107.314 84.6863C109.551 86.9239 111.075 89.7749 111.693 92.8786C112.31 95.9823 111.993 99.1993 110.782 102.123C109.571 105.047 107.52 107.545 104.889 109.304C102.258 111.062 99.1645 112 96 112C91.7565 112 87.6869 110.314 84.6863 107.314C81.6857 104.313 80 100.243 80 96ZM184 96C184 92.8355 184.938 89.7421 186.696 87.1109C188.455 84.4797 190.953 82.4289 193.877 81.2179C196.801 80.0069 200.018 79.6901 203.121 80.3074C206.225 80.9248 209.076 82.4487 211.314 84.6863C213.551 86.9239 215.075 89.7749 215.693 92.8786C216.31 95.9823 215.993 99.1993 214.782 102.123C213.571 105.047 211.52 107.545 208.889 109.304C206.258 111.062 203.165 112 200 112C195.757 112 191.687 110.314 188.686 107.314C185.686 104.313 184 100.243 184 96ZM288 112V80H352V112H288ZM40 32H392C394.122 32 396.157 32.8429 397.657 34.3431C399.157 35.8434 400 37.8783 400 40V88H368V80C368 75.7565 366.314 71.6869 363.314 68.6863C360.313 65.6857 356.243 64 352 64H288C283.757 64 279.687 65.6857 276.686 68.6863C273.686 71.6869 272 75.7565 272 80V88H230.864C229.118 81.1393 225.136 75.056 219.546 70.7111C213.957 66.3662 207.079 64.0075 200 64.0075C192.921 64.0075 186.043 66.3662 180.454 70.7111C174.864 75.056 170.882 81.1393 169.136 88H126.864C125.118 81.1393 121.136 75.056 115.546 70.7111C109.957 66.3662 103.079 64.0075 96 64.0075C88.9206 64.0075 82.043 66.3662 76.4537 70.7111C70.8645 75.056 66.8822 81.1393 65.136 88H32V40C32 37.8783 32.8429 35.8434 34.3431 34.3431C35.8434 32.8429 37.8783 32 40 32ZM40 416C37.8783 416 35.8434 415.157 34.3431 413.657C32.8429 412.157 32 410.122 32 408V176H400V230.024C387.593 226.22 374.704 224.221 361.728 224.088C359.509 221.568 356.783 219.545 353.728 218.151C350.673 216.757 347.358 216.024 344 216H88C81.6348 216 75.5303 218.529 71.0294 223.029C66.5286 227.53 64 233.635 64 240V352C64 358.365 66.5286 364.47 71.0294 368.971C75.5303 373.471 81.6348 376 88 376H225.024C226.666 389.832 230.444 403.326 236.224 416H40ZM224 360H88C85.8783 360 83.8434 359.157 82.3431 357.657C80.8429 356.157 80 354.122 80 352V240C80 237.878 80.8429 235.843 82.3431 234.343C83.8434 232.843 85.8783 232 88 232H314.488C288.051 241.407 265.168 258.754 248.969 281.667C232.771 304.58 224.05 331.94 224 360ZM360 480C336.266 480 313.065 472.962 293.332 459.776C273.598 446.591 258.217 427.849 249.134 405.922C240.052 383.995 237.676 359.867 242.306 336.589C246.936 313.311 258.365 291.929 275.147 275.147C291.929 258.365 313.311 246.936 336.589 242.306C359.867 237.676 383.995 240.052 405.922 249.134C427.849 258.217 446.591 273.598 459.776 293.332C472.962 313.065 480 336.266 480 360C479.964 391.815 467.31 422.316 444.813 444.813C422.316 467.31 391.815 479.964 360 480Z" fill="url(#paint0_linear)"/>
<path d="M439.2 382.688C434.825 378.306 429.488 375.005 423.614 373.047C417.739 371.089 411.489 370.528 405.36 371.408L378.632 344.68L399.6 323.712L405.256 329.376C406.756 330.876 408.791 331.718 410.912 331.718C413.033 331.718 415.068 330.876 416.568 329.376L427.88 318.056C428.492 317.45 429 316.747 429.384 315.976L440.696 293.352C441.446 291.85 441.704 290.15 441.434 288.493C441.164 286.836 440.38 285.306 439.192 284.12L427.88 272.8C426.694 271.612 425.164 270.828 423.507 270.558C421.85 270.288 420.15 270.546 418.648 271.296L396 282.616C395.229 283 394.526 283.508 393.92 284.12L382.6 295.432C381.1 296.932 380.258 298.967 380.258 301.088C380.258 303.209 381.1 305.244 382.6 306.744L388.264 312.4L367.296 333.368L348.592 314.64C349.529 308.101 348.826 301.431 346.547 295.23C344.267 289.03 340.481 283.493 335.531 279.119C330.58 274.744 324.62 271.669 318.186 270.169C311.752 268.67 305.046 268.793 298.672 270.528C297.322 270.901 296.093 271.622 295.108 272.619C294.124 273.616 293.419 274.854 293.063 276.209C292.708 277.564 292.714 278.989 293.082 280.341C293.45 281.693 294.167 282.924 295.16 283.912L305.56 294.312L302.768 302.824L294.256 305.616L283.856 295.216C282.868 294.223 281.637 293.506 280.285 293.138C278.933 292.77 277.508 292.764 276.153 293.119C274.798 293.475 273.56 294.18 272.563 295.164C271.566 296.149 270.845 297.377 270.472 298.728C268.739 305.102 268.617 311.807 270.118 318.24C271.618 324.673 274.694 330.632 279.068 335.582C283.442 340.532 288.977 344.318 295.177 346.598C301.376 348.879 308.045 349.583 314.584 348.648L316.344 350.408L275.152 391.6C272.152 394.6 270.467 398.669 270.467 402.912C270.467 407.155 272.152 411.224 275.152 414.224L297.776 436.848C300.776 439.848 304.845 441.533 309.088 441.533C313.331 441.533 317.4 439.848 320.4 436.848L361.648 395.6L371.408 405.36C370.599 411.012 371.014 416.771 372.623 422.249C374.232 427.726 376.999 432.795 380.736 437.111C384.472 441.427 389.092 444.891 394.283 447.268C399.474 449.645 405.115 450.879 410.824 450.888C414.373 450.892 417.907 450.415 421.328 449.472C422.679 449.099 423.907 448.378 424.892 447.381C425.876 446.384 426.581 445.146 426.937 443.791C427.292 442.436 427.286 441.011 426.918 439.659C426.55 438.307 425.833 437.076 424.84 436.088L414.44 425.688L417.232 417.176L425.744 414.384L436.144 424.784C437.132 425.777 438.363 426.494 439.715 426.862C441.067 427.23 442.492 427.236 443.847 426.881C445.202 426.525 446.44 425.82 447.437 424.836C448.434 423.851 449.155 422.623 449.528 421.272C451.374 414.502 451.391 407.363 449.576 400.585C447.762 393.806 444.181 387.63 439.2 382.688V382.688ZM404.336 296.352L420.648 288.192L423.808 291.352L415.648 307.664L410.912 312.408L399.592 301.088L404.336 296.352ZM292.112 326C290.906 324.808 289.833 323.488 288.912 322.064C290.705 322.838 292.72 322.929 294.576 322.32L311.616 316.72C312.807 316.329 313.89 315.663 314.776 314.776C315.663 313.89 316.329 312.807 316.72 311.616L322.32 294.576C322.93 292.723 322.841 290.712 322.072 288.92C323.52 289.851 324.861 290.937 326.072 292.16C329.026 295.134 331.148 298.832 332.225 302.884C333.302 306.936 333.296 311.199 332.208 315.248C331.853 316.599 331.858 318.02 332.223 319.369C332.588 320.718 333.3 321.948 334.288 322.936L356 344.68L348.688 352L343.032 346.344C341.55 344.853 339.788 343.671 337.846 342.866C335.904 342.062 333.822 341.65 331.72 341.656V341.656C331.296 341.656 330.92 341.744 330.464 341.776L322.952 334.264C321.967 333.271 320.737 332.556 319.387 332.191C318.038 331.826 316.615 331.823 315.264 332.184C311.201 333.272 306.924 333.274 302.861 332.188C298.798 331.103 295.091 328.969 292.112 326ZM309.096 425.544L303.432 419.88L331.72 391.592L320.408 380.28L292.12 408.568L286.464 402.912L331.72 357.656L354.344 380.28L309.096 425.544ZM425.424 397.68L408.384 403.28C407.193 403.671 406.11 404.337 405.224 405.224C404.337 406.11 403.671 407.193 403.28 408.384L397.68 425.424C397.07 427.277 397.159 429.288 397.928 431.08C396.48 430.149 395.139 429.063 393.928 427.84C390.974 424.866 388.852 421.168 387.775 417.116C386.698 413.064 386.704 408.801 387.792 404.752C388.147 403.401 388.142 401.98 387.777 400.631C387.412 399.282 386.7 398.052 385.712 397.064L370.2 381.552C370.2 381.128 370.32 380.752 370.32 380.296C370.326 378.192 369.915 376.107 369.111 374.162C368.306 372.218 367.124 370.452 365.632 368.968L360 363.312L367.32 355.992L397.064 385.736C398.052 386.724 399.282 387.436 400.631 387.801C401.98 388.166 403.401 388.171 404.752 387.816C408.812 386.731 413.086 386.731 417.146 387.816C421.207 388.901 424.911 391.034 427.888 394C429.094 395.192 430.167 396.512 431.088 397.936C429.295 397.162 427.28 397.071 425.424 397.68Z" fill="url(#paint1_linear)"/>
<defs>
<linearGradient id="paint0_linear" x1="256" y1="512.832" x2="256" y2="-2.768" gradientUnits="userSpaceOnUse">
<stop stop-color="#00EFD1"/>
<stop offset="1" stop-color="#00ACEA"/>
</linearGradient>
<linearGradient id="paint1_linear" x1="8452.29" y1="11920.6" x2="8452.29" y2="206.24" gradientUnits="userSpaceOnUse">
<stop stop-color="#00CEDD"/>
<stop offset="0.973958" stop-color="#00EFD1"/>
</linearGradient>
</defs>
</svg>
