<svg width="512" height="512" viewBox="0 0 512 512" fill="none" xmlns="http://www.w3.org/2000/svg">
<path d="M488.469 224.453H399.773V143.258H472.438C485.41 143.258 495.969 132.703 495.969 119.727V23.5312C495.969 10.5586 485.41 0 472.438 0H312.113C299.137 0 288.582 10.5586 288.582 23.5312V79.1289H239.453V39.5625C239.453 17.75 221.703 0 199.887 0H39.5625C17.75 0 0 17.75 0 39.5625V488.469C0 501.441 10.5586 512 23.5312 512H215.918C228.895 512 239.449 501.441 239.449 488.469V375.727H272.547V488.469C272.547 501.445 283.105 512 296.078 512H488.469C501.441 512 512 501.441 512 488.469V247.984C512 235.008 501.441 224.453 488.469 224.453ZM497 247.984V288.582H430.23C431.266 285.934 431.84 283.059 431.84 280.051C431.84 267.074 421.281 256.516 408.309 256.516C395.332 256.516 384.773 267.074 384.773 280.051C384.773 283.059 385.348 285.934 386.383 288.582H367.711V264.016C367.711 259.875 364.352 256.516 360.211 256.516H312.113C307.973 256.516 304.613 259.875 304.613 264.016V288.582H287.551V247.984C287.551 243.277 291.379 239.453 296.082 239.453H488.469C493.172 239.453 497 243.277 497 247.984ZM399.773 280.047C399.773 275.344 403.602 271.516 408.305 271.516C413.012 271.516 416.84 275.344 416.84 280.047C416.84 284.754 413.012 288.578 408.305 288.578C403.602 288.578 399.773 284.754 399.773 280.047ZM319.613 288.582V271.516H352.711V288.582H319.613ZM472.438 128.258H447.871V63.0977H480.969V119.727C480.969 124.43 477.141 128.258 472.438 128.258ZM480.969 23.5312V48.0977H447.871V15H472.434C477.141 15 480.969 18.8281 480.969 23.5312ZM303.582 23.5312C303.582 18.8281 307.41 15 312.113 15H432.871V128.258H312.113C307.406 128.258 303.582 124.43 303.582 119.727V23.5312ZM15 335.645H31.5469C31.832 335.645 32.0625 335.875 32.0625 336.16V392.273C32.0625 392.559 31.832 392.789 31.5469 392.789H15V335.645ZM15 199.371H31.5469C31.832 199.371 32.0625 199.602 32.0625 199.887V256C32.0625 256.285 31.832 256.516 31.5469 256.516H15V199.371ZM224.453 488.469C224.453 493.172 220.625 497 215.922 497H23.5312C18.8281 497 15 493.172 15 488.469V407.789H31.5469C40.1055 407.789 47.0625 400.832 47.0625 392.273V336.16C47.0625 327.605 40.1055 320.645 31.5469 320.645H15V303.582H225.5C229.641 303.582 191.355 300.223 191.355 296.082C191.355 291.941 220.062 288.578 215.922 288.578L15 288.582V271.52H31.5469C40.1055 271.52 47.0625 264.559 47.0625 256.004V199.891C47.0625 191.332 40.1055 184.371 31.5469 184.371H15V39.5625C15 26.0195 26.0195 15 39.5625 15H199.887C213.434 15 224.449 26.0195 224.449 39.5625V288.578H215.922C183.855 288.582 185.5 291.941 185.5 296.082C185.5 300.227 211.781 303.578 215.922 303.578H224.449V488.469H224.453ZM239.449 375.727L239.453 79.1289H288.582V119.727C288.582 132.703 299.137 143.258 312.113 143.258H399.773V224.453H296.082C283.105 224.453 272.551 235.008 272.551 247.984L272.547 375.727H239.449ZM488.469 497H296.082C291.375 497 287.551 493.172 287.551 488.469V303.582H497V488.469C497 493.172 493.172 497 488.469 497Z" fill="#235197"/>
<path d="M135.758 64.1289H103.691C95.1367 64.1289 88.1758 71.0898 88.1758 79.6445V95.6758C88.1758 104.234 95.1367 111.191 103.691 111.191H135.758C144.312 111.191 151.273 104.234 151.273 95.6758V79.6445C151.273 71.0898 144.312 64.1289 135.758 64.1289ZM136.273 95.6758C136.273 95.9609 136.043 96.1914 135.758 96.1914H103.691C103.406 96.1914 103.176 95.9609 103.176 95.6758V79.6445C103.176 79.3594 103.406 79.1289 103.691 79.1289H135.758C136.043 79.1289 136.273 79.3594 136.273 79.6445V95.6758Z" fill="#FF9254"/>
<path d="M448.387 271.516H472.434C476.578 271.516 479.934 268.156 479.934 264.016C479.934 259.875 476.578 256.516 472.434 256.516H448.387C444.246 256.516 440.887 259.875 440.887 264.016C440.887 268.156 444.246 271.516 448.387 271.516Z" fill="#FF9254"/>
<path d="M392.273 328.66C352.777 328.66 320.645 360.793 320.645 400.289C320.645 439.785 352.777 471.918 392.273 471.918C431.77 471.918 463.902 439.785 463.902 400.289C463.902 360.793 431.77 328.66 392.273 328.66ZM392.273 456.918C361.047 456.918 335.645 431.516 335.645 400.289C335.645 369.062 361.051 343.66 392.273 343.66C423.5 343.66 448.902 369.066 448.902 400.289C448.902 431.516 423.5 456.918 392.273 456.918Z" fill="#FF9254"/>
<path d="M328.145 111.191H408.309C412.449 111.191 415.809 107.836 415.809 103.691V39.5625C415.809 35.4219 412.449 32.0625 408.309 32.0625H328.145C324.004 32.0625 364.5 35.4219 364.5 39.5625C364.5 43.707 331.504 47.0625 335.645 47.0625H400.809V96.1914H335.645V47.0625H360.211C364.352 47.0625 367.711 43.707 367.711 39.5625C367.711 35.4219 364.352 32.0625 360.211 32.0625H328.145C324.004 32.0625 320.645 35.4219 320.645 39.5625V103.691C320.645 107.836 324.004 111.191 328.145 111.191Z" fill="#FF9254"/>
</svg>
