<svg width="400" height="400" viewBox="0 0 400 400" fill="none" xmlns="http://www.w3.org/2000/svg">
<g clip-path="url(#clip0)">
<path d="M74.0076 384.687V386.603C74.0076 392.224 78.6063 396.823 84.2269 396.823C89.8475 396.823 94.4461 392.224 94.4461 386.603V384.687H74.0076Z" fill="#29589F"/>
<path d="M184.376 384.687V386.603C184.376 392.224 188.974 396.823 194.595 396.823C200.215 396.823 204.814 392.224 204.814 386.603V384.687H184.376Z" fill="#29589F"/>
<path d="M303.174 384.687V386.603C303.174 392.224 307.773 396.823 313.394 396.823C319.014 396.823 323.613 392.224 323.613 386.603V384.687H303.174Z" fill="#29589F"/>
<path d="M172.24 369.997V372.935C172.24 379.067 177.222 384.687 183.354 384.687H324.635C330.766 384.687 335.748 379.067 335.748 372.935V369.997H172.24Z" fill="#5290DB"/>
<path d="M297.682 309.576C294.744 309.576 292.317 307.149 292.189 304.083V284.283C292.189 281.345 294.616 278.918 297.682 278.79H312.116C303.685 246.727 270.856 227.566 238.793 236.125C206.73 244.684 187.569 277.385 196.128 309.448C204.559 341.511 237.388 360.672 269.451 352.114C290.4 346.621 306.624 330.27 312.116 309.448H297.682V309.576Z" fill="#C7D7E5"/>
<path d="M297.682 278.918H318.759C321.697 278.918 324.252 281.345 324.252 284.411V304.211C324.252 307.149 321.825 309.704 318.759 309.704H297.682C294.744 309.704 292.189 307.277 292.189 304.211V284.411C292.189 281.345 294.616 278.918 297.682 278.918Z" fill="#29589F"/>
<path d="M297.682 309.576C294.744 309.576 292.317 307.149 292.189 304.083V284.283C292.189 281.345 294.616 278.918 297.682 278.79H298.704C290.273 254.136 263.319 240.979 238.665 249.41C214.011 257.841 200.854 284.794 209.285 309.448C217.716 334.102 244.669 347.259 269.323 338.828C283.119 334.102 293.977 323.244 298.704 309.448H297.682V309.576Z" fill="#3CAADC"/>
<path d="M241.603 248.644C236.622 250.049 231.895 252.22 227.552 255.031L293.083 320.562C295.382 317.113 297.298 313.408 298.576 309.448H297.554C294.616 309.448 292.189 307.021 292.061 303.955V299.101L241.603 248.644Z" fill="#9BE5F9"/>
<path d="M324.635 177.109H183.354C177.222 177.109 172.24 182.091 172.24 188.222V216.708H335.748V188.222C335.748 182.091 330.766 177.109 324.635 177.109Z" fill="#DAE6F1"/>
<path d="M265.746 203.296C269.274 203.296 272.134 200.436 272.134 196.909C272.134 193.381 269.274 190.521 265.746 190.521C262.219 190.521 259.359 193.381 259.359 196.909C259.359 200.436 262.219 203.296 265.746 203.296Z" fill="#5290DB"/>
<path d="M289.123 203.296C292.65 203.296 295.51 200.436 295.51 196.909C295.51 193.381 292.65 190.521 289.123 190.521C285.596 190.521 282.736 193.381 282.736 196.909C282.736 200.436 285.596 203.296 289.123 203.296Z" fill="#5290DB"/>
<path d="M312.5 203.296C316.027 203.296 318.887 200.436 318.887 196.909C318.887 193.381 316.027 190.521 312.5 190.521C308.972 190.521 306.113 193.381 306.113 196.909C306.113 200.436 308.972 203.296 312.5 203.296Z" fill="#5290DB"/>
<path d="M241.092 177.109H183.354C177.222 177.109 172.24 182.091 172.24 188.222V216.708H241.092V177.109Z" fill="#29589F"/>
<path d="M185.014 177.109V200.741C185.014 202.529 186.419 203.934 188.208 203.934H225.253C227.041 203.934 228.446 202.529 228.446 200.741V177.109H185.014Z" fill="#5290DB"/>
<path d="M184.376 384.687H183.354C177.222 384.687 172.24 379.067 172.24 372.935V359.906H65.0658V377.151C65.0658 381.366 68.5148 384.687 72.6025 384.687H184.376Z" fill="#5290DB"/>
<path d="M84.6101 168.678H91.5081C93.1687 168.678 94.4461 169.955 94.4461 171.616V213.004C94.4461 214.664 93.1687 215.942 91.5081 215.942H84.6101C82.9495 215.942 81.6721 214.664 81.6721 213.004V171.488C81.6721 169.955 82.9495 168.678 84.6101 168.678V168.678Z" fill="#EDF4FC"/>
<path d="M84.6101 243.789H91.5081C93.1687 243.789 94.4461 245.067 94.4461 246.727V288.115C94.4461 289.776 93.1687 291.053 91.5081 291.053H84.6101C82.9495 291.053 81.6721 289.776 81.6721 288.115V246.727C81.6721 245.195 82.9495 243.789 84.6101 243.789Z" fill="#EDF4FC"/>
<path d="M72.7302 76.1935C68.5148 76.1935 65.1935 79.6425 65.1935 83.7302V103.658H106.454C123.188 103.658 138.389 93.694 145.159 78.3651L146.053 76.1935H72.7302Z" fill="#9BE5F9"/>
<path d="M253.994 357.479C281.714 357.479 306.24 339.339 314.416 312.769H318.631C323.358 312.769 327.19 308.937 327.317 304.083V284.283C327.317 279.557 323.485 275.725 318.631 275.597H314.416C304.196 242.256 268.812 223.479 235.472 233.698C202.132 243.917 183.354 279.301 193.573 312.642C201.748 339.339 226.275 357.479 253.994 357.479ZM320.93 284.283V304.083C320.93 305.36 319.909 306.255 318.631 306.382H297.554C296.276 306.382 295.382 305.36 295.255 304.083V284.283C295.255 283.006 296.276 281.984 297.554 281.984H318.631C319.909 282.112 320.93 283.133 320.93 284.283ZM227.296 259.246L288.995 320.945C274.177 340.234 246.585 343.938 227.296 329.248C208.008 314.43 204.303 286.838 218.993 267.549C221.42 264.356 224.103 261.545 227.296 259.246ZM240.709 252.22L288.995 300.506V304.083C288.995 307.532 291.039 310.726 294.233 312.003C293.849 312.769 293.083 314.43 292.444 315.452L232.662 255.669C235.216 254.264 237.899 253.114 240.709 252.22ZM256.166 250.176L289.123 283.134C289.123 283.517 288.995 283.9 288.995 284.283V291.437L248.118 250.56C250.801 250.176 253.483 250.049 256.166 250.176ZM294.36 276.363C293.722 276.619 293.083 277.002 292.444 277.513L267.152 252.092C279.287 255.925 289.123 264.739 294.36 276.363ZM253.994 237.402C278.265 237.402 299.853 252.859 307.773 275.725H301.003C293.849 257.585 276.988 245.322 257.571 243.917C256.421 243.789 255.272 243.789 254.122 243.789C226.275 243.789 203.664 266.399 203.664 294.247C203.664 322.094 226.275 344.705 254.122 344.705C274.816 344.705 293.466 332.058 301.131 312.769H307.901C297.682 342.405 265.363 358.245 235.6 348.026C205.836 337.807 190.124 305.488 200.343 275.725C208.135 252.731 229.724 237.402 253.994 237.402Z" fill="#FF9254"/>
<path d="M265.746 206.489C270.984 206.489 275.327 202.146 275.327 196.909C275.327 191.671 270.984 187.328 265.746 187.328C260.509 187.328 256.166 191.671 256.166 196.909C256.166 202.146 260.381 206.489 265.746 206.489ZM265.746 193.715C267.535 193.715 268.94 195.12 268.94 196.909C268.94 198.697 267.535 200.102 265.746 200.102C263.958 200.102 262.553 198.697 262.553 196.909C262.553 195.12 263.958 193.715 265.746 193.715Z" fill="#FF9254"/>
<path d="M289.123 206.489C294.36 206.489 298.704 202.146 298.704 196.909C298.704 191.671 294.36 187.328 289.123 187.328C283.886 187.328 279.542 191.671 279.542 196.909C279.542 202.146 283.886 206.489 289.123 206.489ZM289.123 193.715C290.911 193.715 292.317 195.12 292.317 196.909C292.317 198.697 290.911 200.102 289.123 200.102C287.335 200.102 285.93 198.697 285.93 196.909C285.93 195.12 287.335 193.715 289.123 193.715Z" fill="#FF9254"/>
<path d="M312.5 206.489C317.737 206.489 322.08 202.146 322.08 196.909C322.08 191.671 317.737 187.328 312.5 187.328C307.262 187.328 302.919 191.671 302.919 196.909C302.919 202.146 307.262 206.489 312.5 206.489ZM312.5 193.715C314.288 193.715 315.693 195.12 315.693 196.909C315.693 198.697 314.288 200.102 312.5 200.102C310.711 200.102 309.306 198.697 309.306 196.909C309.306 195.12 310.711 193.715 312.5 193.715Z" fill="#FF9254"/>
<path d="M206.73 73H72.7302C66.7264 73 62 77.8541 62 83.7302V377.151C62 382.388 65.8322 386.859 70.9419 387.753C71.5806 395.162 77.9676 400.655 85.3766 400.016C91.8913 399.505 97.001 394.396 97.6397 388.009H181.31C182.076 395.418 188.591 400.783 195.872 400.016C202.259 399.378 207.369 394.396 207.88 388.009H299.981C300.747 395.418 307.262 400.783 314.543 400.016C321.058 399.378 326.04 394.268 326.551 387.753C333.705 386.348 338.814 380.216 338.814 372.935V188.222C338.814 180.302 332.427 173.915 324.507 173.915H217.333V83.7302C217.46 77.8541 212.606 73 206.73 73V73ZM211.073 83.7302V173.915H183.354C175.434 173.915 169.047 180.302 169.047 188.222V226.544H68.2593V106.851H106.326C137.239 106.851 147.97 79.5148 148.097 79.387H206.73C209.157 79.387 211.073 81.3031 211.073 83.7302ZM332.555 219.902V366.804H175.434V219.902H332.555ZM324.635 381.494H184.376C183.865 381.366 176.839 381.749 175.561 374.213C175.434 373.829 175.434 373.446 175.434 373.063H332.555C332.427 377.662 328.595 381.494 324.635 381.494ZM68.2593 233.059H169.047V356.712H68.2593V233.059ZM72.7302 79.387H141.072C134.301 92.2889 120.888 100.464 106.326 100.464H68.2593V83.858C68.2593 81.3031 70.3031 79.387 72.7302 79.387ZM84.2269 393.629C80.9056 393.629 77.9676 391.202 77.3289 387.881H91.1249C90.4862 391.202 87.5481 393.629 84.2269 393.629V393.629ZM72.7302 381.494C70.3031 381.494 68.387 379.578 68.387 377.151V363.099H169.174V369.997C169.43 371.402 168.28 376.256 171.857 381.494H72.7302ZM194.595 393.629C191.274 393.629 188.336 391.202 187.697 387.881H201.493C200.854 391.202 198.044 393.629 194.595 393.629ZM313.394 393.629C310.072 393.629 307.134 391.202 306.496 387.881H320.292C319.653 391.202 316.843 393.629 313.394 393.629ZM332.555 188.222V213.515H244.286V180.302H324.635C328.978 180.302 332.555 183.879 332.555 188.222ZM237.899 213.515H175.434V188.222C175.434 184.39 178.116 181.196 181.821 180.43V200.741C181.821 204.19 184.631 207.128 188.208 207.128H225.253C228.702 207.128 231.64 204.317 231.64 200.741V180.302H238.027L237.899 213.515ZM225.125 200.741H188.208V180.302H225.125V200.741Z" fill="#235197"/>
<path d="M91.5081 165.484H84.6101C81.2888 165.484 78.4785 168.167 78.4785 171.616V213.004C78.4785 216.325 81.1611 219.135 84.6101 219.135H91.5081C94.8294 219.135 97.6397 216.453 97.6397 213.004V171.488C97.6397 168.167 94.8294 165.484 91.5081 165.484V165.484ZM91.2526 212.621H84.8656V171.871H91.2526V212.621Z" fill="#FF9254"/>
<path d="M91.5081 240.596H84.6101C81.2888 240.596 78.4785 243.278 78.4785 246.727V288.115C78.4785 291.437 81.1611 294.247 84.6101 294.247H91.5081C94.8294 294.247 97.6397 291.564 97.6397 288.115V246.727C97.6397 243.406 94.8294 240.596 91.5081 240.596ZM91.2526 287.86H84.8656V247.111H91.2526V287.86Z" fill="#FF9254"/>
</g>
<defs>
<clipPath id="clip0">
<rect width="400" height="400" fill="white"/>
</clipPath>
</defs>
</svg>
