<svg height="512pt" viewBox="-21 0 512 512" width="512pt" xmlns="http://www.w3.org/2000/svg"><path d="m299.96875 7.5h-279.390625c-7.222656 0-13.078125 5.855469-13.078125 13.078125v436.101563c0 7.222656 5.855469 13.082031 13.078125 13.082031h279.390625c7.222656 0 13.078125-5.859375 13.078125-13.082031v-436.101563c0-7.222656-5.855469-13.078125-13.078125-13.078125zm0 0" fill="#e9e9ea"/><path d="m299.96875 7.5h-25c7.222656 0 13.078125 5.855469 13.078125 13.078125v436.101563c0 7.222656-5.855469 13.082031-13.078125 13.082031h25c7.222656 0 13.078125-5.859375 13.078125-13.082031v-436.101563c0-7.222656-5.855469-13.078125-13.078125-13.078125zm0 0" fill="#c5c4cc"/><path d="m33.011719 469.761719v32.738281c0 1.105469.894531 2 2 2h24.851562c1.105469 0 2-.894531 2-2v-5.304688c0-1.101562.894531-2 2-2h192.820313c1.105468 0 2 .898438 2 2v5.304688c0 1.105469.894531 2 2 2h24.851562c1.105469 0 2-.894531 2-2v-32.738281zm0 0" fill="#575b7a"/><path d="m7.5 149.296875v42.703125h59.742188c1.0625 0 2.078124-.421875 2.828124-1.171875l17.992188-17.988281c.75-.75 1.765625-1.175782 2.828125-1.175782h222.15625v-22.367187zm0 0" fill="#575b7a"/><path d="m288.046875 149.296875h25v22.367187h-25zm0 0" fill="#252d4c"/><path d="m444.652344 296.050781h-301.769532c-9.746093 0-17.648437 7.902344-17.648437 17.648438v173.152343c0 9.746094 7.902344 17.648438 17.648437 17.648438h301.769532c9.75 0 17.648437-7.902344 17.648437-17.648438v-173.152343c0-9.746094-7.902343-17.648438-17.648437-17.648438zm0 0" fill="#575b7a"/><path d="m444.652344 296.050781h-26.300782c9.746094 0 17.648438 7.902344 17.648438 17.648438v173.152343c0 9.746094-7.902344 17.648438-17.648438 17.648438h26.300782c9.746094 0 17.648437-7.902344 17.648437-17.648438v-173.152343c0-9.746094-7.902343-17.648438-17.648437-17.648438zm0 0" fill="#252d4c"/><path d="m363.179688 296.050781h-220.296876c-9.746093 0-17.648437 7.902344-17.648437 17.648438v173.152343c0 9.746094 7.902344 17.648438 17.648437 17.648438h220.296876zm0 0" fill="#5692d8"/><path d="m147.144531 478.589844v-156.628906c0-2.207032 1.792969-4 4-4h186.121094c2.210937 0 4 1.792968 4 4v156.628906c0 2.207031-1.789063 4-4 4h-186.121094c-2.207031 0-4-1.789063-4-4zm0 0" fill="#c8e7f7"/><path d="m430 363.210938c0 9.535156-7.726562 17.261718-17.261719 17.261718-9.53125 0-17.257812-7.726562-17.257812-17.261718 0-9.53125 7.726562-17.257813 17.257812-17.257813 9.535157 0 17.261719 7.726563 17.261719 17.257813zm0 0" fill="#aed559"/><path d="m58.589844 117.792969v-42.539063c0-4.144531-3.359375-7.5-7.5-7.5-4.144532 0-7.5 3.355469-7.5 7.5v42.539063c0 4.144531 3.355468 7.5 7.5 7.5 4.140625 0 7.5-3.355469 7.5-7.5zm0 0"/><path d="m51.089844 211.28125c-4.144532 0-7.5 3.355469-7.5 7.5v42.539062c0 4.144532 3.355468 7.5 7.5 7.5 4.140625 0 7.5-3.355468 7.5-7.5v-42.539062c0-4.140625-3.359375-7.5-7.5-7.5zm0 0"/><path d="m462.300781 355.714844c4.144531 0 7.5-3.359375 7.5-7.5v-34.515625c0-13.863281-11.28125-25.144531-25.148437-25.144531h-81.394532c-.027343 0-.054687-.003907-.078124-.003907h-42.628907v-267.972656c0-11.347656-9.234375-20.578125-20.578125-20.578125h-279.390625c-11.347656 0-20.582031 9.230469-20.582031 20.578125v39.671875c0 4.144531 3.359375 7.5 7.5 7.5 4.144531 0 7.5-3.355469 7.5-7.5v-39.671875c0-3.074219 2.503906-5.578125 5.582031-5.578125h279.390625c3.074219 0 5.578125 2.503906 5.578125 5.578125v121.21875h-290.550781v-51.546875c0-4.144531-3.355469-7.5-7.5-7.5-4.140625 0-7.5 3.355469-7.5 7.5v58.96875.078125 42.703125.078125 264.601563c0 11.347656 9.234375 20.582031 20.582031 20.582031h4.929688v25.238281c0 5.238281 4.261719 9.5 9.5 9.5h24.851562c5.171875 0 9.394531-4.15625 9.496094-9.304688h26.625c4.144531 0 7.5-3.355468 7.5-7.5 0-4.140624-3.355469-7.5-7.5-7.5h-32.121094c-5.171875 0-9.394531 4.15625-9.5 9.304688h-13.851562v-19.738281h77.222656v9.589843c0 13.867188 11.28125 25.148438 25.148437 25.148438h301.769532c13.867187 0 25.148437-11.28125 25.148437-25.148438v-108.640624c0-4.140626-3.355469-7.5-7.5-7.5-4.140625 0-7.5 3.359374-7.5 7.5v108.640624c0 5.597657-4.550781 10.148438-10.148437 10.148438h-73.972656v-193.445312h73.972656c5.597656 0 10.148437 4.550781 10.148437 10.144531v34.515625c0 4.140625 3.359375 7.5 7.5 7.5zm-156.753906-198.917969v7.367187h-214.65625c-3.070313 0-5.957031 1.195313-8.132813 3.371094l-16.964843 16.964844h-50.792969v-27.703125zm-284.964844 305.464844c-3.078125 0-5.582031-2.503907-5.582031-5.582031v-257.179688h52.242188c3.074218 0 5.960937-1.195312 8.132812-3.367188l16.964844-16.96875h213.210937v109.386719h-162.667969c-12.890624 0-23.546874 9.753907-24.984374 22.265625-.109376.949219-.164063 1.910156-.164063 2.886719v148.558594zm335.097657 34.738281h-212.796876c-5.597656 0-10.148437-4.554688-10.148437-10.148438v-173.148437c0-5.597656 4.554687-10.148437 10.148437-10.148437h212.796876zm0 0"/><path d="m139.644531 478.589844c0 6.339844 5.160157 11.5 11.5 11.5h186.121094c6.34375 0 11.5-5.160156 11.5-11.5v-156.628906c0-6.339844-5.15625-11.5-11.5-11.5h-136.945313c-4.140624 0-7.5 3.359374-7.5 7.5 0 4.144531 3.359376 7.5 7.5 7.5h133.445313v149.628906h-179.121094v-149.628906h15.675781c4.140626 0 7.5-3.355469 7.5-7.5 0-4.140626-3.359374-7.5-7.5-7.5h-19.175781c-6.339843 0-11.5 5.160156-11.5 11.5zm0 0"/><path d="m437.5 363.210938c0-13.652344-11.105469-24.761719-24.761719-24.761719-13.652343 0-24.757812 11.109375-24.757812 24.761719 0 13.652343 11.105469 24.761718 24.757812 24.761718 13.65625 0 24.761719-11.109375 24.761719-24.761718zm-34.519531 0c0-5.382813 4.378906-9.761719 9.757812-9.761719 5.382813 0 9.761719 4.378906 9.761719 9.761719 0 5.382812-4.378906 9.761718-9.761719 9.761718-5.378906 0-9.757812-4.378906-9.757812-9.761718zm0 0"/><path d="m400.535156 408.480469h-7.398437c-4.140625 0-7.5 3.355469-7.5 7.5 0 4.140625 3.359375 7.5 7.5 7.5h7.398437c4.140625 0 7.5-3.359375 7.5-7.5 0-4.144531-3.359375-7.5-7.5-7.5zm0 0"/><path d="m432.34375 408.480469h-7.398438c-4.140624 0-7.5 3.355469-7.5 7.5 0 4.140625 3.359376 7.5 7.5 7.5h7.398438c4.140625 0 7.5-3.359375 7.5-7.5 0-4.144531-3.359375-7.5-7.5-7.5zm0 0"/><path d="m400.535156 437.082031h-7.398437c-4.140625 0-7.5 3.355469-7.5 7.5s3.359375 7.5 7.5 7.5h7.398437c4.140625 0 7.5-3.355469 7.5-7.5s-3.359375-7.5-7.5-7.5zm0 0"/><path d="m432.34375 437.082031h-7.398438c-4.140624 0-7.5 3.355469-7.5 7.5s3.359376 7.5 7.5 7.5h7.398438c4.140625 0 7.5-3.355469 7.5-7.5s-3.359375-7.5-7.5-7.5zm0 0"/></svg>