<svg width="400" height="400" viewBox="0 0 400 400" fill="none" xmlns="http://www.w3.org/2000/svg">
<path d="M240.431 385.401H100.09L80.0416 230.025H260.479L240.431 385.401Z" fill="#FF9254"/>
<path d="M275.515 209.976H65.0052V230.024H275.515V209.976Z" fill="#FF9254"/>
<path d="M80 230L82.5942 250H258.406L261 230H80Z" fill="#E8712D"/>
<path d="M160 210H90V165L110 140H140L160 165V210Z" fill="#DAE6F1"/>
<path d="M140 105H110V140H140V105Z" fill="#3CAADC"/>
<path d="M160 165H90V210H160V165Z" fill="#DAE6F1"/>
<path d="M250.98 167.105L259.948 162.628L239.489 121.642L230.521 126.119L250.98 167.105Z" fill="#E66712"/>
<path d="M270.503 104.721H250.454V124.769H270.503V104.721Z" fill="#3CAADC"/>
<path d="M225.394 144.818H180.285C180.285 122.674 198.238 104.721 220.382 104.721H250.455V124.769L225.394 144.818Z" fill="#3CAADC"/>
<path d="M225 145H195V165H225V145Z" fill="#DAE6F1"/>
<path d="M195 165H225L250 190V210H180V180L195 165Z" fill="#EBEBEB"/>
<path d="M311 315H303.17C298.455 315 293.805 316.114 289.585 318.245C281.035 322.579 270.965 322.579 262.415 318.245C258.195 316.114 253.545 315 248.83 315H241C227.195 315 216 326.335 216 340.313V370.687C216 384.665 227.195 396 241 396H248.83C253.545 396 258.195 394.886 262.415 392.755C270.965 388.421 281.035 388.421 289.585 392.755C293.805 394.886 298.455 396 303.17 396H311C324.805 396 336 384.665 336 370.687V340.313C336 326.335 324.805 315 311 315Z" fill="#3CAADC"/>
<path d="M311 365H303.17C298.455 365 293.805 363.9 289.585 361.795C281.035 357.515 270.965 357.515 262.415 361.795C258.195 363.9 253.545 365 248.83 365H241C227.195 365 216 353.805 216 340C216 326.195 227.195 315 241 315H248.83C253.545 315 258.195 316.1 262.415 318.205C270.965 322.485 281.035 322.485 289.585 318.205C293.805 316.1 298.455 315 303.17 315H311C324.805 315 336 326.195 336 340C336 353.805 324.805 365 311 365Z" fill="#DAE6F1"/>
<path d="M315.613 330.267H305.588V340.292H315.613V330.267Z" fill="#F5A338"/>
<path d="M265.491 330.267H255.467V340.292H265.491V330.267Z" fill="#F5A338"/>
<path d="M245.442 335.28H235.418V345.304H245.442V335.28Z" fill="#F5A338"/>
<path d="M295.564 335.28H285.54V345.304H295.564V335.28Z" fill="#F5A338"/>
<path d="M194.867 250.308V210H115V325.885C115 334.234 121.704 341 129.975 341H179.892C188.163 341 194.867 334.234 194.867 325.885V275.5L215.133 285.729C220.479 288.429 226.978 286.242 229.653 280.851C229.653 280.846 229.659 280.846 229.659 280.841L229.783 280.589C232.579 275.052 230.392 268.276 224.911 265.459C224.891 265.449 224.866 265.433 224.842 265.423L194.867 250.308Z" fill="#97D3E6"/>
<path d="M224.83 265.423L194.801 250.308V210H191.011C172.858 270.134 141.004 306.884 115 328.106C116.075 335.508 122.371 340.995 129.792 341H179.799C188.086 341 194.801 334.234 194.801 325.885V275.5L215.104 285.729C220.46 288.429 226.971 286.242 229.651 280.851C229.651 280.846 229.656 280.846 229.656 280.841L229.781 280.589C232.582 275.052 230.391 268.276 224.9 265.459C224.876 265.449 224.856 265.433 224.83 265.423Z" fill="#8AC9DE"/>
<path d="M140.187 290.17H130.163V340.292H140.187V290.17Z" fill="#7DBDD1"/>
<path d="M160.236 290.17H150.212V340.292H160.236V290.17Z" fill="#7DBDD1"/>
<path d="M180.285 290.17H170.26V340.292H180.285V290.17Z" fill="#7DBDD1"/>
<path d="M65.0177 235H75.6605L95.1649 385.64C95.486 388.135 97.6188 390 100.143 390H218.264C223.954 396.355 232.093 399.995 240.643 400H248.501C254.011 399.995 259.445 398.715 264.378 396.265C271.553 392.71 279.983 392.71 287.159 396.265C292.091 398.715 297.526 399.995 303.035 400H310.893C327.512 399.985 340.985 386.56 341 370V340C340.985 323.44 327.512 310.015 310.893 310H303.035C297.526 310.005 292.092 311.285 287.159 313.735C279.983 317.29 271.553 317.29 264.378 313.735C261.518 312.335 258.477 311.325 255.346 310.735L265.126 235H275.768C278.538 235 280.786 232.76 280.786 230V210C280.786 207.241 278.538 205.001 275.768 205.001H255.697V190.001C255.697 188.676 255.17 187.401 254.227 186.466L230.608 162.93V147.4L238.215 141.34L251.206 167.235L260.189 162.765L246.229 134.95L252.435 130H270.751C273.52 130 275.768 127.76 275.768 125V105C275.768 102.24 273.52 100 270.751 100H220.572C195.643 100.03 175.441 120.16 175.411 145C175.411 147.76 177.659 150 180.429 150H190.465V162.93L176.881 176.465C175.938 177.4 175.411 178.675 175.411 180V205H165.375V165C165.365 164.38 165.245 163.77 165.009 163.195C164.918 162.999 164.813 162.81 164.698 162.63C164.577 162.37 164.437 162.115 164.276 161.874L145.303 138.249V105C145.303 102.24 143.055 100 140.286 100H110.179C107.409 100 105.161 102.24 105.161 105V138.25L86.188 161.875C86.0275 162.115 85.8869 162.37 85.7664 162.63C85.6511 162.81 85.5459 163 85.4553 163.195C85.2195 163.77 85.099 164.38 85.089 165V205H65.0177C62.248 205 60 207.24 60 210V230C60 232.76 62.248 235 65.0177 235ZM310.893 390H303.035C299.082 389.995 295.188 389.075 291.65 387.32C281.645 382.364 269.892 382.364 259.887 387.32C256.349 389.075 252.455 389.995 248.501 390H240.643C229.559 390 220.572 381.045 220.572 370V362.3C226.077 367.255 233.227 370 240.643 370H248.501C254.011 369.995 259.445 368.715 264.378 366.265C271.553 362.71 279.983 362.71 287.159 366.265C292.091 368.715 297.526 369.995 303.035 370H310.893C318.309 370 325.459 367.255 330.964 362.3V370C330.965 381.045 321.978 390 310.893 390ZM291.65 322.68C295.188 320.925 299.082 320.005 303.035 320H310.893C321.978 320 330.965 328.955 330.965 340C330.965 351.045 321.978 360 310.893 360H303.035C299.082 359.995 295.188 359.075 291.65 357.32C281.645 352.364 269.892 352.364 259.887 357.32C256.349 359.075 252.455 359.995 248.501 360H240.643C229.559 360 220.572 351.045 220.572 340C220.572 328.955 229.559 320 240.643 320H248.501C252.455 320.005 256.349 320.925 259.887 322.68C269.892 327.63 281.645 327.63 291.65 322.68ZM245.295 310H240.643C224.025 310.015 210.552 323.44 210.536 340V370C210.546 373.41 211.138 376.79 212.293 380H104.553L85.7764 235H110.179V325C110.179 336.045 119.165 345 130.25 345H180.428C191.513 345 200.5 336.045 200.5 325V283.09L213.607 289.621C221.525 293.515 231.114 290.276 235.023 282.385C235.038 282.35 235.053 282.32 235.073 282.285C237.015 278.445 237.346 273.995 235.992 269.91C234.652 265.825 231.727 262.45 227.863 260.54L200.5 246.91V235H255.01L245.295 310ZM180.429 215H190.465V250C190.455 251.905 191.529 253.65 193.24 254.5L223.347 269.5C224.817 270.22 225.926 271.505 226.433 273.055C226.955 274.72 226.774 276.525 225.932 278.055C224.486 280.94 220.969 282.115 218.074 280.674C218.068 280.674 218.064 280.669 218.058 280.669L197.686 270.519C195.197 269.309 192.191 270.334 190.977 272.814C190.641 273.494 190.466 274.244 190.466 274.999V325C190.466 330.525 185.975 335 180.43 335V290H170.393V335H160.357V290H150.321V335H140.286V290H130.25V335C124.705 335 120.214 330.525 120.214 325V215H180.429ZM270.751 225H200.5V215H270.751V225ZM265.732 120H255.697V110H265.732V120ZM220.572 110H245.661V122.6L223.828 140H185.802C188.322 122.79 203.119 110.02 220.572 110ZM220.572 150V160H200.5V150H220.572ZM185.447 182.07L197.56 170H223.512L245.661 192.07V205H185.447V182.07ZM112.587 145H137.877L149.92 160H100.544L112.587 145ZM115.196 110H135.268V135H115.196V110ZM95.1249 170H155.339V205H95.1249V170ZM70.0354 215H110.179V225H70.0354V215Z" fill="#235197"/>
<path d="M316 330H305V341H316V330Z" fill="#FF9254"/>
<path d="M265 330H256V341H265V330Z" fill="#FF9254"/>
<path d="M246 335H235V345H246V335Z" fill="#FF9254"/>
<path d="M296 335H286V345H296V335Z" fill="#FF9254"/>
</svg>
