<svg width="512" height="512" viewBox="0 0 512 512" fill="none" xmlns="http://www.w3.org/2000/svg">
<path d="M384.036 210.168L386.468 224.872C386.771 226.703 386.334 228.579 385.254 230.088C384.174 231.598 382.539 232.616 380.708 232.92C380.327 232.983 379.942 233.015 379.556 233.016C377.898 233.014 376.295 232.424 375.032 231.351C373.769 230.278 372.927 228.791 372.656 227.156L370.224 212.456C369.921 210.624 370.357 208.747 371.438 207.238C372.518 205.728 374.154 204.709 375.986 204.406C377.818 204.103 379.695 204.539 381.204 205.62C382.714 206.7 383.733 208.336 384.036 210.168ZM87.004 294.492V309C87.004 310.857 87.7415 312.637 89.0543 313.95C90.367 315.263 92.1475 316 94.004 316C95.8605 316 97.641 315.263 98.9538 313.95C100.267 312.637 101.004 310.857 101.004 309V294.492C101.015 284.682 104.916 275.277 111.853 268.341C118.789 261.404 128.194 257.503 138.004 257.492C139.861 257.492 141.641 256.754 142.954 255.442C144.267 254.129 145.004 252.349 145.004 250.492C145.004 248.635 144.267 246.855 142.954 245.542C141.641 244.229 139.861 243.492 138.004 243.492C124.483 243.507 111.519 248.885 101.958 258.446C92.3968 268.007 87.0188 280.971 87.004 294.492ZM248.676 439C248.679 451.384 244.424 463.393 236.624 473.012C228.823 482.631 217.953 489.276 205.835 491.831C193.717 494.387 181.09 492.698 170.069 487.048C159.049 481.398 150.306 472.131 145.308 460.8H58C57.0806 460.801 56.1701 460.62 55.3206 460.268C54.4711 459.917 53.6992 459.401 53.0491 458.751C52.399 458.101 51.8834 457.329 51.5318 456.479C51.1802 455.63 50.9995 454.719 51 453.8V436.716C42.0273 435.07 33.9141 430.335 28.0688 423.331C22.2234 416.328 19.0148 407.498 19 398.376V354.156C19.0148 345.034 22.2234 336.204 28.0688 329.201C33.9141 322.197 42.0273 317.462 51 315.816V294.48C51.0265 271.414 60.201 249.301 76.5109 232.991C92.8209 216.681 114.934 207.506 138 207.48H152.96V174C152.96 172.143 153.697 170.363 155.01 169.05C156.323 167.737 158.103 167 159.96 167H164.96V102.68C164.955 88.2572 168.679 74.0781 175.77 61.5188C182.86 48.9595 193.078 38.4465 205.43 31.0003C217.782 23.554 231.849 19.4274 246.266 19.0208C260.683 18.6143 274.96 21.9416 287.712 28.68L323.628 47.636C335.051 53.7208 344.919 62.3551 352.466 72.8692C360.013 83.3834 365.037 95.4948 367.148 108.264L379.376 182.044C379.679 183.876 379.243 185.753 378.162 187.262C377.082 188.772 375.446 189.791 373.614 190.094C371.782 190.397 369.905 189.961 368.396 188.88C366.886 187.8 365.867 186.164 365.564 184.332L353.332 110.532C351.576 99.8932 347.393 89.802 341.107 81.0413C334.82 72.2807 326.6 65.0862 317.084 60.016L281.172 41.06C270.554 35.4453 258.665 32.6716 246.659 33.0085C234.652 33.3454 222.937 36.7813 212.651 42.9825C202.364 49.1838 193.857 57.9397 187.953 68.3998C182.05 78.86 178.952 90.669 178.96 102.68V167H207.96C209.817 167 211.597 167.737 212.91 169.05C214.222 170.363 214.96 172.143 214.96 174V207.48H219.96C221.817 207.48 223.597 208.218 224.91 209.53C226.222 210.843 226.96 212.623 226.96 214.48V281.332C226.96 283.189 226.222 284.969 224.91 286.282C223.597 287.595 221.817 288.332 219.96 288.332C218.103 288.332 216.323 287.595 215.01 286.282C213.697 284.969 212.96 283.189 212.96 281.332V221.48H138C118.646 221.502 100.091 229.2 86.4058 242.886C72.7204 256.571 65.0222 275.126 65 294.48V446.8H141.3C139.917 437.571 140.958 428.14 144.319 419.434C147.681 410.728 153.249 403.046 160.475 397.141C167.702 391.236 176.34 387.311 185.541 385.752C194.743 384.193 204.191 385.053 212.96 388.248V312.668C212.96 310.811 213.697 309.031 215.01 307.718C216.323 306.406 218.103 305.668 219.96 305.668C221.817 305.668 223.597 306.406 224.91 307.718C226.222 309.031 226.96 310.811 226.96 312.668V395.812C233.692 400.823 239.161 407.337 242.931 414.835C246.701 422.333 248.668 430.608 248.676 439ZM166.96 207.48H200.96V181H166.96V207.48ZM51 422.4V330.148C45.8118 331.671 41.2554 334.831 38.0112 339.156C34.767 343.482 33.0091 348.741 33 354.148V398.376C33.0032 403.787 34.7585 409.052 38.0032 413.383C41.2479 417.713 45.8075 420.877 51 422.4ZM234.676 439.016C234.676 431.105 232.33 423.371 227.935 416.793C223.54 410.215 217.292 405.088 209.983 402.061C202.674 399.033 194.632 398.241 186.872 399.785C179.113 401.328 171.986 405.138 166.392 410.732C160.798 416.326 156.988 423.453 155.445 431.212C153.901 438.972 154.693 447.014 157.721 454.323C160.748 461.632 165.875 467.88 172.453 472.275C179.031 476.67 186.765 479.016 194.676 479.016C205.284 479.003 215.453 474.783 222.952 467.281C230.451 459.778 234.668 449.608 234.676 439V439.016ZM493 486C493 487.857 492.262 489.637 490.95 490.95C489.637 492.263 487.857 493 486 493H321.668C319.811 493 318.031 492.263 316.718 490.95C315.406 489.637 314.668 487.857 314.668 486C314.681 474.6 319.215 463.67 327.276 455.608C335.338 447.547 346.268 443.013 357.668 443H384.104L329.6 114.4C328.467 107.425 325.735 100.806 321.62 95.0611C317.504 89.3162 312.116 84.601 305.876 81.284L269.952 62.284C262.991 58.6123 255.2 56.8012 247.333 57.0264C239.466 57.2516 231.791 59.5054 225.052 63.5693C218.312 67.6332 212.737 73.3693 208.866 80.2216C204.996 87.074 202.961 94.8101 202.96 102.68V141.668C202.96 143.525 202.222 145.305 200.91 146.618C199.597 147.931 197.817 148.668 195.96 148.668C194.103 148.668 192.323 147.931 191.01 146.618C189.697 145.305 188.96 143.525 188.96 141.668V102.68C188.961 92.3949 191.62 82.2845 196.677 73.3289C201.735 64.3734 209.021 56.8764 217.828 51.5647C226.636 46.253 236.666 43.3067 246.947 43.0116C257.228 42.7164 267.41 45.0823 276.508 49.88L312.432 68.88C320.583 73.2108 327.622 79.3676 333 86.8692C338.377 94.3708 341.948 103.014 343.432 112.124L398.296 443H408.424L376.632 251.148C376.328 249.316 376.764 247.439 377.844 245.929C378.925 244.419 380.56 243.4 382.392 243.096C384.224 242.792 386.101 243.228 387.611 244.308C389.121 245.389 390.14 247.024 390.444 248.856L422.616 443H450C461.4 443.013 472.33 447.547 480.392 455.608C488.453 463.67 492.987 474.6 493 486ZM478.144 479C476.574 472.722 472.953 467.147 467.854 463.162C462.755 459.176 456.472 457.007 450 457H357.668C351.196 457.007 344.913 459.176 339.814 463.162C334.715 467.147 331.094 472.722 329.524 479H478.144Z" fill="url(#paint0_linear)"/>
<defs>
<linearGradient id="paint0_linear" x1="459.816" y1="522.084" x2="85.336" y2="147.6" gradientUnits="userSpaceOnUse">
<stop stop-color="#00EFD1"/>
<stop offset="1" stop-color="#00ACEA"/>
</linearGradient>
</defs>
</svg>
