<svg width="406" height="437" viewBox="0 0 406 437" fill="none" xmlns="http://www.w3.org/2000/svg">
<g clip-path="url(#clip0)">
<path d="M150.991 191.578H173.794V157.596H150.991V191.578Z" fill="#D7E3F2"/>
<path d="M178.312 141.047H305.509C308.85 141.047 312.049 142.403 314.373 144.804L335.578 166.719C337.831 169.047 339.09 172.159 339.09 175.399V199.197C339.09 209.133 330.181 216.988 319.915 215.211C319.117 215.072 318.333 214.852 317.566 214.59L298.641 208.125C294.651 208.125 290.987 210.314 289.103 213.83C288.563 214.838 287.984 215.936 287.394 217.086C283.098 225.456 284.33 235.625 290.602 242.638C315.021 269.947 308.768 317.336 307.816 323.59C307.75 324.022 307.909 324.456 308.239 324.743L318.553 333.72C319.712 334.73 320.378 336.191 320.378 337.728V372.953C320.378 375.887 317.999 378.266 315.064 378.266H210.774C207.84 378.266 205.461 375.887 205.461 372.953V344.752C205.461 333.445 214.627 324.279 225.934 324.279H250.527C257.633 324.279 262.77 317.486 260.834 310.648L240.405 238.486H226.797C224.702 238.486 223.002 236.787 223.002 234.691V208.126H178.311C175.817 208.126 173.794 206.103 173.794 203.608V145.564C173.796 143.069 175.817 141.047 178.312 141.047Z" fill="#FF9254"/>
<path d="M225.934 324.279H240.145C228.838 324.279 219.672 333.445 219.672 344.751V372.953C219.672 375.887 222.051 378.266 224.985 378.266H210.774C207.84 378.266 205.461 375.887 205.461 372.953V344.752C205.461 333.445 214.627 324.279 225.934 324.279Z" fill="#EF7D31"/>
<path d="M178.312 141.047H192.523C190.028 141.047 188.006 143.069 188.006 145.564V203.609C188.006 206.104 190.028 208.126 192.523 208.126H178.312C175.817 208.126 173.795 206.104 173.795 203.609V145.564C173.796 143.069 175.817 141.047 178.312 141.047Z" fill="#EF7D31"/>
<path d="M289.103 213.831C288.563 214.839 287.984 215.937 287.394 217.087C283.098 225.457 284.33 235.626 290.602 242.639C315.021 269.948 308.768 317.336 307.816 323.591C307.779 323.829 307.818 324.066 307.909 324.28C307.909 324.28 287.504 326.707 288.908 320.716C289.321 318.951 295.36 276.654 276.342 255.385C271.288 249.733 268 242.888 266.584 235.684C264.352 224.332 273.289 213.831 284.859 213.831H289.103Z" fill="#7D8C97"/>
<path d="M320.378 349.387V372.953C320.378 375.887 317.999 378.267 315.064 378.267H210.774C207.84 378.267 205.461 375.888 205.461 372.953V349.387H320.378Z" fill="#7D8C97"/>
<path d="M219.671 372.953C219.671 375.887 222.05 378.267 224.984 378.267H210.774C207.839 378.267 205.46 375.888 205.46 372.953V349.387H219.671V372.953H219.671Z" fill="#5C6C75"/>
<path d="M116.698 146.692V202.48L84.4227 191.949C82.8613 191.439 81.8049 189.983 81.8049 188.341V160.831C81.8049 159.188 82.8613 157.732 84.4227 157.223L116.698 146.692Z" fill="#7D8C97"/>
<path d="M84.4227 177.509L116.698 188.04V202.481L84.4227 191.949C82.8613 191.44 81.8049 189.984 81.8049 188.341V173.901C81.8049 175.543 82.8613 176.999 84.4227 177.509Z" fill="#5C6C75"/>
<path d="M149.079 146.692H116.698V202.48H149.079C150.135 202.48 150.991 201.624 150.991 200.567V148.605C150.991 147.548 150.135 146.692 149.079 146.692Z" fill="#5C6C75"/>
<path d="M150.991 186.126V200.567C150.991 201.624 150.135 202.48 149.079 202.48H116.698V188.039H149.079C150.135 188.039 150.991 187.183 150.991 186.126Z" fill="#4A5960"/>
<path d="M223.003 234.691V208.126H242.592C247.148 208.126 250.29 212.694 248.659 216.948L240.406 238.486H226.798C224.702 238.486 223.003 236.787 223.003 234.691Z" fill="#7D8C97"/>
<path d="M268.002 360.946C261.618 360.946 256.443 355.771 256.443 349.387C256.443 343.003 261.618 337.828 268.002 337.828C274.386 337.828 279.561 343.003 279.561 349.387C279.561 355.771 274.386 360.946 268.002 360.946Z" fill="#4A5960"/>
<path d="M287.734 186.126C281.36 186.126 276.193 180.96 276.193 174.586C276.193 168.212 281.36 163.045 287.734 163.045C294.107 163.045 299.274 168.212 299.274 174.586C299.274 180.96 294.107 186.126 287.734 186.126Z" fill="#EF7D31"/>
<path d="M61.7817 169.804C64.4231 169.804 77.0232 169.804 77.0232 169.804V160.831C77.0232 157.109 79.4007 153.832 82.9391 152.677C82.9391 152.677 115.455 142.077 115.571 142.05C115.96 141.954 116.407 141.911 116.689 141.911H149.079C152.77 141.911 155.773 144.914 155.773 148.605V152.814H169.014V145.563C169.014 140.436 173.185 136.265 178.313 136.265L287.265 136C289.906 136 292.047 138.141 292.047 140.782C292.047 143.423 289.906 145.563 287.265 145.563L178.577 145.829V203.344H242.592C246.306 203.344 249.78 205.171 251.886 208.232C253.99 211.292 254.454 215.191 253.124 218.659L245.44 238.713L256.422 276.596C257.142 279.137 255.665 281.78 253.124 282.499C252.689 282.622 252.251 282.682 251.819 282.682C249.734 282.682 247.817 281.306 247.221 279.201L236.791 243.268H226.799C222.069 243.268 218.222 239.42 218.222 234.691V212.907H178.313C173.185 212.907 169.014 208.736 169.014 203.609V196.359H155.773V200.568C155.773 204.259 152.77 207.263 149.079 207.263H116.699C116.685 207.263 116.671 207.26 116.656 207.26C116.215 207.257 115.68 207.176 115.227 207.029L82.9391 196.495C79.4007 195.341 77.0238 192.063 77.0238 188.341V179.368H61.7817C59.1403 179.368 57 177.227 57 174.587C57 171.946 59.1403 169.804 61.7817 169.804ZM237.117 233.704L244.194 215.237C244.475 214.504 244.197 213.928 244.006 213.651C243.815 213.373 243.377 212.907 242.592 212.907H227.784V233.705L237.117 233.704ZM169.013 186.795V162.377H155.772V186.795H169.013ZM146.21 151.474H121.48V197.698H146.21V151.474ZM86.5866 187.625L111.916 195.89V153.282L86.5866 161.546V187.625Z" fill="#235197"/>
<path d="M225.934 319.498H250.528C252.403 319.498 254.127 318.64 255.258 317.145C256.389 315.649 256.745 313.757 256.234 311.952L246.247 276.677C245.528 274.136 247.004 271.493 249.545 270.774C252.086 270.056 254.728 271.531 255.448 274.072L265.435 309.346C266.769 314.061 265.84 319.006 262.885 322.913C259.93 326.821 255.425 329.062 250.526 329.062H225.933C217.33 329.062 210.325 336.022 210.245 344.606H252.375C254.425 337.921 260.653 333.047 268.001 333.047C275.348 333.047 281.576 337.922 283.626 344.606H315.596V337.73C315.596 337.576 315.53 337.429 315.413 337.328L306.161 329.274C304.002 329.478 301.746 329.612 299.534 329.612C293.805 329.612 288.385 328.719 285.812 325.84C284.306 324.156 283.734 321.913 284.24 319.68C285.528 313.111 288.682 276.361 272.777 258.574C267.27 252.416 263.506 244.82 261.891 236.608C260.569 229.881 262.33 222.961 266.722 217.622C271.202 212.175 277.813 209.051 284.858 209.051H286.579C289.508 205.477 293.907 203.345 298.641 203.345C299.167 203.345 299.689 203.432 300.186 203.602L319.112 210.067C319.725 210.277 320.256 210.419 320.731 210.501C324.207 211.103 327.575 210.212 330.213 207.991C332.816 205.8 334.308 202.596 334.308 199.199V175.4C334.308 173.391 333.539 171.49 332.142 170.046L310.937 148.131C309.522 146.669 307.544 145.83 305.51 145.83H277.398C274.757 145.83 272.617 143.689 272.617 141.048C272.617 138.408 274.757 136.267 277.398 136.267H305.51C310.121 136.267 314.604 138.167 317.81 141.481L339.014 163.396C342.147 166.633 343.872 170.896 343.872 175.4V199.199C343.872 205.424 341.138 211.296 336.372 215.307C331.608 219.317 325.314 221.003 319.099 219.924C318.122 219.754 317.115 219.49 316.021 219.116L297.958 212.946C294.275 213.361 293.238 216.174 291.648 219.271C288.261 225.87 289.273 233.98 294.166 239.452C305.136 251.72 311.636 268.929 313.488 290.604C314.705 304.855 313.519 317.004 312.814 322.387L321.693 330.115C323.896 332.033 325.16 334.808 325.16 337.73V372.954C325.16 378.52 320.631 383.049 315.065 383.049H210.774C205.208 383.049 200.68 378.52 200.68 372.954V344.754C200.679 330.828 212.009 319.498 225.934 319.498V319.498ZM287.037 245.827C280.525 238.545 278.485 228.238 281.431 219.045C278.587 219.766 276.02 221.372 274.108 223.697C271.539 226.819 270.507 230.853 271.276 234.763C272.559 241.291 275.543 247.319 279.906 252.199C298.424 272.909 295.101 310.143 293.886 319.586C295.909 319.989 299.615 320.095 303.487 319.869C304.876 308.05 307.635 268.864 287.037 245.827V245.827ZM268.002 342.611C264.265 342.611 261.225 345.651 261.225 349.388C261.225 353.125 264.265 356.165 268.002 356.165C271.739 356.165 274.779 353.125 274.779 349.388C274.779 345.651 271.739 342.611 268.002 342.611ZM210.774 373.486H315.064C315.357 373.486 315.595 373.247 315.595 372.955V354.17H283.627C281.577 360.855 275.349 365.729 268.001 365.729C260.654 365.729 254.426 360.855 252.376 354.17H210.242V372.955C210.243 373.247 210.481 373.486 210.774 373.486V373.486Z" fill="#235197"/>
<path d="M216.359 168.225H202.014C199.373 168.225 197.232 166.084 197.232 163.443C197.232 160.802 199.373 158.661 202.014 158.661H216.359C219 158.661 221.141 160.802 221.141 163.443C221.141 166.084 219 168.225 216.359 168.225Z" fill="#235197"/>
<path d="M216.359 190.436H202.014C199.373 190.436 197.232 188.295 197.232 185.655C197.232 183.014 199.373 180.873 202.014 180.873H216.359C219 180.873 221.141 183.014 221.141 185.655C221.141 188.295 219 190.436 216.359 190.436Z" fill="#235197"/>
<path d="M287.734 158.264C296.734 158.264 304.056 165.585 304.056 174.586C304.056 183.586 296.734 190.908 287.734 190.908C280.397 190.908 274.177 186.042 272.128 179.368H245.05C242.409 179.368 240.268 177.227 240.268 174.586C240.268 171.945 242.409 169.804 245.05 169.804H272.128C274.177 163.13 280.397 158.264 287.734 158.264ZM287.734 181.345C291.46 181.345 294.493 178.312 294.493 174.586C294.493 170.859 291.46 167.827 287.734 167.827C284.007 167.827 280.975 170.859 280.975 174.586C280.975 178.312 284.007 181.345 287.734 181.345Z" fill="#235197"/>
</g>
<defs>
<clipPath id="clip0">
<rect width="400" height="383.111" fill="white"/>
</clipPath>
</defs>
</svg>
