<svg id="Layer_1" enable-background="new 0 0 256 256" height="512" viewBox="0 0 256 256" width="512" xmlns="http://www.w3.org/2000/svg"><g id="Layer_57"><g><circle cx="209.1" cy="37.5" fill="#87d147" r="3.1"/><circle cx="196.1" cy="205.5" fill="#70d6f9" r="3.1"/><circle cx="103.1" cy="218.5" fill="#f5c84c" r="3.1"/><path d="m243.8 49.8c-4-.7-7.2-3.8-8-7.8 0-.1-.1-.2-.2-.1-.1 0-.1.1-.1.1-.8 4-4 7.1-8 7.8-.1 0-.2.1-.2.2s.1.1.2.2c4 .7 7.2 3.8 8 7.8 0 .1.1.2.2.1.1 0 .1-.1.1-.1.8-4 4-7.1 8-7.8.1 0 .2-.1.2-.2 0-.2-.1-.2-.2-.2z" fill="#f5c84c"/><path d="m78.2 207.4h-2.1v-2.1c0-1.6-1.3-2.9-2.9-2.9s-2.9 1.3-2.9 2.9v2.1h-2.1c-1.6 0-2.9 1.3-2.9 2.9s1.3 2.9 2.9 2.9h2.1v2.1c0 1.6 1.3 2.9 2.9 2.9s2.9-1.3 2.9-2.9v-2.1h2.1c1.6 0 2.9-1.3 2.9-2.9s-1.3-2.9-2.9-2.9z" fill="#fc657e"/><g fill="#3a70bf"><path d="m31.4 88.9h-22.8c-3.4 0-6.1 2.7-6.1 6.1v79.7c0 3.4 2.7 6.1 6.1 6.2h28.9v-85.8c0-3.4-2.7-6.1-6.1-6.2z"/><path d="m247.4 89.4h-22.7c-3.4 0-6.1 2.7-6.1 6.1v85.5h28.9c3.4 0 6.1-2.3 6.1-5.7v-79.7c-.1-3.4-2.8-6.1-6.2-6.2z"/><path d="m37.5 152.6v28.4h181v-28.4c0-3.4-2.7-6.1-6.1-6.1h-168.8c-3.4 0-6.1 2.7-6.1 6.1z"/></g><path d="m211.9 126.4h-77.7c-3.4 0-6.1 2.7-6.1 6.1v13.9h84.4c3.4 0 6.1 2.7 6.1 6.1v-20c-.1-3.3-3.4-6.1-6.7-6.1z" fill="#5290db"/><path d="m43.6 146.4h84.4v-13.9c0-3.4-2.7-6.1-6.1-6.1h-77.8c-3.4 0-6.6 2.8-6.6 6.1v20c0-3.3 2.7-6 6.1-6.1z" fill="#5290db"/><path d="m203.2 56.4h-60c-8.4 0-15.2 6.8-15.3 15.3v60.9c0-3.4 2.7-6.1 6.1-6.1h77.7c3.4 0 6.6 2.8 6.6 6.1v-60.9c.2-8.4-6.6-15.2-15.1-15.3z" fill="#3a70bf"/><path d="m112.7 56.4h-59.4c-8.7 0-15.7 7.1-15.8 15.8v60.4c0-3.4 3.3-6.1 6.6-6.1h77.7c3.4 0 6.1 2.7 6.1 6.1v-60.9c.1-8.4-6.7-15.2-15.2-15.3z" fill="#3a70bf"/><path d="m218.5 181h-207.3v2.8c0 4.4 3.5 7.9 7.9 7.9h217.9c4.4 0 7.9-3.5 7.9-7.9v-2.8z" fill="#f9bd95"/><path d="m229.2 191.7h-12.4l10 17.3c1.5 2.6 4.8 3.5 7.4 2s3.5-4.8 2-7.4z" fill="#fca265"/><path d="m26.8 191.7-6.9 11.9c-1.5 2.6-.6 5.9 2 7.4s5.9.6 7.4-2l10-17.3z" fill="#fca265"/><g fill="#5290db"><circle cx="155.2" cy="79.5" r="4.5"/><circle cx="155.2" cy="109.5" r="4.5"/><circle cx="191.2" cy="79.5" r="4.5"/><circle cx="173.2" cy="94.5" r="4.5"/><circle cx="191.2" cy="109.5" r="4.5"/></g><g fill="#5290db"><circle cx="64.8" cy="79.5" r="4.5"/><circle cx="64.8" cy="109.5" r="4.5"/><circle cx="100.8" cy="79.5" r="4.5"/><circle cx="82.8" cy="94.5" r="4.5"/><circle cx="100.8" cy="109.5" r="4.5"/></g><path d="m247.4 86.9h-22.7c-1.3 0-2.5.3-3.6.8v-16c0-9.8-8-17.8-17.8-17.8h-60c-6.3 0-12.1 3.3-15.3 8.7-3.2-5.4-9-8.7-15.3-8.7h-59.4c-10.1.1-18.3 8.2-18.3 18.3v15.1c-1.1-.5-2.4-.8-3.6-.8h-22.8c-4.8 0-8.6 3.9-8.6 8.6v79.7c0 4.8 3.9 8.7 8.6 8.7v.3c0 5.8 4.7 10.4 10.4 10.4h3.4l-4.7 8.2c-2.2 3.8-.9 8.6 2.9 10.8s8.6.9 10.8-2.9l9.3-16.1h174.7l9.3 16.1c2.2 3.8 7 5.1 10.8 2.9s5.1-7 2.9-10.8l-4.7-8.2h3.4c5.8 0 10.4-4.7 10.4-10.4v-.3c4.9 0 8.6-3.5 8.6-8.2v-79.7c-.1-4.8-4-8.6-8.7-8.7zm-207.4 91.6v-25.9c0-2 1.6-3.6 3.6-3.6h168.7c2 0 3.6 1.6 3.6 3.6v25.9zm176-33.8c-1.1-.5-2.4-.8-3.6-.8h-81.9v-11.4c0-2 1.6-3.6 3.6-3.6h77.7c2.1 0 4.1 1.8 4.1 3.6zm-90.5-.8h-81.9c-1.3 0-2.5.3-3.6.8v-12.2c0-1.9 2-3.6 4.1-3.6h77.7c2 0 3.6 1.6 3.6 3.6zm17.8-85h60c7 0 12.8 5.7 12.8 12.8v53.2c-1.3-.6-2.7-1-4.1-1h-77.7c-1.3 0-2.5.3-3.6.8v-53c-.2-7 5.5-12.7 12.6-12.8zm-103.3 13.3c0-7.3 5.9-13.3 13.3-13.3h59.5c7 0 12.8 5.7 12.8 12.8v53c-1.1-.5-2.4-.8-3.6-.8h-77.9c-1.4 0-2.8.4-4.1 1zm-35 102.6v-79.7c0-2 1.6-3.6 3.6-3.6h22.7c2 0 3.6 1.6 3.6 3.6v83.4h-26.3c-2 0-3.6-1.7-3.6-3.7zm22 33c-.8 1.4-2.6 1.8-3.9 1-1.4-.8-1.8-2.5-1.1-3.9l6.2-10.7h6.7zm207-2.9c.8 1.4.3 3.1-1.1 3.9s-3.1.3-3.9-1.1l-7.8-13.6h6.7zm8.3-21.1c0 3-2.4 5.4-5.4 5.4h-217.8c-3 0-5.4-2.4-5.4-5.4v-.3h228.7v.3zm8.7-8.5c0 2.2-1.9 3.2-3.6 3.2h-26.4v-82.9c0-2 1.6-3.6 3.6-3.6h22.7c2 0 3.6 1.6 3.6 3.6v79.7z"/><path d="m155.2 86.5c3.9 0 7-3.1 7-7s-3.1-7-7-7-7 3.1-7 7c.1 3.9 3.2 7 7 7zm0-9c1.1 0 2 .9 2 2s-.9 2-2 2-2-.9-2-2c.1-1.1.9-2 2-2z"/><path d="m155.2 116.5c3.9 0 7-3.1 7-7s-3.1-7-7-7-7 3.1-7 7c.1 3.9 3.2 7 7 7zm0-9c1.1 0 2 .9 2 2s-.9 2-2 2-2-.9-2-2c.1-1.1.9-2 2-2z"/><path d="m191.2 86.5c3.9 0 7-3.1 7-7s-3.1-7-7-7-7 3.1-7 7c.1 3.9 3.2 7 7 7zm0-9c1.1 0 2 .9 2 2s-.9 2-2 2-2-.9-2-2c.1-1.1.9-2 2-2z"/><path d="m173.2 101.5c3.9 0 7-3.1 7-7s-3.1-7-7-7-7 3.1-7 7c.1 3.9 3.2 7 7 7zm0-9c1.1 0 2 .9 2 2s-.9 2-2 2-2-.9-2-2c.1-1.1.9-2 2-2z"/><path d="m191.2 116.5c3.9 0 7-3.1 7-7s-3.1-7-7-7-7 3.1-7 7c.1 3.9 3.2 7 7 7zm0-9c1.1 0 2 .9 2 2s-.9 2-2 2-2-.9-2-2c.1-1.1.9-2 2-2z"/><path d="m64.8 86.5c3.9 0 7-3.1 7-7s-3.1-7-7-7-7 3.1-7 7 3.1 7 7 7zm0-9c1.1 0 2 .9 2 2s-.9 2-2 2-2-.9-2-2 .8-2 2-2z"/><path d="m64.8 116.5c3.9 0 7-3.1 7-7s-3.1-7-7-7-7 3.1-7 7 3.1 7 7 7zm0-9c1.1 0 2 .9 2 2s-.9 2-2 2-2-.9-2-2 .8-2 2-2z"/><path d="m100.8 86.5c3.9 0 7-3.1 7-7s-3.1-7-7-7-7 3.1-7 7 3.1 7 7 7zm0-9c1.1 0 2 .9 2 2s-.9 2-2 2-2-.9-2-2 .8-2 2-2z"/><path d="m82.8 101.5c3.9 0 7-3.1 7-7s-3.1-7-7-7-7 3.1-7 7 3.1 7 7 7zm0-9c1.1 0 2 .9 2 2s-.9 2-2 2-2-.9-2-2 .8-2 2-2z"/><path d="m100.8 116.5c3.9 0 7-3.1 7-7s-3.1-7-7-7-7 3.1-7 7 3.1 7 7 7zm0-9c1.1 0 2 .9 2 2s-.9 2-2 2-2-.9-2-2 .8-2 2-2z"/></g></g></svg>