<svg width="480" height="480" viewBox="0 0 480 480" fill="none" xmlns="http://www.w3.org/2000/svg">
<path d="M440 0H40C17.92 0.026 0.026 17.92 0 40V392C0 396.418 3.582 400 8 400H24V472C24 476.418 27.582 480 32 480H64C68.418 480 72 476.418 72 472V432H408V472C408 476.418 411.582 480 416 480H448C452.418 480 456 476.418 456 472V400H472C476.418 400 480 396.418 480 392V40C479.974 17.92 462.08 0.026 440 0ZM56 464H40V432H56V464ZM440 464H424V432H440V464ZM440 416H40V400H440V416ZM464 384H16V272H464V384ZM464 272H16V144H464V272ZM464 128H16V40C16 26.745 26.745 16 40 16H440C453.255 16 464 26.745 464 40V128Z" fill="#235197"/>
<path d="M240 288C253.255 288 264 277.255 264 264C264 250.745 253.255 240 240 240C226.745 240 216 250.745 216 264C216 277.255 226.745 288 240 288ZM240 256C244.418 256 248 259.582 248 264C248 268.418 244.418 272 240 272C235.582 272 232 268.418 232 264C232 259.582 235.582 256 240 256Z" fill="#FF9254"/>
<path d="M240 32C226.745 32 216 42.745 216 56C216 69.255 226.745 80 240 80C253.255 80 264 69.255 264 56C264 42.745 253.255 32 240 32ZM240 64C235.582 64 232 60.418 232 56C232 51.582 235.582 48 240 48C244.418 48 248 51.582 248 56C248 60.418 244.418 64 240 64Z" fill="#FF9254"/>
</svg>
