<svg width="512" height="512" viewBox="0 0 512 512" fill="none" xmlns="http://www.w3.org/2000/svg">
<path d="M128 192H144V256H128V192Z" fill="url(#paint0_linear)"/>
<path d="M128 192H144V256H128V192Z" fill="url(#paint1_linear)"/>
<path d="M192 192H208V256H192V192Z" fill="url(#paint2_linear)"/>
<path d="M192 192H208V256H192V192Z" fill="url(#paint3_linear)"/>
<path d="M344 272H456C458.122 272 460.157 271.157 461.657 269.657C463.157 268.157 464 266.122 464 264V56C464 53.8783 463.157 51.8434 461.657 50.3431C460.157 48.8429 458.122 48 456 48H344C341.878 48 339.843 48.8429 338.343 50.3431C336.843 51.8434 336 53.8783 336 56V264C336 266.122 336.843 268.157 338.343 269.657C339.843 271.157 341.878 272 344 272ZM352 64H448V256H352V64Z" fill="url(#paint4_linear)"/>
<path d="M344 272H456C458.122 272 460.157 271.157 461.657 269.657C463.157 268.157 464 266.122 464 264V56C464 53.8783 463.157 51.8434 461.657 50.3431C460.157 48.8429 458.122 48 456 48H344C341.878 48 339.843 48.8429 338.343 50.3431C336.843 51.8434 336 53.8783 336 56V264C336 266.122 336.843 268.157 338.343 269.657C339.843 271.157 341.878 272 344 272ZM352 64H448V256H352V64Z" fill="url(#paint5_linear)"/>
<path d="M384 320H416V336H384V320Z" fill="url(#paint6_linear)"/>
<path d="M384 320H416V336H384V320Z" fill="url(#paint7_linear)"/>
<path d="M384 400H416V416H384V400Z" fill="url(#paint8_linear)"/>
<path d="M384 400H416V416H384V400Z" fill="url(#paint9_linear)"/>
<path d="M369.969 170.921L417.987 114.937L430.125 125.348L382.107 181.332L369.969 170.921Z" fill="url(#paint10_linear)"/>
<path d="M369.969 170.921L417.987 114.937L430.125 125.348L382.107 181.332L369.969 170.921Z" fill="url(#paint11_linear)"/>
<path d="M369.961 210.929L417.979 154.945L430.117 165.356L382.099 221.34L369.961 210.929Z" fill="url(#paint12_linear)"/>
<path d="M369.961 210.929L417.979 154.945L430.117 165.356L382.099 221.34L369.961 210.929Z" fill="url(#paint13_linear)"/>
<path d="M472 16H40C33.6348 16 27.5303 18.5286 23.0294 23.0294C18.5286 27.5303 16 33.6348 16 40V488C16 490.122 16.8429 492.157 18.3431 493.657C19.8434 495.157 21.8783 496 24 496H488C490.122 496 492.157 495.157 493.657 493.657C495.157 492.157 496 490.122 496 488V40C496 33.6348 493.471 27.5303 488.971 23.0294C484.47 18.5286 478.365 16 472 16ZM480 40V288H320V32H472C474.122 32 476.157 32.8429 477.657 34.3431C479.157 35.8434 480 37.8783 480 40ZM304 448H176V32H304V448ZM320 384H480V448H320V384ZM320 368V304H480V368H320ZM40 32H160V448H32V40C32 37.8783 32.8429 35.8434 34.3431 34.3431C35.8434 32.8429 37.8783 32 40 32ZM32 480V464H480V480H32Z" fill="url(#paint14_linear)"/>
<path d="M472 16H40C33.6348 16 27.5303 18.5286 23.0294 23.0294C18.5286 27.5303 16 33.6348 16 40V488C16 490.122 16.8429 492.157 18.3431 493.657C19.8434 495.157 21.8783 496 24 496H488C490.122 496 492.157 495.157 493.657 493.657C495.157 492.157 496 490.122 496 488V40C496 33.6348 493.471 27.5303 488.971 23.0294C484.47 18.5286 478.365 16 472 16ZM480 40V288H320V32H472C474.122 32 476.157 32.8429 477.657 34.3431C479.157 35.8434 480 37.8783 480 40ZM304 448H176V32H304V448ZM320 384H480V448H320V384ZM320 368V304H480V368H320ZM40 32H160V448H32V40C32 37.8783 32.8429 35.8434 34.3431 34.3431C35.8434 32.8429 37.8783 32 40 32ZM32 480V464H480V480H32Z" fill="url(#paint15_linear)"/>
<defs>
<linearGradient id="paint0_linear" x1="15376" y1="175.84" x2="15376" y2="31870.7" gradientUnits="userSpaceOnUse">
<stop offset="1" stop-color="#00EFD1"/>
</linearGradient>
<linearGradient id="paint1_linear" x1="256" y1="16" x2="256" y2="496" gradientUnits="userSpaceOnUse">
<stop stop-color="#00ACEA"/>
<stop offset="1" stop-color="white" stop-opacity="0"/>
</linearGradient>
<linearGradient id="paint2_linear" x1="15376" y1="175.84" x2="15376" y2="31870.7" gradientUnits="userSpaceOnUse">
<stop offset="1" stop-color="#00EFD1"/>
</linearGradient>
<linearGradient id="paint3_linear" x1="256" y1="16" x2="256" y2="496" gradientUnits="userSpaceOnUse">
<stop stop-color="#00ACEA"/>
<stop offset="1" stop-color="white" stop-opacity="0"/>
</linearGradient>
<linearGradient id="paint4_linear" x1="15376" y1="175.84" x2="15376" y2="31870.7" gradientUnits="userSpaceOnUse">
<stop offset="1" stop-color="#00EFD1"/>
</linearGradient>
<linearGradient id="paint5_linear" x1="256" y1="16" x2="256" y2="496" gradientUnits="userSpaceOnUse">
<stop stop-color="#00ACEA"/>
<stop offset="1" stop-color="white" stop-opacity="0"/>
</linearGradient>
<linearGradient id="paint6_linear" x1="15376" y1="175.84" x2="15376" y2="31870.7" gradientUnits="userSpaceOnUse">
<stop offset="1" stop-color="#00EFD1"/>
</linearGradient>
<linearGradient id="paint7_linear" x1="256" y1="16" x2="256" y2="496" gradientUnits="userSpaceOnUse">
<stop stop-color="#00ACEA"/>
<stop offset="1" stop-color="white" stop-opacity="0"/>
</linearGradient>
<linearGradient id="paint8_linear" x1="15376" y1="175.84" x2="15376" y2="31870.7" gradientUnits="userSpaceOnUse">
<stop offset="1" stop-color="#00EFD1"/>
</linearGradient>
<linearGradient id="paint9_linear" x1="256" y1="16" x2="256" y2="496" gradientUnits="userSpaceOnUse">
<stop stop-color="#00ACEA"/>
<stop offset="1" stop-color="white" stop-opacity="0"/>
</linearGradient>
<linearGradient id="paint10_linear" x1="15376" y1="175.84" x2="15376" y2="31870.7" gradientUnits="userSpaceOnUse">
<stop offset="1" stop-color="#00EFD1"/>
</linearGradient>
<linearGradient id="paint11_linear" x1="256" y1="16" x2="256" y2="496" gradientUnits="userSpaceOnUse">
<stop stop-color="#00ACEA"/>
<stop offset="1" stop-color="white" stop-opacity="0"/>
</linearGradient>
<linearGradient id="paint12_linear" x1="15376" y1="175.84" x2="15376" y2="31870.7" gradientUnits="userSpaceOnUse">
<stop offset="1" stop-color="#00EFD1"/>
</linearGradient>
<linearGradient id="paint13_linear" x1="256" y1="16" x2="256" y2="496" gradientUnits="userSpaceOnUse">
<stop stop-color="#00ACEA"/>
<stop offset="1" stop-color="white" stop-opacity="0"/>
</linearGradient>
<linearGradient id="paint14_linear" x1="15376" y1="175.84" x2="15376" y2="31870.7" gradientUnits="userSpaceOnUse">
<stop offset="1" stop-color="#00EFD1"/>
</linearGradient>
<linearGradient id="paint15_linear" x1="256" y1="16" x2="256" y2="496" gradientUnits="userSpaceOnUse">
<stop stop-color="#00ACEA"/>
<stop offset="1" stop-color="white" stop-opacity="0"/>
</linearGradient>
</defs>
</svg>
