<svg width="400" height="400" viewBox="0 0 400 400" fill="none" xmlns="http://www.w3.org/2000/svg">
<path d="M68.5156 166.25H331.484V312.344H68.5156V166.25Z" fill="#3B84BC"/>
<path d="M68.5156 166.25H321.745V292.865H68.5156V166.25Z" fill="#3E8CC7"/>
<path d="M58.776 302.604H341.224V395.13H58.776V302.604Z" fill="#DAE6F1"/>
<path d="M58.776 151.641H341.224V171.12H58.776V151.641Z" fill="#DAE6F1"/>
<path d="M161.042 112.682H238.958C241.541 112.682 244.019 113.708 245.845 115.535C247.672 117.362 248.698 119.839 248.698 122.422V132.161H151.302V122.422C151.302 119.839 152.328 117.362 154.155 115.535C155.981 113.708 158.459 112.682 161.042 112.682V112.682Z" fill="#FF9254"/>
<path d="M151.302 132.161H170.781V151.641H151.302V132.161Z" fill="#A8A8A8"/>
<path d="M229.219 132.161H248.698V151.641H229.219V132.161Z" fill="#A8A8A8"/>
<path d="M117.214 302.604H146.432V322.083H117.214V302.604Z" fill="#A8A8A8"/>
<path d="M112.344 322.083H151.302V351.302H112.344V322.083Z" fill="#CDCDCD"/>
<path d="M253.568 302.604H282.786V322.083H253.568V302.604Z" fill="#A8A8A8"/>
<path d="M117.214 317.214H146.432V322.083H117.214V317.214Z" fill="#9B9B9B"/>
<path d="M253.568 317.214H282.786V322.083H253.568V317.214Z" fill="#9B9B9B"/>
<path d="M248.698 322.083H287.656V351.302H248.698V322.083Z" fill="#CDCDCD"/>
<path d="M122.083 244.167H141.562V302.604H122.083V244.167Z" fill="#FF9254"/>
<path d="M122.083 244.167H141.562V253.906H122.083V244.167Z" fill="#FF9254"/>
<path d="M136.693 214.948H117.214L112.344 224.687L102.604 214.948H87.9948V244.167H102.604L112.344 234.427L117.214 244.167H165.911C165.911 236.417 162.833 228.985 157.353 223.506C151.874 218.026 144.442 214.948 136.693 214.948Z" fill="#CDCDCD"/>
<path d="M136.693 219.818H117.214L112.344 229.557L102.604 219.818H87.9948V244.167H102.604L112.344 234.427L117.214 244.167H165.473C164.326 237.362 160.807 231.183 155.538 226.726C150.27 222.269 143.594 219.821 136.693 219.818V219.818Z" fill="#B9B9B9"/>
<path d="M214.609 302.604H195.13V278.255L190.26 273.385V263.646H219.479V273.385L214.609 278.255V302.604Z" fill="#FF9254"/>
<path d="M214.609 263.646H195.13V219.818L190.26 205.208V190.599H219.479V205.208L214.609 219.818V263.646Z" fill="#B9B9B9"/>
<path d="M268.177 302.604H248.698V280.011C248.698 272.451 250.458 264.995 253.839 258.233L263.307 239.297L277.917 249.037L268.177 273.385V302.604Z" fill="#FF9254"/>
<path d="M307.135 302.604H287.656V273.385L277.917 244.167H292.526L300.196 256.95C304.737 264.518 307.136 273.179 307.135 282.005V302.604Z" fill="#FF9254"/>
<path d="M307.135 220.742V220.295C307.135 215.611 306.045 210.991 303.95 206.801C301.855 202.611 298.814 198.967 295.066 196.157L287.656 190.599V219.818L263.307 239.297L277.917 258.776L296.622 243.188C299.913 240.446 302.56 237.014 304.377 233.135C306.194 229.256 307.136 225.025 307.135 220.742V220.742Z" fill="#B9B9B9"/>
<path d="M277.917 258.776L259.211 243.188C255.921 240.446 253.273 237.014 251.456 233.135C249.64 229.256 248.698 225.025 248.698 220.742V220.295C248.698 215.611 249.789 210.991 251.883 206.801C253.978 202.611 257.02 198.967 260.767 196.157L268.177 190.599V219.818L287.656 235.401L277.917 258.776Z" fill="#CDCDCD"/>
<path d="M195.13 253.906H214.609V263.646H195.13V253.906Z" fill="#A8A8A8"/>
<path d="M277.917 258.776C285.985 258.776 292.526 252.235 292.526 244.167C292.526 236.098 285.985 229.557 277.917 229.557C269.848 229.557 263.307 236.098 263.307 244.167C263.307 252.235 269.848 258.776 277.917 258.776Z" fill="#CDCDCD"/>
<path d="M122.083 292.865H131.823H141.562V302.604H122.083V292.865Z" fill="#FF9254"/>
<path d="M195.13 292.865H214.609V302.604H195.13V292.865Z" fill="#FF9254"/>
<path d="M248.698 292.865H268.177V302.604H248.698V292.865Z" fill="#FF9254"/>
<path d="M287.656 292.865H307.135V302.604H287.656V292.865Z" fill="#FF9254"/>
<path d="M190.26 190.599H219.479V195.469H190.26V190.599Z" fill="#CDCDCD"/>
<path d="M151.302 141.901H170.781V151.641H151.302V141.901Z" fill="#CDCDCD"/>
<path d="M229.219 141.901H248.698V151.641H229.219V141.901Z" fill="#CDCDCD"/>
<path d="M341.224 146.771H253.568V122.422C253.563 118.549 252.023 114.835 249.284 112.096C246.545 109.357 242.832 107.817 238.958 107.812H161.042C157.168 107.817 153.455 109.357 150.716 112.096C147.977 114.835 146.437 118.549 146.432 122.422V146.771H58.776C57.4845 146.771 56.2458 147.284 55.3326 148.197C54.4193 149.11 53.9063 150.349 53.9062 151.641V171.12C53.9062 172.411 54.4193 173.65 55.3326 174.563C56.2458 175.477 57.4845 175.99 58.776 175.99H63.6458V297.734H58.776C57.4845 297.734 56.2458 298.247 55.3326 299.161C54.4193 300.074 53.9063 301.313 53.9062 302.604V395.13C53.9062 396.422 54.4193 397.66 55.3326 398.574C56.2458 399.487 57.4845 400 58.776 400H341.224C342.515 400 343.754 399.487 344.667 398.574C345.581 397.66 346.094 396.422 346.094 395.13V302.604C346.094 301.313 345.581 300.074 344.667 299.161C343.754 298.247 342.515 297.734 341.224 297.734H336.354V175.99H341.224C342.515 175.99 343.754 175.477 344.667 174.563C345.581 173.65 346.094 172.411 346.094 171.12V151.641C346.094 150.349 345.581 149.11 344.667 148.197C343.754 147.284 342.515 146.771 341.224 146.771ZM175.651 146.771V137.031H224.349V146.771H175.651ZM234.089 137.031H243.828V146.771H234.089V137.031ZM156.172 122.422C156.173 121.131 156.686 119.892 157.599 118.979C158.512 118.066 159.75 117.553 161.042 117.552H238.958C240.25 117.553 241.488 118.066 242.401 118.979C243.314 119.892 243.827 121.131 243.828 122.422V127.292H156.172V122.422ZM156.172 137.031H165.911V146.771H156.172V137.031ZM336.354 390.26H63.6458V307.474H112.344V317.214C111.052 317.214 109.814 317.727 108.9 318.64C107.987 319.553 107.474 320.792 107.474 322.083V351.302C107.474 352.594 107.987 353.832 108.9 354.746C109.814 355.659 111.052 356.172 112.344 356.172H151.302C152.594 356.172 153.832 355.659 154.746 354.746C155.659 353.832 156.172 352.594 156.172 351.302V322.083C156.172 320.792 155.659 319.553 154.746 318.64C153.832 317.727 152.594 317.214 151.302 317.214V307.474H248.698V317.214C247.406 317.214 246.168 317.727 245.254 318.64C244.341 319.553 243.828 320.792 243.828 322.083V351.302C243.828 352.594 244.341 353.832 245.254 354.746C246.168 355.659 247.406 356.172 248.698 356.172H287.656C288.948 356.172 290.186 355.659 291.1 354.746C292.013 353.832 292.526 352.594 292.526 351.302V322.083C292.526 320.792 292.013 319.553 291.1 318.64C290.186 317.727 288.948 317.214 287.656 317.214V307.474H336.354V390.26ZM120.224 239.297L117.214 233.276V225.839L120.224 219.818H136.693C142.304 219.824 147.741 221.765 152.088 225.314C156.435 228.862 159.425 233.801 160.555 239.297H120.224ZM126.953 249.036H136.693V297.734H126.953V249.036ZM117.214 326.953H146.432V346.432H117.214V326.953ZM141.562 317.214H122.083V307.474H141.562V317.214ZM199.748 218.277L195.13 204.417V195.469H214.609V204.417L209.992 218.275C209.825 218.772 209.74 219.293 209.74 219.818V258.776H200V219.818C199.999 219.294 199.914 218.774 199.748 218.277ZM198.573 274.812L195.13 271.369V268.516H214.609V271.369L211.166 274.812C210.714 275.264 210.355 275.801 210.11 276.392C209.866 276.982 209.74 277.616 209.74 278.255V297.734H200V278.255C200 277.616 199.874 276.982 199.629 276.392C199.384 275.801 199.026 275.264 198.573 274.812ZM265.133 223.622L269.174 226.855C264.928 228.989 261.608 232.601 259.838 237.011C255.737 232.419 253.501 226.461 253.568 220.305C253.577 216.458 254.458 212.663 256.145 209.206C257.832 205.749 260.281 202.72 263.307 200.345V219.818C263.307 220.548 263.471 221.269 263.787 221.928C264.104 222.586 264.564 223.165 265.133 223.622ZM302.266 297.734H292.526V273.385C292.525 272.864 292.442 272.345 292.279 271.85L288.501 260.48C290.512 259.164 292.263 257.488 293.666 255.537L296.002 259.44C300.102 266.251 302.267 274.052 302.266 282.003V297.734ZM253.568 326.953H282.786V346.432H253.568V326.953ZM277.917 317.214H258.437V307.474H277.917V317.214ZM273.047 297.734V274.322L277.343 263.588C277.538 263.594 277.72 263.649 277.917 263.649C278.371 263.649 278.797 263.545 279.244 263.515L282.786 274.177V297.734H273.047ZM277.917 234.427C279.843 234.427 281.726 234.998 283.328 236.068C284.929 237.139 286.178 238.66 286.915 240.439C287.652 242.219 287.845 244.177 287.469 246.067C287.093 247.956 286.166 249.691 284.804 251.054C283.441 252.416 281.706 253.343 279.817 253.719C277.927 254.095 275.969 253.902 274.189 253.165C272.41 252.428 270.889 251.179 269.818 249.578C268.748 247.976 268.177 246.093 268.177 244.167C268.18 241.585 269.208 239.109 271.033 237.283C272.859 235.458 275.335 234.43 277.917 234.427ZM295.996 237.014C294.227 232.602 290.907 228.989 286.66 226.855L290.7 223.622C291.27 223.165 291.73 222.586 292.046 221.928C292.362 221.269 292.526 220.548 292.526 219.818V200.343C295.598 202.776 298.073 205.879 299.761 209.415C301.449 212.951 302.306 216.827 302.266 220.745C302.266 226.758 300.031 232.556 295.996 237.014ZM258.22 260.412L261.311 254.208C262.957 256.92 265.24 259.189 267.961 260.819L263.655 271.578C263.426 272.153 263.308 272.766 263.307 273.385V297.734H253.568V280.01C253.573 273.205 255.166 266.494 258.219 260.412H258.22ZM326.615 297.734H312.005V282.003C312.007 272.286 309.362 262.753 304.354 254.427L299.822 246.852C303.687 243.601 306.784 239.535 308.89 234.945C310.997 230.355 312.061 225.355 312.005 220.305C311.993 214.863 310.72 209.499 308.285 204.632C305.851 199.766 302.322 195.529 297.976 192.256L290.578 186.703C289.855 186.16 288.994 185.83 288.094 185.749C287.193 185.668 286.287 185.839 285.478 186.243C284.67 186.648 283.989 187.269 283.514 188.039C283.038 188.808 282.786 189.695 282.786 190.599V217.478L277.917 221.37L273.047 217.478V190.599C273.047 189.695 272.795 188.808 272.32 188.039C271.844 187.269 271.164 186.648 270.355 186.243C269.546 185.839 268.64 185.668 267.74 185.749C266.839 185.83 265.979 186.16 265.255 186.703L257.856 192.253C253.462 195.583 249.906 199.893 247.47 204.839C245.035 209.785 243.788 215.232 243.828 220.745C243.828 225.417 244.793 230.04 246.663 234.322C248.534 238.604 251.269 242.453 254.698 245.628L249.506 256.05C245.781 263.488 243.837 271.691 243.828 280.01V297.734H219.479V280.271L222.922 276.828C223.375 276.376 223.733 275.84 223.978 275.249C224.223 274.658 224.349 274.025 224.349 273.385V263.646C224.349 262.354 223.836 261.116 222.923 260.202C222.009 259.289 220.771 258.776 219.479 258.776V220.609L224.097 206.751C224.263 206.254 224.349 205.733 224.349 205.208V190.599C224.349 189.307 223.836 188.069 222.923 187.155C222.009 186.242 220.771 185.729 219.479 185.729H190.26C188.969 185.729 187.73 186.242 186.817 187.155C185.904 188.069 185.391 189.307 185.391 190.599V205.208C185.391 205.732 185.476 206.252 185.643 206.749L190.26 220.609V258.776C188.969 258.776 187.73 259.289 186.817 260.202C185.904 261.116 185.391 262.354 185.391 263.646V273.385C185.391 274.025 185.517 274.658 185.761 275.249C186.006 275.84 186.365 276.376 186.817 276.828L190.26 280.271V297.734H146.432V249.036H165.911C167.203 249.036 168.442 248.523 169.355 247.61C170.268 246.697 170.781 245.458 170.781 244.167C170.77 235.129 167.175 226.465 160.785 220.075C154.394 213.684 145.73 210.089 136.693 210.078H117.214C116.309 210.078 115.423 210.33 114.653 210.805C113.884 211.281 113.262 211.961 112.858 212.77L111.009 216.467L106.047 211.505C105.595 211.053 105.058 210.694 104.468 210.449C103.877 210.204 103.244 210.078 102.604 210.078H87.9948C86.7032 210.078 85.4646 210.591 84.5513 211.504C83.6381 212.418 83.125 213.656 83.125 214.948V244.167C83.125 245.458 83.6381 246.697 84.5513 247.61C85.4646 248.523 86.7032 249.036 87.9948 249.036H102.604C103.244 249.037 103.877 248.911 104.468 248.666C105.058 248.421 105.595 248.062 106.047 247.61L111.009 242.648L112.858 246.345C113.262 247.154 113.884 247.834 114.653 248.309C115.423 248.785 116.309 249.037 117.214 249.036V297.734H73.3854V175.99H326.615V297.734ZM100.588 239.297H92.8646V219.818H100.588L107.474 226.704V232.411L100.588 239.297ZM336.354 166.25H63.6458V156.51H336.354V166.25Z" fill="#235197"/>
</svg>
