<svg width="512" height="512" viewBox="0 0 512 512" fill="none" xmlns="http://www.w3.org/2000/svg">
<path d="M120 240C113.671 240 107.484 241.877 102.222 245.393C96.9594 248.909 92.8579 253.907 90.4359 259.754C88.0138 265.601 87.3801 272.035 88.6149 278.243C89.8496 284.45 92.8973 290.152 97.3726 294.627C101.848 299.103 107.55 302.15 113.757 303.385C119.965 304.62 126.399 303.986 132.246 301.564C138.093 299.142 143.091 295.041 146.607 289.778C150.123 284.516 152 278.329 152 272C152 263.513 148.629 255.374 142.627 249.373C136.626 243.371 128.487 240 120 240ZM120 288C116.836 288 113.742 287.062 111.111 285.304C108.48 283.545 106.429 281.047 105.218 278.123C104.007 275.199 103.69 271.982 104.307 268.879C104.925 265.775 106.449 262.924 108.686 260.686C110.924 258.449 113.775 256.925 116.879 256.307C119.982 255.69 123.199 256.007 126.123 257.218C129.047 258.429 131.545 260.48 133.304 263.111C135.062 265.742 136 268.835 136 272C136 276.243 134.314 280.313 131.314 283.314C128.313 286.314 124.243 288 120 288Z" fill="#FF9254"/>
<path d="M502.2 276.424L471 214.112V120C471 117.878 470.157 115.843 468.657 114.343C467.157 112.843 465.122 112 463 112H445.968C452.818 105.388 457.861 97.1327 460.616 88.0197C463.371 78.9067 463.747 69.24 461.707 59.9407C459.668 50.6413 455.281 42.0193 448.964 34.896C442.648 27.7727 434.612 22.3856 425.624 19.248C424.419 18.8296 423.131 18.7054 421.869 18.8858C420.606 19.0662 419.405 19.5459 418.365 20.285C417.325 21.024 416.477 22.0009 415.892 23.1342C415.307 24.2676 415.001 25.5244 415 26.8V64H399V26.8C398.999 25.5244 398.693 24.2676 398.108 23.1342C397.523 22.0009 396.675 21.024 395.635 20.285C394.595 19.5459 393.394 19.0662 392.131 18.8858C390.869 18.7054 389.581 18.8296 388.376 19.248C379.388 22.3856 371.352 27.7727 365.036 34.896C358.719 42.0193 354.332 50.6413 352.293 59.9407C350.253 69.24 350.629 78.9067 353.384 88.0197C356.139 97.1327 361.182 105.388 368.032 112H287V80H327C329.122 80 331.157 79.1571 332.657 77.6569C334.157 76.1566 335 74.1217 335 72V24C335 21.8783 334.157 19.8434 332.657 18.3431C331.157 16.8429 329.122 16 327 16H199C196.878 16 194.843 16.8429 193.343 18.3431C191.843 19.8434 191 21.8783 191 24V72C191 74.1217 191.843 76.1566 193.343 77.6569C194.843 79.1571 196.878 80 199 80H239V112H111C108.878 112 106.843 112.843 105.343 114.343C103.843 115.843 103 117.878 103 120V208H63C61.5134 207.999 60.0559 208.413 58.7912 209.194C57.5265 209.976 56.5045 211.094 55.84 212.424L23.84 276.424C23.2864 277.535 22.9988 278.759 23 280V488C23 490.122 23.8429 492.157 25.3431 493.657C26.8434 495.157 28.8783 496 31 496H495C497.122 496 499.157 495.157 500.657 493.657C502.157 492.157 503 490.122 503 488V280C503.014 278.762 502.74 277.538 502.2 276.424ZM482.056 272H431V224H458.056L482.056 272ZM455 208H431V128H455V208ZM383 40V72C383 74.1217 383.843 76.1566 385.343 77.6569C386.843 79.1571 388.878 80 391 80H423C425.122 80 427.157 79.1571 428.657 77.6569C430.157 76.1566 431 74.1217 431 72V40C436.788 44.3378 441.291 50.1653 444.027 56.8611C446.763 63.5569 447.63 70.8698 446.537 78.0199C445.443 85.17 442.429 91.8891 437.816 97.4606C433.203 103.032 427.164 107.247 420.344 109.656C418.782 110.206 417.429 111.227 416.472 112.578C415.515 113.929 415 115.544 415 117.2V272H399V117.2C399 115.544 398.485 113.929 397.528 112.578C396.571 111.227 395.218 110.206 393.656 109.656C386.836 107.247 380.797 103.032 376.184 97.4606C371.571 91.8891 368.557 85.17 367.463 78.0199C366.37 70.8698 367.237 63.5569 369.973 56.8611C372.709 50.1653 377.212 44.3378 383 40V40ZM287 160H383V208H287V160ZM287 224H383V272H287V224ZM383 128V144H287V128H383ZM207 32H319V64H207V32ZM271 80V272H255V80H271ZM151 208V160H239V208H151ZM119 128H239V144H143C140.878 144 138.843 144.843 137.343 146.343C135.843 147.843 135 149.878 135 152V208H119V128ZM215 480H39V281.888L67.944 224H186.056L215 281.888V480ZM203.944 224H239V272H227.944L203.944 224ZM231 480V288H487V480H231Z" fill="#235197"/>
</svg>
