<svg width="496" height="496" viewBox="0 0 496 496" fill="none" xmlns="http://www.w3.org/2000/svg">
<path d="M216 208C216 212.414 212.414 216 208 216C203.586 216 200 212.414 200 208C200 203.586 203.586 200 208 200C212.414 200 216 203.586 216 208ZM288 200C283.586 200 280 203.586 280 208C280 212.414 283.586 216 288 216C292.414 216 296 212.414 296 208C296 203.586 292.414 200 288 200ZM496 248C496 384.742 384.742 496 248 496C111.258 496 0 384.742 0 248C0 111.258 111.258 0 248 0C384.742 0 496 111.258 496 248ZM248 16C243.594 16 240 19.5938 240 24C240 28.4062 243.594 32 248 32C252.406 32 256 28.4062 256 24C256 19.5938 252.406 16 248 16ZM273.895 357.426L295.246 373.441L297.375 371.312C305.641 363.047 310.648 352.391 311.762 340.91L291.098 336.777L273.895 357.426ZM280 313.887C270.062 317.785 259.297 320 248 320C236.703 320 225.938 317.785 216 313.887V325.105L248 363.504L280 325.105V313.887ZM184.238 340.91C185.352 352.398 190.359 363.047 198.625 371.312L200.754 373.441L222.105 357.426L204.902 336.785L184.238 340.91ZM320 232V175.793C313.297 180.871 305.039 184 296 184H200C190.961 184 182.703 180.871 176 175.793V232C176 271.695 208.305 304 248 304C287.695 304 320 271.695 320 232ZM160 185.473C150.711 188.785 144 197.586 144 208C144 218.414 150.711 227.215 160 230.527V185.473ZM352 152H336V168.809C341.945 170.023 347.328 172.664 352 176.199V152ZM144 176.207C148.672 172.672 154.055 170.023 160 168.816V152H144V176.207ZM200 168H296C306.414 168 315.215 161.289 318.527 152H177.473C180.785 161.289 189.586 168 200 168ZM336 230.527C345.289 227.215 352 218.414 352 208C352 197.586 345.289 188.785 336 185.473V230.527ZM350.641 136C342.902 86.2383 299.895 48 248 48C196.105 48 153.098 86.2383 145.359 136H350.641ZM80 407.754V384.801C80 362 96.2305 342.199 118.594 337.734L200 321.441V305.656C180.039 292.609 165.734 271.688 161.426 247.328C142.504 244.176 128 227.801 128 208V152C128 93.2578 170.465 44.3281 226.289 34.0703C224.855 31 224 27.6094 224 24C224 21.6016 224.465 19.3281 225.121 17.1367C107.895 28.6719 16 127.793 16 248C16 309.871 40.3906 366.113 80 407.754ZM248 480C276.105 480 303.047 474.969 328 465.777V392H344V459.121C364.426 449.793 383.258 437.609 400 423.047V384.793C400 369.594 389.176 356.391 374.281 353.414L327.465 344.055C325.695 358.617 319.223 372.098 308.695 382.633L296.762 394.566L263.648 369.734L248 388.496L232.359 369.727L199.246 394.559L187.312 382.625C176.777 372.09 170.305 358.609 168.543 344.047L121.727 353.406C106.824 356.391 96 369.594 96 384.793V423.047C112.742 437.609 131.574 449.801 152 459.121V392H168V465.777C192.953 474.969 219.895 480 248 480ZM480 248C480 127.793 388.105 28.6719 270.879 17.1367C271.535 19.3281 272 21.6016 272 24C272 27.6094 271.145 31 269.711 34.0703C325.535 44.3281 368 93.2578 368 152V208C368 227.801 353.496 244.176 334.574 247.336C330.273 271.695 315.961 292.609 296 305.664V321.449L377.414 337.734C399.77 342.191 416 361.992 416 384.793V407.742C455.609 366.113 480 309.871 480 248ZM240 424H256V408H240V424ZM240 464H256V448H240V464ZM248 264C239.176 264 232 256.824 232 248H216C216 265.648 230.352 280 248 280C265.648 280 280 265.648 280 248H264C264 256.824 256.824 264 248 264Z" fill="url(#paint0_linear)"/>
<defs>
<linearGradient id="paint0_linear" x1="248" y1="0" x2="248" y2="496" gradientUnits="userSpaceOnUse">
<stop offset="0.0051" stop-color="#00EFD1"/>
<stop offset="1" stop-color="#00ACEA"/>
</linearGradient>
</defs>
</svg>
