<svg width="512" height="512" viewBox="0 0 512 512" fill="none" xmlns="http://www.w3.org/2000/svg">
<g clip-path="url(#clip0)">
<path d="M192.043 415.565C168.727 438.522 156.102 472.065 156.102 504.498H192.043L207.266 473.389L192.043 415.565Z" fill="#E8E8E8"/>
<path d="M319.82 415.565C343.14 438.522 355.765 472.065 355.765 504.498H319.82L304.601 473.389L319.82 415.565Z" fill="#E8E8E8"/>
<path d="M300.754 398.815V441.307C300.754 452.905 291.344 462.315 279.75 462.315H232.117C220.524 462.315 211.11 452.905 211.11 441.307V398.815H300.754Z" fill="#E8E8E8"/>
<path d="M319.821 415.565V504.498H192.043V415.565C195.285 412.362 198.727 409.381 202.371 406.631H222.149V438.662C222.149 447.401 229.242 454.495 237.981 454.495H273.883C282.625 454.495 289.719 447.401 289.719 438.662V406.631H309.496C313.137 409.381 316.578 412.362 319.821 415.565Z" fill="#5692D8"/>
<path d="M49.6688 173.191C44.079 192.238 41.2469 212.034 41.2469 232.038C41.2469 239.581 41.6571 247.058 42.4422 254.456H469.425C470.21 247.058 470.62 239.581 470.62 232.038C470.62 230.417 470.601 228.792 470.566 227.167C470.136 208.835 467.319 190.675 462.187 173.191H49.6688Z" fill="#7F6052"/>
<path d="M100.661 259.616C100.661 278.718 85.1806 294.198 66.0829 294.198C46.9853 294.198 31.5009 278.718 31.5009 259.616C31.5009 240.519 46.9853 225.038 66.0829 225.038C85.1806 225.038 100.661 240.519 100.661 259.616V259.616Z" fill="#E2B3A3"/>
<path d="M480.363 259.616C480.363 278.718 464.882 294.198 445.785 294.198C426.687 294.198 411.203 278.718 411.203 259.616C411.203 240.519 426.687 225.038 445.785 225.038C464.882 225.038 480.363 240.519 480.363 259.616V259.616Z" fill="#E2B3A3"/>
<path d="M85.9968 158.894C114.665 94.6168 179.961 49.7108 255.934 49.7108C331.91 49.7108 397.21 94.6168 425.855 158.902L440.015 254.452C428.777 344.573 350.644 414.358 255.934 414.358C161.219 414.358 83.0866 344.573 71.8523 254.452L85.9968 158.894Z" fill="#F5CDB6"/>
<path d="M430.933 72.7497C398.839 46.242 337.91 7.49998 255.934 7.49998C173.957 7.49998 113.028 46.242 80.9304 72.7497C64.739 86.1208 55.3484 106 55.3484 126.996V160.195H456.519V126.996C456.519 106 447.124 86.1208 430.933 72.7497Z" fill="#575B7A"/>
<path d="M355.769 287.151H332.422C328.277 287.151 324.922 283.792 324.922 279.651C324.922 275.511 328.277 272.151 332.422 272.151H355.769C359.91 272.151 363.269 275.511 363.269 279.651C363.269 283.792 359.91 287.151 355.769 287.151V287.151Z" fill="#E98E8F"/>
<path d="M179.446 287.151H156.098C151.954 287.151 148.598 283.792 148.598 279.651C148.598 275.511 151.954 272.151 156.098 272.151H179.446C183.586 272.151 186.946 275.511 186.946 279.651C186.946 283.792 183.586 287.151 179.446 287.151Z" fill="#E98E8F"/>
<path d="M126.231 184.492C126.231 261.261 71.8523 254.456 71.8523 254.456C70.9265 247.113 70.4578 239.624 70.4578 232.042C70.4578 214.96 72.8914 197.804 77.7039 181.417C79.9734 173.687 82.7468 166.167 86.0007 158.894L126.231 184.492Z" fill="#8C6A5A"/>
<path d="M441.406 232.038C441.406 239.624 440.941 247.113 440.015 254.452C440.015 254.452 385.632 261.261 385.632 184.492L425.859 158.902C429.109 166.167 431.886 173.683 434.152 181.413C438.574 196.48 440.999 212.144 441.359 227.843C441.39 229.245 441.406 230.636 441.406 232.038V232.038Z" fill="#8C6A5A"/>
<path d="M457.159 143.984C419.202 131.664 337.394 108.652 255.934 108.652C174.473 108.652 92.6647 131.664 54.7078 143.984C42.7899 147.851 36.5282 160.886 40.9774 172.597L46.1844 186.316C50.3289 197.222 62.2859 202.96 73.3913 199.382C108.075 188.206 183.278 167.074 255.934 167.074C328.379 167.074 403.761 188.238 438.499 199.405C449.597 202.972 461.538 197.23 465.675 186.331L470.89 172.597C475.335 160.886 469.073 147.851 457.159 143.984Z" fill="#575B7A"/>
<path d="M280.899 42.2069H230.965C225.539 42.2069 221.141 46.6092 221.141 52.035V74.66C221.141 80.0858 225.539 84.4842 230.965 84.4842H280.899C286.324 84.4842 290.723 80.0858 290.723 74.66V52.035C290.723 46.6092 286.324 42.2069 280.899 42.2069Z" fill="#AED559"/>
<path d="M344.093 261.956C348.234 261.956 351.593 258.601 351.593 254.46V237.316C351.593 233.175 348.234 229.816 344.093 229.816C339.953 229.816 336.593 233.175 336.593 237.316V254.46C336.593 258.601 339.953 261.956 344.093 261.956Z" fill="black"/>
<path d="M167.77 261.956C171.911 261.956 175.27 258.601 175.27 254.46V237.316C175.27 233.175 171.911 229.816 167.77 229.816C163.629 229.816 160.27 233.175 160.27 237.316V254.46C160.27 258.601 163.629 261.956 167.77 261.956Z" fill="black"/>
<path d="M255.934 286.186C264.242 286.186 272.047 282.706 277.348 276.643C280.074 273.526 279.758 268.788 276.637 266.061C273.52 263.335 268.781 263.651 266.055 266.772C263.602 269.577 259.914 271.186 255.934 271.186C251.949 271.186 248.262 269.577 245.809 266.772C243.082 263.655 238.348 263.335 235.227 266.061C232.109 268.788 231.789 273.526 234.516 276.643C239.816 282.71 247.621 286.186 255.934 286.186Z" fill="black"/>
<path d="M280.899 91.9843C290.453 91.9843 298.223 84.2147 298.223 74.66V52.035C298.223 42.4843 290.453 34.7108 280.899 34.7108H230.965C221.414 34.7108 213.641 42.4843 213.641 52.035V74.66C213.641 84.2147 221.414 91.9843 230.965 91.9843H280.899ZM228.641 74.66V52.035C228.641 50.7538 229.684 49.7108 230.965 49.7108H280.899C282.18 49.7108 283.223 50.7538 283.223 52.035V74.66C283.223 75.9413 282.18 76.9843 280.899 76.9843H230.965C229.684 76.9843 228.641 75.9413 228.641 74.66Z" fill="black"/>
<path d="M478.12 232.038C478.12 216.933 476.523 201.831 473.405 187.101L477.901 175.261C480.784 167.663 480.441 159.445 476.929 152.12C474.132 146.285 469.632 141.667 464.015 138.757V127C464.015 103.703 453.702 81.82 435.714 66.9646C414.089 49.1053 390.351 34.4217 365.164 23.3202C330.05 7.84763 293.301 0 255.93 0C218.442 0 181.578 7.8945 146.368 23.4726C142.582 25.1444 140.868 29.5741 142.543 33.3632C144.219 37.1522 148.649 38.8631 152.438 37.1874C185.723 22.4648 220.543 14.9999 255.93 14.9999C337.113 14.9999 397.429 54.8045 426.159 78.5309C440.687 90.527 449.015 108.191 449.015 127V133.542C448.749 133.46 448.48 133.382 448.214 133.3C434.156 128.972 419.964 125.039 405.687 121.484C401.667 120.484 397.597 122.933 396.597 126.953C395.597 130.972 398.042 135.039 402.062 136.042C419.824 140.464 437.421 145.507 454.839 151.12C462.558 153.605 466.749 162.367 463.874 169.937C463.874 169.937 458.659 183.671 458.648 183.695C458.64 183.714 458.628 183.734 458.62 183.757C456.577 189.085 451.085 192.945 445.198 192.945C441.8 192.945 438.531 191.542 435.327 190.538C359.175 166.702 279.476 153.636 199.754 163.222C155.996 168.48 113.09 178.882 71.1374 192.23C71.1218 192.234 71.1062 192.241 71.0867 192.245C63.95 194.542 55.95 190.734 53.2391 183.757C53.2313 183.734 53.2196 183.714 53.2117 183.695C53.2039 183.679 53.2 183.667 53.1922 183.656C53.1922 183.656 47.9891 169.952 47.9852 169.937C45.0946 162.324 49.3094 153.62 57.0203 151.12C121.122 130.328 188.313 116.156 255.93 116.156C289.715 116.156 326.961 120.183 366.722 128.117C454.839 148 434.387 143.664 404 133.3C477.726 137.621 380.941 115.726 376.078 114.71C332.945 105.714 292.519 101.156 255.93 101.156C205.594 101.156 155.348 109.226 106.594 121.355C91.903 125.011 77.3054 129.074 62.8367 133.542V127C62.8367 108.199 71.1726 90.5309 85.7038 78.5309C97.9498 68.4216 111.184 59.2146 125.043 51.1678C218 5 181.234 21.0822 148 31.5C177.234 15.5822 191 0 117.516 38.1952C102.946 46.6561 89.028 56.3357 76.1531 66.9685C58.1609 81.8278 47.8407 103.707 47.8407 127V138.761C42.2274 141.671 37.7313 146.288 34.9345 152.12C31.4228 159.445 31.079 167.663 33.9618 175.261L38.4579 187.105C35.3446 201.831 33.7431 216.937 33.7431 232.042C33.7431 232.269 33.7509 232.495 33.7509 232.722C27.6689 240.019 24.0009 249.397 24.0009 259.62C24.0009 282.823 42.8797 301.702 66.0828 301.702C69.4226 301.702 72.7038 301.3 75.8991 300.53C89.7936 335.889 114.083 365.928 144.903 387.272C148.614 389.838 183.653 413.264 187.508 409.53C187.27 409.76 187.024 409.983 186.782 410.221C162.875 433.76 148.602 469.006 148.602 504.502C148.602 508.643 151.961 512.002 156.102 512.002H355.761C359.906 512.002 363.261 508.643 363.261 504.502C363.261 469.002 348.992 433.76 325.074 410.213C324.84 409.983 324.593 409.76 324.355 409.53C375.207 390.526 416.152 350.936 435.964 300.53C439.159 301.3 442.441 301.702 445.781 301.702C468.984 301.702 487.862 282.823 487.862 259.62C487.862 249.397 484.194 240.019 478.112 232.722C478.112 232.495 478.12 232.269 478.12 232.038ZM450.066 217.757C449.495 217.702 448.921 217.651 448.343 217.616C448.105 214.554 447.792 211.487 447.405 208.429C447.382 208.249 447.363 208.066 447.339 207.886C452.257 207.527 456.972 205.917 461.066 203.292C461.913 209.202 462.499 215.155 462.823 221.12C458.812 219.343 454.523 218.206 450.081 217.761C450.077 217.757 450.07 217.757 450.066 217.757ZM196.637 396.846C137.633 376.206 92.0788 324.96 80.7858 263.186C80.7273 262.858 80.6608 262.534 80.6062 262.206C80.5827 262.089 80.5671 261.968 80.5437 261.847C80.8991 261.811 81.2702 261.768 81.6374 261.726C107.176 258.729 124.645 238.452 130.497 214.374C130.985 212.362 133.418 190.503 133.625 190.452C173.7 181.034 214.684 174.577 255.934 174.577C272.633 174.577 289.328 175.702 305.914 177.593C306.105 177.616 353.089 184.558 378.242 190.476C378.816 205.991 381.664 221.96 389.757 235.437C398.562 250.101 414.277 260.171 431.32 261.847C431.296 261.987 431.277 262.132 431.249 262.272C429.663 271.222 424.343 288.745 424.324 288.804C404.437 345.831 355.531 388.967 295.769 402.44C263.062 409.811 228.293 407.924 196.637 396.846ZM61.7859 217.757C57.3406 218.206 53.0516 219.343 49.0399 221.12C49.3641 215.151 49.95 209.198 50.7977 203.292C54.8914 205.913 59.6101 207.511 64.5242 207.87C64.4968 208.101 63.532 217.53 63.5242 217.616C62.9461 217.651 62.3719 217.702 61.7859 217.757ZM118.133 197.503C116.696 212.351 112.266 228.331 100.344 238.237C92.7467 244.55 84.3718 246.472 78.6101 246.964C78.4968 245.651 78.3874 244.335 78.3054 243.015C77.5163 230.444 77.8796 217.538 80.0905 205.12C80.1335 204.874 104.954 197.683 116.469 194.687C116.669 194.636 118.415 194.113 118.395 194.347C118.325 195.398 118.235 196.452 118.133 197.503ZM431.777 205.144C431.812 205.362 433.144 215.351 433.476 220.151C433.624 222.331 434.042 247.011 433.253 246.937C427.472 246.417 418.382 244.397 410.511 237.366C401.699 229.495 397.206 218.03 395.031 206.667C394.804 205.495 393.82 194.312 393.468 194.222C407.91 197.937 420.413 201.609 429.909 204.558C430.538 204.753 431.163 204.948 431.777 205.144ZM229.645 420.104C229.969 420.147 230.293 420.178 230.613 420.217C238.91 421.287 247.488 421.862 255.934 421.862C264.715 421.862 273.512 421.276 282.219 420.108V438.662C282.219 443.26 278.48 446.998 273.883 446.998H237.981C233.387 446.998 229.645 443.26 229.645 438.662V420.104ZM66.0828 286.698C51.1492 286.698 39.0009 274.554 39.0009 259.62C39.0009 246.218 49.5711 234.261 62.9578 232.726C62.9617 233.737 62.9969 234.745 63.0164 235.757C63.3484 252.753 66.0086 269.917 70.946 286.264C69.3523 286.554 67.7312 286.698 66.0828 286.698ZM184.543 436.198V496.998H163.836C165.215 475.033 172.582 453.608 184.543 436.198ZM312.32 496.998H199.543V418.768C200.989 417.432 202.477 416.139 203.996 414.893C204.774 414.264 214.649 418.03 214.649 417.494V438.662C214.649 451.529 225.113 461.998 237.981 461.998H273.883C286.75 461.998 297.219 451.529 297.219 438.662V417.494C300.785 416.729 304.347 415.858 307.867 414.893C309.39 416.135 310.875 417.432 312.32 418.768V496.998ZM327.32 496.998V436.194C339.281 453.608 346.648 475.029 348.027 496.998H327.32ZM445.784 286.698C444.136 286.698 442.511 286.554 440.917 286.264C441.648 283.847 442.323 281.409 442.956 278.952C446.835 263.921 448.851 248.253 448.905 232.726C462.374 234.269 472.862 246.073 472.862 259.62C472.862 274.554 460.714 286.698 445.784 286.698Z" fill="black"/>
</g>
<defs>
<clipPath id="clip0">
<rect width="512" height="512" fill="white"/>
</clipPath>
</defs>
</svg>
