<svg width="512" height="512" viewBox="0 0 512 512" fill="none" xmlns="http://www.w3.org/2000/svg">
<path d="M353.059 25.757H313.899C309.756 25.757 306.399 29.115 306.399 33.257C306.399 37.4 309.756 40.757 313.899 40.757H353.059C357.202 40.757 360.559 37.4 360.559 33.257C360.56 29.115 357.203 25.757 353.059 25.757Z" fill="#FF9254"/>
<path d="M297.662 31.793C297.561 31.314 297.422 30.844 297.231 30.384C297.042 29.934 296.811 29.493 296.542 29.094C296.271 28.684 295.952 28.293 295.611 27.953C295.261 27.603 294.882 27.293 294.471 27.023C294.061 26.752 293.621 26.513 293.171 26.333C292.721 26.144 292.251 26.003 291.771 25.903C289.332 25.413 286.742 26.214 285.001 27.953C284.65 28.293 284.341 28.684 284.07 29.094C283.8 29.493 283.56 29.934 283.381 30.384C283.191 30.844 283.051 31.314 282.951 31.793C282.85 32.273 282.801 32.764 282.801 33.253C282.801 35.233 283.601 37.163 285.001 38.564C289.731 43.259 297.803 39.945 297.803 33.253C297.802 32.764 297.752 32.274 297.662 31.793Z" fill="#FF9254"/>
<path d="M113.921 56.465C113.831 55.994 113.681 55.515 113.501 55.065C113.085 54.078 112.508 53.254 111.871 52.635C105.509 46.072 95.387 54.765 100.33 62.096C101.554 63.886 103.299 64.942 105.1 65.285C105.59 65.386 106.08 65.435 106.57 65.435C107.06 65.435 107.551 65.385 108.03 65.285C108.51 65.195 108.99 65.045 109.44 64.865C109.89 64.676 110.33 64.445 110.73 64.176C111.14 63.896 111.53 63.585 111.87 63.236C112.22 62.896 112.53 62.506 112.81 62.096C113.08 61.696 113.31 61.255 113.5 60.806C113.68 60.356 113.83 59.875 113.92 59.406C114.02 58.916 114.07 58.427 114.07 57.936C114.07 57.445 114.021 56.955 113.921 56.465Z" fill="#FF9254"/>
<path d="M111.871 79.138C111.531 78.786 111.141 78.477 110.731 78.196C110.331 77.926 109.891 77.696 109.441 77.506C108.981 77.326 108.511 77.177 108.031 77.086C105.601 76.586 103.011 77.387 101.271 79.137C99.871 80.527 99.071 82.467 99.071 84.437C99.071 86.407 99.871 88.347 101.271 89.737C102.661 91.137 104.591 91.937 106.571 91.937C107.061 91.937 107.552 91.887 108.031 91.787C108.511 91.697 108.981 91.547 109.441 91.367C109.891 91.178 110.331 90.947 110.731 90.678C111.141 90.398 111.531 90.087 111.871 89.738C113.271 88.348 114.071 86.408 114.071 84.438C114.071 82.468 113.271 80.528 111.871 79.138Z" fill="#FF9254"/>
<path d="M113.921 109.468C113.831 108.998 113.681 108.519 113.491 108.069C113.311 107.619 113.071 107.179 112.801 106.779C112.531 106.369 112.221 105.979 111.871 105.639C110.131 103.889 107.541 103.088 105.101 103.588C104.631 103.679 104.151 103.828 103.701 104.008C103.251 104.198 102.811 104.429 102.411 104.698C101.991 104.978 101.611 105.288 101.271 105.638C100.921 105.978 100.611 106.367 100.331 106.778C100.061 107.178 99.831 107.618 99.641 108.068C99.461 108.518 99.311 108.998 99.221 109.468C99.121 109.957 99.071 110.447 99.071 110.938C99.071 112.908 99.871 114.848 101.271 116.238C102.661 117.638 104.591 118.438 106.571 118.438C108.541 118.438 110.481 117.638 111.871 116.238C113.271 114.848 114.071 112.918 114.071 110.938C114.071 110.448 114.021 109.958 113.921 109.468Z" fill="#FF9254"/>
<path d="M106.569 25.934C89.475 25.934 75.567 39.841 75.567 56.936V111.939C75.567 129.034 89.475 142.941 106.569 142.941C123.663 142.941 137.571 129.034 137.571 111.939V56.935C137.571 39.84 123.665 25.934 106.569 25.934ZM122.57 111.939C122.57 120.762 115.392 127.94 106.569 127.94C97.746 127.94 90.568 120.762 90.568 111.939V56.935C90.568 48.112 97.746 40.934 106.569 40.934C115.392 40.934 122.57 48.112 122.57 56.935V111.939Z" fill="#235197"/>
<path d="M456.625 410.384C460.768 410.384 464.125 407.027 464.125 402.884V53.987C464.125 24.219 439.906 0 410.137 0H235.612H101.863C72.094 0 47.875 24.219 47.875 53.987V458.011C47.875 487.78 72.094 511.998 101.863 511.998H112.57C116.712 511.998 120.07 508.641 120.07 504.498C120.07 500.355 116.712 496.998 112.57 496.998H101.863C80.366 496.998 62.876 479.509 62.876 458.012V53.987C62.876 32.49 80.366 15.001 101.863 15.001H198.303C194.861 18.296 191.588 22.364 188.958 26.873C178.528 44.753 181.651 39.977 181.625 458.013C181.625 473.263 188.028 487.163 198.303 496.999L99 496.894C94.858 496.894 97.998 504.497 112.57 504.498C112.57 508.641 97.721 511.998 101.863 511.998C109.598 511.998 392.657 511.999 410.137 511.999C439.906 511.999 464.124 487.78 464.124 458.012L464.125 385C464.125 380.857 460.768 399.5 456.625 399.5C452.482 399.5 449.123 380.857 449.123 385L449.124 458.012C449.124 479.509 431.635 496.998 410.138 496.998H235.612C214.115 496.998 196.626 479.509 196.626 458.012V53.988C196.626 32.491 214.115 15.002 235.612 15.002H410.137C431.634 15.002 449.123 32.491 449.123 53.988V402.884C449.124 407.027 452.481 410.384 456.625 410.384Z" fill="#235197"/>
<path d="M410.137 25.758H380.628C376.485 25.758 373.128 29.116 373.128 33.258V45.936C373.128 48.376 371.067 50.436 368.628 50.436H277.122C274.683 50.436 272.622 48.376 272.622 45.936V33.257C272.622 29.115 269.265 25.757 265.122 25.757H235.613C220.046 25.757 207.381 38.422 207.381 53.988V248.5C207.381 252.643 210.739 141 214.881 141C219.023 141 222.381 300.869 222.381 296.726V53.988C222.381 46.693 228.316 40.758 235.612 40.758H257.62V45.935C257.62 56.688 266.369 65.436 277.121 65.436H368.627C379.38 65.436 388.128 56.687 388.128 45.935V40.758H410.136C417.431 40.758 423.366 46.693 423.366 53.988V458.012C423.366 465.307 417.432 471.242 410.136 471.242H235.612C228.317 471.242 222.381 465.307 222.381 458.012V135.44C222.381 131.297 219.023 127.94 214.881 127.94C210.739 127.94 207.381 131.297 207.381 135.44V458.013C207.381 473.579 220.046 486.244 235.613 486.244H410.138C425.704 486.244 438.369 473.579 438.369 458.013V53.988C438.368 38.422 425.703 25.758 410.137 25.758Z" fill="#235197"/>
<path d="M262.036 421.766H241.965C235.985 421.766 231.119 426.631 231.119 432.612V452.682C231.119 458.661 235.984 463.528 241.965 463.528H262.036C268.015 463.528 272.882 458.663 272.882 452.682V432.612C272.882 426.632 268.016 421.766 262.036 421.766ZM257.88 448.526H246.12V436.766H257.88V448.526Z" fill="#FF9254"/>
<path d="M309.285 421.766H289.216C283.237 421.766 278.37 426.631 278.37 432.612V452.682C278.37 458.661 283.235 463.528 289.216 463.528H309.285C315.265 463.528 320.132 458.663 320.132 452.682V432.612C320.131 426.632 315.266 421.766 309.285 421.766ZM305.131 448.526H293.371V436.766H305.131V448.526Z" fill="#235197"/>
<path d="M356.535 421.766H336.466C330.485 421.766 325.619 426.631 325.619 432.612V452.682C325.619 458.661 330.484 463.528 336.466 463.528H356.535C362.515 463.528 367.382 458.663 367.382 452.682V432.612C367.381 426.632 362.516 421.766 356.535 421.766ZM352.38 448.526H340.62V436.766H352.381V448.526H352.38Z" fill="#FF9254"/>
<path d="M403.785 421.766H383.716C377.736 421.766 372.869 426.631 372.869 432.612V452.682C372.869 458.661 377.734 463.528 383.716 463.528H403.785C409.765 463.528 414.632 458.663 414.632 452.682V432.612C414.631 426.632 409.766 421.766 403.785 421.766ZM399.63 448.526H387.87V436.766H399.631V448.526H399.63Z" fill="#235197"/>
<path d="M262.036 84.056H241.965C235.985 84.056 231.119 88.921 231.119 94.902V114.972C231.119 120.953 235.984 125.82 241.965 125.82H262.036C268.015 125.82 272.882 120.955 272.882 114.973V94.902C272.882 88.922 268.016 84.056 262.036 84.056ZM257.88 110.819H246.12V99.058H257.88V110.819Z" fill="#235197"/>
<path d="M309.284 84.056H289.215C283.236 84.056 278.369 88.921 278.369 94.902V114.972C278.37 120.953 283.235 125.82 289.215 125.82H309.284C315.264 125.82 320.131 120.955 320.131 114.973V94.902C320.13 88.922 315.265 84.056 309.284 84.056ZM305.131 110.819H293.371V99.058H305.131V110.819Z" fill="#FF9254"/>
<path d="M356.534 84.056H336.465C330.484 84.056 325.618 88.921 325.618 94.902V114.972C325.619 120.953 330.484 125.82 336.465 125.82H356.534C362.514 125.82 367.381 120.955 367.381 114.973V94.902C367.38 88.922 362.515 84.056 356.534 84.056ZM352.38 110.819H340.62V99.058H352.381V110.819H352.38Z" fill="#235197"/>
<path d="M403.783 84.056H383.714C377.734 84.056 372.867 88.921 372.867 94.902V114.972C372.868 120.953 377.733 125.82 383.714 125.82H403.783C409.763 125.82 414.63 120.955 414.63 114.973V94.902C414.63 88.922 409.765 84.056 403.783 84.056ZM399.63 110.819H387.87V99.058H399.631V110.819H399.63Z" fill="#FF9254"/>
<path d="M262.036 131.773H241.965C235.985 131.773 231.119 136.638 231.119 142.619V162.689C231.119 168.669 235.984 173.535 241.965 173.535H262.036C268.015 173.535 272.882 168.67 272.882 162.689V142.619C272.882 136.639 268.016 131.773 262.036 131.773ZM257.88 158.534H246.12V146.774H257.88V158.534Z" fill="#FF9254"/>
<path d="M309.285 131.773H289.216C283.237 131.773 278.37 136.638 278.37 142.619V162.689C278.37 168.669 283.235 173.535 289.216 173.535H309.285C315.265 173.535 320.132 168.67 320.132 162.689V142.619C320.131 136.639 315.266 131.773 309.285 131.773ZM305.131 158.534H293.371V146.774H305.131V158.534Z" fill="#235197"/>
<path d="M356.535 131.773H336.466C330.485 131.773 325.619 136.638 325.619 142.619V162.689C325.619 168.669 330.484 173.535 336.466 173.535H356.535C362.515 173.535 367.382 168.67 367.382 162.689V142.619C367.381 136.639 362.516 131.773 356.535 131.773ZM352.38 158.534H340.62V146.774H352.381V158.534H352.38Z" fill="#FF9254"/>
<path d="M403.785 131.773H383.716C377.736 131.773 372.869 136.638 372.869 142.619V162.689C372.869 168.669 377.734 173.535 383.716 173.535H403.785C409.765 173.535 414.632 168.67 414.632 162.689V142.619C414.631 136.639 409.766 131.773 403.785 131.773ZM399.63 158.534H387.87V146.774H399.631V158.534H399.63Z" fill="#235197"/>
<path d="M262.036 180.11H241.965C235.985 180.11 231.119 184.975 231.119 190.956V211.026C231.119 217.005 235.984 221.872 241.965 221.872H262.036C268.015 221.872 272.882 217.007 272.882 211.026V190.956C272.882 184.976 268.016 180.11 262.036 180.11ZM257.88 206.871H246.12V195.111H257.88V206.871Z" fill="#235197"/>
<path d="M309.285 180.11H289.216C283.237 180.11 278.37 184.975 278.37 190.956V211.026C278.37 217.005 283.235 221.872 289.216 221.872H309.285C315.265 221.872 320.132 217.007 320.132 211.026V190.956C320.131 184.976 315.266 180.11 309.285 180.11ZM305.131 206.871H293.371V195.111H305.131V206.871Z" fill="#FF9254"/>
<path d="M356.535 180.11H336.466C330.485 180.11 325.619 184.975 325.619 190.956V211.026C325.619 217.005 330.484 221.872 336.466 221.872H356.535C362.515 221.872 367.382 217.007 367.382 211.026V190.956C367.381 184.976 362.516 180.11 356.535 180.11ZM352.38 206.871H340.62V195.111H352.381V206.871H352.38Z" fill="#235197"/>
<path d="M403.785 180.11H383.716C377.736 180.11 372.869 184.975 372.869 190.956V211.026C372.869 217.005 377.734 221.872 383.716 221.872H403.785C409.765 221.872 414.632 217.007 414.632 211.026V190.956C414.631 184.976 409.766 180.11 403.785 180.11ZM399.63 206.871H387.87V195.111H399.631V206.871H399.63Z" fill="#FF9254"/>
<path d="M262.036 227.825H241.965C235.985 227.825 231.119 232.69 231.119 238.671V258.741C231.119 264.72 235.984 269.587 241.965 269.587H262.036C268.015 269.587 272.882 264.722 272.882 258.741V238.671C272.882 232.69 268.016 227.825 262.036 227.825ZM257.88 254.585H246.12V242.825H257.88V254.585Z" fill="#FF9254"/>
<path d="M309.285 227.825H289.216C283.237 227.825 278.37 232.69 278.37 238.671V258.741C278.37 264.72 283.235 269.587 289.216 269.587H309.285C315.265 269.587 320.132 264.722 320.132 258.741V238.671C320.131 232.69 315.266 227.825 309.285 227.825ZM305.131 254.585H293.371V242.825H305.131V254.585Z" fill="#235197"/>
<path d="M356.535 227.825H336.466C330.485 227.825 325.619 232.69 325.619 238.671V258.741C325.619 264.72 330.484 269.587 336.466 269.587H356.535C362.515 269.587 367.382 264.722 367.382 258.741V238.671C367.381 232.69 362.516 227.825 356.535 227.825ZM352.38 254.585H340.62V242.825H352.381V254.585H352.38Z" fill="#FF9254"/>
<path d="M262.036 275.541H241.965C235.985 275.541 231.119 280.406 231.119 286.387V306.457C231.119 312.437 235.984 317.303 241.965 317.303H262.036C268.015 317.303 272.882 312.438 272.882 306.457V286.387C272.882 280.406 268.016 275.541 262.036 275.541ZM257.88 302.301H246.12V290.541H257.88V302.301Z" fill="#235197"/>
<path d="M309.285 275.541H289.216C283.237 275.541 278.37 280.406 278.37 286.387V306.457C278.37 312.437 283.235 317.303 289.216 317.303H309.285C315.265 317.303 320.132 312.438 320.132 306.457V286.387C320.131 280.406 315.266 275.541 309.285 275.541ZM305.131 302.301H293.371V290.541H305.131V302.301Z" fill="#FF9254"/>
<path d="M356.535 275.541H336.466C330.485 275.541 325.619 280.406 325.619 286.387V306.457C325.619 312.437 330.484 317.303 336.466 317.303H356.535C362.515 317.303 367.382 312.438 367.382 306.457V286.387C367.381 280.406 362.516 275.541 356.535 275.541ZM352.38 302.301H340.62V290.541H352.381V302.301H352.38Z" fill="#235197"/>
<path d="M403.785 227.825H383.716C377.736 227.825 372.869 232.69 372.869 238.671V258.741C372.869 264.72 377.734 269.587 383.716 269.587H403.785C409.765 269.587 414.632 264.722 414.632 258.741V238.671C414.631 232.69 409.766 227.825 403.785 227.825ZM399.63 254.585H387.87V242.825H399.631V254.585H399.63Z" fill="#235197"/>
</svg>
