<svg width="512" height="512" viewBox="0 0 512 512" fill="none" xmlns="http://www.w3.org/2000/svg">
<path d="M160 416C155.253 416 150.613 417.408 146.666 420.045C142.72 422.682 139.643 426.43 137.827 430.816C136.01 435.201 135.535 440.027 136.461 444.682C137.387 449.338 139.673 453.614 143.029 456.971C146.386 460.327 150.662 462.613 155.318 463.539C159.973 464.465 164.799 463.99 169.184 462.173C173.57 460.357 177.318 457.28 179.955 453.334C182.592 449.387 184 444.747 184 440C184 433.635 181.471 427.53 176.971 423.029C172.47 418.529 166.365 416 160 416ZM160 448C158.418 448 156.871 447.531 155.555 446.652C154.24 445.773 153.214 444.523 152.609 443.061C152.003 441.6 151.845 439.991 152.154 438.439C152.462 436.887 153.224 435.462 154.343 434.343C155.462 433.224 156.887 432.462 158.439 432.154C159.991 431.845 161.6 432.003 163.061 432.609C164.523 433.214 165.773 434.24 166.652 435.555C167.531 436.871 168 438.418 168 440C168 442.122 167.157 444.157 165.657 445.657C164.157 447.157 162.122 448 160 448Z" fill="url(#paint0_linear)"/>
<path d="M440 16H264C254.782 16.0116 245.851 19.2007 238.71 25.0297C231.569 30.8588 226.657 38.9713 224.8 48H72C61.3952 48.0127 51.2285 52.2311 43.7298 59.7298C36.2311 67.2285 32.0127 77.3952 32 88V456C32.0127 466.605 36.2311 476.772 43.7298 484.27C51.2285 491.769 61.3952 495.987 72 496H248C257.218 495.988 266.149 492.799 273.29 486.97C280.431 481.141 285.343 473.029 287.2 464H440C450.605 463.987 460.772 459.769 468.27 452.27C475.769 444.772 479.987 434.605 480 424V56C479.987 45.3952 475.769 35.2285 468.27 27.7298C460.772 20.2311 450.605 16.0127 440 16ZM464 220.688L245.536 439.152C241.981 434.901 240.023 429.541 240 424V371.312L464 147.312V220.688ZM464 124.688L240 348.688V323.312L464 99.312V124.688ZM312 32H392V48H312V32ZM264 32H296V48C296 52.2435 297.686 56.3131 300.686 59.3137C303.687 62.3143 307.757 64 312 64H392C396.243 64 400.313 62.3143 403.314 59.3137C406.314 56.3131 408 52.2435 408 48V32H440C446.365 32 452.47 34.5286 456.971 39.0294C461.471 43.5303 464 49.6348 464 56V76.688L240 300.688V56C240 49.6348 242.529 43.5303 247.029 39.0294C251.53 34.5286 257.635 32 264 32ZM120 64H200V80H120V64ZM248 480H72C65.6348 480 59.5303 477.471 55.0294 472.971C50.5286 468.47 48 462.365 48 456V88C48 81.6348 50.5286 75.5303 55.0294 71.0294C59.5303 66.5286 65.6348 64 72 64H104V80C104 84.2435 105.686 88.3131 108.686 91.3137C111.687 94.3143 115.757 96 120 96H200C204.243 96 208.313 94.3143 211.314 91.3137C214.314 88.3131 216 84.2435 216 80V64H224V424C224.013 434.605 228.231 444.772 235.73 452.27C243.228 459.769 253.395 463.987 264 464H270.528C268.879 468.663 265.83 472.703 261.798 475.567C257.765 478.431 252.946 479.979 248 480ZM440 448H264C262.571 447.983 261.147 447.838 259.744 447.568L464 243.312V424C464 430.365 461.471 436.47 456.971 440.971C452.47 445.471 446.365 448 440 448Z" fill="url(#paint1_linear)" style="mix-blend-mode:darken"/>
<path d="M440 16H264C254.782 16.0116 245.851 19.2007 238.71 25.0297C231.569 30.8588 226.657 38.9713 224.8 48H72C61.3952 48.0127 51.2285 52.2311 43.7298 59.7298C36.2311 67.2285 32.0127 77.3952 32 88V456C32.0127 466.605 36.2311 476.772 43.7298 484.27C51.2285 491.769 61.3952 495.987 72 496H248C257.218 495.988 266.149 492.799 273.29 486.97C280.431 481.141 285.343 473.029 287.2 464H440C450.605 463.987 460.772 459.769 468.27 452.27C475.769 444.772 479.987 434.605 480 424V56C479.987 45.3952 475.769 35.2285 468.27 27.7298C460.772 20.2311 450.605 16.0127 440 16ZM464 220.688L245.536 439.152C241.981 434.901 240.023 429.541 240 424V371.312L464 147.312V220.688ZM464 124.688L240 348.688V323.312L464 99.312V124.688ZM312 32H392V48H312V32ZM264 32H296V48C296 52.2435 297.686 56.3131 300.686 59.3137C303.687 62.3143 307.757 64 312 64H392C396.243 64 400.313 62.3143 403.314 59.3137C406.314 56.3131 408 52.2435 408 48V32H440C446.365 32 452.47 34.5286 456.971 39.0294C461.471 43.5303 464 49.6348 464 56V76.688L240 300.688V56C240 49.6348 242.529 43.5303 247.029 39.0294C251.53 34.5286 257.635 32 264 32ZM120 64H200V80H120V64ZM248 480H72C65.6348 480 59.5303 477.471 55.0294 472.971C50.5286 468.47 48 462.365 48 456V88C48 81.6348 50.5286 75.5303 55.0294 71.0294C59.5303 66.5286 65.6348 64 72 64H104V80C104 84.2435 105.686 88.3131 108.686 91.3137C111.687 94.3143 115.757 96 120 96H200C204.243 96 208.313 94.3143 211.314 91.3137C214.314 88.3131 216 84.2435 216 80V64H224V424C224.013 434.605 228.231 444.772 235.73 452.27C243.228 459.769 253.395 463.987 264 464H270.528C268.879 468.663 265.83 472.703 261.798 475.567C257.765 478.431 252.946 479.979 248 480ZM440 448H264C262.571 447.983 261.147 447.838 259.744 447.568L464 243.312V424C464 430.365 461.471 436.47 456.971 440.971C452.47 445.471 446.365 448 440 448Z" fill="url(#paint2_linear)"/>
<path d="M352 384C347.253 384 342.613 385.408 338.666 388.045C334.72 390.682 331.643 394.43 329.827 398.816C328.01 403.201 327.535 408.027 328.461 412.682C329.387 417.338 331.673 421.614 335.029 424.971C338.386 428.327 342.662 430.613 347.318 431.539C351.973 432.465 356.799 431.99 361.184 430.173C365.57 428.357 369.318 425.28 371.955 421.334C374.592 417.387 376 412.747 376 408C376 401.635 373.471 395.53 368.971 391.029C364.47 386.529 358.365 384 352 384ZM352 416C350.418 416 348.871 415.531 347.555 414.652C346.24 413.773 345.214 412.523 344.609 411.061C344.003 409.6 343.845 407.991 344.154 406.439C344.462 404.887 345.224 403.462 346.343 402.343C347.462 401.224 348.887 400.462 350.439 400.154C351.991 399.845 353.6 400.003 355.061 400.609C356.523 401.214 357.773 402.24 358.652 403.555C359.531 404.871 360 406.418 360 408C360 410.122 359.157 412.157 357.657 413.657C356.157 415.157 354.122 416 352 416Z" fill="url(#paint3_linear)"/>
<defs>
<linearGradient id="paint0_linear" x1="160" y1="517.576" x2="160" y2="-1.07997" gradientUnits="userSpaceOnUse">
<stop stop-color="#00ACEA"/>
<stop offset="1" stop-color="#00EFD1"/>
</linearGradient>
<linearGradient id="paint1_linear" x1="14368" y1="31070.6" x2="14368" y2="-48.7995" gradientUnits="userSpaceOnUse">
<stop offset="1" stop-color="#00ACEA"/>
</linearGradient>
<linearGradient id="paint2_linear" x1="256" y1="16" x2="256" y2="496" gradientUnits="userSpaceOnUse">
<stop stop-color="#00EFD1"/>
<stop offset="1" stop-color="white" stop-opacity="0"/>
</linearGradient>
<linearGradient id="paint3_linear" x1="2440" y1="3489.46" x2="2440" y2="377.52" gradientUnits="userSpaceOnUse">
<stop offset="1" stop-color="#00ACEA"/>
</linearGradient>
</defs>
</svg>
