<svg height="500pt" viewBox="-105 0 500 500.00005" width="500pt" xmlns="http://www.w3.org/2000/svg"><path d="m279.699219 404.898438v65.101562c-.03125 11.03125-8.96875 19.96875-20 20h-229.398438c-11.03125-.03125-19.96875-8.96875-20-20v-65.101562zm-116 42.800781c0-10.328125-8.371094-18.699219-18.699219-18.699219s-18.699219 8.371094-18.699219 18.699219 8.371094 18.699219 18.699219 18.699219c10.320312-.019532 18.679688-8.378907 18.699219-18.699219zm0 0" fill="#00efd1"/><path d="m279.699219 73.5v331.398438h-269.398438v-331.398438zm0 0" fill="#d4e1f4"/><path d="m279.699219 30v43.398438h-269.398438v-43.398438c.03125-11.03125 8.96875-19.96875 20-20h229.398438c11.03125.03125 19.96875 8.96875 20 20zm0 0" fill="#00efd1"/><path d="m145 429c10.328125 0 18.699219 8.371094 18.699219 18.699219s-8.371094 18.699219-18.699219 18.699219-18.699219-8.371094-18.699219-18.699219c.019531-10.320313 8.378907-18.679688 18.699219-18.699219zm0 0" fill="#00acea"/><g fill="#083863"><path d="m289 30c.011719-7.960938-3.148438-15.597656-8.773438-21.226562-5.628906-5.625-13.265624-8.7851568-21.226562-8.773438h-229c-7.960938-.0117188-15.597656 3.148438-21.226562 8.773438-5.625 5.628906-8.7851568 13.265624-8.773438 21.226562v440c-.0117188 7.960938 3.148438 15.597656 8.773438 21.226562 5.628906 5.625 13.265624 8.785157 21.226562 8.773438h229c7.960938.011719 15.597656-3.148438 21.226562-8.773438 5.625-5.628906 8.785157-13.265624 8.773438-21.226562zm-258.699219-10h229.398438c5.574219-.007812 10.144531 4.425781 10.300781 10v33h-250v-33c.15625-5.574219 4.726562-10.007812 10.300781-10zm239.699219 63v312h-250v-312zm-10.300781 397h-229.398438c-5.574219.007812-10.144531-4.425781-10.300781-10v-55h250v55c-.15625 5.574219-4.726562 10.007812-10.300781 10zm0 0"/><path d="m135.800781 55h18.398438c5.523437 0 10-4.476562 10-10s-4.476563-10-10-10h-18.398438c-5.523437 0-10 4.476562-10 10s4.476563 10 10 10zm0 0"/><path d="m145 419c-15.851562 0-28.699219 12.847656-28.699219 28.699219 0 15.851562 12.847657 28.699219 28.699219 28.699219s28.699219-12.847657 28.699219-28.699219c-.035157-15.835938-12.863281-28.664063-28.699219-28.699219zm0 37.398438c-4.804688 0-8.699219-3.894532-8.699219-8.699219 0-4.804688 3.894531-8.699219 8.699219-8.699219s8.699219 3.894531 8.699219 8.699219c-.003907 4.804687-3.894531 8.699219-8.699219 8.699219zm0 0"/></g></svg>