<svg width="512" height="512" viewBox="0 0 512 512" fill="none" xmlns="http://www.w3.org/2000/svg">
<path d="M101.995 7.5C76.361 7.5 55.507 28.354 55.507 53.988V458.012C55.507 483.646 76.361 504.5 101.995 504.5H235.744V7.5H101.995Z" fill="#E9E9EA"/>
<path d="M83.2 458.012V53.987C83.2 28.353 104.054 7.49899 129.688 7.49899H101.995C76.361 7.49899 55.507 28.353 55.507 53.987V458.011C55.507 483.645 76.361 504.499 101.995 504.499H129.688C104.054 504.5 83.2 483.645 83.2 458.012Z" fill="#E9E9EA"/>
<path d="M106.701 33.433C93.775 33.433 83.2 44.009 83.2 56.934V111.937C83.2 124.863 93.776 135.438 106.701 135.438C119.627 135.438 130.202 124.862 130.202 111.937V56.934C130.203 44.01 119.627 33.433 106.701 33.433Z" fill="#535454"/>
<path d="M106.701 111.939V56.935C106.701 48.283 111.442 40.69 118.452 36.611C102.841 27.526 83.2 38.947 83.2 56.935V111.938C83.2 129.916 102.831 141.354 118.452 132.262C111.444 128.183 106.701 120.589 106.701 111.939Z" fill="#444443"/>
<path d="M410.269 7.5H235.744C210.11 7.5 189.256 28.354 189.256 53.988V458.012C189.256 483.646 210.11 504.5 235.744 504.5H410.269C435.903 504.5 456.757 483.646 456.757 458.012V53.988C456.756 28.355 435.901 7.5 410.269 7.5Z" fill="#535454"/>
<path d="M215.008 458.012V53.987C215.008 28.353 235.862 7.49899 261.496 7.49899H235.744C210.11 7.49899 189.256 28.353 189.256 53.987V458.011C189.256 483.645 210.11 504.499 235.744 504.499H261.496C235.862 504.5 215.008 483.645 215.008 458.012Z" fill="#444443"/>
<path d="M431 458.012C431 469.462 421.718 478.743 410.269 478.743H235.744C224.294 478.743 215.013 469.461 215.013 458.012V53.988C215.013 42.538 224.295 33.257 235.744 33.257H257.494C261.778 33.257 265.251 36.73 265.251 41.014V45.934C265.251 52.534 270.651 57.935 277.252 57.935H368.758C375.358 57.935 380.759 52.535 380.759 45.934V38.819C380.759 35.747 383.249 33.257 386.321 33.257H410.267C421.717 33.257 430.998 42.539 430.998 53.988L431 458.012Z" fill="#5692D8"/>
<path d="M239.745 458.012V53.988C239.745 43.16 248.05 34.283 258.635 33.35C257.43 33.172 258.712 33.296 235.745 33.257C224.295 33.257 215.014 42.539 215.014 53.988V458.011C215.014 469.461 224.296 478.742 235.745 478.742H260.476C249.027 478.743 239.745 469.461 239.745 458.012Z" fill="#5692D8"/>
<path d="M263.274 118.318H243.204C241.364 118.318 239.859 116.813 239.859 114.973V94.903C239.859 93.063 241.364 91.558 243.204 91.558H263.274C265.114 91.558 266.619 93.063 266.619 94.903V114.973C266.618 116.813 265.113 118.318 263.274 118.318Z" fill="#575B7A"/>
<path d="M310.524 118.318H290.454C288.614 118.318 287.109 116.813 287.109 114.973V94.903C287.109 93.063 288.614 91.558 290.454 91.558H310.524C312.364 91.558 313.869 93.063 313.869 94.903V114.973C313.868 116.813 312.363 118.318 310.524 118.318Z" fill="#E9E9EA"/>
<path d="M357.774 118.318H337.704C335.864 118.318 334.359 116.813 334.359 114.973V94.903C334.359 93.063 335.864 91.558 337.704 91.558H357.774C359.614 91.558 361.119 93.063 361.119 94.903V114.973C361.119 116.813 359.613 118.318 357.774 118.318Z" fill="#575B7A"/>
<path d="M405.024 118.318H384.954C383.114 118.318 381.609 116.813 381.609 114.973V94.903C381.609 93.063 383.114 91.558 384.954 91.558H405.024C406.864 91.558 408.369 93.063 408.369 94.903V114.973C408.369 116.813 406.863 118.318 405.024 118.318Z" fill="#E9E9EA"/>
<path d="M263.274 166.034H243.204C241.364 166.034 239.859 164.529 239.859 162.689V142.619C239.859 140.779 241.364 139.274 243.204 139.274H263.274C265.114 139.274 266.619 140.779 266.619 142.619V162.689C266.618 164.529 265.113 166.034 263.274 166.034Z" fill="#E9E9EA"/>
<path d="M310.524 166.034H290.454C288.614 166.034 287.109 164.529 287.109 162.689V142.619C287.109 140.779 288.614 139.274 290.454 139.274H310.524C312.364 139.274 313.869 140.779 313.869 142.619V162.689C313.868 164.529 312.363 166.034 310.524 166.034Z" fill="#575B7A"/>
<path d="M357.774 166.034H337.704C335.864 166.034 334.359 164.529 334.359 162.689V142.619C334.359 140.779 335.864 139.274 337.704 139.274H357.774C359.614 139.274 361.119 140.779 361.119 142.619V162.689C361.119 164.529 359.613 166.034 357.774 166.034Z" fill="#E9E9EA"/>
<path d="M405.024 166.034H384.954C383.114 166.034 381.609 164.529 381.609 162.689V142.619C381.609 140.779 383.114 139.274 384.954 139.274H405.024C406.864 139.274 408.369 140.779 408.369 142.619V162.689C408.369 164.529 406.863 166.034 405.024 166.034Z" fill="#575B7A"/>
<path d="M263.274 214.37H243.204C241.364 214.37 239.859 212.865 239.859 211.025V190.955C239.859 189.115 241.364 187.61 243.204 187.61H263.274C265.114 187.61 266.619 189.115 266.619 190.955V211.025C266.618 212.865 265.113 214.37 263.274 214.37Z" fill="#575B7A"/>
<path d="M310.524 214.37H290.454C288.614 214.37 287.109 212.865 287.109 211.025V190.955C287.109 189.115 288.614 187.61 290.454 187.61H310.524C312.364 187.61 313.869 189.115 313.869 190.955V211.025C313.868 212.865 312.363 214.37 310.524 214.37Z" fill="#E9E9EA"/>
<path d="M357.774 214.37H337.704C335.864 214.37 334.359 212.865 334.359 211.025V190.955C334.359 189.115 335.864 187.61 337.704 187.61H357.774C359.614 187.61 361.119 189.115 361.119 190.955V211.025C361.119 212.865 359.613 214.37 357.774 214.37Z" fill="#575B7A"/>
<path d="M405.024 214.37H384.954C383.114 214.37 381.609 212.865 381.609 211.025V190.955C381.609 189.115 383.114 187.61 384.954 187.61H405.024C406.864 187.61 408.369 189.115 408.369 190.955V211.025C408.369 212.865 406.863 214.37 405.024 214.37Z" fill="#E9E9EA"/>
<path d="M263.274 262.086H243.204C241.364 262.086 239.859 260.581 239.859 258.741V238.671C239.859 236.831 241.364 235.326 243.204 235.326H263.274C265.114 235.326 266.619 236.831 266.619 238.671V258.741C266.618 260.581 265.113 262.086 263.274 262.086Z" fill="#E9E9EA"/>
<path d="M310.524 262.086H290.454C288.614 262.086 287.109 260.581 287.109 258.741V238.671C287.109 236.831 288.614 235.326 290.454 235.326H310.524C312.364 235.326 313.869 236.831 313.869 238.671V258.741C313.868 260.581 312.363 262.086 310.524 262.086Z" fill="#575B7A"/>
<path d="M357.774 262.086H337.704C335.864 262.086 334.359 260.581 334.359 258.741V238.671C334.359 236.831 335.864 235.326 337.704 235.326H357.774C359.614 235.326 361.119 236.831 361.119 238.671V258.741C361.119 260.581 359.613 262.086 357.774 262.086Z" fill="#E9E9EA"/>
<path d="M263.274 309.802H243.204C241.364 309.802 239.859 308.297 239.859 306.457V286.387C239.859 284.547 241.364 283.042 243.204 283.042H263.274C265.114 283.042 266.619 284.547 266.619 286.387V306.457C266.618 308.297 265.113 309.802 263.274 309.802Z" fill="#575B7A"/>
<path d="M310.524 309.802H290.454C288.614 309.802 287.109 308.297 287.109 306.457V286.387C287.109 284.547 288.614 283.042 290.454 283.042H310.524C312.364 283.042 313.869 284.547 313.869 286.387V306.457C313.868 308.297 312.363 309.802 310.524 309.802Z" fill="#E9E9EA"/>
<path d="M357.774 309.802H337.704C335.864 309.802 334.359 308.297 334.359 306.457V286.387C334.359 284.547 335.864 283.042 337.704 283.042H357.774C359.614 283.042 361.119 284.547 361.119 286.387V306.457C361.119 308.297 359.613 309.802 357.774 309.802Z" fill="#575B7A"/>
<path d="M405.024 262.086H384.954C383.114 262.086 381.609 260.581 381.609 258.741V238.671C381.609 236.831 383.114 235.326 384.954 235.326H405.024C406.864 235.326 408.369 236.831 408.369 238.671V258.741C408.369 260.581 406.863 262.086 405.024 262.086Z" fill="#575B7A"/>
<path d="M263.274 457.027H243.204C241.364 457.027 239.859 455.522 239.859 453.682V433.612C239.859 431.772 241.364 430.267 243.204 430.267H263.274C265.114 430.267 266.619 431.772 266.619 433.612V453.682C266.619 455.522 265.113 457.027 263.274 457.027Z" fill="#92B620"/>
<path d="M310.524 457.027H290.454C288.614 457.027 287.109 455.522 287.109 453.682V433.612C287.109 431.772 288.614 430.267 290.454 430.267H310.524C312.364 430.267 313.869 431.772 313.869 433.612V453.682C313.869 455.522 312.363 457.027 310.524 457.027Z" fill="#70B5E8"/>
<path d="M357.774 457.027H337.704C335.864 457.027 334.359 455.522 334.359 453.682V433.612C334.359 431.772 335.864 430.267 337.704 430.267H357.774C359.614 430.267 361.119 431.772 361.119 433.612V453.682C361.119 455.522 359.613 457.027 357.774 457.027Z" fill="#575B7A"/>
<path d="M405.024 457.027H384.954C383.114 457.027 381.609 455.522 381.609 453.682V433.612C381.609 431.772 383.114 430.267 384.954 430.267H405.024C406.864 430.267 408.369 431.772 408.369 433.612V453.682C408.369 455.522 406.863 457.027 405.024 457.027Z" fill="#EFEFEF"/>
<path d="M353.059 40.757C357.202 40.757 360.559 37.4 360.559 33.257C360.559 29.115 357.202 25.757 353.059 25.757H313.899C309.756 25.757 306.399 29.115 306.399 33.257C306.399 37.4 309.756 40.757 313.899 40.757H353.059Z" fill="black"/>
<path d="M297.802 33.253C297.802 32.764 297.752 32.274 297.662 31.793C297.561 31.314 297.422 30.844 297.231 30.384C297.042 29.934 296.811 29.493 296.542 29.094C296.271 28.684 295.952 28.293 295.611 27.953C295.261 27.603 294.882 27.293 294.471 27.023C294.061 26.752 293.621 26.513 293.171 26.333C292.721 26.144 292.251 26.003 291.771 25.903C289.332 25.413 286.742 26.214 285.001 27.953C284.65 28.293 284.341 28.684 284.07 29.094C283.8 29.493 283.56 29.934 283.381 30.384C283.191 30.844 283.051 31.314 282.951 31.793C282.85 32.273 282.801 32.764 282.801 33.253C282.801 35.233 283.601 37.163 285.001 38.564C289.731 43.26 297.802 39.945 297.802 33.253Z" fill="black"/>
<path d="M113.501 55.065C113.085 54.078 112.508 53.254 111.871 52.635C105.509 46.072 95.387 54.765 100.33 62.096C101.554 63.886 103.299 64.942 105.1 65.285C105.59 65.386 106.08 65.435 106.57 65.435C107.06 65.435 107.551 65.385 108.03 65.285C108.51 65.195 108.99 65.045 109.44 64.865C109.89 64.676 110.33 64.445 110.73 64.176C111.14 63.896 111.53 63.585 111.87 63.236C112.22 62.896 112.53 62.506 112.81 62.096C113.08 61.696 113.31 61.255 113.5 60.806C113.68 60.356 113.83 59.875 113.92 59.406C114.02 58.916 114.07 58.427 114.07 57.936C114.07 57.445 114.02 56.956 113.92 56.466C113.831 55.994 113.681 55.515 113.501 55.065Z" fill="black"/>
<path d="M110.731 78.196C110.331 77.926 109.891 77.696 109.441 77.506C108.981 77.326 108.511 77.177 108.031 77.086C105.601 76.586 103.011 77.387 101.271 79.137C99.871 80.527 99.071 82.467 99.071 84.437C99.071 86.407 99.871 88.347 101.271 89.737C102.661 91.137 104.591 91.937 106.571 91.937C107.061 91.937 107.552 91.887 108.031 91.787C108.511 91.697 108.981 91.547 109.441 91.367C109.891 91.178 110.331 90.947 110.731 90.678C111.141 90.398 111.531 90.087 111.871 89.738C113.271 88.348 114.071 86.408 114.071 84.438C114.071 82.468 113.271 80.528 111.871 79.138C111.531 78.786 111.141 78.477 110.731 78.196Z" fill="#E9E9EA"/>
<path d="M113.491 108.069C113.311 107.619 113.071 107.179 112.801 106.779C112.531 106.369 112.221 105.979 111.871 105.639C110.131 103.889 107.541 103.088 105.101 103.588C104.631 103.679 104.151 103.828 103.701 104.008C103.251 104.198 102.811 104.429 102.411 104.698C101.991 104.978 101.611 105.288 101.271 105.638C100.921 105.978 100.611 106.367 100.331 106.778C100.061 107.178 99.831 107.618 99.641 108.068C99.461 108.518 99.311 108.998 99.221 109.468C99.121 109.957 99.071 110.447 99.071 110.938C99.071 112.908 99.871 114.848 101.271 116.238C102.661 117.638 104.591 118.438 106.571 118.438C108.541 118.438 110.481 117.638 111.871 116.238C113.271 114.848 114.071 112.918 114.071 110.938C114.071 110.448 114.021 109.958 113.921 109.468C113.831 108.998 113.681 108.519 113.491 108.069Z" fill="black"/>
<path d="M106.569 25.934C89.475 25.934 75.567 39.841 75.567 56.936V111.939C75.567 129.034 89.475 142.941 106.569 142.941C123.663 142.941 137.571 129.034 137.571 111.939V56.935C137.571 39.84 123.665 25.934 106.569 25.934ZM122.57 111.939C122.57 120.762 115.392 127.94 106.569 127.94C97.746 127.94 90.568 120.762 90.568 111.939V56.935C90.568 48.112 97.746 40.934 106.569 40.934C115.392 40.934 122.57 48.112 122.57 56.935V111.939Z" fill="black"/>
<path d="M456.624 435.5C460.767 435.5 464.124 447.143 464.124 443L464.125 53.987C464.125 24.219 439.906 0 410.137 0H235.612H101.863C72.094 0 47.875 24.219 47.875 53.987V458.011C47.875 487.78 72.094 511.998 101.863 511.998L156.5 511.999C160.642 511.999 143 509.643 143 505.5C143 501.357 162.142 496.999 158 496.999L101.863 496.998C80.366 496.998 62.876 479.509 62.876 458.012V53.987C62.876 32.49 80.366 15.001 101.863 15.001H198.303C194.861 18.296 191.588 22.364 188.958 26.873C178.528 44.753 181.651 39.977 181.625 458.013C181.625 473.263 188.028 487.163 198.303 496.999H147.572C143.43 496.999 140.072 500.356 140.072 504.499C140.072 508.642 143.43 511.999 147.572 511.999C155.307 511.999 392.657 511.999 410.137 511.999C439.906 511.999 464.124 487.78 464.124 458.012V437.886C464.124 433.743 460.767 430.386 456.624 430.386C452.481 430.386 449.124 433.743 449.124 437.886V458.012C449.124 479.509 431.635 496.998 410.138 496.998H235.612C214.115 496.998 196.626 479.509 196.626 458.012V53.988C196.626 32.491 214.115 15.002 235.612 15.002H410.137C431.634 15.002 449.123 32.491 449.123 53.988L449.124 443C449.125 447.143 452.48 435.5 456.624 435.5Z" fill="black"/>
<path d="M214.881 127.94C210.739 127.94 207.381 131.297 207.381 135.44V458.013C207.381 473.579 220.046 486.244 235.613 486.244H410.138C425.704 486.244 438.369 473.579 438.369 458.013V53.988C438.369 38.422 425.704 25.757 410.138 25.757H380.629C376.486 25.757 373.129 29.115 373.129 33.257V45.935C373.129 48.375 371.068 50.435 368.629 50.435H277.123C274.684 50.435 272.623 48.375 272.623 45.935V33.257C272.623 29.115 269.266 25.757 265.123 25.757H235.614C220.047 25.757 207.382 38.422 207.382 53.988V100.438C207.382 104.581 210.74 107.938 214.882 107.938C219.024 107.938 222.382 104.581 222.382 100.438V53.988C222.382 46.693 228.317 40.758 235.613 40.758H257.621V45.935C257.621 56.688 266.37 65.436 277.122 65.436H368.628C379.381 65.436 388.129 56.687 388.129 45.935V40.758H410.137C417.432 40.758 423.367 46.693 423.367 53.988V458.012C423.367 465.307 417.433 471.242 410.137 471.242H235.612C228.317 471.242 222.381 465.307 222.381 458.012V135.44C222.381 131.297 219.023 127.94 214.881 127.94Z" fill="black"/>
<path d="M231.119 452.681C231.119 458.66 235.984 463.527 241.965 463.527H262.036C268.015 463.527 272.882 458.662 272.882 452.681V432.611C272.882 426.632 268.017 421.765 262.036 421.765H241.965C235.985 421.765 231.119 426.63 231.119 432.611V452.681ZM246.12 436.766H257.88V448.526H246.12V436.766Z" fill="black"/>
<path d="M278.37 452.681C278.37 458.66 283.235 463.527 289.216 463.527H309.285C315.265 463.527 320.132 458.662 320.132 452.681V432.611C320.132 426.632 315.267 421.765 309.285 421.765H289.216C283.237 421.765 278.37 426.63 278.37 432.611V452.681ZM293.371 436.766H305.131V448.526H293.371V436.766Z" fill="black"/>
<path d="M325.619 452.681C325.619 458.66 330.484 463.527 336.466 463.527H356.535C362.515 463.527 367.382 458.662 367.382 452.681V432.611C367.382 426.632 362.517 421.765 356.535 421.765H336.466C330.485 421.765 325.619 426.63 325.619 432.611V452.681ZM340.62 436.766H352.381V448.526H340.62V436.766Z" fill="black"/>
<path d="M372.869 452.681C372.869 458.66 377.734 463.527 383.716 463.527H403.785C409.765 463.527 414.632 458.662 414.632 452.681V432.611C414.632 426.632 409.767 421.765 403.785 421.765H383.716C377.736 421.765 372.869 426.63 372.869 432.611V452.681ZM387.87 436.766H399.631V448.526H387.87V436.766Z" fill="black"/>
<path d="M241.965 125.82H262.036C268.015 125.82 272.882 120.955 272.882 114.973V94.902C272.882 88.923 268.017 84.056 262.036 84.056H241.965C235.985 84.056 231.119 88.921 231.119 94.902V114.972C231.119 120.953 235.984 125.82 241.965 125.82ZM246.12 99.058H257.88V110.819H246.12V99.058Z" fill="black"/>
<path d="M289.215 125.82H309.284C315.264 125.82 320.131 120.955 320.131 114.973V94.902C320.131 88.923 315.266 84.056 309.284 84.056H289.215C283.236 84.056 278.369 88.921 278.369 94.902V114.972C278.37 120.953 283.235 125.82 289.215 125.82ZM293.371 99.058H305.131V110.819H293.371V99.058Z" fill="black"/>
<path d="M336.464 125.82H356.533C362.513 125.82 367.38 120.955 367.38 114.973V94.902C367.38 88.923 362.515 84.056 356.533 84.056H336.464C330.483 84.056 325.617 88.921 325.617 94.902V114.972C325.619 120.953 330.484 125.82 336.464 125.82ZM340.62 99.058H352.381V110.819H340.62V99.058Z" fill="black"/>
<path d="M383.714 125.82H403.783C409.763 125.82 414.63 120.955 414.63 114.973V94.902C414.63 88.923 409.765 84.056 403.783 84.056H383.714C377.734 84.056 372.867 88.921 372.867 94.902V114.972C372.869 120.953 377.734 125.82 383.714 125.82ZM387.87 99.058H399.631V110.819H387.87V99.058Z" fill="black"/>
<path d="M231.119 162.689C231.119 168.669 235.984 173.535 241.965 173.535H262.036C268.015 173.535 272.882 168.67 272.882 162.689V142.619C272.882 136.64 268.017 131.773 262.036 131.773H241.965C235.985 131.773 231.119 136.638 231.119 142.619V162.689ZM246.12 146.774H257.88V158.534H246.12V146.774Z" fill="black"/>
<path d="M278.37 162.689C278.37 168.669 283.235 173.535 289.216 173.535H309.285C315.265 173.535 320.132 168.67 320.132 162.689V142.619C320.132 136.64 315.267 131.773 309.285 131.773H289.216C283.237 131.773 278.37 136.638 278.37 142.619V162.689ZM293.371 146.774H305.131V158.534H293.371V146.774Z" fill="black"/>
<path d="M325.619 162.689C325.619 168.669 330.484 173.535 336.466 173.535H356.535C362.515 173.535 367.382 168.67 367.382 162.689V142.619C367.382 136.64 362.517 131.773 356.535 131.773H336.466C330.485 131.773 325.619 136.638 325.619 142.619V162.689ZM340.62 146.774H352.381V158.534H340.62V146.774Z" fill="black"/>
<path d="M372.869 162.689C372.869 168.669 377.734 173.535 383.716 173.535H403.785C409.765 173.535 414.632 168.67 414.632 162.689V142.619C414.632 136.64 409.767 131.773 403.785 131.773H383.716C377.736 131.773 372.869 136.638 372.869 142.619V162.689ZM387.87 146.774H399.631V158.534H387.87V146.774Z" fill="black"/>
<path d="M231.119 211.026C231.119 217.005 235.984 221.872 241.965 221.872H262.036C268.015 221.872 272.882 217.007 272.882 211.026V190.956C272.882 184.977 268.017 180.11 262.036 180.11H241.965C235.985 180.11 231.119 184.975 231.119 190.956V211.026ZM246.12 195.111H257.88V206.871H246.12V195.111Z" fill="black"/>
<path d="M278.37 211.026C278.37 217.005 283.235 221.872 289.216 221.872H309.285C315.265 221.872 320.132 217.007 320.132 211.026V190.956C320.132 184.977 315.267 180.11 309.285 180.11H289.216C283.237 180.11 278.37 184.975 278.37 190.956V211.026ZM293.371 195.111H305.131V206.871H293.371V195.111Z" fill="black"/>
<path d="M325.619 211.026C325.619 217.005 330.484 221.872 336.466 221.872H356.535C362.515 221.872 367.382 217.007 367.382 211.026V190.956C367.382 184.977 362.517 180.11 356.535 180.11H336.466C330.485 180.11 325.619 184.975 325.619 190.956V211.026ZM340.62 195.111H352.381V206.871H340.62V195.111Z" fill="black"/>
<path d="M372.869 211.026C372.869 217.005 377.734 221.872 383.716 221.872H403.785C409.765 221.872 414.632 217.007 414.632 211.026V190.956C414.632 184.977 409.767 180.11 403.785 180.11H383.716C377.736 180.11 372.869 184.975 372.869 190.956V211.026ZM387.87 195.111H399.631V206.871H387.87V195.111Z" fill="black"/>
<path d="M231.119 258.741C231.119 264.72 235.984 269.587 241.965 269.587H262.036C268.015 269.587 272.882 264.722 272.882 258.741V238.671C272.882 232.691 268.017 227.825 262.036 227.825H241.965C235.985 227.825 231.119 232.69 231.119 238.671V258.741ZM246.12 242.826H257.88V254.586H246.12V242.826Z" fill="black"/>
<path d="M278.37 258.741C278.37 264.72 283.235 269.587 289.216 269.587H309.285C315.265 269.587 320.132 264.722 320.132 258.741V238.671C320.132 232.691 315.267 227.825 309.285 227.825H289.216C283.237 227.825 278.37 232.69 278.37 238.671V258.741ZM293.371 242.826H305.131V254.586H293.371V242.826Z" fill="black"/>
<path d="M325.619 258.741C325.619 264.72 330.484 269.587 336.466 269.587H356.535C362.515 269.587 367.382 264.722 367.382 258.741V238.671C367.382 232.691 362.517 227.825 356.535 227.825H336.466C330.485 227.825 325.619 232.69 325.619 238.671V258.741ZM340.62 242.826H352.381V254.586H340.62V242.826Z" fill="black"/>
<path d="M231.119 306.457C231.119 312.437 235.984 317.303 241.965 317.303H262.036C268.015 317.303 272.882 312.438 272.882 306.457V286.387C272.882 280.407 268.017 275.541 262.036 275.541H241.965C235.985 275.541 231.119 280.406 231.119 286.387V306.457ZM246.12 290.542H257.88V302.302H246.12V290.542Z" fill="black"/>
<path d="M278.37 306.457C278.37 312.437 283.235 317.303 289.216 317.303H309.285C315.265 317.303 320.132 312.438 320.132 306.457V286.387C320.132 280.407 315.267 275.541 309.285 275.541H289.216C283.237 275.541 278.37 280.406 278.37 286.387V306.457ZM293.371 290.542H305.131V302.302H293.371V290.542Z" fill="black"/>
<path d="M325.619 306.457C325.619 312.437 330.484 317.303 336.466 317.303H356.535C362.515 317.303 367.382 312.438 367.382 306.457V286.387C367.382 280.407 362.517 275.541 356.535 275.541H336.466C330.485 275.541 325.619 280.406 325.619 286.387V306.457ZM340.62 290.542H352.381V302.302H340.62V290.542Z" fill="black"/>
<path d="M372.869 258.741C372.869 264.72 377.734 269.587 383.716 269.587H403.785C409.765 269.587 414.632 264.722 414.632 258.741V238.671C414.632 232.691 409.767 227.825 403.785 227.825H383.716C377.736 227.825 372.869 232.69 372.869 238.671V258.741ZM387.87 242.826H399.631V254.586H387.87V242.826Z" fill="black"/>
</svg>
