<svg width="472" height="472" viewBox="0 0 472 472" fill="none" xmlns="http://www.w3.org/2000/svg">
<path d="M25.2266 149.711H50V298.793C49.9492 300.871 50.7383 302.887 52.1836 304.379C53.6328 305.875 55.6211 306.723 57.6992 306.742L275.848 308.711H275.922C278.035 308.73 280.074 307.918 281.59 306.449C283.117 304.969 283.984 302.941 284 300.816V149.711H310.773C314.105 149.734 317.098 147.68 318.27 144.559C319.441 141.441 318.543 137.922 316.02 135.746L173.43 11.957C170.422 9.34766 165.953 9.34766 162.945 11.957L19.9883 135.762C17.4648 137.934 16.5625 141.449 17.7344 144.566C18.9062 147.684 21.8984 149.738 25.2266 149.711ZM197 292.082L141 291.562V227.711H197V292.082ZM268 292.742L213 292.23V220.09C212.84 215.52 209.164 211.855 204.594 211.711H132.57C128.152 211.711 125 215.672 125 220.09V291.414L66 290.867V149.711H268V292.742ZM168.18 28.5L289.355 133.711H46.6836L168.18 28.5Z" fill="url(#paint0_linear)"/>
<path d="M428.344 199.094C426.977 196.43 424.242 194.742 421.246 194.711H326.078C321.617 194.777 318.023 198.402 318 202.867V329.711H8C5.90625 329.652 3.875 330.441 2.37109 331.898C0.867188 333.355 0.0117188 335.355 0 337.453V409.301C0 413.719 3.58203 417.711 8 417.711H32.1211C35.832 443.711 57.375 463.824 83.3203 463.824C109.27 463.824 130.809 443.711 134.52 417.711H341.551C345.262 443.711 366.805 463.824 392.754 463.824C418.699 463.824 440.238 443.711 443.949 417.711H464C468.418 417.711 472 413.719 472 409.301V284.902C472 283.602 471.691 282.324 471.102 281.168L428.344 199.094ZM416.398 210.711L451.094 277.711H334V210.711H416.398ZM83.3203 447.414C63.5977 447.414 47.5547 430.312 47.5547 409.301C47.5547 388.289 63.5977 371.188 83.3203 371.188C103.043 371.188 119.09 388.289 119.09 409.301C119.09 430.312 103.043 447.414 83.3203 447.414ZM83.3203 355.598C57.375 355.598 35.832 375.711 32.1211 401.711H16V345.711H318V401.711H134.52C130.809 375.711 109.266 355.602 83.3203 355.602V355.598ZM392.75 447.414C373.027 447.414 356.98 430.312 356.98 409.301C356.98 388.289 373.027 371.188 392.75 371.188C412.473 371.188 428.52 388.289 428.52 409.301C428.52 430.312 412.473 447.414 392.75 447.414ZM443.949 401.711C440.238 375.711 418.695 355.602 392.75 355.602C366.805 355.602 345.262 375.711 341.551 401.711H334V293.711H456V401.711H443.949Z" fill="url(#paint1_linear)"/>
<defs>
<linearGradient id="paint0_linear" x1="52" y1="475" x2="66" y2="-117" gradientUnits="userSpaceOnUse">
<stop stop-color="#00EFD1"/>
<stop offset="0.870935" stop-color="#00ACEA"/>
</linearGradient>
<linearGradient id="paint1_linear" x1="52" y1="475" x2="66" y2="-117" gradientUnits="userSpaceOnUse">
<stop stop-color="#00EFD1"/>
<stop offset="0.870935" stop-color="#00ACEA"/>
</linearGradient>
</defs>
</svg>
