<svg width="512" height="512" viewBox="0 0 512 512" fill="none" xmlns="http://www.w3.org/2000/svg">
<g clip-path="url(#clip0)">
<path d="M458.761 359.953L443.588 299.085L435.2 156.442C435.2 156.194 435.115 155.947 435.098 155.699C458.025 139.79 466.881 110.126 456.429 84.2513C445.977 58.3764 419.003 43.1863 391.458 47.6645C363.914 52.1427 343.14 75.0956 341.423 102.949C339.707 130.802 357.504 156.133 384.29 163.959L386.185 196.292L347.785 234.692L288.503 236.177L283.17 206.694C274.637 108.151 281.6 289.51 273.067 190.967L238.933 205.21C238.933 205.21 213.333 188.954 213.333 240.811C188.096 238.991 164.207 234.667 164.207 234.667L125.807 196.267L127.684 163.934C154.472 156.11 172.272 130.78 170.557 102.925C168.842 75.0712 148.069 52.1164 120.524 47.6374C92.9786 43.1583 66.0028 58.3488 55.5509 84.2247C45.099 110.101 53.9568 139.765 76.8853 155.674C76.8853 155.887 76.8085 156.1 76.8 156.314L68.4117 299.085L53.2394 359.953L5.11998 424.107C-3.36311 435.417 -1.07081 451.464 10.24 459.947C21.5508 468.43 37.5969 466.137 46.08 454.827L97.28 386.611C99.3545 383.889 100.847 380.77 101.666 377.446L106.854 356.642L128 380.809V439.467C128 453.605 139.462 465.067 153.6 465.067C167.738 465.067 179.2 453.605 179.2 439.467V371.2C179.158 365.004 176.928 359.023 172.902 354.313L120.081 293.965L121.788 264.687L135.441 278.34C140.242 283.179 146.783 285.89 153.6 285.867H213.333C227.472 285.867 238.933 274.405 238.933 260.267C238.905 257.353 238.374 254.466 237.363 251.733H274.637C273.626 254.466 273.095 257.353 273.067 260.267C273.067 274.405 284.528 285.867 298.667 285.867H358.4C365.191 285.884 371.707 283.186 376.499 278.374L390.153 264.721L391.859 294.007L338.953 354.492C335.008 359.169 332.831 365.082 332.8 371.2V439.467C332.8 453.605 344.262 465.067 358.4 465.067C372.538 465.067 384 453.605 384 439.467V380.809L405.18 356.642L410.351 377.378C411.161 380.706 412.648 383.832 414.72 386.56L465.92 454.827C470.767 461.258 478.347 465.048 486.4 465.067C496.097 465.067 504.961 459.588 509.297 450.915C513.634 442.242 512.698 431.864 506.88 424.107L458.761 359.953ZM358.4 106.667C358.4 83.1025 377.503 64 401.067 64C424.631 64 443.733 83.1025 443.733 106.667C443.733 130.231 424.631 149.333 401.067 149.333C377.514 149.305 358.428 130.219 358.4 106.667ZM68.2666 106.667C68.2666 83.1025 87.3692 64 110.933 64C134.497 64 153.6 83.1025 153.6 106.667C153.6 130.231 134.497 149.333 110.933 149.333C87.3809 149.305 68.2949 130.219 68.2666 106.667ZM85.0603 373.393C84.7813 374.454 84.294 375.449 83.6267 376.32L32.4266 444.587C29.5282 448.235 24.2842 448.985 20.48 446.293C16.7097 443.466 15.9456 438.117 18.7733 434.347L67.9253 368.811C68.609 367.9 69.1024 366.861 69.376 365.756L79.4453 325.385L93.0986 341.009L85.0603 373.393ZM213.333 268.8H153.6C151.34 268.795 149.172 267.9 147.567 266.308L120.892 239.625C120.798 239.514 120.687 239.428 120.585 239.326L109.952 228.693C107.809 226.475 104.637 225.585 101.653 226.366C98.6698 227.147 96.3398 229.477 95.5588 232.461C94.7779 235.444 95.6676 238.617 97.8858 240.759L105.685 248.559L102.844 296.346V296.405C102.862 296.632 102.893 296.857 102.938 297.079C102.927 297.947 103.05 298.81 103.305 299.639C103.594 300.379 103.991 301.072 104.482 301.696C104.619 301.968 104.77 302.233 104.934 302.49L159.949 365.338C161.341 366.975 162.115 369.05 162.133 371.2V439.467C162.133 444.18 158.313 448 153.6 448C148.887 448 145.067 444.18 145.067 439.467V377.6C145.066 375.531 144.314 373.532 142.95 371.977L87.424 308.591C85.7662 306.66 85.0338 304.101 85.4187 301.585C85.4187 301.38 85.3675 301.193 85.4187 300.988V300.877L93.4912 163.78C99.0054 165.456 104.735 166.319 110.498 166.34L109.082 190.515C108.885 190.686 108.638 190.754 108.45 190.933C105.119 194.266 105.119 199.667 108.45 202.999L110.652 205.21C110.729 205.295 110.822 205.372 110.899 205.457L154.658 249.207C156.259 250.805 158.429 251.701 160.691 251.699H213.333C218.046 251.699 221.867 255.52 221.867 260.233C221.867 264.945 218.046 268.766 213.333 268.766V268.8ZM369.05 371.977C367.686 373.532 366.934 375.531 366.933 377.6V439.467C366.933 444.18 363.113 448 358.4 448C353.687 448 349.867 444.18 349.867 439.467V371.2C349.893 369.138 350.625 367.148 351.94 365.559L407.066 302.575C407.27 302.336 407.339 302.037 407.518 301.79C408.606 300.493 409.159 298.83 409.062 297.139C409.106 296.914 409.138 296.686 409.156 296.457V296.397L406.315 248.61L414.114 240.811C416.279 238.655 417.129 235.509 416.345 232.557C415.56 229.604 413.26 227.295 410.311 226.498C407.363 225.701 404.213 226.538 402.048 228.693L391.415 239.326C391.313 239.428 391.202 239.514 391.108 239.625L364.433 266.308C362.828 267.9 360.66 268.795 358.4 268.8H298.667C293.954 268.8 290.133 264.979 290.133 260.267C290.133 255.554 293.954 251.733 298.667 251.733H351.326C353.588 251.735 355.758 250.839 357.359 249.242L401.109 205.5C401.195 205.406 401.289 205.329 401.374 205.235L403.567 203.034C406.898 199.701 406.898 194.3 403.567 190.967C403.379 190.788 403.14 190.72 402.935 190.558L401.527 166.4C407.288 166.379 413.015 165.516 418.526 163.84L426.598 300.937V301.047C426.598 301.252 426.539 301.44 426.598 301.645C426.983 304.151 426.26 306.701 424.619 308.634L369.05 371.977ZM491.52 446.293C487.713 448.971 482.479 448.224 479.573 444.587L428.373 376.277C427.708 375.395 427.226 374.388 426.957 373.316L418.901 341.018L432.597 325.393L442.658 365.756C442.932 366.861 443.425 367.9 444.109 368.811L493.227 434.347C496.054 438.117 495.29 443.466 491.52 446.293Z" fill="#235197"/>
<rect x="182" y="118" width="149" height="131" rx="7" fill="#FF9254"/>
</g>
<defs>
<clipPath id="clip0">
<rect width="512" height="512" fill="white"/>
</clipPath>
</defs>
</svg>
