<svg width="512" height="512" viewBox="0 0 512 512" fill="none" xmlns="http://www.w3.org/2000/svg">
<g clip-path="url(#clip0)">
<path d="M512 428.24V449.264C512 451.121 511.262 452.901 509.95 454.214C508.637 455.526 506.857 456.264 505 456.264C503.143 456.264 501.363 455.526 500.05 454.214C498.738 452.901 498 451.121 498 449.264V428.24C498 426.383 498.738 424.603 500.05 423.29C501.363 421.977 503.143 421.24 505 421.24C506.857 421.24 508.637 421.977 509.95 423.29C511.262 424.603 512 426.383 512 428.24V428.24ZM512 339.252V395.252C512 397.109 511.262 398.889 509.95 400.202C508.637 401.515 506.857 402.252 505 402.252C503.143 402.252 501.363 401.515 500.05 400.202C498.738 398.889 498 397.109 498 395.252V346.252H468V498.252H498V482.252C498 480.395 498.738 478.615 500.05 477.302C501.363 475.989 503.143 475.252 505 475.252C506.857 475.252 508.637 475.989 509.95 477.302C511.262 478.615 512 480.395 512 482.252V505.252C512 507.109 511.262 508.889 509.95 510.202C508.637 511.515 506.857 512.252 505 512.252H461C459.143 512.252 457.363 511.515 456.05 510.202C454.738 508.889 454 507.109 454 505.252V489.252H351.872V505.252C351.872 507.109 351.135 508.889 349.822 510.202C348.509 511.515 346.729 512.252 344.872 512.252H300.872C299.015 512.252 297.235 511.515 295.922 510.202C294.609 508.889 293.872 507.109 293.872 505.252V489.252H230C186.758 489.241 144.605 475.693 109.454 450.509C74.3029 425.325 47.9177 389.769 34 348.828C33.7035 347.958 33.5812 347.038 33.6403 346.12C33.6993 345.203 33.9385 344.306 34.3441 343.481C34.7497 342.656 35.3138 341.919 36.0042 341.312C36.6946 340.706 37.4979 340.241 38.368 339.944C39.2381 339.647 40.1582 339.525 41.0755 339.584C41.9929 339.643 42.8897 339.882 43.7146 340.288C44.5396 340.694 45.2766 341.258 45.8835 341.948C46.4905 342.639 46.9555 343.442 47.252 344.312C60.227 382.486 84.8275 415.641 117.602 439.124C150.377 462.607 189.681 475.241 230 475.252H293.872V409.252H230C196.329 409.214 164.048 395.821 140.24 372.012C116.431 348.204 103.038 315.923 103 282.252V217.88H37V282.252C37 284.109 36.2625 285.889 34.9497 287.202C33.637 288.515 31.8565 289.252 30 289.252C28.1435 289.252 26.363 288.515 25.0503 287.202C23.7375 285.889 23 284.109 23 282.252V217.88H7C5.14348 217.88 3.36301 217.143 2.05025 215.83C0.737498 214.517 0 212.737 0 210.88L0 166.88C0 165.024 0.737498 163.243 2.05025 161.93C3.36301 160.618 5.14348 159.88 7 159.88H23V57.752H7C6.08075 57.752 5.1705 57.571 4.32122 57.2192C3.47194 56.8674 2.70026 56.3518 2.05025 55.7018C1.40024 55.0518 0.884626 54.2801 0.532843 53.4308C0.18106 52.5815 0 51.6713 0 50.752L0 6.75201C0 4.8955 0.737498 3.11502 2.05025 1.80227C3.36301 0.489512 5.14348 -0.247986 7 -0.247986H173C174.857 -0.247986 176.637 0.489512 177.95 1.80227C179.263 3.11502 180 4.8955 180 6.75201V50.752C180 51.6713 179.819 52.5815 179.467 53.4308C179.115 54.2801 178.6 55.0518 177.95 55.7018C177.3 56.3518 176.528 56.8674 175.679 57.2192C174.83 57.571 173.919 57.752 173 57.752H157V159.88H173C174.857 159.88 176.637 160.618 177.95 161.93C179.263 163.243 180 165.024 180 166.88V210.88C180 212.737 179.263 214.517 177.95 215.83C176.637 217.143 174.857 217.88 173 217.88H157V282.252C157.021 301.606 164.719 320.162 178.405 333.847C192.09 347.533 210.646 355.231 230 355.252H293.872V339.252C293.872 337.395 294.609 335.615 295.922 334.302C297.235 332.989 299.015 332.252 300.872 332.252H344.872C346.729 332.252 348.509 332.989 349.822 334.302C351.135 335.615 351.872 337.395 351.872 339.252V355.252H454V339.252C454 337.395 454.738 335.615 456.05 334.302C457.363 332.989 459.143 332.252 461 332.252H505C506.857 332.252 508.637 332.989 509.95 334.302C511.262 335.615 512 337.395 512 339.252V339.252ZM351.872 369.252V395.252H454V369.252H351.872ZM143 57.752H117V159.88H143V57.752ZM14 43.752H166V13.752H14V43.752ZM37 159.88H103V57.752H37V159.88ZM150 203.88H166V173.88H14V203.88H150ZM293.872 395.252V369.252H230C206.934 369.227 184.82 360.052 168.51 343.742C152.2 327.432 143.025 305.318 143 282.252V217.88H117V282.252C117.034 312.211 128.95 340.933 150.134 362.118C171.319 383.302 200.041 395.218 230 395.252H293.872ZM337.872 482.252V346.252H307.872V498.252H337.872V482.252ZM454 475.252V409.252H351.872V475.252H454Z" fill="url(#paint0_linear)"/>
</g>
<defs>
<linearGradient id="paint0_linear" x1="467.864" y1="552.284" x2="-40.284" y2="44.136" gradientUnits="userSpaceOnUse">
<stop stop-color="#EC7887"/>
<stop offset="0.0001" stop-color="#00ACEA"/>
<stop offset="1" stop-color="#00EFD1"/>
</linearGradient>
<clipPath id="clip0">
<rect width="512" height="512" fill="white"/>
</clipPath>
</defs>
</svg>
