<svg width="512" height="512" viewBox="0 0 512 512" fill="none" xmlns="http://www.w3.org/2000/svg">
<path d="M65.896 245.768C65.804 242.968 65.656 240.188 65.496 237.404C65.3842 235.557 66.0088 233.741 67.233 232.353C68.4572 230.965 70.1814 230.119 72.028 230C72.9475 229.931 73.8715 230.047 74.7457 230.34C75.6198 230.634 76.4265 231.099 77.1182 231.708C77.8099 232.318 78.3727 233.06 78.7735 233.891C79.1743 234.721 79.405 235.623 79.452 236.544C79.6387 239.477 79.7827 242.4 79.884 245.312C79.9155 246.231 79.7658 247.147 79.4433 248.008C79.1209 248.868 78.632 249.657 78.0047 250.329C77.3773 251.001 76.6237 251.543 75.787 251.924C74.9503 252.304 74.0467 252.517 73.128 252.548H72.884C71.0668 252.547 69.3213 251.839 68.017 250.573C66.7128 249.308 65.9521 247.584 65.896 245.768V245.768ZM490.8 126.096V185C490.8 186.857 490.062 188.637 488.75 189.95C487.437 191.263 485.656 192 483.8 192H453.08C443.636 234.144 443.636 277.856 453.08 320H483.792C485.648 320 487.429 320.738 488.742 322.05C490.054 323.363 490.792 325.143 490.792 327V385.904C490.792 387.761 490.054 389.541 488.742 390.854C487.429 392.167 485.648 392.904 483.792 392.904H424.884V405.02C424.884 413.898 421.357 422.413 415.079 428.691C408.801 434.969 400.286 438.496 391.408 438.496C382.53 438.496 374.015 434.969 367.737 428.691C361.459 422.413 357.932 413.898 357.932 405.02V392.904H154.072V405.02C154.072 413.898 150.545 422.413 144.267 428.691C137.989 434.969 129.474 438.496 120.596 438.496C111.718 438.496 103.203 434.969 96.9249 428.691C90.6469 422.413 87.12 413.898 87.12 405.02V392.904H28.208C26.3515 392.904 24.571 392.167 23.2582 390.854C21.9455 389.541 21.208 387.761 21.208 385.904V327C21.208 325.143 21.9455 323.363 23.2582 322.05C24.571 320.738 26.3515 320 28.208 320H58.864C62.882 302.292 65.2376 284.247 65.9 266.1C65.9642 264.243 66.7632 262.489 68.1214 261.221C69.4795 259.954 71.2855 259.278 73.142 259.342C74.9985 259.406 76.7535 260.205 78.0209 261.563C79.2882 262.922 79.9642 264.727 79.9 266.584C79.2695 284.549 77.0569 302.423 73.288 320H87.116V192H73.288C74.868 199.38 76.18 206.832 77.204 214.244C77.458 216.083 76.9711 217.948 75.8504 219.428C74.7297 220.908 73.067 221.882 71.228 222.136C70.9087 222.182 70.5865 222.204 70.264 222.204C68.5751 222.201 66.9443 221.587 65.672 220.477C64.3997 219.366 63.5715 217.833 63.34 216.16C62.224 208.092 60.664 200 58.86 192H28.208C27.2881 192.001 26.377 191.821 25.5268 191.469C24.6766 191.118 23.9039 190.603 23.2531 189.953C22.6022 189.302 22.0859 188.53 21.7336 187.681C21.3813 186.831 21.2 185.92 21.2 185V126.096C21.2 124.239 21.9375 122.459 23.2502 121.146C24.563 119.834 26.3435 119.096 28.2 119.096H87.116V106.98C87.116 98.1016 90.6429 89.5869 96.9209 83.3089C103.199 77.0309 111.714 73.504 120.592 73.504C129.47 73.504 137.985 77.0309 144.263 83.3089C150.541 89.5869 154.068 98.1016 154.068 106.98V119.096H357.928V106.98C357.928 98.1016 361.455 89.5869 367.733 83.3089C374.011 77.0309 382.526 73.504 391.404 73.504C400.282 73.504 408.797 77.0309 415.075 83.3089C421.353 89.5869 424.88 98.1016 424.88 106.98V119.096H483.792C484.712 119.095 485.623 119.275 486.473 119.627C487.323 119.978 488.096 120.493 488.747 121.143C489.398 121.794 489.914 122.566 490.266 123.415C490.619 124.265 490.8 125.176 490.8 126.096V126.096ZM424.888 159.668H431.1C432.193 159.668 433.242 159.234 434.015 158.461C434.788 157.688 435.222 156.639 435.222 155.546C435.222 154.453 434.788 153.404 434.015 152.631C433.242 151.858 432.193 151.424 431.1 151.424H424.888V159.668ZM154.088 133.096V137.424H168.548C173.354 137.424 177.964 139.333 181.362 142.732C184.761 146.13 186.67 150.74 186.67 155.546C186.67 160.352 184.761 164.962 181.362 168.36C177.964 171.759 173.354 173.668 168.548 173.668H154.072V178H357.928V151.424H343.468C342.375 151.424 341.326 151.858 340.553 152.631C339.78 153.404 339.346 154.453 339.346 155.546C339.346 156.639 339.78 157.688 340.553 158.461C341.326 159.234 342.375 159.668 343.468 159.668C345.324 159.668 347.105 160.405 348.418 161.718C349.73 163.031 350.468 164.811 350.468 166.668C350.468 168.525 349.73 170.305 348.418 171.618C347.105 172.931 345.324 173.668 343.468 173.668C338.662 173.668 334.052 171.759 330.654 168.36C327.255 164.962 325.346 160.352 325.346 155.546C325.346 150.74 327.255 146.13 330.654 142.732C334.052 139.333 338.662 137.424 343.468 137.424H357.928V133.096H154.088ZM154.088 159.668H168.548C169.641 159.668 170.69 159.234 171.463 158.461C172.236 157.688 172.67 156.639 172.67 155.546C172.67 154.453 172.236 153.404 171.463 152.631C170.69 151.858 169.641 151.424 168.548 151.424H154.072L154.088 159.668ZM154.088 360.576H168.548C169.641 360.576 170.69 360.142 171.463 359.369C172.236 358.596 172.67 357.547 172.67 356.454C172.67 355.361 172.236 354.312 171.463 353.539C170.69 352.766 169.641 352.332 168.548 352.332H154.072L154.088 360.576ZM87.116 352.332H80.908C79.8148 352.332 78.7663 352.766 77.9933 353.539C77.2203 354.312 76.786 355.361 76.786 356.454C76.786 357.547 77.2203 358.596 77.9933 359.369C78.7663 360.142 79.8148 360.576 80.908 360.576H87.12L87.116 352.332ZM87.116 151.424H80.908C79.8148 151.424 78.7663 151.858 77.9933 152.631C77.2203 153.404 76.786 154.453 76.786 155.546C76.786 156.639 77.2203 157.688 77.9933 158.461C78.7663 159.234 79.8148 159.668 80.908 159.668H87.12L87.116 151.424ZM87.116 178V173.668H80.908C78.5282 173.668 76.1717 173.199 73.973 172.289C71.7743 171.378 69.7766 170.043 68.0938 168.36C66.411 166.677 65.0762 164.68 64.1654 162.481C63.2547 160.282 62.786 157.926 62.786 155.546C62.786 153.166 63.2547 150.81 64.1654 148.611C65.0762 146.412 66.411 144.415 68.0938 142.732C69.7766 141.049 71.7743 139.714 73.973 138.803C76.1717 137.893 78.5282 137.424 80.908 137.424H87.12V133.096H35.2V178H87.116ZM87.116 378.904V374.576H80.908C76.1017 374.576 71.4923 372.667 68.0938 369.268C64.6953 365.87 62.786 361.26 62.786 356.454C62.786 351.648 64.6953 347.038 68.0938 343.64C71.4923 340.241 76.1017 338.332 80.908 338.332H87.12V334H35.2V378.904H87.116ZM140.068 106.984C140.068 101.819 138.016 96.8648 134.364 93.2124C130.711 89.5599 125.757 87.508 120.592 87.508C115.427 87.508 110.473 89.5599 106.82 93.2124C103.168 96.8648 101.116 101.819 101.116 106.984V405.024C101.116 410.189 103.168 415.143 106.82 418.796C110.473 422.448 115.427 424.5 120.592 424.5C125.757 424.5 130.711 422.448 134.364 418.796C138.016 415.143 140.068 410.189 140.068 405.024V106.984ZM357.928 378.904V374.576H343.468C338.662 374.576 334.052 372.667 330.654 369.268C327.255 365.87 325.346 361.26 325.346 356.454C325.346 351.648 327.255 347.038 330.654 343.64C334.052 340.241 338.662 338.332 343.468 338.332H357.928V334H154.072V338.332H168.532C173.338 338.332 177.948 340.241 181.346 343.64C184.745 347.038 186.654 351.648 186.654 356.454C186.654 361.26 184.745 365.87 181.346 369.268C177.948 372.667 173.338 374.576 168.532 374.576H154.072V378.904H357.928ZM357.928 352.332H343.468C342.375 352.332 341.326 352.766 340.553 353.539C339.78 354.312 339.346 355.361 339.346 356.454C339.346 357.547 339.78 358.596 340.553 359.369C341.326 360.142 342.375 360.576 343.468 360.576H357.928V352.332ZM410.88 106.98C410.88 101.815 408.828 96.8608 405.176 93.2084C401.523 89.5559 396.569 87.504 391.404 87.504C386.239 87.504 381.285 89.5559 377.632 93.2084C373.98 96.8608 371.928 101.815 371.928 106.98V217.38C371.928 219.237 371.19 221.017 369.878 222.33C368.565 223.642 366.785 224.38 364.928 224.38C363.071 224.38 361.291 223.642 359.978 222.33C358.665 221.017 357.928 219.237 357.928 217.38V192H154.072V320H357.928V275.444C357.928 273.587 358.665 271.807 359.978 270.494C361.291 269.182 363.071 268.444 364.928 268.444C366.785 268.444 368.565 269.182 369.878 270.494C371.19 271.807 371.928 273.587 371.928 275.444V405.02C371.928 410.185 373.98 415.139 377.632 418.792C381.285 422.444 386.239 424.496 391.404 424.496C396.569 424.496 401.523 422.444 405.176 418.792C408.828 415.139 410.88 410.185 410.88 405.02V106.98ZM476.8 334H424.884V360.576H431.096C432.188 360.575 433.236 360.141 434.008 359.368C434.781 358.596 435.215 357.548 435.216 356.456C435.216 354.599 435.953 352.819 437.266 351.506C438.579 350.194 440.359 349.456 442.216 349.456C444.073 349.456 445.853 350.194 447.166 351.506C448.478 352.819 449.216 354.599 449.216 356.456C449.211 361.26 447.3 365.866 443.903 369.263C440.506 372.66 435.9 374.571 431.096 374.576H424.884V378.904H476.8V334ZM438.716 192H424.884V320H438.716C429.717 277.808 429.717 234.192 438.716 192V192ZM476.796 133.096H424.884V137.424H431.096C435.902 137.424 440.512 139.333 443.91 142.732C447.309 146.13 449.218 150.74 449.218 155.546C449.218 160.352 447.309 164.962 443.91 168.36C440.512 171.759 435.902 173.668 431.096 173.668H424.884V178H476.8L476.796 133.096ZM120.596 119.096C118.739 119.096 116.959 119.834 115.646 121.146C114.334 122.459 113.596 124.239 113.596 126.096V154.308C113.596 156.165 114.334 157.945 115.646 159.258C116.959 160.571 118.739 161.308 120.596 161.308C122.453 161.308 124.233 160.571 125.546 159.258C126.859 157.945 127.596 156.165 127.596 154.308V126.096C127.596 125.176 127.415 124.266 127.063 123.416C126.711 122.567 126.195 121.795 125.544 121.145C124.894 120.495 124.122 119.979 123.272 119.628C122.422 119.276 121.512 119.095 120.592 119.096H120.596ZM120.596 196.296C118.739 196.296 116.959 197.033 115.646 198.346C114.334 199.659 113.596 201.439 113.596 203.296V231.512C113.596 233.369 114.334 235.149 115.646 236.462C116.959 237.775 118.739 238.512 120.596 238.512C122.453 238.512 124.233 237.775 125.546 236.462C126.859 235.149 127.596 233.369 127.596 231.512V203.292C127.596 202.372 127.415 201.462 127.063 200.612C126.711 199.763 126.195 198.991 125.544 198.341C124.894 197.691 124.122 197.175 123.272 196.824C122.422 196.472 121.512 196.291 120.592 196.292L120.596 196.296ZM120.596 273.496C118.739 273.496 116.959 274.234 115.646 275.546C114.334 276.859 113.596 278.639 113.596 280.496V308.712C113.596 310.569 114.334 312.349 115.646 313.662C116.959 314.974 118.739 315.712 120.596 315.712C122.453 315.712 124.233 314.974 125.546 313.662C126.859 312.349 127.596 310.569 127.596 308.712V280.492C127.596 279.572 127.415 278.662 127.063 277.812C126.711 276.963 126.195 276.191 125.544 275.541C124.894 274.891 124.122 274.375 123.272 274.024C122.422 273.672 121.512 273.491 120.592 273.492L120.596 273.496ZM120.596 350.696C118.739 350.696 116.959 351.433 115.646 352.746C114.334 354.059 113.596 355.839 113.596 357.696V385.908C113.596 387.765 114.334 389.545 115.646 390.858C116.959 392.171 118.739 392.908 120.596 392.908C122.453 392.908 124.233 392.171 125.546 390.858C126.859 389.545 127.596 387.765 127.596 385.908V357.692C127.596 356.772 127.415 355.862 127.063 355.012C126.711 354.163 126.195 353.391 125.544 352.741C124.894 352.091 124.122 351.575 123.272 351.224C122.422 350.872 121.512 350.691 120.592 350.692L120.596 350.696ZM364.928 229.804C363.071 229.804 361.291 230.541 359.978 231.854C358.665 233.167 357.928 234.947 357.928 236.804V247.404C357.928 249.261 358.665 251.041 359.978 252.354C361.291 253.666 363.071 254.404 364.928 254.404C366.785 254.404 368.565 253.666 369.878 252.354C371.19 251.041 371.928 249.261 371.928 247.404V236.8C371.927 234.944 371.189 233.165 369.876 231.853C368.564 230.541 366.784 229.804 364.928 229.804V229.804ZM391.404 350.692C389.547 350.692 387.767 351.429 386.454 352.742C385.141 354.055 384.404 355.835 384.404 357.692V385.904C384.404 387.761 385.141 389.541 386.454 390.854C387.767 392.167 389.547 392.904 391.404 392.904C393.26 392.904 395.041 392.167 396.354 390.854C397.666 389.541 398.404 387.761 398.404 385.904V357.692C398.404 355.836 397.667 354.056 396.355 352.744C395.043 351.431 393.264 350.693 391.408 350.692H391.404ZM391.404 273.492C389.547 273.492 387.767 274.23 386.454 275.542C385.141 276.855 384.404 278.635 384.404 280.492V308.708C384.404 310.565 385.141 312.345 386.454 313.658C387.767 314.97 389.547 315.708 391.404 315.708C393.26 315.708 395.041 314.97 396.354 313.658C397.666 312.345 398.404 310.565 398.404 308.708V280.492C398.404 278.636 397.667 276.856 396.355 275.544C395.043 274.231 393.264 273.493 391.408 273.492H391.404ZM391.404 196.292C389.547 196.292 387.767 197.03 386.454 198.342C385.141 199.655 384.404 201.435 384.404 203.292V231.508C384.404 233.365 385.141 235.145 386.454 236.458C387.767 237.771 389.547 238.508 391.404 238.508C393.26 238.508 395.041 237.771 396.354 236.458C397.666 235.145 398.404 233.365 398.404 231.508V203.292C398.404 201.436 397.667 199.656 396.355 198.344C395.043 197.031 393.264 196.293 391.408 196.292H391.404ZM391.404 119.092C389.547 119.092 387.767 119.829 386.454 121.142C385.141 122.455 384.404 124.235 384.404 126.092V154.304C384.404 156.161 385.141 157.941 386.454 159.254C387.767 160.567 389.547 161.304 391.404 161.304C393.26 161.304 395.041 160.567 396.354 159.254C397.666 157.941 398.404 156.161 398.404 154.304V126.096C398.404 124.24 397.667 122.46 396.355 121.148C395.043 119.835 393.264 119.097 391.408 119.096L391.404 119.092ZM308.264 256C308.264 266.337 305.199 276.442 299.456 285.036C293.713 293.631 285.551 300.33 276.001 304.286C266.451 308.241 255.942 309.276 245.804 307.26C235.666 305.243 226.353 300.265 219.044 292.956C211.735 285.647 206.757 276.334 204.74 266.196C202.724 256.058 203.759 245.549 207.714 235.999C211.67 226.449 218.369 218.287 226.964 212.544C235.558 206.801 245.663 203.736 256 203.736C269.856 203.752 283.141 209.263 292.939 219.061C302.737 228.859 308.248 242.144 308.264 256V256ZM294.264 256C294.264 248.432 292.02 241.034 287.815 234.742C283.611 228.449 277.635 223.545 270.643 220.649C263.651 217.753 255.958 216.995 248.535 218.471C241.113 219.948 234.295 223.592 228.943 228.943C223.592 234.295 219.948 241.113 218.471 248.535C216.995 255.958 217.753 263.651 220.649 270.643C223.545 277.635 228.449 283.611 234.742 287.815C241.034 292.02 248.432 294.264 256 294.264C266.145 294.252 275.871 290.217 283.044 283.044C290.217 275.871 294.252 266.145 294.264 256V256Z" fill="url(#paint0_linear)"/>
<defs>
<linearGradient id="paint0_linear" x1="439.796" y1="439.796" x2="72.2039" y2="72.204" gradientUnits="userSpaceOnUse">
<stop stop-color="#00ACEA"/>
<stop offset="1" stop-color="#00EFD1"/>
</linearGradient>
</defs>
</svg>
