<svg id="Layer_1" height="512" viewBox="0 0 128 128" width="512" xmlns="http://www.w3.org/2000/svg" data-name="Layer 1"><path d="m111.875 46.25h-95.75a74.54 74.54 0 0 1 0 35.5h95.751a74.54 74.54 0 0 1 -.001-35.5zm-47.875 29.066a11.316 11.316 0 1 1 11.316-11.316 11.316 11.316 0 0 1 -11.316 11.316z" fill="#29295b"/><path d="m7.051 81.75h113.897v14.725h-113.897z" fill="#383c7c"/><path d="m7.051 31.524h113.897v14.725h-113.897z" fill="#383c7c"/><rect fill="#29295b" height="5.561" rx="2.78" width="27.467" x="17.446" y="36.107"/><rect fill="#29295b" height="5.561" rx="2.78" width="27.467" x="17.446" y="86.333"/><rect fill="#2de0c7" height="87.748" rx="6.619" width="13.238" x="23.529" y="20.126"/><g fill="#383c7c"><path d="m30.148 29.774a1.75 1.75 0 0 0 -1.75 1.75v7.053a1.75 1.75 0 0 0 3.5 0v-7.053a1.75 1.75 0 0 0 -1.75-1.75z"/><path d="m30.148 49.073a1.75 1.75 0 0 0 -1.75 1.75v7.054a1.75 1.75 0 1 0 3.5 0v-7.054a1.75 1.75 0 0 0 -1.75-1.75z"/><path d="m30.148 68.373a1.75 1.75 0 0 0 -1.75 1.75v7.054a1.75 1.75 0 0 0 3.5 0v-7.054a1.75 1.75 0 0 0 -1.75-1.75z"/><path d="m30.148 87.673a1.75 1.75 0 0 0 -1.75 1.75v7.053a1.75 1.75 0 0 0 3.5 0v-7.053a1.75 1.75 0 0 0 -1.75-1.75z"/></g><rect fill="#29295b" height="5.561" rx="2.78" width="27.467" x="83.087" y="86.333"/><rect fill="#29295b" height="5.561" rx="2.78" width="27.467" x="83.087" y="36.107"/><rect fill="#2de0c7" height="87.748" rx="6.619" width="13.238" x="91.233" y="20.126"/><path d="m97.852 87.673a1.75 1.75 0 0 0 -1.75 1.75v7.053a1.75 1.75 0 0 0 3.5 0v-7.053a1.75 1.75 0 0 0 -1.75-1.75z" fill="#383c7c"/><path d="m97.852 68.373a1.75 1.75 0 0 0 -1.75 1.75v7.054a1.75 1.75 0 0 0 3.5 0v-7.054a1.75 1.75 0 0 0 -1.75-1.75z" fill="#383c7c"/><path d="m97.852 49.073a1.75 1.75 0 0 0 -1.75 1.75v7.054a1.75 1.75 0 1 0 3.5 0v-7.054a1.75 1.75 0 0 0 -1.75-1.75z" fill="#383c7c"/><path d="m97.852 29.774a1.75 1.75 0 0 0 -1.75 1.75v7.053a1.75 1.75 0 0 0 3.5 0v-7.053a1.75 1.75 0 0 0 -1.75-1.75z" fill="#383c7c"/><path d="m16.474 61.442c-.023-.7-.06-1.395-.1-2.091a1.749 1.749 0 0 1 1.633-1.851 1.729 1.729 0 0 1 1.856 1.636q.07 1.1.108 2.192a1.75 1.75 0 0 1 -1.689 1.809h-.061a1.749 1.749 0 0 1 -1.747-1.695zm106.226-29.918v14.726a1.75 1.75 0 0 1 -1.75 1.75h-7.68a73.172 73.172 0 0 0 0 32h7.678a1.75 1.75 0 0 1 1.75 1.75v14.726a1.75 1.75 0 0 1 -1.75 1.75h-14.727v3.029a8.369 8.369 0 0 1 -16.738 0v-3.029h-50.965v3.029a8.369 8.369 0 0 1 -16.738 0v-3.029h-14.728a1.75 1.75 0 0 1 -1.75-1.75v-14.726a1.75 1.75 0 0 1 1.75-1.75h7.664a72.918 72.918 0 0 0 1.759-13.475 1.75 1.75 0 1 1 3.5.121 76.489 76.489 0 0 1 -1.653 13.354h3.457v-32h-3.457c.395 1.845.723 3.708.979 5.561a1.75 1.75 0 0 1 -1.494 1.973 1.688 1.688 0 0 1 -.241.017 1.751 1.751 0 0 1 -1.731-1.511c-.279-2.017-.669-4.04-1.12-6.04h-7.663a1.75 1.75 0 0 1 -1.752-1.75v-14.726a1.75 1.75 0 0 1 1.75-1.75h14.729v-3.029a8.369 8.369 0 1 1 16.738 0v3.029h50.965v-3.029a8.369 8.369 0 1 1 16.738 0v3.029h14.728a1.75 1.75 0 0 1 1.752 1.75zm-16.478 8.393h1.553a1.03 1.03 0 0 0 0-2.061h-1.553zm-67.7-6.643v1.082h3.615a4.53 4.53 0 0 1 0 9.061h-3.619v1.083h50.964v-6.644h-3.615a1.03 1.03 0 0 0 0 2.061 1.75 1.75 0 0 1 0 3.5 4.53 4.53 0 0 1 0-9.061h3.615v-1.082zm0 6.643h3.615a1.03 1.03 0 0 0 0-2.061h-3.619zm0 50.227h3.615a1.03 1.03 0 0 0 0-2.061h-3.619zm-16.743-2.061h-1.552a1.03 1.03 0 1 0 0 2.061h1.553zm0-50.227h-1.552a1.03 1.03 0 1 0 0 2.061h1.553zm0 6.644v-1.083h-1.552a4.53 4.53 0 1 1 0-9.061h1.553v-1.082h-12.98v11.226zm0 50.226v-1.082h-1.552a4.53 4.53 0 0 1 0-9.061h1.553v-1.083h-12.98v11.226zm13.238-67.98a4.869 4.869 0 1 0 -9.738 0v74.51a4.869 4.869 0 0 0 9.738 0zm54.465 67.98v-1.082h-3.615a4.53 4.53 0 0 1 0-9.061h3.615v-1.083h-50.964v1.083h3.615a4.53 4.53 0 0 1 0 9.061h-3.615v1.082zm0-6.643h-3.615a1.03 1.03 0 0 0 0 2.061h3.615zm13.238-61.338a4.869 4.869 0 1 0 -9.738 0v27.6a1.75 1.75 0 1 1 -3.5 0v-6.345h-50.964v32h50.964v-11.139a1.75 1.75 0 0 1 3.5 0v32.394a4.869 4.869 0 0 0 9.738 0zm16.48 56.755h-12.979v6.644h1.553a1.031 1.031 0 0 0 1.03-1.03 1.75 1.75 0 0 1 3.5 0 4.535 4.535 0 0 1 -4.53 4.53h-1.553v1.082h12.979zm-9.521-35.5h-3.458v32h3.458a76.7 76.7 0 0 1 0-32zm9.52-14.726h-12.978v1.082h1.553a4.53 4.53 0 0 1 0 9.061h-1.553v1.083h12.979zm-89.05-3.5a1.75 1.75 0 0 0 -1.75 1.75v7.053a1.75 1.75 0 0 0 3.5 0v-7.053a1.75 1.75 0 0 0 -1.751-1.75zm0 19.3a1.75 1.75 0 0 0 -1.75 1.75v7.054a1.75 1.75 0 1 0 3.5 0v-7.055a1.75 1.75 0 0 0 -1.751-1.75zm0 19.3a1.75 1.75 0 0 0 -1.75 1.75v7.054a1.75 1.75 0 0 0 3.5 0v-7.055a1.75 1.75 0 0 0 -1.751-1.75zm0 19.3a1.75 1.75 0 0 0 -1.75 1.75v7.053a1.75 1.75 0 0 0 3.5 0v-7.054a1.75 1.75 0 0 0 -1.751-1.75zm61.083-30.223a1.75 1.75 0 0 0 -1.75 1.75v2.65a1.75 1.75 0 0 0 3.5 0v-2.651a1.75 1.75 0 0 0 -1.75-1.749zm6.619 30.222a1.75 1.75 0 0 0 -1.75 1.75v7.053a1.75 1.75 0 0 0 3.5 0v-7.053a1.75 1.75 0 0 0 -1.749-1.75zm0-19.3a1.75 1.75 0 0 0 -1.75 1.75v7.054a1.75 1.75 0 0 0 3.5 0v-7.054a1.75 1.75 0 0 0 -1.749-1.75zm0-19.3a1.75 1.75 0 0 0 -1.75 1.75v7.054a1.75 1.75 0 1 0 3.5 0v-7.054a1.75 1.75 0 0 0 -1.749-1.75zm0-19.3a1.75 1.75 0 0 0 -1.75 1.75v7.053a1.75 1.75 0 0 0 3.5 0v-7.052a1.75 1.75 0 0 0 -1.749-1.75zm-20.785 34.227a13.066 13.066 0 1 1 -13.066-13.066 13.081 13.081 0 0 1 13.066 13.066zm-3.5 0a9.566 9.566 0 1 0 -9.566 9.566 9.577 9.577 0 0 0 9.566-9.566z" fill="#0f123a"/></svg>