<svg width="512" height="512" viewBox="0 0 512 512" fill="none" xmlns="http://www.w3.org/2000/svg">
<path d="M453.08 192H483.792C485.648 192 487.429 191.263 488.742 189.95C490.054 188.637 490.792 186.857 490.792 185V126.096C490.792 124.239 490.054 122.459 488.742 121.146C487.429 119.834 485.648 119.096 483.792 119.096H424.884V106.98C424.884 98.1016 421.357 89.5869 415.079 83.3089C408.801 77.0309 400.286 73.504 391.408 73.504C382.53 73.504 374.015 77.0309 367.737 83.3089C361.459 89.5869 357.932 98.1016 357.932 106.98V119.096H154.072V106.98C154.072 98.1016 150.545 89.5869 144.267 83.3089C137.989 77.0309 129.474 73.504 120.596 73.504C111.718 73.504 103.203 77.0309 96.9249 83.3089C90.6469 89.5869 87.12 98.1016 87.12 106.98V119.096H28.208C26.3515 119.096 24.571 119.834 23.2582 121.146C21.9455 122.459 21.208 124.239 21.208 126.096V185C21.208 186.857 21.9455 188.637 23.2582 189.95C24.571 191.263 26.3515 192 28.208 192H58.92C68.3639 234.144 68.3639 277.856 58.92 320H28.208C27.2881 319.999 26.377 320.179 25.5268 320.531C24.6766 320.882 23.9039 321.397 23.2531 322.047C22.6022 322.698 22.0859 323.47 21.7336 324.319C21.3813 325.169 21.2 326.08 21.2 327V385.904C21.2 387.761 21.9375 389.541 23.2502 390.854C24.563 392.167 26.3435 392.904 28.2 392.904H87.116V405.02C87.116 413.898 90.6429 422.413 96.9209 428.691C103.199 434.969 111.714 438.496 120.592 438.496C129.47 438.496 137.985 434.969 144.263 428.691C150.541 422.413 154.068 413.898 154.068 405.02V392.904H357.928V405.02C357.928 413.898 361.455 422.413 367.733 428.691C374.011 434.969 382.526 438.496 391.404 438.496C400.282 438.496 408.797 434.969 415.075 428.691C421.353 422.413 424.88 413.898 424.88 405.02V392.904H483.792C485.648 392.904 487.429 392.167 488.742 390.854C490.054 389.541 490.792 387.761 490.792 385.904V327C490.792 325.143 490.054 323.363 488.742 322.05C487.429 320.738 485.648 320 483.792 320H453.08C443.636 277.856 443.636 234.144 453.08 192ZM476.8 133.096V178H424.884V173.668H431.096C435.902 173.668 440.512 171.759 443.91 168.36C447.309 164.962 449.218 160.352 449.218 155.546C449.218 150.74 447.309 146.13 443.91 142.732C440.512 139.333 435.902 137.424 431.096 137.424H424.884V133.096H476.8ZM424.884 352.332H431.096C432.189 352.332 433.238 352.766 434.011 353.539C434.784 354.312 435.218 355.361 435.218 356.454C435.218 357.547 434.784 358.596 434.011 359.369C433.238 360.142 432.189 360.576 431.096 360.576H424.884V352.332ZM424.884 151.424H431.096C432.189 151.424 433.238 151.858 434.011 152.631C434.784 153.404 435.218 154.453 435.218 155.546C435.218 156.639 434.784 157.688 434.011 158.461C433.238 159.234 432.189 159.668 431.096 159.668H424.884V151.424ZM357.928 360.576H343.468C342.375 360.576 341.326 360.142 340.553 359.369C339.78 358.596 339.346 357.547 339.346 356.454C339.346 355.361 339.78 354.312 340.553 353.539C341.326 352.766 342.375 352.332 343.468 352.332H357.928V360.576ZM154.072 352.332H168.532C169.625 352.332 170.674 352.766 171.447 353.539C172.22 354.312 172.654 355.361 172.654 356.454C172.654 357.547 172.22 358.596 171.447 359.369C170.674 360.142 169.625 360.576 168.532 360.576H154.072V352.332ZM154.072 151.424H168.532C169.625 151.424 170.674 151.858 171.447 152.631C172.22 153.404 172.654 154.453 172.654 155.546C172.654 156.639 172.22 157.688 171.447 158.461C170.674 159.234 169.625 159.668 168.532 159.668H154.072V151.424ZM154.072 192H357.928V320H154.072V192ZM357.932 159.668H343.468C342.375 159.668 341.326 159.234 340.553 158.461C339.78 157.688 339.346 156.639 339.346 155.546C339.346 154.453 339.78 153.404 340.553 152.631C341.326 151.858 342.375 151.424 343.468 151.424H357.928L357.932 159.668ZM357.932 133.096V137.424H343.468C338.662 137.424 334.052 139.333 330.654 142.732C327.255 146.13 325.346 150.74 325.346 155.546C325.346 160.352 327.255 164.962 330.654 168.36C334.052 171.759 338.662 173.668 343.468 173.668H357.928V178H154.072V173.668H168.532C173.338 173.668 177.948 171.759 181.346 168.36C184.745 164.962 186.654 160.352 186.654 155.546C186.654 150.74 184.745 146.13 181.346 142.732C177.948 139.333 173.338 137.424 168.532 137.424H154.072V133.096H357.932ZM87.132 360.572H80.908C79.8148 360.572 78.7663 360.138 77.9933 359.365C77.2203 358.592 76.786 357.543 76.786 356.45C76.786 355.357 77.2203 354.308 77.9933 353.535C78.7663 352.762 79.8148 352.328 80.908 352.328H87.12L87.132 360.572ZM87.132 159.664H80.908C79.8148 159.664 78.7663 159.23 77.9933 158.457C77.2203 157.684 76.786 156.635 76.786 155.542C76.786 154.449 77.2203 153.4 77.9933 152.627C78.7663 151.854 79.8148 151.42 80.908 151.42H87.12L87.132 159.664ZM35.2 133.096H87.116V137.424H80.908C78.5282 137.424 76.1717 137.893 73.973 138.803C71.7743 139.714 69.7766 141.049 68.0938 142.732C66.411 144.415 65.0762 146.412 64.1654 148.611C63.2547 150.81 62.786 153.166 62.786 155.546C62.786 157.926 63.2547 160.282 64.1654 162.481C65.0762 164.68 66.411 166.677 68.0938 168.36C69.7766 170.043 71.7743 171.378 73.973 172.289C76.1717 173.199 78.5282 173.668 80.908 173.668H87.12V178H35.2V133.096ZM73.284 192H87.116V320H73.284C82.2835 277.808 82.2835 234.192 73.284 192ZM35.2 378.904V334H87.116V338.332H80.908C76.1017 338.332 71.4923 340.241 68.0938 343.64C64.6953 347.038 62.786 351.648 62.786 356.454C62.786 361.26 64.6953 365.87 68.0938 369.268C71.4923 372.667 76.1017 374.576 80.908 374.576H87.12V378.904H35.2ZM140.064 405.02C140.064 410.185 138.012 415.139 134.36 418.792C130.707 422.444 125.753 424.496 120.588 424.496C115.423 424.496 110.469 422.444 106.816 418.792C103.164 415.139 101.112 410.185 101.112 405.02V106.98C101.112 101.815 103.164 96.8608 106.816 93.2084C110.469 89.5559 115.423 87.504 120.588 87.504C125.753 87.504 130.707 89.5559 134.36 93.2084C138.012 96.8608 140.064 101.815 140.064 106.98V405.02ZM154.064 378.904V374.576H168.524C173.33 374.576 177.94 372.667 181.338 369.268C184.737 365.87 186.646 361.26 186.646 356.454C186.646 351.648 184.737 347.038 181.338 343.64C177.94 340.241 173.33 338.332 168.524 338.332H154.072V334H357.928V338.332H343.468C338.662 338.332 334.052 340.241 330.654 343.64C327.255 347.038 325.346 351.648 325.346 356.454C325.346 361.26 327.255 365.87 330.654 369.268C334.052 372.667 338.662 374.576 343.468 374.576H357.928V378.904H154.064ZM410.864 405.02C410.864 410.185 408.812 415.139 405.16 418.792C401.507 422.444 396.553 424.496 391.388 424.496C386.223 424.496 381.269 422.444 377.616 418.792C373.964 415.139 371.912 410.185 371.912 405.02V106.98C371.912 101.815 373.964 96.8608 377.616 93.2084C381.269 89.5559 386.223 87.504 391.388 87.504C396.553 87.504 401.507 89.5559 405.16 93.2084C408.812 96.8608 410.864 101.815 410.864 106.98V405.02ZM476.8 378.904H424.884V374.576H431.096C435.902 374.576 440.512 372.667 443.91 369.268C447.309 365.87 449.218 361.26 449.218 356.454C449.218 351.648 447.309 347.038 443.91 343.64C440.512 340.241 435.902 338.332 431.096 338.332H424.884V334H476.8V378.904ZM424.884 320V192H438.716C429.717 234.192 429.717 277.808 438.716 320H424.884Z" fill="#235197"/>
<path d="M120.592 119.096C118.735 119.096 116.955 119.834 115.642 121.146C114.33 122.459 113.592 124.239 113.592 126.096V154.308C113.592 156.165 114.33 157.945 115.642 159.258C116.955 160.571 118.735 161.308 120.592 161.308C122.449 161.308 124.229 160.571 125.542 159.258C126.855 157.945 127.592 156.165 127.592 154.308V126.096C127.592 124.239 126.855 122.459 125.542 121.146C124.229 119.834 122.449 119.096 120.592 119.096V119.096Z" fill="#FF9254"/>
<path d="M120.592 196.292C118.735 196.292 116.955 197.03 115.642 198.342C114.33 199.655 113.592 201.435 113.592 203.292V231.508C113.592 233.365 114.33 235.145 115.642 236.458C116.955 237.771 118.735 238.508 120.592 238.508C122.449 238.508 124.229 237.771 125.542 236.458C126.855 235.145 127.592 233.365 127.592 231.508V203.292C127.592 201.435 126.855 199.655 125.542 198.342C124.229 197.03 122.449 196.292 120.592 196.292V196.292Z" fill="#FF9254"/>
<path d="M120.592 273.492C118.735 273.492 116.955 274.23 115.642 275.542C114.33 276.855 113.592 278.635 113.592 280.492V308.708C113.592 310.565 114.33 312.345 115.642 313.658C116.955 314.97 118.735 315.708 120.592 315.708C122.449 315.708 124.229 314.97 125.542 313.658C126.855 312.345 127.592 310.565 127.592 308.708V280.492C127.592 278.635 126.855 276.855 125.542 275.542C124.229 274.23 122.449 273.492 120.592 273.492V273.492Z" fill="#FF9254"/>
<path d="M120.592 350.692C118.735 350.692 116.955 351.429 115.642 352.742C114.33 354.055 113.592 355.835 113.592 357.692V385.904C113.592 387.761 114.33 389.541 115.642 390.854C116.955 392.167 118.735 392.904 120.592 392.904C122.449 392.904 124.229 392.167 125.542 390.854C126.855 389.541 127.592 387.761 127.592 385.904V357.692C127.592 355.835 126.855 354.055 125.542 352.742C124.229 351.429 122.449 350.692 120.592 350.692V350.692Z" fill="#FF9254"/>
<path d="M391.408 350.692C389.551 350.692 387.771 351.429 386.458 352.742C385.145 354.055 384.408 355.835 384.408 357.692V385.904C384.408 387.761 385.145 389.541 386.458 390.854C387.771 392.167 389.551 392.904 391.408 392.904C393.265 392.904 395.045 392.167 396.358 390.854C397.671 389.541 398.408 387.761 398.408 385.904V357.692C398.408 355.835 397.671 354.055 396.358 352.742C395.045 351.429 393.265 350.692 391.408 350.692V350.692Z" fill="#FF9254"/>
<path d="M391.408 273.492C389.551 273.492 387.771 274.23 386.458 275.542C385.145 276.855 384.408 278.635 384.408 280.492V308.708C384.408 310.565 385.145 312.345 386.458 313.658C387.771 314.97 389.551 315.708 391.408 315.708C393.265 315.708 395.045 314.97 396.358 313.658C397.671 312.345 398.408 310.565 398.408 308.708V280.492C398.408 278.635 397.671 276.855 396.358 275.542C395.045 274.23 393.265 273.492 391.408 273.492V273.492Z" fill="#FF9254"/>
<path d="M391.408 196.292C389.551 196.292 387.771 197.03 386.458 198.342C385.145 199.655 384.408 201.435 384.408 203.292V231.508C384.408 233.365 385.145 235.145 386.458 236.458C387.771 237.771 389.551 238.508 391.408 238.508C393.265 238.508 395.045 237.771 396.358 236.458C397.671 235.145 398.408 233.365 398.408 231.508V203.292C398.408 201.435 397.671 199.655 396.358 198.342C395.045 197.03 393.265 196.292 391.408 196.292V196.292Z" fill="#FF9254"/>
<path d="M391.408 119.096C389.551 119.096 387.771 119.834 386.458 121.146C385.145 122.459 384.408 124.239 384.408 126.096V154.308C384.408 156.165 385.145 157.945 386.458 159.258C387.771 160.571 389.551 161.308 391.408 161.308C393.265 161.308 395.045 160.571 396.358 159.258C397.671 157.945 398.408 156.165 398.408 154.308V126.096C398.408 124.239 397.671 122.459 396.358 121.146C395.045 119.834 393.265 119.096 391.408 119.096V119.096Z" fill="#FF9254"/>
<path d="M256 203.736C245.663 203.736 235.558 206.801 226.964 212.544C218.369 218.287 211.67 226.449 207.714 235.999C203.759 245.549 202.724 256.058 204.74 266.196C206.757 276.334 211.735 285.647 219.044 292.956C226.353 300.265 235.666 305.243 245.804 307.26C255.942 309.276 266.451 308.241 276.001 304.286C285.551 300.33 293.713 293.631 299.456 285.036C305.199 276.442 308.264 266.337 308.264 256C308.248 242.144 302.737 228.859 292.939 219.061C283.141 209.263 269.856 203.752 256 203.736ZM256 294.268C248.432 294.268 241.034 292.024 234.742 287.82C228.45 283.615 223.545 277.64 220.649 270.648C217.753 263.656 216.995 255.963 218.471 248.541C219.947 241.118 223.591 234.3 228.942 228.949C234.293 223.597 241.11 219.953 248.533 218.476C255.955 216.999 263.648 217.756 270.64 220.652C277.632 223.547 283.608 228.451 287.813 234.743C292.018 241.035 294.263 248.432 294.264 256C294.252 266.145 290.217 275.871 283.044 283.044C275.871 290.217 266.145 294.252 256 294.264V294.268Z" fill="#235197"/>
</svg>
