<svg width="400" height="400" viewBox="0 0 400 400" fill="none" xmlns="http://www.w3.org/2000/svg">
<path fill-rule="evenodd" clip-rule="evenodd" d="M143.854 116.204C143.388 117.419 144.046 119.2 144.961 119.2C146.335 119.2 147.105 120.508 147.411 123.363C147.566 124.813 147.852 126 148.047 126C148.241 126 148.4 126.272 148.4 126.604C148.4 126.936 148.76 127.516 149.2 127.893C149.64 128.27 150 128.78 150 129.028C150 129.275 150.36 129.893 150.8 130.4C151.24 130.907 151.6 131.565 151.6 131.861C151.6 132.158 151.766 132.4 151.968 132.4C152.171 132.4 152.455 132.94 152.6 133.6C152.745 134.26 153.003 134.8 153.173 134.8C153.343 134.8 153.589 136.462 153.721 138.493C153.852 140.525 154.149 142.25 154.38 142.327C155.027 142.542 154.88 144.684 154.2 144.945C153.87 145.071 153.6 145.451 153.6 145.787C153.6 146.124 153.434 146.4 153.232 146.4C153.029 146.4 152.745 146.94 152.6 147.6C152.455 148.26 152.185 148.8 152 148.8C151.815 148.8 151.545 149.34 151.4 150C151.255 150.66 150.985 151.2 150.8 151.2C150.615 151.2 150.342 151.752 150.194 152.427C150.046 153.102 149.688 153.745 149.398 153.856C149.109 153.967 148.771 154.462 148.647 154.956C148.523 155.449 147.967 156.097 147.411 156.394C146.855 156.692 146.4 157.07 146.4 157.236C146.4 157.401 145.86 157.655 145.2 157.8C144.54 157.945 144 158.211 144 158.391C144 158.571 142.74 158.845 141.2 159C139.66 159.155 138.4 159.443 138.4 159.641C138.4 159.838 137.05 160 135.4 160C133.75 160 132.4 159.843 132.4 159.652C132.4 159.46 131.14 159.179 129.6 159.027C128.06 158.876 126.8 158.582 126.8 158.376C126.8 158.169 126.431 158 125.981 158C125.241 158 121.6 154.862 121.6 154.224C121.6 154.079 120.97 153.312 120.2 152.519C119.43 151.726 118.8 150.942 118.8 150.778C118.8 150.049 116.277 149.605 114.743 150.064C113.894 150.319 113.2 150.651 113.2 150.802C113.2 150.953 112.57 151.726 111.8 152.519C110.362 154 110.095 154.632 110.807 154.869C111.031 154.944 111.326 155.949 111.463 157.102C111.6 158.256 111.866 159.2 112.056 159.2C112.245 159.2 112.4 159.944 112.4 160.854C112.4 162.665 113.154 165.6 113.62 165.6C113.781 165.6 114.03 166.065 114.173 166.634C114.466 167.804 114.599 167.981 117.5 171.091C118.655 172.33 119.6 173.491 119.6 173.671C119.6 173.852 119.87 174 120.2 174C120.53 174 121.16 174.36 121.6 174.8C122.04 175.24 122.552 175.6 122.739 175.6C123.036 175.6 123.596 176.006 125.466 177.576C125.722 177.792 126.397 178.084 126.966 178.227C127.535 178.37 128 178.647 128 178.843C128 179.04 128.276 179.2 128.613 179.2C128.949 179.2 129.329 179.47 129.455 179.8C129.582 180.13 129.917 180.4 130.201 180.4C130.484 180.4 131.14 180.847 131.658 181.393C132.176 181.939 132.81 182.389 133.067 182.393C133.323 182.397 133.607 182.62 133.696 182.889C133.813 183.24 135.792 183.422 140.73 183.535C144.508 183.621 147.6 183.835 147.6 184.009C147.6 184.183 149.368 184.387 151.529 184.463C154.315 184.56 155.647 184.775 156.105 185.2C156.461 185.53 157.572 186.52 158.575 187.4C159.577 188.28 160.398 189.225 160.399 189.5C160.4 189.775 160.58 190 160.8 190C161.02 190 161.2 190.244 161.2 190.542C161.2 191.44 162.902 192.966 164.548 193.543C166.146 194.104 169.6 197.337 169.6 198.272C169.6 198.562 169.78 198.8 170 198.8C170.22 198.8 170.4 199.076 170.4 199.413C170.4 199.749 170.654 200.122 170.964 200.241C171.274 200.361 171.632 200.875 171.76 201.385C171.899 201.936 172.4 202.414 172.997 202.563C173.548 202.702 174 202.973 174 203.166C174 203.358 174.447 203.94 174.993 204.458C175.539 204.976 175.989 205.625 175.993 205.9C175.997 206.175 176.166 206.4 176.368 206.4C176.571 206.4 176.855 206.94 177 207.6C177.145 208.26 177.429 208.8 177.632 208.8C177.834 208.8 178 209.16 178 209.6C178 210.04 177.834 210.4 177.632 210.4C177.429 210.4 177.145 210.94 177 211.6C176.855 212.26 176.571 212.8 176.368 212.8C176.166 212.8 175.997 213.025 175.993 213.3C175.989 213.575 175.539 214.224 174.993 214.742C174.447 215.26 174 215.831 174 216.01C174 216.19 173.46 216.455 172.8 216.6C172.14 216.745 171.6 217.017 171.6 217.205C171.6 217.393 171.209 217.67 170.731 217.822C169.862 218.098 169.386 218.419 168.011 219.661C167.608 220.024 166.901 220.441 166.439 220.587C165.978 220.734 165.6 221.014 165.6 221.209C165.6 221.404 164.97 221.682 164.2 221.826C163.43 221.971 162.8 222.243 162.8 222.431C162.8 222.619 161.9 222.892 160.8 223.038C159.7 223.184 158.8 223.446 158.8 223.62C158.8 223.794 157.621 224.063 156.18 224.217C154.739 224.371 153.312 224.746 153.008 225.049C152.705 225.352 152.304 225.6 152.118 225.6C151.596 225.6 149.6 228.011 149.6 228.641C149.6 228.949 149.42 229.2 149.2 229.2C148.98 229.2 148.8 229.404 148.8 229.654C148.8 230.26 147.031 231.873 146.013 232.196C145.566 232.338 145.2 232.622 145.2 232.827C145.2 233.032 145.012 233.2 144.783 233.2C144.268 233.2 140 237.526 140 238.048C140 238.255 139.746 238.522 139.436 238.641C139.126 238.761 138.766 239.283 138.635 239.802C138.505 240.322 138.039 240.861 137.599 241C137.16 241.14 136.8 241.41 136.8 241.6C136.8 241.79 136.414 242.069 135.942 242.218C134.947 242.534 130.4 246.949 130.4 247.599C130.4 248.149 127.127 251.2 126.537 251.2C125.982 251.2 120.4 257.459 120.4 258.081C120.4 258.544 118.872 260 118.387 260C118.161 260 117.871 260.27 117.745 260.6C117.618 260.93 117.296 261.2 117.029 261.2C116.488 261.2 114 263.306 114 263.764C114 263.925 113.752 264.305 113.449 264.608C113.123 264.934 112.782 266.557 112.613 268.58C112.456 270.461 112.164 272 111.964 272C111.764 272 111.6 273.08 111.6 274.4C111.6 275.72 111.748 276.8 111.928 276.8C112.108 276.8 112.477 278.463 112.748 280.495C113.067 282.893 113.444 284.305 113.82 284.515C114.139 284.694 114.4 285.101 114.4 285.42C114.4 285.739 114.593 286 114.829 286C115.064 286 115.513 286.255 115.825 286.568C116.137 286.88 117.609 287.264 119.096 287.421C120.583 287.578 121.917 287.889 122.061 288.113C122.412 288.661 129.202 288.643 129.542 288.094C129.687 287.859 131.124 287.538 132.736 287.379C134.623 287.193 135.742 286.896 135.876 286.545C135.991 286.245 136.291 285.997 136.543 285.993C137.12 285.984 138.8 284.236 138.8 283.644C138.8 283.4 138.96 283.2 139.157 283.2C139.353 283.2 139.626 282.75 139.764 282.2C139.902 281.65 140.173 281.2 140.366 281.2C140.558 281.2 141.14 280.753 141.658 280.207C142.176 279.661 142.825 279.211 143.1 279.207C143.375 279.203 143.6 279.02 143.6 278.8C143.6 278.58 143.811 278.4 144.069 278.4C144.616 278.4 148.8 274.143 148.8 273.586C148.8 273.215 149.404 272.412 151.018 270.636C151.468 270.14 152.413 269.534 153.118 269.289C154.85 268.685 157.4 265.937 157.834 264.206C157.973 263.653 158.22 263.2 158.382 263.2C158.544 263.2 159.326 262.57 160.119 261.8C160.912 261.03 161.741 260.4 161.962 260.4C162.536 260.4 166.8 256.23 166.8 255.669C166.8 255.411 166.98 255.2 167.2 255.2C167.42 255.2 167.603 254.975 167.607 254.7C167.611 254.425 168.061 253.776 168.607 253.258C169.153 252.74 169.6 252.158 169.6 251.966C169.6 251.773 170.05 251.502 170.6 251.364C171.15 251.226 171.6 250.997 171.6 250.854C171.6 250.712 172.125 250.363 172.768 250.078C173.449 249.777 174.106 249.07 174.347 248.381C174.573 247.731 174.927 247.2 175.132 247.2C175.338 247.2 175.633 245.85 175.787 244.2C175.942 242.55 176.212 241.2 176.388 241.2C176.564 241.2 176.832 240.21 176.983 239C177.134 237.79 177.422 236.8 177.624 236.8C177.826 236.8 178.104 236.091 178.242 235.225C178.381 234.358 178.743 233.554 179.047 233.437C179.351 233.321 179.6 233.014 179.6 232.756C179.6 232.498 180.123 231.787 180.763 231.175C181.402 230.564 182.045 229.69 182.19 229.232C182.335 228.774 182.622 228.4 182.827 228.4C183.032 228.4 183.2 228.199 183.2 227.953C183.2 227.255 186.087 224.548 187.2 224.203C187.75 224.032 188.328 223.691 188.485 223.446C188.888 222.817 193.288 222.864 193.5 223.5C193.592 223.775 193.894 224 194.172 224C194.757 224 197.6 226.659 197.6 227.206C197.6 227.939 200.276 230.213 201.759 230.74C203.384 231.318 206.4 234.126 206.4 235.061C206.4 235.371 206.67 235.729 207 235.855C207.33 235.982 207.6 236.4 207.6 236.784C207.6 237.699 209.218 239.425 210.438 239.811C211.26 240.072 212.656 241.37 214.684 243.761C214.95 244.075 215.284 244.797 215.427 245.366C215.57 245.935 215.82 246.4 215.982 246.4C216.145 246.4 216.404 249.5 216.557 253.288C216.711 257.076 216.987 260.271 217.17 260.388C217.354 260.505 217.574 261.868 217.66 263.418C217.784 265.642 218.005 266.439 218.708 267.194C219.199 267.72 219.6 268.266 219.6 268.408C219.6 268.549 220.041 268.901 220.581 269.19C221.122 269.479 221.674 270.227 221.813 270.857C221.951 271.486 222.221 272 222.414 272C222.606 272 222.882 272.63 223.026 273.4C223.171 274.17 223.431 274.8 223.605 274.8C223.779 274.8 224.11 275.34 224.34 276C224.57 276.66 224.936 277.2 225.152 277.2C225.369 277.2 225.669 277.588 225.82 278.062C226.13 279.041 227.891 280.8 228.56 280.8C228.803 280.8 229.812 281.7 230.8 282.8C231.788 283.9 232.823 284.8 233.099 284.8C233.374 284.8 233.6 284.977 233.6 285.192C233.6 285.408 234.05 285.698 234.6 285.836C235.15 285.974 235.6 286.226 235.6 286.396C235.6 286.879 238.94 287.6 241.177 287.6C242.29 287.6 243.2 287.757 243.2 287.948C243.2 288.879 246.979 288.73 247.948 287.761C248.476 287.233 249.034 286.8 249.187 286.8C249.34 286.8 249.72 286.305 250.032 285.7C250.344 285.095 250.758 284.484 250.953 284.343C251.4 284.019 247.821 280.4 247.053 280.4C246.741 280.4 246.382 280.13 246.255 279.8C246.129 279.47 245.824 279.2 245.579 279.2C244.868 279.2 242.44 276.498 242.164 275.401C242.026 274.85 241.774 274.4 241.603 274.4C241.433 274.4 241.164 273.185 241.005 271.7C240.846 270.215 240.547 268.894 240.34 268.765C239.848 268.458 239.829 262.756 240.319 262.441C240.525 262.308 240.822 260.985 240.979 259.5C241.135 258.015 241.417 256.8 241.605 256.8C241.793 256.8 242.072 256.403 242.226 255.919C242.38 255.434 242.752 254.791 243.053 254.49C243.354 254.189 243.6 253.686 243.6 253.371C243.6 253.057 243.83 252.8 244.111 252.8C244.392 252.8 244.93 252.44 245.307 252C245.684 251.56 246.264 251.2 246.596 251.2C246.928 251.2 247.2 251.048 247.2 250.863C247.2 250.678 247.92 250.311 248.8 250.047C249.68 249.784 250.4 249.409 250.4 249.216C250.4 249.022 250.94 248.745 251.6 248.6C252.26 248.455 252.8 248.19 252.8 248.012C252.8 247.833 253.272 247.568 253.848 247.424C254.425 247.279 255.173 246.885 255.51 246.547C256.133 245.924 258.753 246.093 259.199 246.785C259.31 246.956 260.975 247.226 262.9 247.384C264.825 247.542 266.4 247.821 266.4 248.004C266.4 248.187 266.94 248.455 267.6 248.6C268.26 248.745 268.8 249.034 268.8 249.242C268.8 249.45 269.25 249.791 269.8 250C270.35 250.209 270.8 250.553 270.8 250.763C270.8 250.974 271.178 251.266 271.639 251.413C272.704 251.75 273.846 252.884 274.179 253.933C274.329 254.406 274.929 254.853 275.618 255.004C276.268 255.147 276.8 255.413 276.8 255.595C276.8 255.777 277.7 256.157 278.8 256.439C279.9 256.721 280.8 257.089 280.8 257.257C280.8 257.426 281.43 257.682 282.2 257.826C282.97 257.971 283.6 258.249 283.6 258.445C283.6 259.225 284.329 258.738 284.564 257.8C284.702 257.25 284.992 256.8 285.208 256.8C285.423 256.8 285.6 256.17 285.6 255.4C285.6 254.63 285.443 254 285.252 254C285.06 254 284.786 253.118 284.643 252.04C284.488 250.869 284.145 249.988 283.791 249.852C283.466 249.727 283.2 249.349 283.2 249.013C283.2 248.676 283.02 248.4 282.8 248.4C282.58 248.4 282.4 247.944 282.4 247.387C282.4 246.831 282.139 246.275 281.819 246.152C281.5 246.03 281.036 245.315 280.788 244.565C280.541 243.814 280.174 243.2 279.974 243.2C279.773 243.2 279.494 242.48 279.354 241.6C279.213 240.72 278.961 240 278.793 240C278.626 240 278.364 239.333 278.211 238.518C277.915 236.939 274.523 233.2 273.387 233.2C273.064 233.2 272.8 233.032 272.8 232.827C272.8 232.622 272.422 232.334 271.961 232.187C270.875 231.843 268.157 229.125 267.813 228.039C267.666 227.578 267.301 227.2 267.002 227.2C266.702 227.2 266.209 226.952 265.905 226.648C265.602 226.345 264.419 225.968 263.277 225.811C262.134 225.653 261.2 225.398 261.2 225.244C261.2 224.666 255.41 224 250.393 224C247.537 224 245.2 223.837 245.2 223.638C245.2 223.438 244.3 223.151 243.2 223C242.1 222.849 241.2 222.576 241.2 222.394C241.2 222.212 240.66 221.945 240 221.8C239.34 221.655 238.8 221.371 238.8 221.168C238.8 220.966 238.596 220.8 238.347 220.8C238.098 220.8 237.3 220.17 236.574 219.4C235.848 218.63 235.072 218 234.849 218C234.626 218 233.538 217.055 232.429 215.9C231.321 214.745 230.231 213.62 230.008 213.4C229.784 213.18 228.341 211.766 226.801 210.259C225.26 208.751 224 207.375 224 207.202C224 207.029 223.55 206.774 223 206.636C222.45 206.498 222 206.181 222 205.933C222 205.684 221.37 204.869 220.6 204.121C219.83 203.373 219.2 202.521 219.2 202.227C219.2 201.934 218.816 201.593 218.347 201.47C217.325 201.203 217.551 191.7 218.594 191.105C218.878 190.943 219.224 190.358 219.363 189.805C219.502 189.252 219.792 188.8 220.008 188.8C220.223 188.8 220.4 188.612 220.4 188.383C220.4 187.868 224.726 183.6 225.248 183.6C225.455 183.6 225.724 183.341 225.846 183.024C225.967 182.708 226.592 182.334 227.233 182.193C227.875 182.052 228.4 181.681 228.4 181.368C228.4 181.056 228.586 180.8 228.813 180.8C229.039 180.8 229.343 180.493 229.487 180.118C230.028 178.708 233.016 175.6 233.831 175.6C234.144 175.6 234.4 175.448 234.4 175.263C234.4 175.078 235.12 174.711 236 174.447C236.88 174.184 237.6 173.815 237.6 173.627C237.6 173.44 238.073 173.168 238.651 173.023C239.229 172.878 240.233 172.228 240.882 171.58C241.531 170.931 242.318 170.4 242.631 170.4C242.944 170.4 243.2 170.227 243.2 170.016C243.2 169.805 243.92 169.416 244.8 169.153C245.68 168.889 246.4 168.539 246.4 168.374C246.4 168.21 247.3 167.951 248.4 167.8C249.5 167.649 250.4 167.383 250.4 167.209C250.4 167.036 251.75 166.767 253.4 166.613C255.05 166.458 256.4 166.181 256.4 165.998C256.4 165.814 256.94 165.545 257.6 165.4C258.26 165.255 258.8 164.99 258.8 164.812C258.8 164.633 259.268 164.369 259.839 164.226C260.411 164.082 261.734 163.073 262.779 161.983C263.825 160.892 264.81 160 264.969 160C265.393 160 266.206 159.103 266.51 158.3C266.656 157.915 266.946 157.6 267.156 157.6C267.365 157.6 267.655 157.06 267.8 156.4C267.945 155.74 268.213 155.2 268.395 155.2C268.577 155.2 268.957 154.3 269.239 153.2C269.521 152.1 269.897 151.2 270.076 151.2C270.254 151.2 270.4 150.924 270.4 150.587C270.4 150.251 270.654 149.878 270.964 149.759C271.274 149.639 271.637 149.108 271.77 148.577C271.912 148.011 272.402 147.514 272.955 147.376C273.473 147.245 274.131 146.703 274.416 146.17C274.702 145.636 275.085 145.2 275.268 145.2C275.45 145.2 275.6 144.943 275.6 144.629C275.6 144.314 275.842 143.815 276.139 143.519C276.435 143.222 276.803 142.309 276.957 141.49C277.11 140.67 277.389 140 277.575 140C277.761 140 278.032 139.528 278.176 138.952C278.321 138.375 278.656 137.661 278.92 137.366C279.184 137.07 279.622 136.563 279.892 136.239C280.945 134.981 281.045 125.798 280.016 124.946C279.52 124.536 278.061 123.158 276.774 121.885L274.434 119.57L269.513 119.485C264.482 119.398 264.531 119.387 262.634 121.08C262.339 121.344 261.625 121.679 261.048 121.824C260.472 121.968 260 122.227 260 122.398C260 122.569 259.19 122.831 258.2 122.979C257.21 123.128 256.4 123.389 256.4 123.561C256.4 123.733 255.666 124.093 254.769 124.362C253.297 124.803 249.6 128.006 249.6 128.84C249.6 129.003 249.06 129.255 248.4 129.4C247.74 129.545 247.2 129.806 247.2 129.98C247.2 130.154 246.39 130.523 245.4 130.8C244.41 131.077 243.6 131.446 243.6 131.62C243.6 131.794 243.06 132.055 242.4 132.2C241.74 132.345 241.2 132.615 241.2 132.8C241.2 132.985 240.66 133.255 240 133.4C239.34 133.545 238.8 133.829 238.8 134.032C238.8 134.234 238.526 134.4 238.191 134.4C237.857 134.4 237.364 134.895 237.096 135.5C236.828 136.105 236.382 136.838 236.105 137.129C235.827 137.419 235.6 138.094 235.6 138.629C235.6 139.163 235.434 139.6 235.232 139.6C235.029 139.6 234.745 140.14 234.6 140.8C234.455 141.46 234.187 142 234.003 142C233.82 142 233.549 142.72 233.4 143.6C233.251 144.48 232.989 145.2 232.818 145.2C232.646 145.2 232.405 145.946 232.283 146.858C232.161 147.769 231.911 148.624 231.728 148.758C231.545 148.891 231.149 149.704 230.849 150.565C230.548 151.425 229.899 152.505 229.406 152.965C228.914 153.424 228.372 154.242 228.203 154.781C228.033 155.321 227.648 156.009 227.347 156.31C227.046 156.611 226.8 157.114 226.8 157.429C226.8 157.743 226.64 158 226.445 158C226.25 158 225.969 158.81 225.821 159.8C225.672 160.79 225.403 161.6 225.223 161.6C225.043 161.6 224.691 162.41 224.442 163.4C224.192 164.39 223.811 165.2 223.594 165.2C223.377 165.2 223.2 165.407 223.2 165.66C223.2 166.286 220.869 168.464 219.412 169.2C217.895 169.966 216.95 170.899 216.613 171.961C216.466 172.422 216.178 172.8 215.973 172.8C215.768 172.8 215.6 173.055 215.6 173.366C215.6 173.678 214.88 174.705 214 175.649C213.12 176.592 212.4 177.504 212.4 177.675C212.4 177.845 211.95 178.098 211.4 178.236C210.85 178.374 210.4 178.639 210.4 178.825C210.4 179.011 209.77 179.282 209 179.426C208.23 179.571 207.6 179.821 207.6 179.981C207.6 180.142 206.859 180.495 205.953 180.767C205.047 181.038 203.913 181.684 203.433 182.203C202.952 182.721 202.074 183.267 201.48 183.416C200.886 183.565 200.4 183.836 200.4 184.018C200.4 184.2 199.044 183.01 197.387 181.374C195.73 179.738 194.27 178.4 194.143 178.4C193.783 178.4 192.015 176.638 192.007 176.271C191.997 175.807 191.181 175.093 189.907 174.436C189.305 174.126 188.698 173.509 188.557 173.065C188.416 172.621 186.973 170.956 185.35 169.364C183.728 167.773 182.4 166.315 182.4 166.124C182.4 165.934 182.085 165.485 181.7 165.128C180.286 163.816 179.2 162.476 179.2 162.044C179.2 161.8 179.028 161.6 178.818 161.6C178.608 161.6 178.318 160.97 178.174 160.2C178.029 159.43 177.768 158.8 177.593 158.8C177.418 158.8 177.151 157.9 177 156.8C176.849 155.7 176.584 154.8 176.411 154.8C176.239 154.8 176.022 151.458 175.931 147.374C175.835 143.117 175.594 139.831 175.367 139.674C175.149 139.523 174.773 138.212 174.531 136.759C174.062 133.939 172.639 131.975 170.296 130.914C169.705 130.646 169.111 129.984 168.975 129.443C168.839 128.901 168.474 128.361 168.164 128.241C167.854 128.122 167.6 127.749 167.6 127.413C167.6 127.076 167.44 126.8 167.243 126.8C167.047 126.8 166.774 126.35 166.636 125.8C166.498 125.25 166.227 124.8 166.034 124.8C165.842 124.8 165.26 124.353 164.742 123.807C164.224 123.261 163.575 122.811 163.3 122.807C163.025 122.803 162.8 122.643 162.8 122.452C162.8 122.26 161.9 121.984 160.8 121.838C159.7 121.692 158.8 121.413 158.8 121.218C158.8 121.023 158.26 120.745 157.6 120.6C156.94 120.455 156.399 120.216 156.397 120.068C156.391 119.578 154.259 118.8 152.92 118.8C152.194 118.8 151.6 118.62 151.6 118.4C151.6 118.18 151.148 118 150.596 118C150.044 118 149.284 117.64 148.907 117.2C148.447 116.662 147.727 116.4 146.711 116.4C145.88 116.4 145.2 116.22 145.2 116C145.2 115.369 144.111 115.534 143.854 116.204Z" fill="#F4FAFB"/>
<path fill-rule="evenodd" clip-rule="evenodd" d="M162.8 2.342V4.685L159.548 4.956C153.601 5.452 153.872 4.72 153.611 20.983L153.4 34.165L151.836 34.49C148.662 35.148 146 37.998 146 40.736C146 41.774 144.981 42.248 141.916 42.636C137.411 43.205 136.195 44.416 135.738 48.79L135.486 51.2H121.181H106.875L106.737 47.219C106.566 42.243 106.59 42.268 101.642 42.069L97.696 41.911L97.416 38.323C96.969 32.61 97.195 32.689 81.914 32.875C69.491 33.026 70.264 32.678 70.061 38.214L69.923 42H66.038C60.77 42 60.734 42.033 60.489 47.137L60.293 51.2H56.375C51.245 51.2 51.2 51.245 51.2 56.376V60.295L46.963 60.484C41.856 60.711 42.014 60.538 42.006 65.9L42 70H38.029C32.353 70 32.799 68.828 32.803 83.729C32.809 104.926 33.237 106.23 40.241 106.368L41.882 106.4L42.109 110.1C42.438 115.485 43.449 116.4 49.073 116.4H51.2V125.8V135.2L48.7 135.202C42.836 135.207 42.44 135.704 42.107 143.486L41.881 148.772L40.39 149.759C39.57 150.302 38.502 151.388 38.017 152.173L37.135 153.6L31.267 153.603C17.182 153.611 15.244 154.389 14.578 160.3L14.297 162.8H7.148H0V200V237.2H2.352H4.705L4.871 241.004C5.116 246.615 3.899 246.176 19.614 246.325L32.8 246.45V249.992C32.8 255.299 33.525 256 39.014 256H41.931L42.106 260.5C42.505 270.762 43.661 272.934 49.019 273.487L51.2 273.712V278.8V283.887L47.9 284.105C42.282 284.475 42.351 284.348 42.09 294.7L41.896 302.4H38.025C32.277 302.4 32.788 300.896 32.773 317.855C32.755 339.073 32.785 339.174 39.2 339.204C41.714 339.216 41.847 339.391 42.149 343.089C42.563 348.164 42.546 348.148 47.882 348.614L51.085 348.893L51.487 352.671C52.004 357.529 52.516 357.906 58.7 357.976L60.8 358V359.345C60.8 367.029 62.397 367.601 83.8 367.584C98.423 367.573 97.347 367.991 97.535 362.245L97.669 358.123L104.535 357.861C114.888 357.465 115.193 357.293 115.807 351.5L116.093 348.8L123.147 348.805L130.2 348.81L131.102 350.203C131.598 350.969 132.616 351.996 133.362 352.486C134.497 353.23 134.762 353.688 134.973 355.281C135.3 357.745 135.824 358 140.574 358H144.4V361.626C144.4 366.961 145.07 367.6 150.66 367.6H153.6V383.8V400H195.4H237.2V388.453V376.907L240.686 376.457C246.086 375.76 246.301 375.284 246.366 363.9L246.4 358H253.95C265.027 358 265.2 357.904 265.2 351.751V348.8H269.942H274.685L274.917 351.87C275.324 357.255 275.764 357.492 286.055 357.866L293.11 358.123L293.272 361.82C293.532 367.781 292.904 367.6 313.377 367.6C331.922 367.6 330.4 368.101 330.4 362V358H334.371C339.569 358 339.6 357.969 339.6 352.771V348.8H343.571C348.769 348.8 348.8 348.769 348.8 343.571V339.6H352.738C357.924 339.6 358 339.52 358 334.069C358 331.831 358.135 329.992 358.3 329.982C366.804 329.485 367.712 327.925 366.79 315.401C366.072 305.649 365.301 304.345 359.699 303.413C357.821 303.1 357.82 303.098 357.417 299.058C357.015 295.03 355.994 294.087 351.64 293.722L348.8 293.484V274.742V256H353.4C355.93 256 358 255.846 358 255.658C358 255.47 359.141 255.209 360.535 255.079C365.156 254.647 366.246 253.568 366.673 249.004L366.913 246.43L380.243 246.315C396.155 246.178 394.933 246.615 395.139 240.986L395.277 237.2H397.639H400V200.261V163.322L395.738 163.061C393.394 162.917 388.115 162.8 384.009 162.8H376.542L376.113 159.553C375.438 154.439 374.877 154.157 364.536 153.739L358.071 153.477L357.936 149.506C357.764 144.493 357.666 144.4 352.524 144.4H348.8V125.6V106.8H352.767C357.908 106.8 358 106.758 358 104.412C358 102.645 358.114 102.43 359.591 101.406C360.467 100.799 361.535 99.747 361.965 99.068C362.527 98.179 363.231 97.716 364.473 97.416C367.09 96.785 367.713 94.567 367.454 86.8C366.981 72.656 366.314 71.061 360.645 70.531L358.112 70.295L357.859 66.726C357.475 61.312 356.954 60.8 351.834 60.8H348.92L348.663 57.179C348.28 51.792 348.236 51.746 343.024 51.345L339.715 51.091L339.27 47.472C338.676 42.653 337.908 42.096 331.759 42.024L329.718 42L329.281 39.364C328.35 33.744 324.529 32.426 310.52 32.892C303.02 33.141 303.072 33.102 302.576 38.865L302.313 41.93L298.141 42.065C293.103 42.228 293.214 42.11 293.206 47.3L293.2 51.2H274.6H256V48.26C256 42.698 255.306 42 249.774 42H246.4V38.229C246.4 27.201 245.17 24.556 239.8 24.034L237.4 23.8L237.294 11.9L237.188 0H199.994H162.8V2.342ZM145.2 116C145.2 116.22 145.88 116.4 146.711 116.4C147.727 116.4 148.447 116.662 148.907 117.2C149.284 117.64 150.044 118 150.596 118C151.148 118 151.6 118.18 151.6 118.4C151.6 118.62 152.194 118.8 152.92 118.8C154.259 118.8 156.391 119.578 156.397 120.068C156.399 120.216 156.94 120.455 157.6 120.6C158.26 120.745 158.8 121.023 158.8 121.218C158.8 121.413 159.7 121.692 160.8 121.838C161.9 121.984 162.8 122.26 162.8 122.452C162.8 122.643 163.025 122.803 163.3 122.807C163.575 122.811 164.224 123.261 164.742 123.807C165.26 124.353 165.842 124.8 166.034 124.8C166.227 124.8 166.498 125.25 166.636 125.8C166.774 126.35 167.047 126.8 167.243 126.8C167.44 126.8 167.6 127.076 167.6 127.413C167.6 127.749 167.854 128.122 168.164 128.241C168.474 128.361 168.839 128.901 168.975 129.443C169.111 129.984 169.705 130.646 170.296 130.914C172.639 131.975 174.062 133.939 174.531 136.759C174.773 138.212 175.149 139.523 175.367 139.674C175.594 139.831 175.835 143.117 175.931 147.374C176.022 151.458 176.239 154.8 176.411 154.8C176.584 154.8 176.849 155.7 177 156.8C177.151 157.9 177.418 158.8 177.593 158.8C177.768 158.8 178.029 159.43 178.174 160.2C178.318 160.97 178.608 161.6 178.818 161.6C179.028 161.6 179.2 161.8 179.2 162.044C179.2 162.476 180.286 163.816 181.7 165.128C182.085 165.485 182.4 165.934 182.4 166.124C182.4 166.315 183.728 167.773 185.35 169.364C186.973 170.956 188.416 172.621 188.557 173.065C188.698 173.509 189.305 174.126 189.907 174.436C191.181 175.093 191.997 175.807 192.007 176.271C192.015 176.638 193.783 178.4 194.143 178.4C194.27 178.4 195.73 179.738 197.387 181.374C199.044 183.01 200.4 184.2 200.4 184.018C200.4 183.836 200.886 183.565 201.48 183.416C202.074 183.267 202.952 182.721 203.433 182.203C203.913 181.684 205.047 181.038 205.953 180.767C206.859 180.495 207.6 180.142 207.6 179.981C207.6 179.821 208.23 179.571 209 179.426C209.77 179.282 210.4 179.011 210.4 178.825C210.4 178.639 210.85 178.374 211.4 178.236C211.95 178.098 212.4 177.845 212.4 177.675C212.4 177.504 213.12 176.592 214 175.649C214.88 174.705 215.6 173.678 215.6 173.366C215.6 173.055 215.768 172.8 215.973 172.8C216.178 172.8 216.466 172.422 216.613 171.961C216.95 170.899 217.895 169.966 219.412 169.2C220.869 168.464 223.2 166.286 223.2 165.66C223.2 165.407 223.377 165.2 223.594 165.2C223.811 165.2 224.192 164.39 224.442 163.4C224.691 162.41 225.043 161.6 225.223 161.6C225.403 161.6 225.672 160.79 225.821 159.8C225.969 158.81 226.25 158 226.445 158C226.64 158 226.8 157.743 226.8 157.429C226.8 157.114 227.046 156.611 227.347 156.31C227.648 156.009 228.033 155.321 228.203 154.781C228.372 154.242 228.914 153.424 229.406 152.965C229.899 152.505 230.548 151.425 230.849 150.565C231.149 149.704 231.545 148.891 231.728 148.758C231.911 148.624 232.161 147.769 232.283 146.858C232.405 145.946 232.646 145.2 232.818 145.2C232.989 145.2 233.251 144.48 233.4 143.6C233.549 142.72 233.82 142 234.003 142C234.187 142 234.455 141.46 234.6 140.8C234.745 140.14 235.029 139.6 235.232 139.6C235.434 139.6 235.6 139.163 235.6 138.629C235.6 138.094 235.827 137.419 236.105 137.129C236.382 136.838 236.828 136.105 237.096 135.5C237.364 134.895 237.857 134.4 238.191 134.4C238.526 134.4 238.8 134.234 238.8 134.032C238.8 133.829 239.34 133.545 240 133.4C240.66 133.255 241.2 132.985 241.2 132.8C241.2 132.615 241.74 132.345 242.4 132.2C243.06 132.055 243.6 131.794 243.6 131.62C243.6 131.446 244.41 131.077 245.4 130.8C246.39 130.523 247.2 130.154 247.2 129.98C247.2 129.806 247.74 129.545 248.4 129.4C249.06 129.255 249.6 129.003 249.6 128.84C249.6 128.006 253.297 124.803 254.769 124.362C255.666 124.093 256.4 123.733 256.4 123.561C256.4 123.389 257.21 123.128 258.2 122.979C259.19 122.831 260 122.569 260 122.398C260 122.227 260.472 121.968 261.048 121.824C261.625 121.679 262.339 121.344 262.634 121.08C264.531 119.387 264.482 119.398 269.513 119.485L274.434 119.57L276.774 121.885C278.061 123.158 279.52 124.536 280.016 124.946C281.045 125.798 280.945 134.981 279.892 136.239C279.622 136.563 279.184 137.07 278.92 137.366C278.656 137.661 278.321 138.375 278.176 138.952C278.032 139.528 277.761 140 277.575 140C277.389 140 277.11 140.67 276.957 141.49C276.803 142.309 276.435 143.222 276.139 143.519C275.842 143.815 275.6 144.314 275.6 144.629C275.6 144.943 275.45 145.2 275.268 145.2C275.085 145.2 274.702 145.636 274.416 146.17C274.131 146.703 273.473 147.245 272.955 147.376C272.402 147.514 271.912 148.011 271.77 148.577C271.637 149.108 271.274 149.639 270.964 149.759C270.654 149.878 270.4 150.251 270.4 150.587C270.4 150.924 270.254 151.2 270.076 151.2C269.897 151.2 269.521 152.1 269.239 153.2C268.957 154.3 268.577 155.2 268.395 155.2C268.213 155.2 267.945 155.74 267.8 156.4C267.655 157.06 267.365 157.6 267.156 157.6C266.946 157.6 266.656 157.915 266.51 158.3C266.206 159.103 265.393 160 264.969 160C264.81 160 263.825 160.892 262.779 161.983C261.734 163.073 260.411 164.082 259.839 164.226C259.268 164.369 258.8 164.633 258.8 164.812C258.8 164.99 258.26 165.255 257.6 165.4C256.94 165.545 256.4 165.814 256.4 165.998C256.4 166.181 255.05 166.458 253.4 166.613C251.75 166.767 250.4 167.036 250.4 167.209C250.4 167.383 249.5 167.649 248.4 167.8C247.3 167.951 246.4 168.21 246.4 168.374C246.4 168.539 245.68 168.889 244.8 169.153C243.92 169.416 243.2 169.805 243.2 170.016C243.2 170.227 242.944 170.4 242.631 170.4C242.318 170.4 241.531 170.931 240.882 171.58C240.233 172.228 239.229 172.878 238.651 173.023C238.073 173.168 237.6 173.44 237.6 173.627C237.6 173.815 236.88 174.184 236 174.447C235.12 174.711 234.4 175.078 234.4 175.263C234.4 175.448 234.144 175.6 233.831 175.6C233.016 175.6 230.028 178.708 229.487 180.118C229.343 180.493 229.039 180.8 228.813 180.8C228.586 180.8 228.4 181.056 228.4 181.368C228.4 181.681 227.875 182.052 227.233 182.193C226.592 182.334 225.967 182.708 225.846 183.024C225.724 183.341 225.455 183.6 225.248 183.6C224.726 183.6 220.4 187.868 220.4 188.383C220.4 188.612 220.223 188.8 220.008 188.8C219.792 188.8 219.502 189.252 219.363 189.805C219.224 190.358 218.878 190.943 218.594 191.105C217.551 191.7 217.325 201.203 218.347 201.47C218.816 201.593 219.2 201.934 219.2 202.227C219.2 202.521 219.83 203.373 220.6 204.121C221.37 204.869 222 205.684 222 205.933C222 206.181 222.45 206.498 223 206.636C223.55 206.774 224 207.029 224 207.202C224 207.375 225.26 208.751 226.801 210.259C228.341 211.766 229.784 213.18 230.008 213.4C230.231 213.62 231.321 214.745 232.429 215.9C233.538 217.055 234.626 218 234.849 218C235.072 218 235.848 218.63 236.574 219.4C237.3 220.17 238.098 220.8 238.347 220.8C238.596 220.8 238.8 220.966 238.8 221.168C238.8 221.371 239.34 221.655 240 221.8C240.66 221.945 241.2 222.212 241.2 222.394C241.2 222.576 242.1 222.849 243.2 223C244.3 223.151 245.2 223.438 245.2 223.638C245.2 223.837 247.537 224 250.393 224C255.41 224 261.2 224.666 261.2 225.244C261.2 225.398 262.134 225.653 263.277 225.811C264.419 225.968 265.602 226.345 265.905 226.648C266.209 226.952 266.702 227.2 267.002 227.2C267.301 227.2 267.666 227.578 267.813 228.039C268.157 229.125 270.875 231.843 271.961 232.187C272.422 232.334 272.8 232.622 272.8 232.827C272.8 233.032 273.064 233.2 273.387 233.2C274.523 233.2 277.915 236.939 278.211 238.518C278.364 239.333 278.626 240 278.793 240C278.961 240 279.213 240.72 279.354 241.6C279.494 242.48 279.773 243.2 279.974 243.2C280.174 243.2 280.541 243.814 280.788 244.565C281.036 245.315 281.5 246.03 281.819 246.152C282.139 246.275 282.4 246.831 282.4 247.387C282.4 247.944 282.58 248.4 282.8 248.4C283.02 248.4 283.2 248.676 283.2 249.013C283.2 249.349 283.466 249.727 283.791 249.852C284.145 249.988 284.488 250.869 284.643 252.04C284.786 253.118 285.06 254 285.252 254C285.443 254 285.6 254.63 285.6 255.4C285.6 256.17 285.423 256.8 285.208 256.8C284.992 256.8 284.702 257.25 284.564 257.8C284.329 258.738 283.6 259.225 283.6 258.445C283.6 258.249 282.97 257.971 282.2 257.826C281.43 257.682 280.8 257.426 280.8 257.257C280.8 257.089 279.9 256.721 278.8 256.439C277.7 256.157 276.8 255.777 276.8 255.595C276.8 255.413 276.268 255.147 275.618 255.004C274.929 254.853 274.329 254.406 274.179 253.933C273.846 252.884 272.704 251.75 271.639 251.413C271.178 251.266 270.8 250.974 270.8 250.763C270.8 250.553 270.35 250.209 269.8 250C269.25 249.791 268.8 249.45 268.8 249.242C268.8 249.034 268.26 248.745 267.6 248.6C266.94 248.455 266.4 248.187 266.4 248.004C266.4 247.821 264.825 247.542 262.9 247.384C260.975 247.226 259.31 246.956 259.199 246.785C258.753 246.093 256.133 245.924 255.51 246.547C255.173 246.885 254.425 247.279 253.848 247.424C253.272 247.568 252.8 247.833 252.8 248.012C252.8 248.19 252.26 248.455 251.6 248.6C250.94 248.745 250.4 249.022 250.4 249.216C250.4 249.409 249.68 249.784 248.8 250.047C247.92 250.311 247.2 250.678 247.2 250.863C247.2 251.048 246.928 251.2 246.596 251.2C246.264 251.2 245.684 251.56 245.307 252C244.93 252.44 244.392 252.8 244.111 252.8C243.83 252.8 243.6 253.057 243.6 253.371C243.6 253.686 243.354 254.189 243.053 254.49C242.752 254.791 242.38 255.434 242.226 255.919C242.072 256.403 241.793 256.8 241.605 256.8C241.417 256.8 241.135 258.015 240.979 259.5C240.822 260.985 240.525 262.308 240.319 262.441C239.829 262.756 239.848 268.458 240.34 268.765C240.547 268.894 240.846 270.215 241.005 271.7C241.164 273.185 241.433 274.4 241.603 274.4C241.774 274.4 242.026 274.85 242.164 275.401C242.44 276.498 244.868 279.2 245.579 279.2C245.824 279.2 246.129 279.47 246.255 279.8C246.382 280.13 246.741 280.4 247.053 280.4C247.821 280.4 251.4 284.019 250.953 284.343C250.758 284.484 250.344 285.095 250.032 285.7C249.72 286.305 249.34 286.8 249.187 286.8C249.034 286.8 248.476 287.233 247.948 287.761C246.979 288.73 243.2 288.879 243.2 287.948C243.2 287.757 242.29 287.6 241.177 287.6C238.94 287.6 235.6 286.879 235.6 286.396C235.6 286.226 235.15 285.974 234.6 285.836C234.05 285.698 233.6 285.408 233.6 285.192C233.6 284.977 233.374 284.8 233.099 284.8C232.823 284.8 231.788 283.9 230.8 282.8C229.812 281.7 228.803 280.8 228.56 280.8C227.891 280.8 226.13 279.041 225.82 278.062C225.669 277.588 225.369 277.2 225.152 277.2C224.936 277.2 224.57 276.66 224.34 276C224.11 275.34 223.779 274.8 223.605 274.8C223.431 274.8 223.171 274.17 223.026 273.4C222.882 272.63 222.606 272 222.414 272C222.221 272 221.951 271.486 221.813 270.857C221.674 270.227 221.122 269.479 220.581 269.19C220.041 268.901 219.6 268.549 219.6 268.408C219.6 268.266 219.199 267.72 218.708 267.194C218.005 266.439 217.784 265.642 217.66 263.418C217.574 261.868 217.354 260.505 217.17 260.388C216.987 260.271 216.711 257.076 216.557 253.288C216.404 249.5 216.145 246.4 215.982 246.4C215.82 246.4 215.57 245.935 215.427 245.366C215.284 244.797 214.95 244.075 214.684 243.761C212.656 241.37 211.26 240.072 210.438 239.811C209.218 239.425 207.6 237.699 207.6 236.784C207.6 236.4 207.33 235.982 207 235.855C206.67 235.729 206.4 235.371 206.4 235.061C206.4 234.126 203.384 231.318 201.759 230.74C200.276 230.213 197.6 227.939 197.6 227.206C197.6 226.659 194.757 224 194.172 224C193.894 224 193.592 223.775 193.5 223.5C193.288 222.864 188.888 222.817 188.485 223.446C188.328 223.691 187.75 224.032 187.2 224.203C186.087 224.548 183.2 227.255 183.2 227.953C183.2 228.199 183.032 228.4 182.827 228.4C182.622 228.4 182.335 228.774 182.19 229.232C182.045 229.69 181.402 230.564 180.763 231.175C180.123 231.787 179.6 232.498 179.6 232.756C179.6 233.014 179.351 233.321 179.047 233.437C178.743 233.554 178.381 234.358 178.242 235.225C178.104 236.091 177.826 236.8 177.624 236.8C177.422 236.8 177.134 237.79 176.983 239C176.832 240.21 176.564 241.2 176.388 241.2C176.212 241.2 175.942 242.55 175.787 244.2C175.633 245.85 175.338 247.2 175.132 247.2C174.927 247.2 174.573 247.731 174.347 248.381C174.106 249.07 173.449 249.777 172.768 250.078C172.125 250.363 171.6 250.712 171.6 250.854C171.6 250.997 171.15 251.226 170.6 251.364C170.05 251.502 169.6 251.773 169.6 251.966C169.6 252.158 169.153 252.74 168.607 253.258C168.061 253.776 167.611 254.425 167.607 254.7C167.603 254.975 167.42 255.2 167.2 255.2C166.98 255.2 166.8 255.411 166.8 255.669C166.8 256.23 162.536 260.4 161.962 260.4C161.741 260.4 160.912 261.03 160.119 261.8C159.326 262.57 158.544 263.2 158.382 263.2C158.22 263.2 157.973 263.653 157.834 264.206C157.4 265.937 154.85 268.685 153.118 269.289C152.413 269.534 151.468 270.14 151.018 270.636C149.404 272.412 148.8 273.215 148.8 273.586C148.8 274.143 144.616 278.4 144.069 278.4C143.811 278.4 143.6 278.58 143.6 278.8C143.6 279.02 143.375 279.203 143.1 279.207C142.825 279.211 142.176 279.661 141.658 280.207C141.14 280.753 140.558 281.2 140.366 281.2C140.173 281.2 139.902 281.65 139.764 282.2C139.626 282.75 139.353 283.2 139.157 283.2C138.96 283.2 138.8 283.4 138.8 283.644C138.8 284.236 137.12 285.984 136.543 285.993C136.291 285.997 135.991 286.245 135.876 286.545C135.742 286.896 134.623 287.193 132.736 287.379C131.124 287.538 129.687 287.859 129.542 288.094C129.202 288.643 122.412 288.661 122.061 288.113C121.917 287.889 120.583 287.578 119.096 287.421C117.609 287.264 116.137 286.88 115.825 286.568C115.513 286.255 115.064 286 114.829 286C114.593 286 114.4 285.739 114.4 285.42C114.4 285.101 114.139 284.694 113.82 284.515C113.444 284.305 113.067 282.893 112.748 280.495C112.477 278.463 112.108 276.8 111.928 276.8C111.748 276.8 111.6 275.72 111.6 274.4C111.6 273.08 111.764 272 111.964 272C112.164 272 112.456 270.461 112.613 268.58C112.782 266.557 113.123 264.934 113.449 264.608C113.752 264.305 114 263.925 114 263.764C114 263.306 116.488 261.2 117.029 261.2C117.296 261.2 117.618 260.93 117.745 260.6C117.871 260.27 118.161 260 118.387 260C118.872 260 120.4 258.544 120.4 258.081C120.4 257.459 125.982 251.2 126.537 251.2C127.127 251.2 130.4 248.149 130.4 247.599C130.4 246.949 134.947 242.534 135.942 242.218C136.414 242.069 136.8 241.79 136.8 241.6C136.8 241.41 137.16 241.14 137.599 241C138.039 240.861 138.505 240.322 138.635 239.802C138.766 239.283 139.126 238.761 139.436 238.641C139.746 238.522 140 238.255 140 238.048C140 237.526 144.268 233.2 144.783 233.2C145.012 233.2 145.2 233.032 145.2 232.827C145.2 232.622 145.566 232.338 146.013 232.196C147.031 231.873 148.8 230.26 148.8 229.654C148.8 229.404 148.98 229.2 149.2 229.2C149.42 229.2 149.6 228.949 149.6 228.641C149.6 228.011 151.596 225.6 152.118 225.6C152.304 225.6 152.705 225.352 153.008 225.049C153.312 224.746 154.739 224.371 156.18 224.217C157.621 224.063 158.8 223.794 158.8 223.62C158.8 223.446 159.7 223.184 160.8 223.038C161.9 222.892 162.8 222.619 162.8 222.431C162.8 222.243 163.43 221.971 164.2 221.826C164.97 221.682 165.6 221.404 165.6 221.209C165.6 221.014 165.978 220.734 166.439 220.587C166.901 220.441 167.608 220.024 168.011 219.661C169.386 218.419 169.862 218.098 170.731 217.822C171.209 217.67 171.6 217.393 171.6 217.205C171.6 217.017 172.14 216.745 172.8 216.6C173.46 216.455 174 216.19 174 216.01C174 215.831 174.447 215.26 174.993 214.742C175.539 214.224 175.989 213.575 175.993 213.3C175.997 213.025 176.166 212.8 176.368 212.8C176.571 212.8 176.855 212.26 177 211.6C177.145 210.94 177.429 210.4 177.632 210.4C177.834 210.4 178 210.04 178 209.6C178 209.16 177.834 208.8 177.632 208.8C177.429 208.8 177.145 208.26 177 207.6C176.855 206.94 176.571 206.4 176.368 206.4C176.166 206.4 175.997 206.175 175.993 205.9C175.989 205.625 175.539 204.976 174.993 204.458C174.447 203.94 174 203.358 174 203.166C174 202.973 173.548 202.702 172.997 202.563C172.4 202.414 171.899 201.936 171.76 201.385C171.632 200.875 171.274 200.361 170.964 200.241C170.654 200.122 170.4 199.749 170.4 199.413C170.4 199.076 170.22 198.8 170 198.8C169.78 198.8 169.6 198.562 169.6 198.272C169.6 197.337 166.146 194.104 164.548 193.543C162.902 192.966 161.2 191.44 161.2 190.542C161.2 190.244 161.02 190 160.8 190C160.58 190 160.4 189.775 160.399 189.5C160.398 189.225 159.577 188.28 158.575 187.4C157.572 186.52 156.461 185.53 156.105 185.2C155.647 184.775 154.315 184.56 151.529 184.463C149.368 184.387 147.6 184.183 147.6 184.009C147.6 183.835 144.508 183.621 140.73 183.535C135.792 183.422 133.813 183.24 133.696 182.889C133.607 182.62 133.323 182.397 133.067 182.393C132.81 182.389 132.176 181.939 131.658 181.393C131.14 180.847 130.484 180.4 130.201 180.4C129.917 180.4 129.582 180.13 129.455 179.8C129.329 179.47 128.949 179.2 128.613 179.2C128.276 179.2 128 179.04 128 178.843C128 178.647 127.535 178.37 126.966 178.227C126.397 178.084 125.722 177.792 125.466 177.576C123.596 176.006 123.036 175.6 122.739 175.6C122.552 175.6 122.04 175.24 121.6 174.8C121.16 174.36 120.53 174 120.2 174C119.87 174 119.6 173.852 119.6 173.671C119.6 173.491 118.655 172.33 117.5 171.091C114.599 167.981 114.466 167.804 114.173 166.634C114.03 166.065 113.781 165.6 113.62 165.6C113.154 165.6 112.4 162.665 112.4 160.854C112.4 159.944 112.245 159.2 112.056 159.2C111.866 159.2 111.6 158.256 111.463 157.102C111.326 155.949 111.031 154.944 110.807 154.869C110.095 154.632 110.362 154 111.8 152.519C112.57 151.726 113.2 150.953 113.2 150.802C113.2 150.651 113.894 150.319 114.743 150.064C116.277 149.605 118.8 150.049 118.8 150.778C118.8 150.942 119.43 151.726 120.2 152.519C120.97 153.312 121.6 154.079 121.6 154.224C121.6 154.862 125.241 158 125.981 158C126.431 158 126.8 158.169 126.8 158.376C126.8 158.582 128.06 158.876 129.6 159.027C131.14 159.179 132.4 159.46 132.4 159.652C132.4 159.843 133.75 160 135.4 160C137.05 160 138.4 159.838 138.4 159.641C138.4 159.443 139.66 159.155 141.2 159C142.74 158.845 144 158.571 144 158.391C144 158.211 144.54 157.945 145.2 157.8C145.86 157.655 146.4 157.401 146.4 157.236C146.4 157.07 146.855 156.692 147.411 156.394C147.967 156.097 148.523 155.449 148.647 154.956C148.771 154.462 149.109 153.967 149.398 153.856C149.688 153.745 150.046 153.102 150.194 152.427C150.342 151.752 150.615 151.2 150.8 151.2C150.985 151.2 151.255 150.66 151.4 150C151.545 149.34 151.815 148.8 152 148.8C152.185 148.8 152.455 148.26 152.6 147.6C152.745 146.94 153.029 146.4 153.232 146.4C153.434 146.4 153.6 146.124 153.6 145.787C153.6 145.451 153.87 145.071 154.2 144.945C154.88 144.684 155.027 142.542 154.38 142.327C154.149 142.25 153.852 140.525 153.721 138.493C153.589 136.462 153.343 134.8 153.173 134.8C153.003 134.8 152.745 134.26 152.6 133.6C152.455 132.94 152.171 132.4 151.968 132.4C151.766 132.4 151.6 132.158 151.6 131.861C151.6 131.565 151.24 130.907 150.8 130.4C150.36 129.893 150 129.275 150 129.028C150 128.78 149.64 128.27 149.2 127.893C148.76 127.516 148.4 126.936 148.4 126.604C148.4 126.272 148.241 126 148.047 126C147.852 126 147.566 124.813 147.411 123.363C147.105 120.508 146.335 119.2 144.961 119.2C144.046 119.2 143.388 117.419 143.854 116.204C144.111 115.534 145.2 115.369 145.2 116Z" fill="#575B7A"/>
</svg>
