<svg width="512" height="512" viewBox="0 0 512 512" fill="none" xmlns="http://www.w3.org/2000/svg">
<g id="logo">
<g id="wheel">
<path id="Vector" d="M230.1 0.999988C220.5 2.39998 216 7.89998 216 18.5C215.9 43.2 197.4 66.9 173.9 72.5C165.1 74.5 155.8 74.4 146.6 72C136.6 69.5 128.9 65.3 120.7 58.1C107.8 46.6 102.9 48.3 78.2 72.4C50.8 99.2 48.7 104.8 61.3 118.8C69 127.4 72.5 133.6 75 143.6C80 162.9 74.6 182.4 60.7 195.7C49.5 206.4 37.5 211.6 20.8 212.9C9.6 213.8 7 215.1 3.6 221.6C1.6 225.3 1.5 227.1 1.5 255.5C1.5 284.7 1.6 285.6 3.7 289C7.1 294.5 12 296.7 23.5 297.8C35.4 299 43.3 301.9 52.4 308.4C67.1 318.9 75.3 335 75.4 353.5C75.5 368.1 70.1 381.3 59.2 393.2C54 398.9 53 401 53 406.3C53 409.5 53.8 411.9 56.2 415.6C60.5 422.3 93.6 455.1 98.2 457.3C102.3 459.3 109.1 459.5 112.3 457.8C113.5 457.2 117.1 454.3 120.2 451.4C127.7 444.5 138.2 439.4 149 437.4C182.7 431 213.9 457.4 214 492.3C214 510 220.3 512.6 262.4 511.8C282.9 511.5 285.9 511.2 289.4 509.5C295.7 506.3 297.2 503.4 298 492.8C298.9 481.2 300.2 476.3 304.8 467.5C309.4 458.8 319.3 448.7 327.6 444.3C339.6 437.9 353.6 436.4 367.4 440C377.4 442.5 385.1 446.7 393.3 454C403.9 463.3 409.1 463.1 421.9 452.6C429.3 446.5 449.6 426 455.4 418.8C462.4 410 461.7 403.3 452.5 393C442.3 381.6 437 368.6 437 355C437.1 324.4 462.5 299 493.2 299C502.5 299 506.7 297 509.8 291C511.9 286.7 512 285.7 512 256.2C512 227 511.9 225.6 509.9 222.3C506.9 217.5 501.9 215.3 490.9 214.1C475.6 212.4 464.7 207.5 455 197.9C444 187.1 438.6 173.8 438.7 158C438.7 143.7 443 132.6 452.9 121.2C459.8 113.1 461 111 461 105.9C461 99.6 457.5 94.6 441.7 78.3C424.1 60.2 416.2 53.9 410.5 53.3C403.9 52.5 401.6 53.5 394.4 60C381.6 71.7 363.9 77.4 347.8 75.2C320.6 71.4 300.1 47.5 300 19.7C300 7.49998 296 2.69998 284.4 0.999988C276.4 -0.100012 238 -0.100012 230.1 0.999988ZM277.7 110.6C350.5 121.4 404 183.3 404 256.9C404 280.1 396.3 309 385.2 327.5C383 331.2 372.8 342.6 358.8 357.1L335.9 380.7L324.6 386.3C302.3 397.2 285.3 401.7 262.5 402.7C177.6 406.2 106.8 335.4 110.3 250.5C111.9 211.7 127.5 176.9 155.1 150.5C179.3 127.3 207.2 114.1 241.5 109.7C249.2 108.7 268.2 109.1 277.7 110.6Z" fill="#1DBAB4"/>
</g>
<g id="ratchet">
<path id="Vector_2" d="M241.8 167.5C233.4 169.2 231.4 170.3 229.4 174.2C225.9 180.9 226.9 182.3 252 207.5L275.1 230.7L274.4 236.6C273.6 244.7 271.2 259.9 270.2 263.5C269.5 266 268.6 266.7 264.6 267.7C257.3 269.5 236.3 272 234.3 271.3C233.3 271 222.1 260.4 209.5 247.9C186.9 225.5 186.3 225 182.3 225C179.2 225 177.5 225.7 175.2 227.8C171 231.8 169.5 239.3 169.5 257C169.5 273.1 170.8 279.6 176.5 293.1C194.2 335.1 243 357.3 287.1 343.4L295.3 340.8L327.1 372.6C344.6 390.1 358.7 404.7 358.4 405.2C358.1 405.6 358.2 406 358.7 406C359.1 406 369.7 395.8 382 383.2C403.9 361.2 410.6 354 408.4 355.3C407.9 355.6 393.1 341.6 375.6 324.1L343.8 292.3L346.4 284.2C356.5 252.2 348.5 217.9 325.1 193.7C313.5 181.6 301.3 174.1 285.3 169.4C274.3 166.2 252.7 165.2 241.8 167.5Z" fill="white"/>
</g>
</g>
</svg>
