<svg width="512" height="512" viewBox="0 0 512 512" fill="none" xmlns="http://www.w3.org/2000/svg">
<path d="M215.8 144.5C207.4 146.2 205.4 147.3 203.4 151.2C199.9 157.9 200.9 159.3 226 184.5L249.1 207.7L248.4 213.6C247.6 221.7 245.2 236.9 244.2 240.5C243.5 243 242.6 243.7 238.6 244.7C231.3 246.5 210.3 249 208.3 248.3C207.3 248 196.1 237.4 183.5 224.9C160.9 202.5 160.3 202 156.3 202C153.2 202 151.5 202.7 149.2 204.8C145 208.8 143.5 216.3 143.5 234C143.5 250.1 144.8 256.6 150.5 270.1C168.2 312.1 217 334.3 261.1 320.4L269.3 317.8L301.1 349.6C318.6 367.1 332.7 381.7 332.4 382.2C332.1 382.6 332.2 383 332.7 383C333.1 383 343.7 372.8 356 360.2C377.9 338.2 384.6 331 382.4 332.3C381.9 332.6 367.1 318.6 349.6 301.1L317.8 269.3L320.4 261.2C330.5 229.2 322.5 194.9 299.1 170.7C287.5 158.6 275.3 151.1 259.3 146.4C248.3 143.2 226.7 142.2 215.8 144.5Z" fill="white"/>
<g clip-path="url(#clip0)">
<path d="M230.1 0.999974C220.5 2.39997 216 7.89997 216 18.5C215.9 43.2 197.4 66.9 173.9 72.5C165.1 74.5 155.8 74.4 146.6 72C136.6 69.5 128.9 65.3 120.7 58.1C107.8 46.6 102.9 48.3 78.2 72.4C50.8 99.2 48.7 104.8 61.3 118.8C69 127.4 72.5 133.6 75 143.6C80 162.9 74.6 182.4 60.7 195.7C49.5 206.4 37.5 211.6 20.8 212.9C9.6 213.8 7 215.1 3.6 221.6C1.6 225.3 1.5 227.1 1.5 255.5C1.5 284.7 1.6 285.6 3.7 289C7.1 294.5 12 296.7 23.5 297.8C35.4 299 43.3 301.9 52.4 308.4C67.1 318.9 75.3 335 75.4 353.5C75.5 368.1 70.1 381.3 59.2 393.2C54 398.9 53 401 53 406.3C53 409.5 53.8 411.9 56.2 415.6C60.5 422.3 93.6 455.1 98.2 457.3C102.3 459.3 109.1 459.5 112.3 457.8C113.5 457.2 117.1 454.3 120.2 451.4C127.7 444.5 138.2 439.4 149 437.4C182.7 431 213.9 457.4 214 492.3C214 510 220.3 512.6 262.4 511.8C282.9 511.5 285.9 511.2 289.4 509.5C295.7 506.3 297.2 503.4 298 492.8C298.9 481.2 300.2 476.3 304.8 467.5C309.4 458.8 319.3 448.7 327.6 444.3C339.6 437.9 353.6 436.4 367.4 440C377.4 442.5 385.1 446.7 393.3 454C403.9 463.3 409.1 463.1 421.9 452.6C429.3 446.5 449.6 426 455.4 418.8C462.4 410 461.7 403.3 452.5 393C442.3 381.6 437 368.6 437 355C437.1 324.4 462.5 299 493.2 299C502.5 299 506.7 297 509.8 291C511.9 286.7 512 285.7 512 256.2C512 227 511.9 225.6 509.9 222.3C506.9 217.5 501.9 215.3 490.9 214.1C475.6 212.4 464.7 207.5 455 197.9C444 187.1 438.6 173.8 438.7 158C438.7 143.7 443 132.6 452.9 121.2C459.8 113.1 461 111 461 105.9C461 99.6 457.5 94.6 441.7 78.3C424.1 60.2 416.2 53.9 410.5 53.3C403.9 52.5 401.6 53.5 394.4 60C381.6 71.7 363.9 77.4 347.8 75.2C320.6 71.4 300.1 47.5 300 19.7C300 7.49997 296 2.69997 284.4 0.999974C276.4 -0.100026 238 -0.100026 230.1 0.999974ZM277.7 110.6C350.5 121.4 404 183.3 404 256.9C404 280.1 396.3 309 385.2 327.5C383 331.2 372.8 342.6 358.8 357.1L335.9 380.7L324.6 386.3C302.3 397.2 285.3 401.7 262.5 402.7C177.6 406.2 106.8 335.4 110.3 250.5C111.9 211.7 127.5 176.9 155.1 150.5C179.3 127.3 207.2 114.1 241.5 109.7C249.2 108.7 268.2 109.1 277.7 110.6Z" fill="#1DBAB4"/>
</g>
<defs>
<clipPath id="clip0">
<rect width="512" height="512" fill="white"/>
</clipPath>
</defs>
</svg>
