<svg width="405" height="405" viewBox="0 0 405 405" fill="none" xmlns="http://www.w3.org/2000/svg">
<path d="M287.466 161.563C287.198 159.174 284.411 157.376 282.001 157.376C274.212 157.376 267.299 152.805 264.401 145.73C261.441 138.484 263.351 130.036 269.154 124.713C270.981 123.042 271.204 120.244 269.672 118.301C265.684 113.239 261.154 108.665 256.206 104.702C254.27 103.149 251.426 103.365 249.746 105.224C244.68 110.835 235.579 112.92 228.546 109.986C221.23 106.908 216.612 99.4921 217.066 91.5322C217.215 89.0303 215.386 86.8564 212.893 86.566C206.543 85.8308 200.137 85.8095 193.769 86.516C191.307 86.788 189.479 88.9105 189.561 91.3807C189.837 99.2627 185.167 106.548 177.921 109.516C170.973 112.354 161.935 110.285 156.879 104.723C155.208 102.891 152.414 102.666 150.465 104.186C145.371 108.183 140.739 112.759 136.714 117.781C135.146 119.733 135.377 122.562 137.221 124.239C143.138 129.597 145.046 138.118 141.974 145.448C139.04 152.436 131.785 156.938 123.479 156.938C120.784 156.851 118.866 158.662 118.568 161.113C117.821 167.496 117.813 174.004 118.532 180.44C118.8 182.84 121.67 184.622 124.106 184.622C131.51 184.434 138.613 189.014 141.597 196.268C144.567 203.513 142.655 211.958 136.843 217.289C135.025 218.96 134.792 221.751 136.327 223.691C140.275 228.722 144.809 233.299 149.772 237.296C151.72 238.865 154.554 238.645 156.242 236.784C161.329 231.159 170.428 229.078 177.432 232.018C184.77 235.088 189.385 242.503 188.935 250.465C188.787 252.967 190.62 255.148 193.105 255.432C196.354 255.812 199.621 256 202.897 256C206.007 256 209.118 255.83 212.229 255.484C214.693 255.212 216.518 253.087 216.435 250.616C216.15 242.738 220.83 235.452 228.067 232.49C235.062 229.633 244.059 231.724 249.118 237.278C250.798 239.106 253.576 239.328 255.533 237.814C260.617 233.827 265.241 229.253 269.283 224.218C270.853 222.27 270.63 219.438 268.777 217.758C262.86 212.403 260.942 203.878 264.015 196.555C266.902 189.662 273.888 185.033 281.402 185.033L282.453 185.061C284.893 185.259 287.134 183.38 287.429 180.892C288.18 174.502 288.188 168.001 287.466 161.563ZM203 220.004C175.935 220.004 153.996 198.065 153.996 171.001C153.996 143.937 175.936 121.998 203 121.998C230.064 121.998 252.004 143.937 252.004 171.001C252.004 180.187 249.471 188.779 245.072 196.127L223.615 174.669C225.168 171.006 225.989 167.035 225.988 162.937C225.988 154.913 222.863 147.369 217.188 141.696C211.514 136.022 203.97 132.898 195.947 132.898C193.269 132.898 190.604 133.253 188.026 133.956C186.897 134.264 185.973 135.194 185.672 136.326C185.365 137.483 185.711 138.669 186.616 139.574C186.616 139.574 197.209 150.249 200.754 153.792C201.125 154.164 201.124 155.05 201.072 155.369L201.039 155.602C200.682 159.498 199.993 164.176 199.424 165.973C199.348 166.049 199.276 166.113 199.198 166.191C199.116 166.272 199.041 166.351 198.963 166.432C197.142 167.016 192.392 167.713 188.434 168.068L188.435 168.046L188.257 168.091C188.225 168.095 188.166 168.099 188.088 168.099C187.66 168.099 187.031 167.979 186.459 167.408C182.77 163.719 172.592 153.614 172.592 153.614C171.679 152.704 170.742 152.512 170.118 152.512C168.663 152.512 167.36 153.564 166.95 155.072C164.148 165.44 167.118 176.593 174.703 184.179C180.378 189.853 187.923 192.977 195.948 192.977C200.046 192.977 204.016 192.158 207.678 190.604L229.369 212.294C221.754 217.167 212.711 220.004 203 220.004Z" fill="#FF9254"/>
<g clip-path="url(#clip0)">
<path d="M234.514 374.811C234.514 379.306 238.156 382.94 242.643 382.94H365.238C369.725 382.94 373.367 379.307 373.367 374.811V214.394C373.367 209.899 369.725 206.265 365.238 206.265C360.751 206.265 357.109 209.898 357.109 214.394V366.683H250.771V281.845C250.771 277.35 247.129 273.716 242.642 273.716H162.884C158.397 273.716 154.755 277.349 154.755 281.845V368.512H47.053V203.445C47.053 198.95 43.411 195.316 38.924 195.316C34.437 195.316 30.795 198.949 30.795 203.445V376.64C30.795 381.135 34.437 384.769 38.924 384.769H162.885C167.372 384.769 171.014 381.136 171.014 376.64V289.973H234.514V374.811Z" fill="#235197"/>
<path d="M401.15 178.904L206.487 21.21C203.536 18.812 199.326 18.78 196.343 21.145L3.101 173.377C-0.427005 176.157 -1.03601 181.262 1.74399 184.79C4.52399 188.31 9.64499 188.927 13.157 186.139L201.292 37.931L390.915 191.529C392.419 192.74 394.231 193.342 396.028 193.342C398.393 193.342 400.743 192.31 402.344 190.334C405.173 186.846 404.637 181.725 401.15 178.904Z" fill="#235197"/>
</g>
<defs>
<clipPath id="clip0">
<rect width="404.16" height="404.16" fill="white"/>
</clipPath>
</defs>
</svg>
