<svg width="400" height="400" viewBox="0 0 400 400" fill="none" xmlns="http://www.w3.org/2000/svg">
<path d="M129.724 85H270.931C282.928 85 292.655 94.7262 292.655 106.724V378.276C292.655 390.274 282.928 400 270.931 400H129.724C117.726 400 108 390.274 108 378.276V106.724C108 94.7262 117.726 85 129.724 85Z" fill="#235197"/>
<path d="M276.362 106.724V378.276C276.353 381.272 273.927 383.698 270.931 383.707H129.724C126.728 383.698 124.302 381.272 124.293 378.276V106.724C124.302 103.728 126.728 101.302 129.724 101.293H147.537C149.881 101.31 151.955 102.816 152.697 105.04L154.381 110.145C155.87 114.581 160.021 117.574 164.699 117.586H235.955C240.633 117.574 244.784 114.581 246.273 110.145L247.957 105.04C248.699 102.816 250.773 101.31 253.117 101.293H270.93C273.927 101.302 276.353 103.728 276.362 106.724Z" fill="#9BE5F9"/>
<path d="M227.483 106.724C226.038 106.738 224.648 106.17 223.627 105.149C222.606 104.128 222.038 102.738 222.052 101.293C222.072 99.8555 222.635 98.4779 223.627 97.437C225.804 95.427 229.161 95.427 231.339 97.437C233.439 99.5786 233.439 103.007 231.339 105.148C230.297 106.139 228.92 106.702 227.483 106.724Z" fill="#FF9254"/>
<path d="M146.017 120.302H135.155C133.655 120.302 132.44 119.086 132.44 117.586C132.44 116.086 133.655 114.87 135.155 114.87H146.017C147.517 114.87 148.733 116.086 148.733 117.586C148.733 119.086 147.517 120.302 146.017 120.302Z" fill="#2C3E50"/>
<path d="M265.5 120.302H254.638C253.138 120.302 251.922 119.086 251.922 117.586C251.922 116.086 253.138 114.87 254.638 114.87H265.5C267 114.87 268.216 116.086 268.216 117.586C268.216 119.086 267 120.302 265.5 120.302Z" fill="#2C3E50"/>
<path d="M213.416 144.253C207.225 161.632 202.825 184.008 211.135 202.473C214.61 210.187 218.527 217.695 222.866 224.958C225.202 228.922 227.591 232.887 229.981 236.906C243.739 258.308 254.879 281.282 263.165 305.338C266.152 314.027 268.813 323.097 271.148 332.439C273.05 340.151 274.787 347.428 276.362 354.217V369.424C275.072 369.422 273.961 368.515 273.7 367.252C271.637 357.476 268.975 346.179 265.88 333.742C263.761 325.433 261.372 317.341 258.819 309.52C251.107 311.746 218.521 322.935 184.143 359.54C187.122 367.218 188.988 375.284 189.682 383.491V383.708H184.251C183.487 375.426 181.511 367.302 178.385 359.595C164.645 324.836 131.679 299.799 124.292 294.476V288.448C124.832 288.431 125.363 288.583 125.813 288.882C127.442 289.968 164.971 315.44 181.915 354.054C216.457 317.992 248.337 306.858 257.081 304.361C248.942 281.706 238.304 260.03 225.364 239.731C223.3 236.364 221.345 233.051 219.444 229.738C205.158 236.194 189.664 239.544 173.986 239.568C156.81 239.504 139.854 235.705 124.293 228.435V222.732C124.705 222.744 125.11 222.836 125.487 223.003C154.144 236.903 187.433 237.637 216.674 225.013C212.825 218.422 209.309 211.643 206.138 204.701C196.036 182.162 203.097 154.898 210.809 135.835C210.83 135.739 210.867 135.647 210.918 135.564C213.42 129.416 216.267 123.415 219.444 117.587H225.255C225.257 118.042 225.145 118.49 224.929 118.891C221.715 124.652 218.849 130.601 216.348 136.704C220.149 147.458 237.691 190.363 276.361 200.573V206.058C276.138 206.076 275.914 206.038 275.709 205.95C239.159 196.771 220.314 160.709 213.416 144.253Z" fill="#BDC3C7"/>
</svg>
