<svg width="400" height="400" viewBox="0 0 400 400" fill="none" xmlns="http://www.w3.org/2000/svg">
<path d="M113.3 361.85V383.65C113.282 389.662 108.412 394.532 102.4 394.55H80.6C74.5875 394.532 69.718 389.662 69.7 383.65V361.85H113.3Z" fill="#607D8B"/>
<path d="M331.3 361.85V383.65C331.282 389.662 326.412 394.532 320.4 394.55H298.6C292.588 394.532 287.718 389.662 287.7 383.65V361.85H331.3Z" fill="#607D8B"/>
<path d="M314.95 361.85V383.65C314.932 389.662 310.062 394.532 304.05 394.55H298.6C292.588 394.532 287.718 389.662 287.7 383.65V361.85H314.95Z" fill="#607D8B"/>
<path d="M347.65 89.35V340.05H53.35V89.35C53.3679 83.3375 58.2375 78.468 64.25 78.45H336.75C342.762 78.468 347.632 83.3375 347.65 89.35Z" fill="#FF9254"/>
<path d="M331.3 89.35V340.05H53.35V89.35C53.3679 83.3375 58.2375 78.468 64.25 78.45H320.4C326.412 78.468 331.282 83.3375 331.3 89.35Z" fill="#FF9254"/>
<path d="M325.85 165.65H75.15V340.05H325.85V165.65Z" fill="#235197"/>
<path d="M325.85 182H75.15V340.05H325.85V182Z" fill="#607D8B"/>
<path d="M325.85 122.05H75.15V143.85H325.85V122.05Z" fill="#7F8E94"/>
<path d="M325.85 105.7V122.05H75.15V105.7C75.15 102.69 77.59 100.25 80.6 100.25H320.4C323.41 100.25 325.85 102.69 325.85 105.7Z" fill="#F5F5F5"/>
<path d="M156.9 274.65H102.4C99.39 274.65 96.95 277.09 96.95 280.1V334.6C96.95 337.61 99.39 340.05 102.4 340.05H156.9C159.91 340.05 162.35 337.61 162.35 334.6V280.1C162.35 277.09 159.91 274.65 156.9 274.65Z" fill="#91562D"/>
<path d="M136.604 299.927L130.871 297.06C130.102 296.675 129.198 296.675 128.429 297.06L122.696 299.927C121.851 300.35 120.847 300.306 120.043 299.81C119.239 299.313 118.75 298.436 118.75 297.491V274.65H140.55V297.491C140.55 298.436 140.061 299.313 139.257 299.81C138.453 300.306 137.449 300.35 136.604 299.927Z" fill="#C7D7E5"/>
<path d="M162.35 209.25H107.85C104.84 209.25 102.4 211.69 102.4 214.7V269.2C102.4 272.21 104.84 274.65 107.85 274.65H162.35C165.36 274.65 167.8 272.21 167.8 269.2V214.7C167.8 211.69 165.36 209.25 162.35 209.25Z" fill="#91562D"/>
<path d="M142.054 234.527L136.321 231.66C135.552 231.275 134.648 231.275 133.879 231.66L128.146 234.527C127.301 234.95 126.297 234.906 125.493 234.41C124.689 233.913 124.2 233.036 124.2 232.091V209.25H146V232.091C146 233.036 145.51 233.913 144.707 234.41C143.903 234.906 142.899 234.95 142.054 234.527Z" fill="#C7D7E5"/>
<path d="M298.6 274.65H244.1C241.09 274.65 238.65 277.09 238.65 280.1V334.6C238.65 337.61 241.09 340.05 244.1 340.05H298.6C301.61 340.05 304.05 337.61 304.05 334.6V280.1C304.05 277.09 301.61 274.65 298.6 274.65Z" fill="#91562D"/>
<path d="M278.304 299.927L272.571 297.06C271.802 296.675 270.898 296.675 270.129 297.06L264.396 299.927C263.551 300.35 262.547 300.306 261.743 299.81C260.939 299.313 260.45 298.436 260.45 297.491V274.65H282.25V297.491C282.25 298.436 281.761 299.313 280.957 299.81C280.153 300.306 279.149 300.35 278.304 299.927Z" fill="#C7D7E5"/>
<path d="M325.85 143.85H75.15V165.65H325.85V143.85Z" fill="#F5F5F5"/>
<path d="M309.5 122.05H75.15V143.85H309.5V122.05Z" fill="#7F8E94"/>
<path d="M309.5 105.7V122.05H75.15V105.7C75.15 102.69 77.59 100.25 80.6 100.25H304.05C307.06 100.25 309.5 102.69 309.5 105.7Z" fill="#F5F5F5"/>
<path d="M309.5 143.85H75.15V165.65H309.5V143.85Z" fill="#F5F5F5"/>
<path d="M358.55 350.95C358.505 356.951 353.651 361.805 347.65 361.85H53.35C47.3375 361.832 42.468 356.962 42.45 350.95C42.4346 348.058 43.5953 345.285 45.6655 343.266C47.6845 341.195 50.4583 340.035 53.35 340.05H347.65C353.662 340.068 358.532 344.938 358.55 350.95Z" fill="#607D8B"/>
<path d="M342.2 350.95C342.155 356.951 337.301 361.805 331.3 361.85H53.35C47.3375 361.832 42.468 356.962 42.45 350.95C42.4346 348.058 43.5953 345.285 45.6655 343.266C47.6845 341.195 50.4583 340.035 53.35 340.05H331.3C337.312 340.068 342.182 344.938 342.2 350.95Z" fill="#607D8B"/>
<path d="M347.65 367.3H53.35C44.3201 367.3 37 359.98 37 350.95C37 341.92 44.3201 334.6 53.35 334.6H347.65C356.68 334.6 364 341.92 364 350.95C364 359.98 356.68 367.3 347.65 367.3ZM53.35 345.5C50.34 345.5 47.9 347.94 47.9 350.95C47.9 353.96 50.34 356.4 53.35 356.4H347.65C350.66 356.4 353.1 353.96 353.1 350.95C353.1 347.94 350.66 345.5 347.65 345.5H53.35Z" fill="#235197"/>
<path d="M102.4 400H80.6C71.5701 400 64.25 392.68 64.25 383.65V361.85C64.25 358.84 66.69 356.4 69.7 356.4H113.3C116.31 356.4 118.75 358.84 118.75 361.85V383.65C118.75 392.68 111.43 400 102.4 400ZM75.15 367.3V383.65C75.15 386.66 77.59 389.1 80.6 389.1H102.4C105.41 389.1 107.85 386.66 107.85 383.65V367.3H75.15Z" fill="#235197"/>
<path d="M320.4 400H298.6C289.57 400 282.25 392.68 282.25 383.65V361.85C282.25 358.84 284.69 356.4 287.7 356.4H331.3C334.31 356.4 336.75 358.84 336.75 361.85V383.65C336.75 392.68 329.43 400 320.4 400ZM293.15 367.3V383.65C293.15 386.66 295.59 389.1 298.6 389.1H320.4C323.41 389.1 325.85 386.66 325.85 383.65V367.3H293.15Z" fill="#235197"/>
<path d="M347.65 345.5H53.35C50.34 345.5 47.9 343.06 47.9 340.05V89.35C47.9 80.3201 55.2201 73 64.25 73H336.75C345.78 73 353.1 80.3201 353.1 89.35V340.05C353.1 343.06 350.66 345.5 347.65 345.5ZM58.8 334.6H342.2V89.35C342.2 86.34 339.76 83.9 336.75 83.9H64.25C61.24 83.9 58.8 86.34 58.8 89.35V334.6Z" fill="#235197"/>
<path d="M325.85 345.5H75.15C72.14 345.5 69.7 343.06 69.7 340.05V105.7C69.7 99.6801 74.5801 94.8 80.6 94.8H320.4C326.42 94.8 331.3 99.6801 331.3 105.7V340.05C331.3 343.06 328.86 345.5 325.85 345.5ZM80.6 334.6H320.4V105.7H80.6V334.6Z" fill="#235197"/>
<path d="M325.85 127.5H75.15C72.14 127.5 69.7 125.06 69.7 122.05C69.7 119.04 72.14 116.6 75.15 116.6H325.85C328.86 116.6 331.3 119.04 331.3 122.05C331.3 125.06 328.86 127.5 325.85 127.5Z" fill="#235197"/>
<path d="M325.85 149.3H75.15C72.14 149.3 69.7 146.86 69.7 143.85C69.7 140.84 72.14 138.4 75.15 138.4H325.85C328.86 138.4 331.3 140.84 331.3 143.85C331.3 146.86 328.86 149.3 325.85 149.3Z" fill="#235197"/>
<path d="M325.85 171.1H75.15C72.14 171.1 69.7 168.66 69.7 165.65C69.7 162.64 72.14 160.2 75.15 160.2H325.85C328.86 160.2 331.3 162.64 331.3 165.65C331.3 168.66 328.86 171.1 325.85 171.1Z" fill="#235197"/>
<path d="M200.5 187.45C197.49 187.45 195.05 185.01 195.05 182V165.65C195.05 162.64 197.49 160.2 200.5 160.2C203.51 160.2 205.95 162.64 205.95 165.65V182C205.95 185.01 203.51 187.45 200.5 187.45Z" fill="#7F8E94"/>
<path d="M156.9 345.5H102.4C96.3801 345.5 91.5 340.62 91.5 334.6V280.1C91.5 274.08 96.3801 269.2 102.4 269.2H156.9C162.92 269.2 167.8 274.08 167.8 280.1V334.6C167.8 340.62 162.92 345.5 156.9 345.5ZM102.4 280.1V334.6H156.9V280.1H102.4Z" fill="#235197"/>
<path d="M140.55 307.35C139.707 307.359 138.873 307.173 138.114 306.805L129.65 302.543L121.186 306.778C119.496 307.622 117.49 307.531 115.883 306.538C114.277 305.544 113.299 303.789 113.3 301.9V274.65C113.3 271.64 115.74 269.2 118.75 269.2H140.55C143.56 269.2 146 271.64 146 274.65V301.9C146 304.91 143.56 307.35 140.55 307.35ZM129.65 291C130.493 290.991 131.327 291.177 132.086 291.545L135.1 293.055V280.1H124.2V293.082L127.214 291.572C127.971 291.195 128.805 290.999 129.65 291Z" fill="#235197"/>
<path d="M162.35 280.1H107.85C101.83 280.1 96.95 275.22 96.95 269.2V214.7C96.95 208.68 101.83 203.8 107.85 203.8H162.35C168.37 203.8 173.25 208.68 173.25 214.7V269.2C173.25 275.22 168.37 280.1 162.35 280.1ZM107.85 214.7V269.2H162.35V214.7H107.85Z" fill="#235197"/>
<path d="M146 241.95C145.155 241.951 144.321 241.755 143.564 241.378L135.1 237.143L126.636 241.378C124.946 242.222 122.94 242.131 121.333 241.138C119.727 240.144 118.749 238.389 118.75 236.5V209.25C118.75 206.24 121.19 203.8 124.2 203.8H146C149.01 203.8 151.45 206.24 151.45 209.25V236.5C151.45 239.51 149.01 241.95 146 241.95ZM135.1 225.6C135.945 225.599 136.779 225.795 137.536 226.172L140.55 227.682V214.7H129.65V227.682L132.664 226.172C133.421 225.795 134.255 225.599 135.1 225.6Z" fill="#235197"/>
<path d="M298.6 345.5H244.1C238.08 345.5 233.2 340.62 233.2 334.6V280.1C233.2 274.08 238.08 269.2 244.1 269.2H298.6C304.62 269.2 309.5 274.08 309.5 280.1V334.6C309.5 340.62 304.62 345.5 298.6 345.5ZM244.1 280.1V334.6H298.6V280.1H244.1Z" fill="#235197"/>
<path d="M282.25 307.35C281.407 307.359 280.573 307.173 279.814 306.805L271.35 302.543L262.886 306.778C261.196 307.622 259.19 307.531 257.583 306.538C255.977 305.544 254.999 303.789 255 301.9V274.65C255 271.64 257.44 269.2 260.45 269.2H282.25C285.26 269.2 287.7 271.64 287.7 274.65V301.9C287.7 304.91 285.26 307.35 282.25 307.35ZM271.35 291C272.193 290.991 273.027 291.177 273.786 291.545L276.8 293.055V280.1H265.9V293.082L268.914 291.572C269.671 291.195 270.505 290.999 271.35 291Z" fill="#235197"/>
</svg>
