<?xml version="1.0"?>
<svg xmlns="http://www.w3.org/2000/svg" xmlns:xlink="http://www.w3.org/1999/xlink" id="Layer_2" data-name="Layer 2" viewBox="0 0 128 128" width="512" height="512"><defs><linearGradient id="linear-gradient" x1="116.966" y1="138.071" x2="-10.071" y2="11.034" gradientUnits="userSpaceOnUse"><stop offset="0" stop-color="#ec7887"/><stop offset="1" stop-color="#f7d56b"/></linearGradient></defs><path d="M128,107.06v5.256a1.75,1.75,0,0,1-3.5,0V107.06a1.75,1.75,0,0,1,3.5,0Zm0-22.247v14a1.75,1.75,0,0,1-3.5,0V86.563H117v38h7.5v-4a1.75,1.75,0,0,1,3.5,0v5.75a1.75,1.75,0,0,1-1.75,1.75h-11a1.75,1.75,0,0,1-1.75-1.75v-4H87.968v4a1.75,1.75,0,0,1-1.75,1.75h-11a1.75,1.75,0,0,1-1.75-1.75v-4H57.5a51.768,51.768,0,0,1-49-35.106,1.75,1.75,0,0,1,3.313-1.129A48.268,48.268,0,0,0,57.5,118.813H73.468v-16.5H57.5a31.786,31.786,0,0,1-31.75-31.75V54.47H9.25V70.563a1.75,1.75,0,0,1-3.5,0V54.47h-4A1.75,1.75,0,0,1,0,52.72v-11a1.75,1.75,0,0,1,1.75-1.75h4V14.438h-4A1.75,1.75,0,0,1,0,12.688v-11A1.75,1.75,0,0,1,1.75-.062h41.5A1.75,1.75,0,0,1,45,1.688v11a1.75,1.75,0,0,1-1.75,1.75h-4V39.97h4A1.75,1.75,0,0,1,45,41.72v11a1.75,1.75,0,0,1-1.75,1.75h-4V70.563A18.27,18.27,0,0,0,57.5,88.813H73.468v-4a1.75,1.75,0,0,1,1.75-1.75h11a1.75,1.75,0,0,1,1.75,1.75v4H113.5v-4a1.75,1.75,0,0,1,1.75-1.75h11A1.75,1.75,0,0,1,128,84.813Zm-40.032,7.5v6.5H113.5v-6.5ZM35.75,14.438h-6.5V39.97h6.5ZM3.5,10.938h38v-7.5H3.5ZM9.25,39.97h16.5V14.438H9.25Zm28.25,11h4v-7.5H3.5v7.5h34ZM73.468,98.813v-6.5H57.5a21.774,21.774,0,0,1-21.75-21.75V54.47h-6.5V70.563A28.282,28.282,0,0,0,57.5,98.813Zm11,21.75v-34h-7.5v38h7.5Zm29.032-1.75v-16.5H87.968v16.5Z" style="fill:url(#linear-gradient)"/></svg>
