<svg width="400" height="400" viewBox="0 0 400 400" fill="none" xmlns="http://www.w3.org/2000/svg">
<path d="M360.58 393.155H206.468C202.702 393.155 199.649 390.102 199.649 386.335V345.421C199.649 341.654 202.702 338.601 206.468 338.601H360.58C364.347 338.601 367.4 341.654 367.4 345.421V386.335C367.4 390.102 364.347 393.155 360.58 393.155Z" fill="#C7D7E5"/>
<path d="M192.83 393.155H38.7173C34.9511 393.155 31.8982 390.102 31.8982 386.335V345.421C31.8982 341.654 34.9511 338.601 38.7173 338.601H192.83C196.596 338.601 199.649 341.654 199.649 345.421V386.335C199.649 390.102 196.596 393.155 192.83 393.155Z" fill="#C7D7E5"/>
<path d="M330.859 275.781H68.3594C60.8084 275.781 54.6875 269.685 54.6875 262.165V98.7723C54.6875 91.2522 60.8084 85.1562 68.3594 85.1562H330.859C338.41 85.1562 344.531 91.2522 344.531 98.7723V262.165C344.531 269.685 338.41 275.781 330.859 275.781Z" fill="#C9F3FF"/>
<path d="M360.577 332.031H206.43C203.944 332.031 201.619 332.708 199.609 333.87C197.6 332.708 195.275 332.031 192.789 332.031H38.6414C31.1195 332.031 25 338.129 25 345.625V386.406C25 393.902 31.1195 400 38.6414 400H192.789C195.275 400 197.6 399.323 199.609 398.161C201.619 399.323 203.944 400 206.43 400H360.577C368.099 400 374.219 393.902 374.219 386.406V345.625C374.219 338.129 368.099 332.031 360.577 332.031ZM38.6414 386.406V345.625H192.789V386.406H38.6414ZM360.577 386.406H206.43V345.625H360.577L360.586 386.406C360.586 386.405 360.584 386.406 360.577 386.406Z" fill="#FF9254"/>
<path d="M223.101 203C223.122 203 223.143 203 223.164 203C224.91 202.974 226.479 201.916 227.175 200.295L242.63 164.296C243.609 162.017 242.578 159.366 240.328 158.375C238.079 157.383 235.461 158.427 234.483 160.707L222.95 187.57L210.465 160.592C209.424 158.342 206.78 157.372 204.558 158.427C202.336 159.482 201.38 162.161 202.421 164.411L219.079 200.41C219.811 201.992 221.38 203 223.101 203Z" fill="#235197"/>
<path d="M174 203C176.565 203 178.646 200.985 178.646 198.5V167H185.355C187.92 167 190 164.985 190 162.5C190 160.015 187.92 158 185.355 158H162.645C160.08 158 158 160.015 158 162.5C158 164.985 160.08 167 162.645 167H169.355V198.5C169.355 200.985 171.435 203 174 203Z" fill="#235197"/>
<path d="M68.1905 282.812H105.839C109.619 282.812 112.684 279.757 112.684 275.989C112.684 272.221 109.619 269.166 105.839 269.166H68.1905C64.4163 269.166 61.3457 266.105 61.3457 262.343V196.801C61.7386 196.546 62.1123 196.248 62.4573 195.904L97.9438 160.532C100.617 157.867 100.617 153.547 97.9438 150.882C95.271 148.219 90.9382 148.218 88.2633 150.882L61.3457 177.714V98.5931C61.3457 94.8309 64.4163 91.7702 68.1905 91.7702H147.565L108.769 130.442C106.096 133.107 106.096 137.427 108.769 140.092C110.106 141.424 111.857 142.091 113.609 142.091C115.36 142.091 117.112 141.424 118.449 140.092L166.191 92.5016C166.423 92.271 166.627 92.024 166.818 91.7708H331.028C334.802 91.7708 337.873 94.8316 337.873 98.5938V262.344C337.873 266.106 334.802 269.167 331.028 269.167H241.044L296.459 213.928C299.132 211.264 299.132 206.944 296.459 204.279C293.785 201.615 289.453 201.615 286.778 204.279L221.683 269.167L105.839 269.166C102.06 269.166 97.9438 275.989 97.9438 275.989C97.9438 279.757 102.06 282.812 105.839 282.812L331.028 282.813C342.351 282.813 351.562 273.63 351.562 262.344V98.5938C351.562 87.3073 342.351 78.125 331.028 78.125H68.1905C56.8679 78.125 47.6562 87.3073 47.6562 98.5938V262.344C47.6562 273.63 56.8679 282.812 68.1905 282.812Z" fill="#235197"/>
<path d="M317.525 191.033L318.38 190.177C320.958 187.598 320.957 183.417 318.377 180.838C315.797 178.261 311.616 178.263 309.037 180.842L308.182 181.698C305.605 184.277 305.606 188.458 308.186 191.037C309.475 192.324 311.165 192.969 312.853 192.969C314.545 192.969 316.236 192.323 317.525 191.033Z" fill="#235197"/>
<path d="M283.203 359.375C281.457 359.375 279.743 360.086 278.508 361.321C277.273 362.556 276.562 364.269 276.562 366.016C276.562 367.762 277.272 369.475 278.508 370.711C279.743 371.945 281.457 372.656 283.203 372.656C284.95 372.656 286.663 371.946 287.897 370.711C289.133 369.475 289.844 367.762 289.844 366.016C289.844 364.269 289.133 362.556 287.897 361.321C286.663 360.086 284.95 359.375 283.203 359.375Z" fill="#3CAADC"/>
<path d="M116.016 359.375C114.269 359.375 112.556 360.086 111.321 361.321C110.086 362.556 109.375 364.269 109.375 366.016C109.375 367.762 110.085 369.475 111.321 370.711C112.556 371.945 114.269 372.656 116.016 372.656C117.762 372.656 119.475 371.946 120.71 370.711C121.945 369.475 122.656 367.762 122.656 366.016C122.656 364.269 121.946 362.556 120.71 361.321C119.475 360.086 117.762 359.375 116.016 359.375Z" fill="#3CAADC"/>
</svg>
