<svg xmlns="http://www.w3.org/2000/svg" width="83" height="10" viewBox="0 0 83 10">
    <g fill="#46475C" fill-rule="evenodd">
        <path d="M68.36.36c1.138 0 2.032.343 2.616.924.478.502.75 1.19.75 2.023 0 1.52-.893 2.432-2.162 2.803l2.448 3.502h-1.879L67.88 6.387h-1.968v3.225H64.32V.36zm-.13 1.48h-2.318v3.106h2.331c1.14 0 1.865-.608 1.865-1.573 0-.992-.7-1.533-1.878-1.533zM42.58.36c2.847 0 4.817 1.994 4.817 4.625 0 2.605-1.97 4.627-4.817 4.627h-3.382V.36zm0 1.48h-1.788v6.29h1.788c1.901 0 3.145-1.308 3.145-3.118v-.027c0-1.81-1.244-3.145-3.145-3.145zM12.988.36c1.138 0 2.033.343 2.616.924.478.502.75 1.19.75 2.023 0 1.52-.894 2.432-2.162 2.803l2.448 3.502h-1.878l-2.253-3.225h-1.97v3.225H8.949V.36zm-.13 1.48H10.54v3.106h2.331c1.14 0 1.865-.608 1.865-1.573 0-.992-.7-1.533-1.878-1.533zM52.837 0l4.797 9.612h-9.596L52.838 0zm-.01 3.258l-2.373 4.87h4.764l-2.39-4.87zM82.12 8.21c.39 0 .692.32.692.705 0 .39-.306.713-.696.713a.697.697 0 0 1-.693-.705c0-.39.307-.713.697-.713zm0 .07a.625.625 0 0 0-.624.64.621.621 0 1 0 1.243 0 .621.621 0 0 0-.619-.64z"/>
        <path d="M82.352 8.528c.151 0 .27.039.35.107.06.05.094.122.094.209 0 .166-.11.267-.268.305l.31.379h-.262l-.279-.346h-.24v.346h-.219v-1h.514zm-.01.17h-.285v.317h.285c.144 0 .228-.06.228-.156 0-.105-.084-.16-.228-.16zM34.378 4.978v4.634h1.594V.36h-1.594zM18.978 4.824v4.788h1.593V.36h-1.593zM0 9.612h1.592V5.845h5.153V4.366H1.592V1.84h5.155V.36H0zM75.966 8.158V5.672h5.127V4.218h-5.127V1.812h5.127V.36h-6.72v9.252h6.722V8.158zM27.668 5.7h2.316V7.43c-.555.423-1.333.7-2.187.7-1.852 0-3.082-1.4-3.082-3.304 0-1.798 1.268-3.291 2.939-3.291 1.153 0 1.838.383 2.538.99l1.01-1.23C30.27.491 29.297.042 27.719.042c-2.733 0-4.675 2.194-4.675 4.785 0 2.723 1.865 4.785 4.7 4.785 1.606 0 2.888-.66 3.782-1.442V4.284h-3.858v1.415zM59.494 4.978v4.634h1.593V.36h-1.593z"/>
    </g>
</svg>
