<svg xmlns="http://www.w3.org/2000/svg" width="152" height="20" viewBox="0 0 152 20">
    <g fill="#46475C" fill-rule="evenodd">
        <path d="M20 10c0-5.513-4.487-10-10-10S0 4.487 0 10c0 5.534 4.487 10 10 10s10-4.466 10-10zm-.477 0A9.517 9.517 0 0 1 10 19.523C4.736 19.523.47 15.263.47 10A9.53 9.53 0 0 1 10 .47c5.264 0 9.523 4.295 9.523 9.53zm-.606 0c0-3.162-1.61-6.432-5.07-7.479-.72-.22-1.326-.363-2.024-.363-1.602 0-1.66.912-2.407.912-.413 0-.691-.3-.691-.663 0-.633.748-1.132 1.937-1.132 1.111 0 1.966.278 2.13.356l.029-.078c-.3-.114-1.354-.477-2.821-.477-3.19 0-6.432 1.638-7.479 5.07-.22.72-.363 1.333-.363 2.024 0 1.61.912 1.688.912 2.435 0 .392-.3.67-.663.67-.634 0-1.132-.727-1.132-1.944 0-1.104.278-1.966.328-2.13l-.079-.029c-.085.335-.449 1.36-.449 2.828 0 3.212 1.639 6.453 5.072 7.507.72.221 1.332.356 2.023.356 1.61 0 1.66-.94 2.407-.94.392 0 .698.306.698.691 0 .613-.727 1.111-1.945 1.111-1.104 0-1.994-.278-2.13-.335l-.028.086c.307.135 1.36.441 2.828.441 3.184 0 6.453-1.61 7.479-5.07.22-.692.356-1.326.356-1.995 0-1.631-.912-1.688-.912-2.436 0-.413.278-.69.662-.69.641 0 1.14.747 1.14 1.965 0 1.083-.278 1.937-.335 2.13l.086.028c.107-.328.441-1.353.441-2.849zm-3.354 2.657c0 1.246-1.076 2.55-2.657 2.55-1.909 0-2.878-1.61-2.878-3.049 0-2.023 1.382-2.877 1.966-3.184a1 1 0 0 1-.278-.334c-.669.47-1.274.89-2.55 1.61-.056.883-.135 1.851-.363 2.52-.47 1.41-1.438 2.437-2.713 2.437-1.076 0-1.603-.777-1.603-1.61 0-.606.356-1.382.997-1.966.805-.72 1.688-1.16 2.906-1.802.029-.164.057-.328.086-.527-.306.278-.748.392-1.111.392-.577 0-1.054-.499-1.161-1.026-.777-.057-1.36-.612-1.39-1.496 0-.634.25-1.19.67-1.19.164 0 .221.136.221.25 0 .107-.142.47-.142.826 0 .364.17.834.612.834 0-1.439 1.054-3.298 2.3-3.298.827 0 .941.613.941.89 0 1.304-1.303 2.743-2.358 3.099.029.114.143.42.478.42.413 0 .911-.392 1.16-.698.107-.577.528-1.41 1.083-1.41.221 0 .328.163.328.363 0 .413-.442.94-.777 1.296-.05.278-.078.584-.078.833.969-.584 1.467-.883 2.187-1.41-.057-.192-.057-.42-.057-.64 0-1.297.862-2.743 1.994-2.743.641 0 .969.449.969.947 0 .94-.805 1.767-1.938 2.629.086.22.221.413.442.527.028-.057.392-.114.69-.114.336 0 .806.085.806.42 0 .384-.527.47-.94.47-.221.028-.584-.057-.584-.057-.606.164-1.774.862-1.774 2.628 0 1.197.748 2.3 1.916 2.3.883 0 1.603-.662 1.631-1.687 0-.663-.278-1.36-.94-1.36-.335 0-.634.249-.634.612-.029.555.385.612.385.969 0 .249-.193.363-.385.363-.556 0-.976-.556-.976-1.247 0-.833.727-1.524 1.667-1.524 1.218 0 1.852 1.054 1.852 2.187zm-2.045-6.98c0-.136-.028-.307-.199-.307-.413 0-1.075.89-1.075 2.023.826-.72 1.274-1.332 1.274-1.716zm-4.907-.114c0-.136-.078-.193-.192-.193-.584 0-1.41 1.525-1.41 2.436.911-.498 1.602-1.63 1.602-2.243zm-.328 5.185c-1.246.605-2.827 1.688-2.827 2.877 0 .442.22.72.634.72 1.218 0 1.966-1.938 2.193-3.597zM121.58 7c2.586 0 3.801.976 3.315 3.35l-.048.214h-2.783c.363-1.38 0-1.84-.847-1.84-1.21 0-1.573.92-1.937 2.989-.726 2.988-.605 3.563.484 3.563.8 0 1.385-.717 1.651-1.862l.044-.207h2.904c-.605 2.644-2.299 3.793-4.962 3.793-3.751 0-3.751-2.069-3.025-5.172C116.98 9.184 117.828 7 121.58 7zM61.666 7c3.703 0 3.661 2.206 2.971 5.214l-.044.189h-5.487c-.244 1.149-.61 2.873.61 2.873 1.04 0 1.422-.825 1.564-1.596l.021-.128h2.926c-.244 1.035-.854 1.954-1.585 2.529-.853.574-1.95.919-3.292.919-3.657 0-3.657-2.069-3.048-5.172C56.912 9.184 57.887 7 61.666 7zM73 7l-.444 2.471c-2.259-.228-2.644 1.087-2.767 2.132l-.011.103L68.666 17H66l2-9.882h2.556l-.334 1.294h.111C71 7.236 72 7 73 7zm39.632 0c3.681 0 3.756 2.206 2.96 5.214l-.05.189h-5.454c-.243 1.149-.606 2.873.605 2.873 1.034 0 1.414-.825 1.658-1.596l.04-.128h2.787c-.243 1.035-.728 1.954-1.576 2.529-.848.574-1.939.919-3.272.919-3.636 0-3.636-2.069-3.03-5.172.606-2.644 1.575-4.828 5.332-4.828zM33.186 3c2.907 0 4.341 1.503 3.637 4.194l-.058.21h-2.982c.357-1.243.357-2.372-1.194-2.372-1.908 0-2.385 2.372-2.981 5.08-.956 4.178-.717 4.969.954 4.969.496 0 .91-.079 1.311-.17l.24-.056.715-3.049h-1.67l.477-2.145h4.652l-1.55 6.888c-.835.225-2.983.451-4.175.451-5.01 0-5.13-1.92-3.937-7.113C27.34 6.5 28.295 3 33.185 3zm44.326 4c3.508 0 3.704 1.316 3.377 3.092l-.025.127-1.077 4.827c-.096.46-.192.92-.226 1.38l-.013.344h-2.635l.12-1.264C76.195 16.54 75.356 17 74.04 17c-1.916 0-2.275-1.379-1.916-3.103.7-3.138 3.108-3.325 5.67-3.226l.197.008.24-.805c.12-.805.12-1.379-.839-1.379-.902 0-1.166.61-1.394 1.353l-.043.14h-2.753c.24-1.264.838-1.953 1.556-2.413.718-.46 1.676-.575 2.754-.575zM42.601 7c3.807 0 3.766 2.208 2.964 5.218l-.05.185H40.05c-.242 1.149-.606 2.873.729 2.873.917 0 1.293-.82 1.536-1.59l.042-.134h2.914c-.365 1.035-.85 1.954-1.7 2.529-.85.574-1.942.919-3.278.919-3.642 0-3.642-2.069-2.913-5.172C37.867 9.184 38.838 7 42.6 7zm11.434 0c1.197 0 2.081.649 1.953 1.945l-.023.172L54.263 17h-2.61l1.362-6.823c.226-.824.226-1.53-.681-1.53-.748 0-1.093.626-1.226 1.386l-.023.144L49.61 17H47l2.043-9.882h2.61l-.227 1.059h.113c.34-.47.68-.824 1.135-.941C53.014 7 53.468 7 54.035 7zm94.567 0c2.53 0 3.856 1.035 3.254 3.564h-2.893c.362-1.38.12-1.84-.844-1.84-1.205 0-1.446.92-1.928 2.989-.602 2.988-.482 3.563.482 3.563s1.446-.804 1.808-2.069h2.772c-.603 2.644-2.29 3.793-4.941 3.793-3.616 0-3.616-2.069-3.013-5.172C143.9 9.184 144.866 7 148.602 7zM131.15 4l-.607 2.862H132l-.364 1.79h-1.457l-1.093 5.367c-.23.68-.351 1.144.47 1.188l.137.004h.486l-.364 1.67c-.364.119-.85.119-1.457.119-2.471 0-2.432-1.457-2.317-2.09l.01-.057 1.336-6.201h-1.214l.364-1.79h1.214l.365-1.55L131.15 4zM88 3l-3.061 14H82l3.183-14H88zm19 0l-3.184 14H101l3.061-14H107zm31 4l-.445 2.471c-2.258-.228-2.643 1.087-2.867 2.132l-.022.103-1 5.294H131l2-9.882h2.444l-.222 1.294C136 7.236 136.89 7 138 7zm-36-4l-.483 2.216H96.68l-.846 3.385h4.594l-.484 2.216h-4.594l-.846 4.083h5.078l-.484 2.1H91l3.022-14H102zm41.02 4.2l-2.204 9.8H138l2.204-9.8h2.816zm-68.142 6.582c-.12.69-.24 1.61.718 1.61 1.677 0 1.796-2.185 2.036-3.219-1.318 0-2.395-.116-2.754 1.609zm37.391-5.173c-1.278 0-1.665 1.373-1.801 2.195l-.017.105h2.545c.243-.92.606-2.3-.727-2.3zm-50.968 0c-1.286 0-1.675 1.373-1.812 2.195l-.017.105h2.56c.244-.92.61-2.3-.73-2.3zm-19.064 0c-1.28 0-1.556 1.373-1.791 2.195l-.03.105h2.67c.121-.92.486-2.3-.85-2.3zM144 3l-.49 2.216h-2.938l.49-2.216H144z"/>
    </g>
</svg>
