<svg xmlns="http://www.w3.org/2000/svg" width="40" height="20" viewBox="0 0 40 20">
    <g fill="none" fill-rule="evenodd">
        <path fill="#46475C" d="M23.333 5.556h2.682v7.08H30V15h-6.667zM37.557 13.539c-.5.752-1.426 1.179-2.58 1.179-2.484 0-4.103-1.96-4.103-4.987 0-3.07 1.82-4.962 4.835-4.962 1.202 0 2.229.319 3.023.919.801.628 1.098 1.246 1.227 2.495h-2.955c-.08-.73-.632-1.198-1.359-1.198-1.142 0-1.81 1.045-1.81 2.784 0 1.764.694 2.823 1.86 2.823.92 0 1.452-.506 1.67-1.638h-1.823V8.961h4.417v5.521h-2.402v-.943M9.79 19.444c5.415 0 9.802-4.34 9.802-9.7 0-5.362-4.387-9.702-9.803-9.702C4.386.042 0 4.382 0 9.743c0 5.36 4.386 9.701 9.79 9.701"/>
        <path fill="#FEFEFE" d="M9.405 5.486v8.504h2.731v-.76h-1.948V5.486zM6.666 7.806a1.17 1.17 0 0 0 1.177-1.16c0-.645-.528-1.165-1.177-1.165a1.17 1.17 0 0 0-1.173 1.165c0 .64.528 1.16 1.173 1.16"/>
        <path fill="#FEFEFE" d="M10.188 1.624c-.103-.004-.3-.005-.399-.005-4.516 0-8.193 3.642-8.193 8.121 0 2.171.854 4.209 2.402 5.744a8.172 8.172 0 0 0 5.791 2.378 8.184 8.184 0 0 0 5.806-2.378 8.038 8.038 0 0 0 2.401-5.744v-.368l-.322.001h-5.532v.752h5.075c-.001.017-.002.096-.004.112-.26 3.829-3.486 6.869-7.42 6.869a7.433 7.433 0 0 1-5.257-2.162A7.273 7.273 0 0 1 2.36 9.74c0-1.967.774-3.82 2.176-5.205a7.447 7.447 0 0 1 5.257-2.156c.086 0 .301 0 .395.003v-.758"/>
    </g>
</svg>
