<svg xmlns="http://www.w3.org/2000/svg" width="82" height="20" viewBox="0 0 82 20">
    <g fill="none" fill-rule="evenodd">
        <path fill="#FFFFFE" d="M23.017 16.72a3.16 3.16 0 0 1-3.158 3.159H3.308C1.457 19.879.04 18.463.04 16.72V3.327C.04 1.585 1.457.17 3.308.17h16.551a3.16 3.16 0 0 1 3.158 3.158v13.394"/>
        <path fill="#46475C" d="M81.274 6.05v2.613c0 .109-.217.109-.327 0-.435-.653-.217-1.525-.98-1.96-.98-.545-2.504-.545-3.375.217-1.525 1.307-1.634 3.594-1.198 5.554.218.98.98 2.069 2.069 2.287.544.109 1.089.218 1.524-.11.218-.87.11-1.85.11-2.721a.819.819 0 0 0-.545-.763c-.327-.108-.762.11-1.089-.217-.11-.327.109-.436.327-.436h3.593v4.465c-.544.435-1.306.435-1.96.544-1.96 0-4.138.109-5.553-1.416-1.198-1.415-1.416-3.593-.872-5.335.872-2.178 3.05-3.158 5.336-3.05 1.089 0 1.96.11 2.94.328M52.636 5.94c.109.11 0 .218-.109.327-.11.11-.545.11-.545.436.436 1.197 1.09 2.177 1.634 3.267 0 0 1.524-2.832 2.395-4.03h7.732l.98 1.96c0 .11 0 .327-.218.327-.327 0-.545-.762-.762-.98-.654-.87-1.743-.87-2.723-.762v7.405c0 .326 0 .544.327.762.326.109.762.218.98.327.11.218 0 .435-.218.435h-4.573a.331.331 0 0 1 0-.435c.327-.218.98 0 1.197-.545.218-.327.218-.653.218-.653V6.594c-.653-.327-1.306-.11-1.85-.11-1.308.872-1.961 2.723-2.723 4.248-.109 1.198-.218 2.613 0 3.811.218.436 1.307.109.98.87h-4.682c-.109 0-.109-.216-.109-.216.218-.654 1.089-.11 1.306-.763.11-.98.11-1.851 0-2.831l-2.177-4.465c-.218-.544-.763-.653-1.307-.87-.109-.218 0-.328.218-.328h4.029M25.63 19.879c-.98 0-1.85-.762-1.85-1.852 0-1.088.87-1.85 1.85-1.85.98 0 1.852.762 1.852 1.85 0 1.09-.872 1.852-1.851 1.852zm-1.524-1.852c0 .872.654 1.525 1.525 1.525.87 0 1.524-.653 1.524-1.525 0-.87-.653-1.524-1.524-1.524s-1.525.654-1.525 1.524z"/>
        <path fill="#46475C" d="M25.195 18.137h.436l.544.98h.327l-.545-.98c.327 0 .545-.218.545-.545 0-.435-.327-.653-.762-.653h-.763v2.178h.218v-.98zm0-.218v-.654h.436c.217 0 .544 0 .544.327s-.327.327-.544.327h-.436zM44.904 11.276H42.4s.762-2.613 1.198-3.92l1.306 3.92zM29.66 5.94l3.266 5.663 3.158-5.663h3.158c.109.654-.871.436-.98.98 0 2.178 0 4.9.109 7.079 0 .326.218.87.762.87.436 0 .98-.108 1.198-.544.871-2.395 1.742-4.682 2.505-7.078.108-.327-.11-.87-.436-.87-.545 0-.436-.437-.436-.437h3.594s1.85 5.772 2.94 8.494c.218.653 1.198.109 1.089.98h-4.465c-.109-.109-.109-.217-.109-.435.218-.327.871 0 .98-.545-.217-.762-.762-2.396-.762-2.396h-3.049l-.762 2.396c-.11.545 1.198.327 1.089.98h-7.514c-.218-.109-.218-.217-.108-.435.326-.218.762 0 .98-.436 0 0 .217-.218.217-.762 0-1.851.109-3.92-.109-5.88l-3.484 6.969c-.218.109-.436.109-.762 0-.98-2.287-2.178-4.465-3.376-6.752-.327 1.96-.327 4.03-.327 5.99 0 .762.762.653 1.198.87.218 0 .109.327.109.436h-3.485v-.435c.545-.11.98-.327 1.09-.763.217-2.178.435-4.464.544-6.642 0-.436-.109-.98-.545-1.09-.217-.108-.762-.108-.653-.434l.109-.11h3.267zM68.86 11.276h-2.504l1.198-3.92 1.306 3.92zm3.485 2.94c.218.871 1.416.327 1.198 1.198h-4.465c-.108-.109-.218-.217-.108-.435.217-.327 1.088-.11.98-.545l-.763-2.396h-3.049l-.762 2.396c-.109.653 1.198.109.98.98H62.98a.33.33 0 0 1 0-.435c.436-.11 1.198-.11 1.416-.763l2.396-6.86c0-.326.108-.544-.11-.762-.217-.327-.762-.327-.762-.654h3.594l2.831 8.276zM.04 6.376s0-1.089 1.308-1.089c1.415 0 2.069 1.633 2.069 1.633L6.466 14s.326.762.871 1.088c.544.327 1.524.327 1.524.327h1.96s-.326-.327-.653-.762a6.46 6.46 0 0 1-.545-.871L6.357 6.158s-.436-.871-1.09-1.198c-.544-.326-1.306-.326-1.306-.326h-1.96s-1.089 0-1.415-.218C.04 4.09.04 3.327.04 3.327.04 1.585 1.457.17 3.308.17h16.551a3.16 3.16 0 0 1 3.158 3.158V13.89s0 .87-1.197.87c-1.525 0-1.96-1.197-1.96-1.197l-3.158-7.405s-.436-.871-1.09-1.198c-.653-.326-1.415-.326-1.415-.326h-1.851s.435.544.762.87c.218.328.435.98.435.98L16.702 14s.435.762.98 1.088c.544.327 1.524.327 1.524.327h1.96s.871-.109 1.307.218c.653.435.544 1.089.544 1.089a3.16 3.16 0 0 1-3.158 3.158H3.308C1.457 19.879.04 18.463.04 16.72V6.376"/>
        <path fill="#FFFFFE" d="M7.228 4.634h1.96s.762 0 1.415.326c.545.327.98 1.198.98 1.198l3.267 7.623s.218.435.545.87c.326.436.653.763.653.763h-1.96s-.98 0-1.525-.327c-.544-.326-.87-1.088-.87-1.088L8.535 6.485s-.218-.653-.545-.98c-.218-.327-.762-.871-.762-.871"/>
    </g>
</svg>
