<svg xmlns="http://www.w3.org/2000/svg" width="101" height="15" viewBox="0 0 101 15">
    <g fill="#46475C" fill-rule="evenodd">
        <path d="M54.919 6.81s-.975-.604-1.578-.836c0 0-1.865-.865-2.235-1.276 0 0-.726-.685-.3-1.48 0 0 .177-.521.945-.521 0 0 1 .055 1 .877v1.16h3.584l-.006-1.709S56.604.23 52.107.106c0 0-3.537-.232-4.551 1.673 0 0-.398.424-.398 1.905v1.069s-.04 1.234.59 2.028c0 0 .356.522 1.234 1.096 0 0 1.781.96 2.85 1.51 0 0 1.08.616.938 1.596 0 0-.087 1.006-1.13.966 0 0-.954-.044-.954-1.03v-1.16h-3.818v1.685s-.107 3.218 4.8 3.218c0 0 4.688.095 4.908-3.304v-1.37s.165-2.083-1.657-3.179M36.571.507l-1.2 7.52h-.28L33.945.574h-5.987l-.3 13.617h3.545l.042-10.26h.279l1.878 10.259h3.73l1.855-10.255h.247l.086 10.256h3.562L42.5.507H36.57M15.473.563l-2.36 13.614h3.817L18.326 3.62h.314l1.397 10.556h3.815L21.495.563h-6.022M95.536 6.622V8.63h.979v2.155c0 1.054-.9 1.074-.9 1.074-1.096 0-1.055-1.002-1.055-1.002V3.401c0-.769.972-.81.972-.81.933 0 .94.917.94.917v1.134h3.592c.117-2.213-.324-2.75-.324-2.75-.89-2-4.262-1.89-4.262-1.89-5.18 0-4.606 3.974-4.606 3.974v7.21c.111 3.728 5.216 3.35 5.302 3.344 2.271-.25 2.957-.971 2.957-.971.632-.47.794-1.119.794-1.119.18-.378.226-1.583.226-1.583V6.622h-4.615M83.628 8.837h-.156L79.825.51h-4.36v13.684h3.549l-.212-8.327h.158l3.776 8.327h4.231V.509h-3.594l.255 8.328M66.798 10.784s.052 1.123-.99 1.123c0 0-1.095.058-1.095-1.095L64.703.52h-3.894V10.73s-.4 3.865 5.054 3.865c0 0 4.74.056 4.74-3.688V.52h-3.805v10.265M8.049 6.809s-.973-.603-1.576-.835c0 0-1.864-.864-2.233-1.276 0 0-.727-.686-.302-1.48 0 0 .177-.52.945-.52 0 0 1 .054 1 .876v1.16h3.585l-.007-1.71S9.735.23 5.24.107c0 0-.339-.022-.835.003 0 0-2.724.146-3.697 1.64-.005.01-.013.02-.02.03 0 0-.397.424-.397 1.905v1.069s-.04 1.233.59 2.028c0 0 .356.522 1.234 1.096 0 0 1.78.96 2.85 1.508 0 0 1.08.617.938 1.598 0 0-.088 1.006-1.13.966 0 0-.953-.044-.953-1.03v-1.16H0v1.685s-.106 3.218 4.8 3.218c0 0 4.688.095 4.908-3.304v-1.37s.165-2.083-1.66-3.18"/>
    </g>
</svg>
