<svg xmlns="http://www.w3.org/2000/svg" width="65" height="22" viewBox="0 0 65 22">
    <g fill="#46475C" fill-rule="evenodd">
        <path d="M15.2 2.601l-3.314 12H9.96L7.617 5.885 5.24 14.6H3.314L0 2.601h1.909l2.36 8.717L6.645 2.6h1.893l2.394 8.717 2.36-8.717H15.2M16 2.76l1.856-.159V5.61l-.033 1.125h.067c.86-.334 1.552-.493 2.396-.493 1.502 0 2.514.705 2.514 3.395v5.365h-1.856V9.794c0-1.617-.759-1.828-1.62-1.828-.54 0-.995.123-1.468.263v6.772H16V2.76M24.8 14.601h2v-8.4h-2zM25.591 3.001c1.044 0 1.209.562 1.209 1.192 0 .63-.22 1.208-1.209 1.208-.99 0-1.191-.579-1.191-1.208 0-.63.183-1.192 1.191-1.192zM28.4 6.326h1.294l.26.706h.12c.5-.441 1.294-.83 2.33-.83.12 0 .258 0 .396.017v1.909a7.125 7.125 0 0 0-1.07-.107c-.518 0-.932.124-1.432.354V15H28.4V6.326M33.2 15.001V2.76l2-.158v12.4h-2M49.043 6.201c2.713 0 3.757 1.594 3.757 4.417 0 2.65-.973 4.383-3.792 4.383-2.816 0-3.808-1.732-3.808-4.383 0-2.823 1.13-4.417 3.843-4.417zm.018 1.49c-1.548 0-1.93 1.265-1.93 2.927 0 1.542.312 2.876 1.844 2.876 1.53 0 1.877-1.265 1.877-2.876 0-1.61-.26-2.927-1.791-2.927zM57.444 6.201c2.713 0 3.756 1.594 3.756 4.417 0 2.65-.974 4.383-3.791 4.383S53.6 13.27 53.6 10.618c0-2.823 1.13-4.417 3.844-4.417zm.017 1.49c-1.547 0-1.93 1.265-1.93 2.927 0 1.542.312 2.876 1.843 2.876 1.53 0 1.878-1.265 1.878-2.876 0-1.61-.261-2.927-1.79-2.927zM62.4 15.001V2.76l2-.158v12.4h-2M38.713 13.319c.539.017.836.034 1.392.034 1.182 0 1.965-.629 1.965-3.13 0-1.714-.696-2.168-1.948-2.168-.487 0-.939.087-1.409.245v5.019zM36.8 6.324h1.444l.156.63c.574-.316 1.634-.753 2.592-.753C42.73 6.201 44 7.478 44 10.537c0 3.009-1.34 4.495-3.565 4.495-.82 0-1.722-.175-1.722-.175v3.934l-1.913.21V6.324z"/>
        <path d="M46.363.887c-1.416-1.664-5.907-.201-10.92 3.318v.887C39.858 1.91 43.749.44 44.863 1.75c1.392 1.636-2.07 6.986-7.732 11.943-5.664 4.959-11.385 7.646-12.776 6.01-.723-.849-.134-2.7 1.39-4.978h-.886c-1.888 2.857-2.595 5.256-1.626 6.396C25 23.2 31.61 20.356 37.996 14.767 44.381 9.177 48.13 2.964 46.363.887"/>
    </g>
</svg>
